<?xml version="1.0" encoding="UTF-8"?>
<svg width="40px" height="40px" viewBox="0 0 40 40" version="1.1" xmlns="http://www.w3.org/2000/svg" xmlns:xlink="http://www.w3.org/1999/xlink">
    <!-- Generator: Sketch 48.2 (47327) - http://www.bohemiancoding.com/sketch -->
    <title>accounting</title>
    <desc>Created with Sketch.</desc>
    <defs></defs>
    <g id="Home_valor" stroke="none" stroke-width="1" fill="none" fill-rule="evenodd" transform="translate(-509.000000, -965.000000)">
        <g id="to_calc" transform="translate(136.000000, 942.000000)" fill="#4E6E82" fill-rule="nonzero">
            <g id="accounting" transform="translate(373.000000, 23.000000)">
                <path d="M39.3333333,13.3333333 L19.3333333,13.3333333 C18.9333333,13.3333333 18.6666667,13.6 18.6666667,14 L18.6666667,39.3333333 C18.6666667,39.7333333 18.9333333,40 19.3333333,40 L39.3333333,40 C39.7333333,40 40,39.7333333 40,39.3333333 L40,14 C40,13.6 39.7333333,13.3333333 39.3333333,13.3333333 Z M38.6666667,14.6666667 L38.6666667,18.6666667 L20,18.6666667 C20,18.2666667 20,17.6 20,17.3333333 L28,17.3333333 L28,16 L20,16 C20,15.8666667 20,14.6666667 20,14.6666667 L38.6666667,14.6666667 Z M20,38.6666667 C20,38.6666667 20,26.4666667 20,20 L38.6666667,20 L38.6666667,38.6666667 L20,38.6666667 Z" id="Shape"></path>
                <rect id="Rectangle-path" x="23.3333333" y="21.3333333" width="2" height="1.33333333"></rect>
                <rect id="Rectangle-path" x="26.6666667" y="21.3333333" width="2" height="1.33333333"></rect>
                <rect id="Rectangle-path" x="30" y="21.3333333" width="2" height="1.33333333"></rect>
                <rect id="Rectangle-path" x="33.3333333" y="21.3333333" width="2" height="1.33333333"></rect>
                <rect id="Rectangle-path" x="22" y="24.6666667" width="2.66666667" height="1.33333333"></rect>
                <rect id="Rectangle-path" x="26" y="24.6666667" width="2.66666667" height="1.33333333"></rect>
                <rect id="Rectangle-path" x="30" y="24.6666667" width="2.66666667" height="1.33333333"></rect>
                <rect id="Rectangle-path" x="34" y="24.6666667" width="2.66666667" height="1.33333333"></rect>
                <rect id="Rectangle-path" x="22" y="27.3333333" width="2.66666667" height="1.33333333"></rect>
                <rect id="Rectangle-path" x="26" y="27.3333333" width="2.66666667" height="1.33333333"></rect>
                <rect id="Rectangle-path" x="30" y="27.3333333" width="2.66666667" height="1.33333333"></rect>
                <rect id="Rectangle-path" x="34" y="27.3333333" width="2.66666667" height="1.33333333"></rect>
                <rect id="Rectangle-path" x="22" y="30" width="2.66666667" height="1.33333333"></rect>
                <rect id="Rectangle-path" x="26" y="30" width="2.66666667" height="1.33333333"></rect>
                <rect id="Rectangle-path" x="30" y="30" width="2.66666667" height="1.33333333"></rect>
                <rect id="Rectangle-path" x="34" y="30" width="2.66666667" height="1.33333333"></rect>
                <rect id="Rectangle-path" x="22" y="32.6666667" width="2.66666667" height="1.33333333"></rect>
                <rect id="Rectangle-path" x="26" y="32.6666667" width="2.66666667" height="1.33333333"></rect>
                <rect id="Rectangle-path" x="30" y="32.6666667" width="2.66666667" height="1.33333333"></rect>
                <rect id="Rectangle-path" x="34" y="32.6666667" width="2.66666667" height="1.33333333"></rect>
                <rect id="Rectangle-path" x="22" y="35.3333333" width="2.66666667" height="1.33333333"></rect>
                <rect id="Rectangle-path" x="26" y="35.3333333" width="2.66666667" height="1.33333333"></rect>
                <rect id="Rectangle-path" x="30" y="35.3333333" width="2.66666667" height="1.33333333"></rect>
                <rect id="Rectangle-path" x="34" y="35.3333333" width="2.66666667" height="1.33333333"></rect>
                <path d="M1.33333333,9.33333333 L8.66666667,9.33333333 C9.06666667,9.33333333 9.33333333,9.06666667 9.33333333,8.66666667 L9.33333333,1.33333333 L32,1.33333333 L32,10.6666667 L33.3333333,10.6666667 L33.3333333,0.666666667 C33.3333333,0.266666667 33.0666667,0 32.6666667,0 L8.66666667,0 C8.6,0 8.53333333,0 8.46666667,0.0666666667 L8.4,0.0666666667 C8.33333333,0.133333333 8.26666667,0.133333333 8.2,0.2 L0.2,8.2 C0.133333333,8.26666667 0.133333333,8.33333333 0.0666666667,8.4 L0.0666666667,8.46666667 C0.0666666667,8.53333333 0,8.6 0,8.66666667 L0,16 L1.33333333,16 C1.33333333,16 1.33333333,10.0666667 1.33333333,9.33333333 Z M8,8 L2.26666667,8 L5.13333333,5.13333333 L8,2.26666667 L8,8 Z" id="Shape"></path>
                <path d="M16.6666667,28.6666667 L9.33333333,28.6666667 L9.33333333,26 L9.33333333,22.6666667 L9.33333333,19.3333333 C9.33333333,18.9333333 9.06666667,18.6666667 8.66666667,18.6666667 L0.666666667,18.6666667 C0.266666667,18.6666667 0,18.9333333 0,19.3333333 L0,22.6666667 L0,26 L0,29.3333333 L0,32.6666667 L0,36 L0,39.3333333 C0,39.7333333 0.266666667,40 0.666666667,40 L8.66666667,40 L16.6666667,40 C17.0666667,40 17.3333333,39.7333333 17.3333333,39.3333333 L17.3333333,36 L17.3333333,32.6666667 L17.3333333,29.3333333 C17.3333333,28.9333333 17.0666667,28.6666667 16.6666667,28.6666667 Z M1.33333333,30 L8,30 L8,32 L1.33333333,32 L1.33333333,30 Z M8,28.6666667 L1.33333333,28.6666667 L1.33333333,26.6666667 L8,26.6666667 L8,28.6666667 Z M8,25.3333333 L1.33333333,25.3333333 L1.33333333,23.3333333 L8,23.3333333 L8,25.3333333 Z M1.33333333,33.3333333 L8,33.3333333 L8,35.3333333 L1.33333333,35.3333333 L1.33333333,33.3333333 Z M9.33333333,33.3333333 L16,33.3333333 L16,35.3333333 L9.33333333,35.3333333 L9.33333333,33.3333333 Z M16,32 L9.33333333,32 L9.33333333,30 L16,30 L16,32 Z M1.33333333,20 L8,20 L8,22 L1.33333333,22 L1.33333333,20 Z M1.33333333,36.6666667 L8,36.6666667 L8,38.6666667 L1.33333333,38.6666667 L1.33333333,36.6666667 Z M16,38.6666667 L9.33333333,38.6666667 L9.33333333,36.6666667 L16,36.6666667 L16,38.6666667 Z" id="Shape"></path>
                <rect id="Rectangle-path" x="25.3333333" y="3.33333333" width="4.66666667" height="1.33333333"></rect>
                <rect id="Rectangle-path" x="18" y="6.66666667" width="12" height="1.33333333"></rect>
                <rect id="Rectangle-path" x="29.3333333" y="16" width="2" height="1.33333333"></rect>
            </g>
        </g>
    </g>
</svg>