<?xml version="1.0" encoding="UTF-8"?>
<svg width="17px" height="17px" viewBox="0 0 17 17" version="1.1" xmlns="http://www.w3.org/2000/svg" xmlns:xlink="http://www.w3.org/1999/xlink">
    <!-- Generator: Sketch 49.2 (51160) - http://www.bohemiancoding.com/sketch -->
    <title>add (1)</title>
    <desc>Created with Sketch.</desc>
    <defs></defs>
    <g id="Page-1" stroke="none" stroke-width="1" fill="none" fill-rule="evenodd">
        <g id="Home_valor" transform="translate(-422.000000, -1122.000000)" fill="#EB0029" fill-rule="nonzero">
            <g id="Group-10" transform="translate(422.000000, 1121.000000)">
                <g id="add-(1)" transform="translate(0.000000, 1.000000)">
                    <path d="M16.99182,15.6646217 L16.99182,0.404907975 C16.99182,0.1799591 16.8118609,0 16.5869121,0 L1.32719836,0 C1.10224949,0 0.922290389,0.1799591 0.922290389,0.404907975 L0.922290389,15.6646217 C0.922290389,15.8895706 1.10224949,16.0695297 1.32719836,16.0695297 L16.5869121,16.0695297 C16.8118609,16.0695297 16.99182,15.8895706 16.99182,15.6646217 Z M16.1820041,15.2597137 L1.73210634,15.2597137 L1.73210634,0.809815951 L16.1820041,0.809815951 L16.1820041,15.2597137 Z" id="Shape"></path>
                    <path d="M5.66257669,8.43762781 L8.55419223,8.43762781 L8.55419223,11.3292434 C8.55419223,11.5541922 8.73415133,11.7341513 8.9591002,11.7341513 C9.18404908,11.7341513 9.36400818,11.5541922 9.36400818,11.3292434 L9.36400818,8.43762781 L12.2556237,8.43762781 C12.4805726,8.43762781 12.6605317,8.25766871 12.6605317,8.03271984 C12.6605317,7.80777096 12.4805726,7.62781186 12.2556237,7.62781186 L9.36400818,7.62781186 L9.36400818,4.73619632 C9.36400818,4.51124744 9.18404908,4.33128834 8.9591002,4.33128834 C8.73415133,4.33128834 8.55419223,4.51124744 8.55419223,4.73619632 L8.55419223,7.62781186 L5.66257669,7.62781186 C5.43762781,7.62781186 5.25766871,7.80777096 5.25766871,8.03271984 C5.25766871,8.25766871 5.43762781,8.43762781 5.66257669,8.43762781 Z" id="Shape"></path>
                </g>
            </g>
        </g>
    </g>
</svg>