<?xml version="1.0" encoding="UTF-8"?>
<svg width="40px" height="41px" viewBox="0 0 40 41" version="1.1" xmlns="http://www.w3.org/2000/svg" xmlns:xlink="http://www.w3.org/1999/xlink">
    <!-- Generator: Sketch 48.2 (47327) - http://www.bohemiancoding.com/sketch -->
    <title>airplane</title>
    <desc>Created with Sketch.</desc>
    <defs></defs>
    <g id="Datos_Clínicos" stroke="none" stroke-width="1" fill="none" fill-rule="evenodd" transform="translate(-617.000000, -1300.000000)">
        <g id="datos-personales-copy" transform="translate(99.000000, 658.000000)" fill-rule="nonzero">
            <g id="datos-personales" transform="translate(36.000000, 40.000000)">
                <g id="Group-5-Copy-7" transform="translate(482.000000, 602.000000)">
                    <g id="airplane">
                        <g id="Group" transform="translate(13.125000, 2.578125)" fill="#66757F">
                            <path d="M20.7210156,23.9222656 C20.2747656,24.3696094 19.5535156,24.3696094 19.1073437,23.9222656 L17.4936719,22.3085937 C17.0463281,21.8623437 17.0463281,21.14 17.4936719,20.6949219 L20.7211719,17.4674219 C21.1674219,17.0211719 21.8886719,17.0211719 22.3348437,17.4674219 L23.9485156,19.0810937 C24.3958594,19.5261719 24.3958594,20.2485937 23.9485156,20.6947656 L20.7210156,23.9222656 Z" id="Shape"></path>
                            <path d="M3.6021875,6.80375 C3.1559375,7.25109375 2.4346875,7.25109375 1.98851563,6.80375 L0.37484375,5.19007812 C-0.0725,4.74382812 -0.0725,4.02148438 0.37484375,3.57640625 L3.60234375,0.34890625 C4.04859375,-0.09734375 4.76984375,-0.09734375 5.21601563,0.34890625 L6.8296875,1.96257812 C7.27703125,2.40765625 7.27703125,3.13007812 6.8296875,3.57625 L3.6021875,6.80375 Z" id="Shape"></path>
                        </g>
                        <g id="Group" transform="translate(0.000000, 6.171875)" fill="#55ACEE">
                            <path d="M1.89085938,18.2421875 C4.17335938,18.2421875 14.4446875,19.3834375 14.4446875,19.3834375 C14.4446875,19.3834375 15.5859375,29.6546875 15.5859375,31.9371875 C15.5859375,34.2196875 13.3034375,34.2196875 12.1621875,33.0784375 C11.0209375,31.9371875 7.5971875,26.2309375 7.5971875,26.2309375 C7.5971875,26.2309375 1.8909375,22.8071875 0.7496875,21.6659375 C-0.3915625,20.5246875 -0.391640625,18.2421875 1.89085938,18.2421875" id="Shape"></path>
                            <path d="M4.1728125,0.026171875 C7.5965625,-0.01828125 32.7041406,1.12296875 32.7041406,1.12296875 C32.7041406,1.12296875 33.7585938,26.2305469 33.8020312,29.6542969 C33.8454687,33.0780469 30.6499219,34.2215625 29.3945312,29.6554688 C28.1391406,25.0892969 23.5741406,10.2529688 23.5741406,10.2529688 C23.5741406,10.2529688 7.64796875,5.213125 4.16710938,4.43023438 C-0.3921875,3.40539062 0.7490625,0.070703125 4.1728125,0.026171875" id="Shape"></path>
                        </g>
                        <path d="M30.4222656,2.73023437 C32.7047656,0.447734375 38.4110156,-0.693515625 39.5522656,0.447734375 C40.6935156,1.58898437 39.5522656,7.29523437 37.2697656,9.57773437 C34.9872656,11.8602344 15.5859375,30.1203125 15.5859375,30.1203125 C15.5859375,30.1203125 8.1678125,35.2559375 6.4559375,33.5440625 C4.7440625,31.8321875 9.8796875,24.4140625 9.8796875,24.4140625 C9.8796875,24.4140625 28.1396875,5.01273437 30.4222656,2.73023437" id="Shape" fill="#CCD6DD"></path>
                        <g id="Group" transform="translate(5.234375, 2.656250)" fill="#66757F">
                            <path d="M10.3515625,21.7578125 C10.3515625,21.7578125 10.9221875,22.3284375 5.7865625,27.4640625 C0.6509375,32.5996875 0.0803125,32.0290625 0.0803125,32.0290625 C0.0803125,32.0290625 -0.4903125,31.4584375 4.6453125,26.3228125 C9.7809375,21.1871875 10.3515625,21.7578125 10.3515625,21.7578125" id="Shape"></path>
                            <path d="M27.4703906,1.21523437 C29.3614062,1.21523437 30.8941406,2.74796875 30.8941406,4.63898437 L31.8128125,4.63898437 C31.9428906,4.27945312 32.0353906,3.90289062 32.0353906,3.49773437 C32.0353906,1.60671875 30.5026562,0.073984375 28.6116406,0.073984375 C28.2064844,0.073984375 27.8286719,0.166484375 27.4703906,0.2965625 L27.4703906,1.21523437 Z" id="Shape"></path>
                        </g>
                    </g>
                </g>
            </g>
        </g>
    </g>
</svg>