<?xml version="1.0" encoding="UTF-8"?>
<svg width="42px" height="40px" viewBox="0 0 42 40" version="1.1" xmlns="http://www.w3.org/2000/svg" xmlns:xlink="http://www.w3.org/1999/xlink">
    <!-- Generator: Sketch 48.2 (47327) - http://www.bohemiancoding.com/sketch -->
    <title>antibiotic</title>
    <desc>Created with Sketch.</desc>
    <defs></defs>
    <g id="Datos_Clínicos" stroke="none" stroke-width="1" fill="none" fill-rule="evenodd" transform="translate(-623.000000, -942.000000)">
        <g id="datos-personales-copy" transform="translate(99.000000, 658.000000)" fill-rule="nonzero">
            <g id="datos-personales" transform="translate(36.000000, 40.000000)">
                <g id="Group-5-Copy-3" transform="translate(488.000000, 244.000000)">
                    <g id="antibiotic">
                        <circle id="Oval" fill="#EB0029" cx="30.7142857" cy="27.1428571" r="1"></circle>
                        <circle id="Oval" fill="#EB0029" cx="32.1428571" cy="39.2857143" r="1"></circle>
                        <circle id="Oval" fill="#4E6E82" cx="14.2857143" cy="33.5714286" r="1"></circle>
                        <circle id="Oval" fill="#4E6E82" cx="25.7142857" cy="29.2857143" r="1"></circle>
                        <circle id="Oval" fill="#EB0029" cx="36.4285714" cy="32.8571429" r="1"></circle>
                        <circle id="Oval" fill="#EB0029" cx="10" cy="39.2857143" r="1"></circle>
                        <path d="M12.4892857,27.9885714 L1.88285714,17.3821429 C-0.627857143,14.8714286 -0.627857143,10.8014286 1.88285714,8.29071429 C4.39357143,5.78 8.46357143,5.78 10.9742857,8.29071429 L21.5807143,18.8971429 L12.4892857,27.9885714 Z" id="Shape" fill="#EB0029"></path>
                        <path d="M28.9392857,21.5807143 L39.5457143,10.9742857 C42.0564286,8.46357143 42.0564286,4.39357143 39.5457143,1.88285714 C37.035,-0.627857143 32.965,-0.627857143 30.4542857,1.88285714 L19.8478571,12.4892857 L28.9392857,21.5807143 Z" id="Shape" fill="#4E6E82"></path>
                        <circle id="Oval" fill="#EB0029" cx="25" cy="24.2857143" r="2.14285714"></circle>
                        <circle id="Oval" fill="#EB0029" cx="20" cy="30" r="2.14285714"></circle>
                        <circle id="Oval" fill="#4E6E82" cx="27.1428571" cy="34.2857143" r="2.14285714"></circle>
                        <circle id="Oval" fill="#4E6E82" cx="20" cy="37.8571429" r="2.14285714"></circle>
                        <path d="M29.2857143,16.4285714 C29.1028571,16.4285714 28.92,16.3585714 28.7807143,16.2192857 C28.5014286,15.94 28.5014286,15.4885714 28.7807143,15.2092857 L36.6378571,7.35214286 C36.9171429,7.07285714 37.3685714,7.07285714 37.6478571,7.35214286 C37.9271429,7.63142857 37.9271429,8.08285714 37.6478571,8.36214286 L29.7907143,16.2192857 C29.6514286,16.3585714 29.4685714,16.4285714 29.2857143,16.4285714 Z" id="Shape" fill="#FFFFFF"></path>
                        <path d="M16.7857143,20.3571429 C16.6028571,20.3571429 16.42,20.2871429 16.2807143,20.1478571 L7.35214286,11.2192857 C7.07285714,10.94 7.07285714,10.4885714 7.35214286,10.2092857 C7.63142857,9.93 8.08285714,9.93 8.36214286,10.2092857 L17.2907143,19.1378571 C17.57,19.4171429 17.57,19.8685714 17.2907143,20.1478571 C17.1514286,20.2871429 16.9685714,20.3571429 16.7857143,20.3571429 Z" id="Shape" fill="#FFFFFF"></path>
                    </g>
                </g>
            </g>
        </g>
    </g>
</svg>