<?xml version="1.0" encoding="UTF-8"?>
<svg width="46px" height="40px" viewBox="0 0 46 40" version="1.1" xmlns="http://www.w3.org/2000/svg" xmlns:xlink="http://www.w3.org/1999/xlink">
    <!-- Generator: Sketch 49.2 (51160) - http://www.bohemiancoding.com/sketch -->
    <title>asistencia_ilustracion</title>
    <desc>Created with Sketch.</desc>
    <defs>
        <polygon id="path-1" points="0 0.168450704 45.1259085 0.168450704 45.1259085 39.9999437 0 39.9999437"></polygon>
        <polygon id="path-3" points="0 0.168569415 34.1563399 0.168569415 34.1563399 37.1657787 0 37.1657787"></polygon>
        <polygon id="path-5" points="0.143318881 0.039689377 33.0348601 0.039689377 33.0348601 32.5579711 0.143318881 32.5579711"></polygon>
    </defs>
    <g id="Page-1" stroke="none" stroke-width="1" fill="none" fill-rule="evenodd">
        <g id="Precalificación_individual_1.1" transform="translate(-1129.000000, -350.000000)">
            <g id="chat" transform="translate(1107.000000, 350.000000)">
                <g id="asistencia_ilustracion" transform="translate(22.000000, 0.000000)">
                    <g id="Group-3">
                        <mask id="mask-2" fill="white">
                            <use xlink:href="#path-1"></use>
                        </mask>
                        <g id="Clip-2"></g>
                        <path d="M14.9079651,39.9999437 C14.6982907,39.9999437 14.4857674,39.9768451 14.273814,39.9295211 C13.0203256,39.6461408 12.1092674,38.4726197 12.1092674,37.1385352 L12.1092674,30.7261408 C12.1098372,30.5233239 12.1115465,30.2247324 12.0756512,30.1058592 C12.0671047,30.1047324 12.0557093,30.1019155 12.0414651,30.0979718 C5.10739535,28.6585352 0.156686047,22.7075493 0.00341860465,15.6247324 C-0.083755814,11.6106479 1.46487209,7.78811268 4.36327907,4.86022535 C7.31524419,1.8788169 11.4141512,0.168394366 15.6093488,0.168394366 L29.8278953,0.168394366 C33.9928953,0.168394366 37.8878256,1.79487324 40.7936395,4.74811268 C43.6977442,7.69966197 45.2349767,11.596 45.1198837,15.7193803 C44.8948256,23.8264225 37.8997907,30.4219155 29.5247791,30.4219155 L22.5633605,30.4219155 C22.2836047,30.4219155 22.0232209,30.5706479 21.8836279,30.8100845 L17.3243488,38.6179718 C16.816686,39.4889577 15.893093,39.9999437 14.9079651,39.9999437" id="Fill-1" fill="#E84F35" mask="url(#mask-2)"></path>
                    </g>
                    <path d="M22.3255814,23.7209302 C22.3255814,24.4915358 21.7013552,25.1162791 20.9292333,25.1162791 C20.1584438,25.1162791 19.5348837,24.4915358 19.5348837,23.7209302 C19.5348837,22.9503247 20.1584438,22.3255814 20.9292333,22.3255814 C21.7013552,22.3255814 22.3255814,22.9503247 22.3255814,23.7209302" id="Fill-4" fill="#FFFFFF"></path>
                    <path d="M22.3255814,23.7209302 C22.3255814,24.4915358 21.7013552,25.1162791 20.9292333,25.1162791 C20.1584438,25.1162791 19.5348837,24.4915358 19.5348837,23.7209302 C19.5348837,22.9503247 20.1584438,22.3255814 20.9292333,22.3255814 C21.7013552,22.3255814 22.3255814,22.9503247 22.3255814,23.7209302 Z" id="Stroke-6" stroke="#FFFFFF" stroke-width="0.221" stroke-linecap="round" stroke-linejoin="round"></path>
                    <path d="M20.1183781,20.8517868 L20.0344903,19.4531441 C20.0063362,18.9716537 20.0919477,18.4924837 20.3148823,18.0806064 C20.6745656,17.4146413 21.2451175,16.8861621 21.8553149,16.4603621 C22.5068817,16.0067169 23.2187787,15.6441488 23.8887319,15.2160284 C24.5581105,14.787908 25.1935892,14.2826331 25.6210721,13.6102869 C26.3921503,12.3978592 26.2364408,10.6151844 24.9832951,9.62783903 C24.3598825,9.13648676 23.5773128,9.01118323 22.7809534,9.00248159 C21.3450933,8.98565843 20.4315208,9.32212162 19.2990357,9.7102145 C19.138155,9.76532484 18.9473965,9.66844665 18.8864917,9.49963495 L18.6227623,8.60278653 C18.5744981,8.46762115 18.6250606,8.32897511 18.7462956,8.27096422 C19.8408589,7.74886618 20.8233802,7.54234739 22.038604,7.45997192 C22.6217965,7.42052452 23.2653192,7.44604931 23.8519592,7.53132532 C24.8350551,7.67403212 25.8761829,8.07024653 26.6300239,8.77507889 C27.4562611,9.54604367 27.8412256,10.8159021 27.8992576,11.8914241 C27.9050033,11.997584 27.9078762,12.1031639 27.906727,12.2093238 C27.8940864,13.286006 27.5188897,14.3400639 26.8282519,15.1220508 C26.1743868,15.8611096 25.2872447,16.326937 24.449516,16.8269909 C24.0272042,17.0793383 23.5951246,17.3206637 23.1825806,17.5846132 C22.804511,17.8265186 22.4545955,18.1270151 22.2132744,18.5104671 C21.9035791,19.0012392 21.8334811,19.5355196 21.8777233,20.2641364 L21.9116232,20.8517868 C21.929435,21.1528633 21.7030528,21.3953488 21.4054236,21.3953488 L20.6895045,21.3953488 C20.3924498,21.3953488 20.1361899,21.1528633 20.1183781,20.8517868" id="Fill-8" fill="#FFFFFF"></path>
                    <path d="M20.1183781,20.8517868 L20.0344903,19.4531441 C20.0063362,18.9716537 20.0919477,18.4924837 20.3148823,18.0806064 C20.6745656,17.4146413 21.2451175,16.8861621 21.8553149,16.4603621 C22.5068817,16.0067169 23.2187787,15.6441488 23.8887319,15.2160284 C24.5581105,14.787908 25.1935892,14.2826331 25.6210721,13.6102869 C26.3921503,12.3978592 26.2364408,10.6151844 24.9832951,9.62783903 C24.3598825,9.13648676 23.5773128,9.01118323 22.7809534,9.00248159 C21.3450933,8.98565843 20.4315208,9.32212162 19.2990357,9.7102145 C19.138155,9.76532484 18.9473965,9.66844665 18.8864917,9.49963495 L18.6227623,8.60278653 C18.5744981,8.46762115 18.6250606,8.32897511 18.7462956,8.27096422 C19.8408589,7.74886618 20.8233802,7.54234739 22.038604,7.45997192 C22.6217965,7.42052452 23.2653192,7.44604931 23.8519592,7.53132532 C24.8350551,7.67403212 25.8761829,8.07024653 26.6300239,8.77507889 C27.4562611,9.54604367 27.8412256,10.8159021 27.8992576,11.8914241 C27.9050033,11.997584 27.9078762,12.1031639 27.906727,12.2093238 C27.8940864,13.286006 27.5188897,14.3400639 26.8282519,15.1220508 C26.1743868,15.8611096 25.2872447,16.326937 24.449516,16.8269909 C24.0272042,17.0793383 23.5951246,17.3206637 23.1825806,17.5846132 C22.804511,17.8265186 22.4545955,18.1270151 22.2132744,18.5104671 C21.9035791,19.0012392 21.8334811,19.5355196 21.8777233,20.2641364 L21.9116232,20.8517868 C21.929435,21.1528633 21.7030528,21.3953488 21.4054236,21.3953488 L20.6895045,21.3953488 C20.3924498,21.3953488 20.1361899,21.1528633 20.1183781,20.8517868 Z" id="Stroke-10" stroke="#FFFFFF" stroke-width="0.221" stroke-linecap="round" stroke-linejoin="round"></path>
                    <g id="Group-14">
                        <mask id="mask-4" fill="white">
                            <use xlink:href="#path-3"></use>
                        </mask>
                        <g id="Clip-13"></g>
                        <path d="M12.191586,37.1646512 L12.191586,37.1657787 L12.191586,32.980296 C12.191586,32.9261734 12.1921597,32.866413 12.191586,32.805525 L12.191586,37.1646512 Z M30.0307488,0.16845666 L15.7166248,0.16845666 C11.4917411,0.16845666 7.36495039,1.88008457 4.39290388,4.86359408 C1.47477984,7.79354475 -0.0832356589,11.6187738 0.00338449612,15.6356871 C0.00969457364,15.8769838 0.0343612403,16.1126427 0.0498496124,16.3505567 C0.333803101,12.8951656 1.84535349,9.65400987 4.39290388,7.09615222 C7.36495039,4.11264271 11.4917411,2.4010148 15.7166248,2.4010148 L33.1943922,2.4010148 C34.351431,2.4010148 34.5218031,0.772825934 33.3922992,0.527582805 C32.3029504,0.290232558 31.1768884,0.16845666 30.0307488,0.16845666 Z" id="Fill-12" fill="#ED7656" mask="url(#mask-4)"></path>
                    </g>
                    <g id="Group-17" transform="translate(12.093023, 7.441860)">
                        <mask id="mask-6" fill="white">
                            <use xlink:href="#path-5"></use>
                        </mask>
                        <g id="Clip-16"></g>
                        <path d="M28.5329444,4.81057739 C28.3087426,12.8878027 21.3397556,19.4594948 12.9977454,19.4594948 L8.59771384,19.4594948 C6.94372881,19.4594948 5.32550256,19.9394467 3.94510051,20.8398476 C1.57196689,22.3869206 0.143318881,25.0095349 0.143318881,27.8207618 L0.143318881,29.7068885 C0.143318881,31.0361588 1.05034292,32.2054451 2.29962948,32.4878027 C2.51077651,32.5349559 2.72249113,32.5579711 2.93193536,32.5579711 C3.91331494,32.5579711 4.83225857,32.0488292 5.33969255,31.1809864 L9.88162397,23.4007137 C10.0201182,23.1615798 10.278376,23.0145068 10.5570674,23.0145068 L17.4931336,23.0145068 C25.8351439,23.0145068 32.8041309,16.4428148 33.0289003,8.36558941 C33.1089318,5.49822775 32.3869452,2.74145148 30.9605676,0.338323978 C30.3424517,-0.70297514 28.6385179,1.0242903 28.5329444,4.81057739" id="Fill-15" fill="#E20714" mask="url(#mask-6)"></path>
                    </g>
                </g>
            </g>
        </g>
    </g>
</svg>