<?xml version="1.0" encoding="UTF-8"?>
<svg width="44px" height="40px" viewBox="0 0 44 40" version="1.1" xmlns="http://www.w3.org/2000/svg" xmlns:xlink="http://www.w3.org/1999/xlink">
    <!-- Generator: Sketch 49.2 (51160) - http://www.bohemiancoding.com/sketch -->
    <title>beer</title>
    <desc>Created with Sketch.</desc>
    <defs></defs>
    <g id="Page-1" stroke="none" stroke-width="1" fill="none" fill-rule="evenodd">
        <g id="Datos_Clínicos" transform="translate(-139.000000, -999.000000)" fill-rule="nonzero">
            <g id="datos-personales-copy" transform="translate(99.000000, 715.000000)">
                <g id="datos-personales" transform="translate(36.000000, 40.000000)">
                    <g id="Group-5-Copy-2" transform="translate(2.000000, 244.000000)">
                        <g id="beer" transform="translate(2.000000, 0.000000)">
                            <path d="M12.0132292,14.70625 C11.3488542,13.82 10.8978125,12.793125 10.7276042,11.6986458 L9.41822917,3.2825 C9.75322917,3.1746875 10,2.87104167 10,2.5 L10,0.833333333 C10,0.373125 9.626875,0 9.16666667,0 L4.16666667,0 C3.70645833,0 3.33333333,0.373125 3.33333333,0.833333333 L3.33333333,2.5 C3.33333333,2.87104167 3.58010417,3.1746875 3.91520833,3.2825 L2.60583333,11.6985417 C2.435625,12.793125 1.98447917,13.82 1.32020833,14.7061458 C0.4921875,15.8107292 0,17.1785417 0,18.6665625 L0,38.6665625 C0,39.403125 0.596875,40 1.33333333,40 L12,40 C12.7364583,40 13.3333333,39.403125 13.3333333,38.6665625 L13.3333333,18.6665625 C13.3333333,17.1785417 12.8411458,15.8107292 12.0132292,14.70625 Z" id="Shape" fill="#753918"></path>
                            <path d="M0,26.6666667 L0,38.6665625 C0,39.403125 0.596875,40 1.33333333,40 L12,40 C12.7364583,40 13.3333333,39.403125 13.3333333,38.6665625 L13.3333333,26.6666667 L0,26.6666667 Z" id="Shape" fill="#4F291B"></path>
                            <path d="M40,16.6666667 L36.6666667,16.6666667 L36.6666667,15 L16.6666667,15 L16.6666667,39.1666667 C16.6666667,39.626875 17.0397917,40 17.5,40 L35.8333333,40 C36.2935417,40 36.6666667,39.626875 36.6666667,39.1666667 L36.6666667,35 L40,35 C41.8409375,35 43.3333333,33.5076042 43.3333333,31.6666667 L43.3333333,20 C43.3333333,18.1590625 41.8409375,16.6666667 40,16.6666667 Z M40,31.6666667 L36.6666667,31.6666667 L36.6666667,20 L40,20 L40,31.6666667 Z" id="Shape" fill="#CDDCF0"></path>
                            <path d="M18.3333333,20 L18.3333333,36.6666667 L35,36.6666667 L35,20 C28.9797917,20 24.3505208,20 18.3333333,20 Z" id="Shape" fill="#F9C566"></path>
                            <rect id="Rectangle-path" fill="#FFFFFF" x="1.66666667" y="20" width="10" height="15"></rect>
                            <g id="Group" transform="translate(3.333333, 21.666667)" fill="#ABABAB">
                                <rect id="Rectangle-path" x="0" y="5" width="6.66666667" height="1.66666667"></rect>
                                <circle id="Oval" cx="3.33333333" cy="1.66666667" r="1.66666667"></circle>
                                <rect id="Rectangle-path" x="0" y="8.33333333" width="6.66666667" height="1.66666667"></rect>
                            </g>
                            <path d="M35,36.5679167 C32.7872917,35.0795833 29.8727083,34.1666667 26.6666667,34.1666667 C23.460625,34.1666667 20.5460417,35.0795833 18.3333333,36.5679167 L18.3333333,36.6666667 L35,36.6666667 L35,36.5679167 Z" id="Shape" fill="#FCD18B"></path>
                            <g id="Group" transform="translate(14.895833, 6.666667)" fill="#EFEEEE">
                                <rect id="Rectangle-path" opacity="0.5" x="3.4375" y="10" width="16.6666667" height="3.33333333"></rect>
                                <path d="M25.1041667,10 L21.7708333,10 L21.7708333,13.3333333 L25.1041667,13.3333333 L25.1041667,25 L21.7708333,25 L21.7708333,28.3333333 L25.1041667,28.3333333 C26.9452083,28.3333333 28.4375,26.8408333 28.4375,25 L28.4375,13.3333333 C28.4375,11.4922917 26.9452083,10 25.1041667,10 Z" id="Shape" opacity="0.3"></path>
                                <path d="M21.9238542,10 C23.0090625,8.87072917 23.6133333,7.275625 23.3922917,5.54125 C23.105625,3.2925 21.3690625,1.41354167 19.1497917,0.951041667 C18.4407292,0.803229167 17.7529167,0.799583333 17.1052083,0.912291667 C16.1722917,1.07458333 15.2304167,0.9625 14.37,0.567083333 C13.57875,0.2034375 12.6988542,0 11.7708333,0 C10.8428125,0 9.96291667,0.2034375 9.17166667,0.567083333 C8.31125,0.962604167 7.369375,1.07458333 6.43645833,0.912291667 C5.78864583,0.799583333 5.10083333,0.803229167 4.391875,0.951041667 C2.17260417,1.41364583 0.436041667,3.2925 0.149375,5.54125 C-0.0716666667,7.275625 0.5325,8.87072917 1.6178125,10 L21.9238542,10 Z" id="Shape"></path>
                            </g>
                            <g id="Group" transform="translate(28.333333, 20.833333)" fill="#FCD18B">
                                <circle id="Oval" cx="0.833333333" cy="0.833333333" r="1"></circle>
                                <circle id="Oval" cx="0.833333333" cy="5" r="1"></circle>
                                <circle id="Oval" cx="3.33333333" cy="2.5" r="1"></circle>
                                <circle id="Oval" cx="3.33333333" cy="6.66666667" r="1"></circle>
                                <circle id="Oval" cx="0.833333333" cy="11.6666667" r="1"></circle>
                                <circle id="Oval" cx="0.833333333" cy="8.33333333" r="1"></circle>
                                <circle id="Oval" cx="3.33333333" cy="10" r="1"></circle>
                            </g>
                            <path d="M16.6666667,16.6666667 C16.6666667,16.6666667 23.3333333,16.70125 23.3333333,24.1666667 L23.3333333,26.6467708 C23.3333333,27.5684375 24.0783333,28.3134375 25,28.3134375 C25.9216667,28.3134375 26.6666667,27.5684375 26.6666667,26.6467708 L26.6666667,24.1666667 C26.6666667,16.70125 33.3333333,16.6666667 33.3333333,16.6666667 L16.6666667,16.6666667 Z" id="Shape" fill="#EFEEEE"></path>
                        </g>
                    </g>
                </g>
            </g>
        </g>
    </g>
</svg>