<?xml version="1.0" encoding="UTF-8"?>
<svg width="40px" height="40px" viewBox="0 0 40 40" version="1.1" xmlns="http://www.w3.org/2000/svg" xmlns:xlink="http://www.w3.org/1999/xlink">
    <!-- Generator: Sketch 49.2 (51160) - http://www.bohemiancoding.com/sketch -->
    <title>blind</title>
    <desc>Created with Sketch.</desc>
    <defs></defs>
    <g id="Page-1" stroke="none" stroke-width="1" fill="none" fill-rule="evenodd">
        <g id="Datos_Clínicos" transform="translate(-623.000000, -1862.000000)" fill-rule="nonzero">
            <g id="datos-personales-copy-2" transform="translate(99.000000, 1576.000000)">
                <g id="datos-personales" transform="translate(37.000000, 40.000000)">
                    <g id="Group-5-Copy-5" transform="translate(487.000000, 246.000000)">
                        <g id="blind">
                            <circle id="Oval" fill="#90DFAA" cx="20" cy="20" r="20"></circle>
                            <path d="M33.3858268,15.0551181 C32.4409449,16 29.8582677,17.0708661 28.9133858,16.1259843 C27.9685039,15.1811024 29.0708661,12.5984252 29.984252,11.6535433 C32.0944882,9.54330709 32.4409449,10.7086614 33.3858268,11.6535433 C34.3307087,12.5984252 35.5590551,12.8818898 33.3858268,15.0551181 Z" id="Shape" fill="#324A5E"></path>
                            <path d="M28.9133858,16.1574803 C28.9133858,16.1574803 29.007874,15.9370079 29.1968504,15.6220472 C29.3858268,15.3070866 29.7007874,14.9606299 30.015748,14.6141732 C30.3622047,14.2677165 30.7086614,13.984252 31.023622,13.7952756 C31.3070866,13.6062992 31.5590551,13.511811 31.5590551,13.511811 C31.5590551,13.511811 31.4645669,13.7322835 31.2755906,14.0472441 C31.0866142,14.3622047 30.7716535,14.7086614 30.4566929,15.0551181 C30.1102362,15.4015748 29.7637795,15.6850394 29.4488189,15.8740157 C29.1338583,16.0314961 28.9133858,16.1574803 28.9133858,16.1574803 Z" id="Shape" fill="#2B3B4E"></path>
                            <path d="M33.3858268,17.3858268 C32.4409449,16.4409449 29.8582677,15.3700787 28.9133858,16.3149606 C27.9685039,17.2598425 29.0708661,19.8425197 29.984252,20.7874016 C32.0944882,22.8976378 32.4409449,21.7322835 33.3858268,20.7874016 C34.3307087,19.8425197 35.5590551,19.5590551 33.3858268,17.3858268 Z" id="Shape" fill="#324A5E"></path>
                            <path d="M28.9133858,16.2834646 C28.9133858,16.2834646 29.007874,16.503937 29.1968504,16.8188976 C29.3858268,17.1338583 29.7007874,17.480315 30.015748,17.8267717 C30.3622047,18.1732283 30.7086614,18.4566929 31.023622,18.6456693 C31.3070866,18.8346457 31.5590551,18.9291339 31.5590551,18.9291339 C31.5590551,18.9291339 31.4645669,18.7086614 31.2755906,18.3937008 C31.0866142,18.0787402 30.7716535,17.7322835 30.4566929,17.3858268 C30.1102362,17.0393701 29.7637795,16.7559055 29.4488189,16.5669291 C29.1338583,16.3779528 28.9133858,16.2834646 28.9133858,16.2834646 Z" id="Shape" fill="#2B3B4E"></path>
                            <path d="M28.7244094,18.8661417 C28.7244094,11.1181102 24.3149606,7.27559055 18.992126,7.24409449 C11.8110236,7.21259843 8.2519685,10.992126 8.2519685,16.5669291 L5.4488189,21.0708661 C5.22834646,21.511811 5.54330709,22.0472441 6.04724409,22.0472441 L7.62204724,22.0472441 L7.62204724,26.9291339 C7.62204724,27.496063 8.09448819,27.9685039 8.66141732,27.9685039 L12.1574803,27.9685039 L12.1574803,32.7559055 L22.9291339,32.7559055 L22.9606299,28.7244094 C26.519685,26.8976378 28.7244094,23.1496063 28.7244094,18.8661417 Z" id="Shape" fill="#FFFFFF"></path>
                            <path d="M27.9685039,13.8267717 L8.5984252,13.8267717 C8.37795276,14.6771654 8.28346457,15.5905512 8.28346457,16.5669291 L7.02362205,18.6141732 L28.7559055,18.6141732 L29.5748031,18.6141732 L29.5748031,13.8267717 L27.9685039,13.8267717 Z" id="Shape" fill="#324A5E"></path>
                        </g>
                    </g>
                </g>
            </g>
        </g>
    </g>
</svg>