<?xml version="1.0" encoding="UTF-8"?>
<svg width="40px" height="41px" viewBox="0 0 40 41" version="1.1" xmlns="http://www.w3.org/2000/svg" xmlns:xlink="http://www.w3.org/1999/xlink">
    <!-- Generator: Sketch 48.2 (47327) - http://www.bohemiancoding.com/sketch -->
    <title>blood-transfusion</title>
    <desc>Created with Sketch.</desc>
    <defs></defs>
    <g id="Datos_Clínicos" stroke="none" stroke-width="1" fill="none" fill-rule="evenodd" transform="translate(-141.000000, -1626.000000)">
        <g id="datos-personales-copy-2" transform="translate(99.000000, 1519.000000)" fill-rule="nonzero">
            <g id="datos-personales" transform="translate(37.000000, 40.000000)">
                <g id="Group-5-Copy-2" transform="translate(1.000000, 67.000000)">
                    <g id="blood-transfusion" transform="translate(4.000000, 0.000000)">
                        <path d="M31.6617969,0.001171875 C28.2110937,0.001171875 27.8021875,2.45710937 23.3261719,2.38265625 L23.3285937,20.4784375 C23.3285937,21.1363281 23.8619531,21.6696875 24.5198437,21.6696875 L31.6642187,21.6696875 L38.8085156,21.6696875 C39.4664062,21.6696875 39.9998437,21.1363281 39.9998437,20.4784375 L39.9974219,2.38265625 C35.5214844,2.45703125 35.1113281,0.001171875 31.6617969,0.001171875 Z" id="Shape" fill="#E6E9ED"></path>
                        <path d="M30.830625,18.2813281 L30.830625,24.9996094 C30.830625,26.7804688 30.1372656,28.4539844 28.8788281,29.7136719 C27.6191406,30.9721094 25.9457031,31.6653906 24.1647656,31.6653906 L17.7741406,31.6653906 L17.7741406,33.3328125 L24.1647656,33.3328125 C28.7664844,33.3328125 32.4979687,29.6013281 32.4979687,24.9996094 L32.4979687,18.2813281 L30.830625,18.2813281 Z" id="Shape" fill="#DA4453"></path>
                        <path d="M35.8303125,5.00085937 L27.4982813,5.00085937 C26.5816406,5.00085937 25.8309375,5.7503125 25.8309375,6.66703125 L25.8309375,15.3639844 C25.8309375,16.280625 26.206875,17.5110156 26.6646094,18.0982031 C27.1235156,18.6864844 28.2478125,19.1661719 29.1644531,19.1661719 L34.1640625,19.1661719 C35.0807813,19.1661719 36.20625,18.6864844 36.6639063,18.0982031 C37.1228906,17.5110156 37.4976563,16.280625 37.4976563,15.3639844 L37.4976563,6.66703125 C37.4976563,5.7503125 36.746875,5.00085937 35.8303125,5.00085937 Z" id="Shape" fill="#F5F7FA"></path>
                        <path d="M15.8290625,23.9046094 C13.6123438,22.8305469 11.2242188,23.2845312 9.58007813,25.2071094 C7.93523438,23.2846094 5.54710937,22.8305469 3.33046875,23.9046094 C0.5096875,25.4341406 -0.834375,28.9225781 0.548125,32.5772656 C2.3003125,37.4304687 8.65484375,39.7032812 9.58007813,39.9986719 C10.5046875,39.7032812 16.8592969,37.4304687 18.6114844,32.5772656 C19.9938281,28.9226562 18.6504688,25.4342187 15.8290625,23.9046094 Z" id="Shape" fill="#E6E9ED"></path>
                        <g id="Group" transform="translate(0.000000, 10.312500)" fill="#ED5564">
                            <path d="M18.6114062,22.2647656 C18.9696875,21.31625 19.1448437,20.3800781 19.1582812,19.4865625 C16.6028906,18.665 12.6591406,19.2265625 10.0445313,20.250625 C7.1278125,21.394375 4.43140625,21.9973438 2.0090625,21.1367969 C1.78445312,21.0574219 0.592578125,20.5936719 0.066484375,20.3714844 C0.14828125,20.9903125 0.306328125,21.6250781 0.548046875,22.2646875 C2.30023437,27.1178906 8.65476562,29.3907031 9.58,29.6860938 C10.5046094,29.3907813 16.8592188,27.1179688 18.6114062,22.2647656 Z" id="Shape"></path>
                            <path d="M36.8872656,0.049375 C35.4726562,0.195859375 34.0371875,0.604765625 32.6529688,1.11867188 C30.4741406,1.92789063 28.4210938,2.441875 26.5229688,2.284375 L25.8309375,2.284375 L25.8309375,5.0515625 C25.8309375,5.96820313 26.206875,7.19859375 26.6646094,7.78578125 C27.1235156,8.3740625 28.2478125,8.85375 29.1644531,8.85375 L34.1640625,8.85375 C35.0807813,8.85375 36.20625,8.3740625 36.6639063,7.78578125 C37.1228906,7.19859375 37.4976563,5.96820313 37.4976563,5.0515625 L37.4976563,0.049375 L36.8872656,0.049453125 L36.8872656,0.049375 Z" id="Shape"></path>
                        </g>
                        <g id="Group" opacity="0.2" transform="translate(8.671875, 23.281250)" fill="#FFFFFF">
                            <path d="M7.1571875,0.623359375 C6.09523438,0.10953125 4.99359375,-0.0540625 3.95304688,0.126640625 C4.4675,0.21328125 4.98320313,0.378125 5.49101563,0.623359375 C8.311875,2.15289062 9.65578125,5.64132813 8.2728125,9.29601563 C6.804375,13.3642969 2.10257813,15.6188281 0.074453125,16.4159375 C0.465703125,16.5697656 0.758671875,16.6698438 0.908203125,16.7174219 C1.8328125,16.4220312 8.18742188,14.1492187 9.93960938,9.29601562 C11.3219531,5.64140625 9.97859375,2.15296875 7.1571875,0.623359375 Z" id="Shape"></path>
                        </g>
                        <path d="M35.8303125,5.00085937 L34.1640625,5.00085937 C35.0807812,5.00085937 35.8303125,5.7503125 35.8303125,6.66703125 L35.8303125,15.3639844 C35.8303125,16.280625 35.4555469,17.5110156 34.9978125,18.0982031 C34.5388281,18.6864844 33.4146875,19.1661719 32.4979687,19.1661719 L34.1640625,19.1661719 C35.0807812,19.1661719 36.20625,18.6864844 36.6639062,18.0982031 C37.1228906,17.5110156 37.4976562,16.280625 37.4976562,15.3639844 L37.4976562,6.66703125 C37.4976562,5.7503125 36.746875,5.00085937 35.8303125,5.00085937 Z" id="Shape" fill="#FFFFFF" opacity="0.2"></path>
                    </g>
                </g>
            </g>
        </g>
    </g>
</svg>