<?xml version="1.0" encoding="UTF-8"?>
<svg width="36px" height="40px" viewBox="0 0 36 40" version="1.1" xmlns="http://www.w3.org/2000/svg" xmlns:xlink="http://www.w3.org/1999/xlink">
    <!-- Generator: Sketch 49.2 (51160) - http://www.bohemiancoding.com/sketch -->
    <title>brain</title>
    <desc>Created with Sketch.</desc>
    <defs></defs>
    <g id="Page-1" stroke="none" stroke-width="1" fill="none" fill-rule="evenodd">
        <g id="Datos_Clínicos" transform="translate(-140.000000, -2041.000000)" fill-rule="nonzero">
            <g id="datos-personales-copy-2" transform="translate(99.000000, 1576.000000)">
                <g id="datos-personales" transform="translate(37.000000, 40.000000)">
                    <g id="Group-5-Copy-6" transform="translate(1.000000, 425.000000)">
                        <g id="brain" transform="translate(3.000000, 0.000000)">
                            <path d="M33.3925926,22.6716569 C34.0728265,22.5677193 34.4416374,21.8180897 34.1088499,21.2157505 L31.2361793,16.0159064 C31.2362573,16.0014035 31.2367251,15.9870565 31.2367251,15.9724756 C31.2367251,15.5864327 31.2220663,13.4235478 31.1937622,13.0447563 L31.0735283,11.9635867 C30.0010916,4.66947368 23.7522807,0.8391423 16.1741131,0.780194932 C7.84849903,0.71539961 0.962962963,7.44951267 0.856998051,15.7746589 C0.771929825,22.4585575 5.00467836,28.1649903 10.9415205,30.282963 L9.40366472,37.5212476 L21.6321248,39.1423002 L23.4158285,32.514152 C23.4389084,32.5432359 29.9561014,33.0902924 30.0815595,33.0902924 C30.8630799,33.0902924 31.4406238,32.488499 31.4100585,31.7617934 L31.4100585,23.0090448 L33.3925926,22.6716569 Z" id="Shape" fill="#FFDAAE"></path>
                            <path d="M20.1471345,32.8499025 C20.0964522,32.8499025 20.0449123,32.8452242 19.9950877,32.8350877 C19.9451852,32.8249513 19.8960624,32.8101365 19.8492788,32.7906433 C19.8017934,32.7711501 19.7564912,32.7469786 19.7144639,32.7189084 C19.6715789,32.6900585 19.6317349,32.6573879 19.5958674,32.6214425 C19.56,32.585575 19.5272515,32.545809 19.4984016,32.502924 C19.4711111,32.4608187 19.4469396,32.4155945 19.4274464,32.3688109 C19.4079532,32.3212476 19.3924366,32.2729045 19.3830799,32.2230019 C19.3729435,32.1723197 19.3674854,32.1216374 19.3674854,32.0701754 C19.3674854,32.0194932 19.3729435,31.9680312 19.3830799,31.9181287 C19.3924366,31.8682261 19.4079532,31.8191033 19.4274464,31.7723197 C19.4469396,31.7247563 19.4711891,31.6795322 19.4984016,31.6374269 C19.5272515,31.5945419 19.56,31.5547758 19.5958674,31.5189084 C19.6317349,31.4830409 19.6715789,31.4502924 19.7144639,31.4222222 C19.7565692,31.394152 19.8017934,31.3699805 19.8492788,31.3504873 C19.8961404,31.3309942 19.9451852,31.3161793 19.9950877,31.3060429 C20.0956725,31.28577 20.1993762,31.28577 20.2991813,31.3060429 C20.3490838,31.3161793 20.3982066,31.3309942 20.44577,31.3504873 C20.4925536,31.3699805 20.5377778,31.394152 20.579883,31.4222222 C20.622768,31.4502924 20.6626121,31.4830409 20.6984795,31.5189084 C20.734347,31.5547758 20.7670955,31.5945419 20.7950877,31.6374269 C20.8231579,31.6795322 20.8473294,31.7247563 20.8668226,31.7723197 C20.8863158,31.8191033 20.9019103,31.8682261 20.9112671,31.9181287 C20.9214035,31.9680312 20.9268616,32.0194932 20.9268616,32.0701754 C20.9268616,32.1216374 20.9214035,32.1723197 20.9112671,32.2230019 C20.9019103,32.2729045 20.8863158,32.3212476 20.8668226,32.3688109 C20.8473294,32.4155945 20.8231579,32.4608187 20.7950877,32.502924 C20.7670955,32.545809 20.734347,32.585575 20.6984795,32.6214425 C20.6626121,32.6573879 20.622768,32.6900585 20.579883,32.7189084 C20.5377778,32.7469786 20.4925536,32.7711501 20.44577,32.7906433 C20.3982066,32.8101365 20.3490838,32.8249513 20.2991813,32.8350877 C20.2492008,32.8452242 20.1978168,32.8499025 20.1471345,32.8499025 Z" id="Shape" fill="#000000"></path>
                            <path d="M12.1784795,5.27727096 C11.3384795,5.58245614 10.6888109,6.20584795 10.3639766,6.99992203 C10.1966472,6.97692008 10.0226901,6.96054581 9.84881092,6.96054581 C8.72990253,6.96054581 7.68319688,7.49536062 7.05317739,8.38791423 C6.25255361,9.51992203 6.28865497,11.0031189 7.05317739,12.0957505 C5.9079922,12.6305653 5.14674464,13.7561014 5.14674464,15.045614 C5.14674464,16.4040546 6.00974659,17.5820663 7.24015595,18.0775049 C6.6331384,18.9207797 6.47890838,20.0396881 6.90222222,21.0306433 C7.59126706,22.5006628 8.93005848,23.0650292 10.2819493,22.9042495 C10.7642885,24.197037 11.8503704,24.9649123 13.2810136,25.0108382 C13.9405068,25.0108382 14.577076,24.8182456 15.108694,24.4540351 C15.1108772,24.4555166 15.1065107,24.4525536 15.108694,24.4540351 L15.108694,5.64389864 C14.3079922,5.08280702 13.3465887,4.91961014 12.1784795,5.27727096 Z" id="Shape" fill="#FF8C5A"></path>
                            <path d="M10.9224951,21.2934893 C10.4918519,21.2934893 10.142768,20.9444055 10.142768,20.5137622 C10.142768,20.0831189 10.4918519,19.7340351 10.9224951,19.7340351 C11.7845614,19.7340351 12.485848,19.0326706 12.485848,18.1706823 C12.485848,17.740039 12.8349318,17.3909552 13.265575,17.3909552 C13.6962183,17.3909552 14.0453021,17.740039 14.0453021,18.1706823 C14.0453801,19.8926316 12.6444444,21.2934893 10.9224951,21.2934893 Z" id="Shape" fill="#000000"></path>
                            <path d="M10.5252242,14.7185965 C10.0945809,14.7185965 9.74549708,14.3695127 9.74549708,13.9388694 C9.74549708,13.5082261 10.0945809,13.1591423 10.5252242,13.1591423 C11.3872904,13.1591423 12.088577,12.4577778 12.088577,11.5957895 C12.088577,11.1651462 12.4376608,10.8160624 12.8683041,10.8160624 C13.2989474,10.8160624 13.6480312,11.1651462 13.6480312,11.5957895 C13.6480312,13.3177388 12.2471735,14.7185965 10.5252242,14.7185965 Z" id="Shape" fill="#000000"></path>
                            <path d="M18.0388304,24.8206628 C18.8788304,24.5154776 19.528499,23.8920858 19.8534113,23.0980117 C20.0207407,23.1210136 20.1946199,23.1373879 20.368577,23.1373879 C21.4874854,23.1373879 22.534191,22.6025731 23.1642105,21.7100195 C23.9648343,20.5780117 23.9287329,19.0948148 23.1642105,18.0021832 C24.3093957,17.4673684 25.0706433,16.3418324 25.0706433,15.0523197 C25.0706433,13.6938791 24.2076413,12.5158674 22.977154,12.0204288 C23.5841715,11.177154 23.7384016,10.0582456 23.3151657,9.06729045 C22.6261209,7.59727096 21.2873294,7.03290448 19.9354386,7.19368421 C19.4530994,5.90089669 18.3670175,5.13302144 16.9363743,5.08709552 C16.2768031,5.08709552 15.6402339,5.27968811 15.108694,5.64389864 L15.108694,24.4541131 C15.108616,24.4540351 16.8700975,25.1778558 18.0388304,24.8206628 Z" id="Shape" fill="#FF5A5A"></path>
                            <path d="M16.9516569,12.7069786 C16.5210136,12.7069786 16.1719298,12.3578947 16.1719298,11.9272515 C16.1719298,10.2053021 17.5727875,8.80444444 19.2947368,8.80444444 C19.7253021,8.80444444 20.0744639,9.15352827 20.0744639,9.58417154 C20.0744639,10.0148148 19.7253021,10.3638986 19.2947368,10.3638986 C18.4326706,10.3638986 17.731384,11.0652632 17.731384,11.9272515 C17.731384,12.3578947 17.3823002,12.7069786 16.9516569,12.7069786 Z" id="Shape" fill="#000000"></path>
                            <path d="M17.3489279,19.2818713 C16.9182846,19.2818713 16.5692008,18.9327875 16.5692008,18.5021442 C16.5692008,16.7801949 17.9700585,15.3793372 19.6920078,15.3793372 C20.1226511,15.3793372 20.4717349,15.7284211 20.4717349,16.1590643 C20.4717349,16.5897076 20.1226511,16.9387914 19.6920078,16.9387914 C18.8299415,16.9387914 18.128655,17.6401559 18.128655,18.5021442 C18.1287329,18.9327875 17.7795712,19.2818713 17.3489279,19.2818713 Z" id="Shape" fill="#000000"></path>
                            <path d="M34.791345,20.8387524 L32.0160624,15.8151267 C32.0135673,15.2052242 31.9996881,13.3661598 31.971462,12.9868226 C31.9706823,12.9773879 31.9699025,12.9680312 31.9688109,12.9585965 L31.848577,11.8774269 C31.8475634,11.8683041 31.8464717,11.8592593 31.8450682,11.8502144 C31.3034698,8.16631579 29.4602729,5.11391813 26.5148538,3.02292398 C23.7736452,1.07688109 20.2,0.0317348928 16.180117,0.000467836257 C16.1378558,0.000155945419 16.0965302,0 16.054347,0 C7.34393762,0 0.188226121,7.04631579 0.0773489279,15.7646784 C-0.00670565302,22.3651462 3.97052632,28.3118908 10.0401559,30.7737232 L8.64101365,37.3591423 C8.59586745,37.5716959 8.64140351,37.7934503 8.76678363,37.9709162 C8.89208577,38.1483821 9.08584795,38.265575 9.30128655,38.2941131 L21.5297466,39.9152437 C21.5643665,39.9198441 21.5988304,39.9221053 21.6328265,39.9221053 C21.9807407,39.9221053 22.2925536,39.6890448 22.3851072,39.3449513 L23.9961793,33.3582066 C24.1122027,33.3689669 24.2408577,33.3806628 24.3797271,33.3930604 C25.0996491,33.4577778 26.008577,33.5359064 26.6441326,33.5900975 C27.1929045,33.6368811 29.9375439,33.8700195 30.0816374,33.8700195 C30.6786745,33.8700195 31.2272125,33.6408577 31.6261988,33.2248733 C32.008655,32.8260429 32.2084211,32.3019103 32.1898635,31.7472904 L32.1898635,23.6672904 L33.5182066,23.4412476 C34.0862378,23.3518908 34.5762963,22.9911111 34.8303314,22.4748538 C35.0853801,21.9561793 35.0708772,21.3446394 34.791345,20.8387524 Z M33.4309552,21.7863548 C33.4089669,21.8310331 33.3640546,21.8871735 33.2747758,21.9008187 C33.2704094,21.9014425 33.2661209,21.9022222 33.2617544,21.902924 L31.2792203,22.2403119 C30.9044055,22.3040936 30.6303314,22.6288499 30.6303314,23.0089669 L30.6303314,31.7616374 C30.6303314,31.7725536 30.6305653,31.7834698 30.6310331,31.794386 C30.6382066,31.9646004 30.5640546,32.0792203 30.5005068,32.1454971 C30.4016374,32.248499 30.2589474,32.3067446 30.0973879,32.3103314 C29.6532554,32.2825731 24.0803899,31.8135673 23.5661598,31.7490058 C23.4658869,31.7292788 23.3614035,31.7292008 23.2579337,31.7505653 C22.9695906,31.8102144 22.7394152,32.0271345 22.662846,32.311501 L21.0567641,38.2794542 L10.3415205,36.8589474 L11.5448733,31.1951657 L16.9296686,32.2466277 C16.9801949,32.2565302 17.0304094,32.2612865 17.079922,32.2612865 C17.4453801,32.2612865 17.7716959,32.002963 17.8443665,31.6308772 C17.9269396,31.2082651 17.6511501,30.7986745 17.228538,30.7161793 L11.1519688,29.5296686 C5.38019493,27.445848 1.55836257,21.9295127 1.63664717,15.7846394 C1.73730994,7.87953216 8.25231969,1.50003899 16.1680312,1.55992203 C23.9360624,1.62035088 29.3499415,5.64452242 30.3001949,12.0637037 L30.417154,13.1151657 C30.4326706,13.3518908 30.4448343,14.2939571 30.451462,15.0489669 L28.7794152,15.0489669 C28.3488499,15.0489669 27.9996881,15.3980507 27.9996881,15.828694 C27.9996881,16.2593372 28.3488499,16.6084211 28.7794152,16.6084211 L30.6727485,16.6084211 L33.4263548,21.5928265 C33.4700195,21.6718129 33.4529435,21.7416764 33.4309552,21.7863548 Z" id="Shape" fill="#000000"></path>
                            <path d="M24.0396881,11.7033138 C24.4261209,10.7675634 24.4335283,9.70035088 24.0322027,8.76093567 C24.028616,8.75267057 24.0249513,8.74440546 24.0211306,8.7362963 C23.3231189,7.24725146 22.0047563,6.39727096 20.4261988,6.3862768 C19.7465887,5.10643275 18.5122027,4.35750487 16.9613255,4.30775828 C16.9529825,4.30744639 16.9446394,4.30736842 16.9362963,4.30736842 C16.2923197,4.30736842 15.6717349,4.45512671 15.1146979,4.73692008 C14.1780117,4.24475634 13.1161793,4.17473684 11.9500975,4.53169591 C11.9373099,4.53559454 11.9246784,4.53980507 11.9121248,4.54440546 C11.0661988,4.85177388 10.3587524,5.43423002 9.90596491,6.18128655 C9.88670565,6.18097466 9.86768031,6.18081871 9.84873294,6.18081871 C8.47610136,6.18081871 7.19290448,6.83781676 6.41653021,7.93762183 C5.60959064,9.07859649 5.47360624,10.5518908 6.00896686,11.8117739 C4.98003899,12.5666277 4.36701754,13.7465107 4.36701754,15.045614 C4.36701754,16.4060819 5.05621832,17.6470175 6.17769981,18.3945419 C5.79126706,19.3302924 5.78393762,20.3975049 6.18518519,21.3369201 C6.18869396,21.3451852 6.19243665,21.3533723 6.19625731,21.3615595 C6.89426901,22.8506823 8.21255361,23.7006628 9.79118908,23.7115789 C10.4707212,24.991423 11.7051072,25.7402729 13.2559844,25.7900975 C13.2643275,25.7903314 13.2726706,25.7904873 13.2810136,25.7904873 C13.9593762,25.7904873 14.6117739,25.6266667 15.1911891,25.3146979 C15.6579337,25.4719688 16.4723587,25.6985575 17.2904483,25.6985575 C17.6230799,25.6985575 17.9562573,25.6610526 18.2667446,25.5661598 C18.2796101,25.5621832 18.2923977,25.5579727 18.3050292,25.5532943 C19.1511111,25.2460039 19.8584795,24.6635478 20.3112671,23.9164133 C20.3305263,23.9167251 20.3495517,23.9168811 20.368499,23.9168811 C21.7412086,23.9168811 23.0244055,23.259883 23.8007018,22.160078 C24.6076413,21.0191813 24.7435478,19.545809 24.2082651,18.2860039 C25.237271,17.5311501 25.8502924,16.3512671 25.8502924,15.0521637 C25.8502924,13.6918519 25.1610136,12.4509162 24.0396881,11.7033138 Z M11.0124756,22.6316569 C10.8976998,22.3239766 10.6043665,22.1244444 10.2823392,22.1244444 C10.2516959,22.1244444 10.2208187,22.1262378 10.1897856,22.1299025 C9.04350877,22.2660429 8.10588694,21.7496296 7.61411306,20.7121248 C7.408577,20.2226901 7.39212476,19.6739181 7.55204678,19.1716959 C7.79360624,19.2559064 8.04584795,19.2981676 8.29746589,19.2981676 C8.8605848,19.2981676 9.41980507,19.0867057 9.84405458,18.6625341 C10.148538,18.3580507 10.148538,17.8643275 9.84405458,17.5597661 C9.53957115,17.2552827 9.04584795,17.2552827 8.74128655,17.5597661 C8.49294347,17.8081092 8.05793372,17.7925926 7.79150097,17.5260039 C7.78487329,17.5193762 7.77769981,17.5136842 7.77091618,17.5073684 C7.7625731,17.4996491 7.75430799,17.4919298 7.74565302,17.4845224 C7.73169591,17.4725926 7.71734893,17.4615205 7.70276803,17.4506823 C7.69528265,17.4452242 7.68810916,17.4395322 7.68038986,17.43423 C7.66152047,17.4212865 7.64210526,17.4095127 7.62245614,17.3983626 C7.61816764,17.3959454 7.61411306,17.3932164 7.60982456,17.3908772 C7.58385965,17.3769201 7.5574269,17.3642885 7.53037037,17.3534503 C6.55610136,16.9606238 5.92654971,16.0548148 5.92654971,15.0453801 C5.92654971,14.3766082 6.19555556,13.7584405 6.65996101,13.3022222 C7.05840156,13.8877973 7.72615984,14.2683821 8.48358674,14.2683821 C8.91423002,14.2683821 9.26331384,13.9192982 9.26331384,13.488655 C9.26331384,13.0580117 8.91423002,12.7089279 8.48358674,12.7089279 C8.13263158,12.7089279 7.84654971,12.4259649 7.83235867,12.0647953 C7.83220273,12.0611306 7.83157895,12.0576218 7.83134503,12.0539571 C7.83072125,12.0420273 7.82931774,12.0301754 7.82814815,12.0182456 C7.82658869,12.0024172 7.82495127,11.9866667 7.82245614,11.9712281 C7.82074074,11.9606238 7.81847953,11.9501754 7.81637427,11.9397271 C7.81294347,11.922963 7.80927875,11.9063548 7.80483431,11.8900585 C7.80226121,11.8806238 7.79929825,11.8712671 7.79641326,11.8619103 C7.79111111,11.8449903 7.78534113,11.8283821 7.77894737,11.8120078 C7.7754386,11.8030409 7.77177388,11.794152 7.76795322,11.7853411 C7.76093567,11.7691228 7.75321637,11.7532943 7.74518519,11.7376218 C7.74066277,11.7288889 7.73621832,11.7202339 7.73138402,11.7116569 C7.72265107,11.6962183 7.71321637,11.6814035 7.70346979,11.6666667 C7.69949318,11.6606628 7.6962963,11.654347 7.69216374,11.648499 C7.10019493,10.8024951 7.09933723,9.67298246 7.69037037,8.83727096 C8.15025341,8.18580897 8.89964912,7.78393762 9.71493177,7.74401559 C10.0247173,8.59953216 10.8523977,9.21341131 11.8226121,9.21341131 C12.2532554,9.21341131 12.6023392,8.86432749 12.6023392,8.43368421 C12.6023392,8.00304094 12.2532554,7.65395712 11.8226121,7.65395712 C11.4968421,7.65395712 11.2241715,7.43150097 11.1589084,7.13598441 C11.4175439,6.62074074 11.8612865,6.22690058 12.4266667,6.01660819 C13.1616374,5.79516569 13.7760624,5.81582846 14.3291228,6.08538012 L14.3291228,24.0038986 C14.0110721,24.1516569 13.6593372,24.2293957 13.2934893,24.2311111 C12.1924366,24.1915789 11.3826901,23.6240156 11.0124756,22.6316569 Z M23.5574269,16.7954776 C23.1589864,16.2099025 22.4912281,15.8293177 21.7337232,15.8293177 C21.3031579,15.8293177 20.9539961,16.1784016 20.9539961,16.6090448 C20.9539961,17.0396881 21.3031579,17.3887719 21.7337232,17.3887719 C22.0846784,17.3887719 22.3707602,17.6717349 22.3850292,18.0329045 C22.3851852,18.0367251 22.385809,18.0403899 22.3860429,18.0441326 C22.3865887,18.0550487 22.3879142,18.065809 22.3889279,18.0766472 C22.3905653,18.0933333 22.3923587,18.1099415 22.3949318,18.1263158 C22.3964912,18.1359064 22.3984405,18.1454191 22.4003899,18.1550097 C22.4038986,18.1727096 22.4078752,18.1902534 22.4126316,18.2075634 C22.4148928,18.2159064 22.4173099,18.2240936 22.419883,18.2323587 C22.425575,18.2506823 22.4318908,18.268694 22.4388304,18.2863938 C22.4417154,18.2937232 22.4445224,18.3009747 22.4475634,18.3082261 C22.4555945,18.3269396 22.4644055,18.3452632 22.4738402,18.3631189 C22.4769591,18.3691228 22.479922,18.3752827 22.4831969,18.3812086 C22.4948928,18.4021832 22.5075244,18.4224561 22.5210136,18.4421053 C22.5225731,18.4443665 22.5237427,18.4468616 22.5253801,18.4491228 C23.1173489,19.2952047 23.1182846,20.4246394 22.5271735,21.2603509 C22.0672904,21.9118129 21.3178947,22.3136842 20.5026121,22.3536062 C20.1928265,21.4980897 19.3651462,20.8842105 18.3950097,20.8842105 C17.9644444,20.8842105 17.6152827,21.2332943 17.6152827,21.6639376 C17.6152827,22.0945809 17.9644444,22.4436647 18.3950097,22.4436647 C18.7207797,22.4436647 18.9933723,22.6661209 19.0586355,22.9615595 C18.8003119,23.4762573 18.357271,23.8697856 17.7928265,24.0802339 C17.2899025,24.2247173 16.4931774,24.0816374 15.8884211,23.9006628 L15.8884211,6.09403509 C16.2064717,5.9462768 16.5581287,5.86853801 16.9238986,5.86682261 C18.0248733,5.9062768 18.8346979,6.47391813 19.2049123,7.46619883 C19.3306043,7.80319688 19.6705653,8.00990253 20.0275244,7.96795322 C21.1729435,7.83157895 22.111423,8.34814815 22.6032749,9.38573099 C22.8088109,9.87532164 22.8252632,10.4240936 22.6651852,10.9263938 C21.882885,10.6536452 20.9870565,10.8216764 20.3732554,11.4353216 C20.0687719,11.7398051 20.0687719,12.2335283 20.3732554,12.5380897 C20.6778168,12.8425731 21.171384,12.8425731 21.4760234,12.5380897 C21.7244444,12.2897466 22.1593762,12.3051852 22.425809,12.5717739 C22.4324366,12.5784016 22.4396881,12.5840936 22.4464717,12.5904873 C22.4547368,12.5982066 22.4630019,12.605848 22.4716569,12.6132554 C22.485614,12.6251852 22.499961,12.6362573 22.5145419,12.6470175 C22.5220273,12.6525536 22.5293567,12.6582456 22.5369981,12.6635478 C22.5557115,12.6764133 22.5749708,12.6881092 22.5945419,12.6991033 C22.5989864,12.7015984 22.6031969,12.7044055 22.6076413,12.7068226 C22.6335283,12.7207797 22.659883,12.7333333 22.6868616,12.7440936 C23.6612865,13.1368421 24.2908382,14.042807 24.2908382,15.0522417 C24.2908382,15.7210916 24.0218324,16.3392593 23.5574269,16.7954776 Z" id="Shape" fill="#000000"></path>
                        </g>
                    </g>
                </g>
            </g>
        </g>
    </g>
</svg>