<?xml version="1.0" encoding="UTF-8"?>
<svg width="30px" height="41px" viewBox="0 0 30 41" version="1.1" xmlns="http://www.w3.org/2000/svg" xmlns:xlink="http://www.w3.org/1999/xlink">
    <!-- Generator: Sketch 49.2 (51160) - http://www.bohemiancoding.com/sketch -->
    <title>calculator</title>
    <desc>Created with Sketch.</desc>
    <defs>
        <polygon id="path-1" points="0.000152542373 0.4 29.5632203 0.4 29.5632203 39.99975 0.000152542373 39.99975"></polygon>
        <polygon id="path-3" points="0 41 30 41 30 1 0 1"></polygon>
    </defs>
    <g id="Page-1" stroke="none" stroke-width="1" fill="none" fill-rule="evenodd">
        <g id="Home_valor" transform="translate(-515.000000, -923.000000)">
            <g id="to_calc" transform="translate(136.000000, 900.000000)">
                <g id="calculator" transform="translate(379.000000, 23.000000)">
                    <g id="Group-3">
                        <mask id="mask-2" fill="white">
                            <use xlink:href="#path-1"></use>
                        </mask>
                        <g id="Clip-2"></g>
                        <path d="M26.3015085,39.99975 L3.26201695,39.99975 C1.46354237,39.99975 0.000152542373,38.56125 0.000152542373,36.79275 L0.000152542373,3.60725 C0.000152542373,1.83875 1.46354237,0.39975 3.26201695,0.39975 L26.3015085,0.39975 C28.0999831,0.39975 29.5633729,1.83875 29.5633729,3.60725 L29.5633729,36.79275 C29.5633729,38.56125 28.0999831,39.99975 26.3015085,39.99975" id="Fill-1" fill="#455377" mask="url(#mask-2)"></path>
                    </g>
                    <path d="M24.13877,5 L17.7823953,5 L11,16 L24.13877,16 C25.1651874,16 26,15.2177778 26,14.2571111 L26,6.74288889 C26,5.78271111 25.1651874,5 24.13877,5" id="Fill-4" fill="#556082"></path>
                    <path d="M5.87973945,5 C4.84340525,5 4,5.78271111 4,6.74288889 L4,14.2571111 C4,15.2177778 4.84340525,16 5.87973945,16 L11.1520765,16 L18,5 L5.87973945,5 Z" id="Fill-6" fill="#676E8E"></path>
                    <path d="M5.44590786,6 C5.1997832,6 5,6.2047129 5,6.45573617 L5,14.5432113 C5,14.7947608 5.1997832,15 5.44590786,15 L23.5540921,15 C23.8002168,15 24,14.7947608 24,14.5432113 L24,6.45573617 C24,6.2047129 23.8002168,6 23.5540921,6 L5.44590786,6 Z" id="Fill-8" fill="#E6F1F7"></path>
                    <path d="M20.5,13 C20.2237037,13 20,12.7070805 20,12.3452958 L20,8.65470417 C20,8.29340446 20.2237037,8 20.5,8 C20.7762963,8 21,8.29340446 21,8.65470417 L21,12.3452958 C21,12.7070805 20.7762963,13 20.5,13" id="Fill-10" fill="#4D597C"></path>
                    <path d="M4.73149432,18.7314943 C5.70682007,17.7561686 7.29317993,17.7561686 8.26850568,18.7314943 C9.24383144,19.7068201 9.24383144,21.2931799 8.26850568,22.2685057 C7.29317993,23.2438314 5.70682007,23.2438314 4.73149432,22.2685057 C3.75616856,21.2931799 3.75616856,19.7068201 4.73149432,18.7314943" id="Fill-12" fill="#A0A8C4"></path>
                    <path d="M4.65946125,18.6594612 C5.53874291,17.7801796 6.96888779,17.7801796 7.84816945,18.6594612 C8.72745111,19.5387429 5.53874291,22.7274511 4.65946125,21.8481694 C3.78017958,20.9688878 3.78017958,19.5387429 4.65946125,18.6594612" id="Fill-14" fill="#B4B9D0"></path>
                    <path d="M4.73149432,25.7314943 C5.70682007,24.7561686 7.29317993,24.7561686 8.26850568,25.7314943 C9.24383144,26.7068201 9.24383144,28.2931799 8.26850568,29.2685057 C7.29317993,30.2438314 5.70682007,30.2438314 4.73149432,29.2685057 C3.75616856,28.2931799 3.75616856,26.7068201 4.73149432,25.7314943" id="Fill-16" fill="#A0A8C4"></path>
                    <path d="M4.65946125,25.6594612 C5.53874291,24.7801796 6.96888779,24.7801796 7.84816945,25.6594612 C8.72745111,26.5387429 5.53874291,29.7274511 4.65946125,28.8481694 C3.78017958,27.9688878 3.78017958,26.5387429 4.65946125,25.6594612" id="Fill-18" fill="#B4B9D0"></path>
                    <path d="M4.73149432,32.7314943 C5.70682007,31.7561686 7.29317993,31.7561686 8.26850568,32.7314943 C9.24383144,33.7068201 9.24383144,35.2931799 8.26850568,36.2685057 C7.29317993,37.2438314 5.70682007,37.2438314 4.73149432,36.2685057 C3.75616856,35.2931799 3.75616856,33.7068201 4.73149432,32.7314943" id="Fill-20" fill="#A0A8C4"></path>
                    <path d="M4.65946125,32.6594612 C5.53874291,31.7801796 6.96888779,31.7801796 7.84816945,32.6594612 C8.72745111,33.5387429 5.53874291,36.7274511 4.65946125,35.8481694 C3.78017958,34.9688878 3.78017958,33.5387429 4.65946125,32.6594612" id="Fill-22" fill="#B4B9D0"></path>
                    <path d="M12.7314943,25.7314943 C13.7068201,24.7561686 15.2931799,24.7561686 16.2685057,25.7314943 C17.2438314,26.7068201 17.2438314,28.2931799 16.2685057,29.2685057 C15.2931799,30.2438314 13.7068201,30.2438314 12.7314943,29.2685057 C11.7561686,28.2931799 11.7561686,26.7068201 12.7314943,25.7314943" id="Fill-24" fill="#A0A8C4"></path>
                    <path d="M12.6594612,25.6594612 C13.5387429,24.7801796 14.9688878,24.7801796 15.8481694,25.6594612 C16.7274511,26.5387429 13.5387429,29.7274511 12.6594612,28.8481694 C11.7801796,27.9688878 11.7801796,26.5387429 12.6594612,25.6594612" id="Fill-26" fill="#B4B9D0"></path>
                    <path d="M12.7314943,32.7314943 C13.7068201,31.7561686 15.2931799,31.7561686 16.2685057,32.7314943 C17.2438314,33.7068201 17.2438314,35.2931799 16.2685057,36.2685057 C15.2931799,37.2438314 13.7068201,37.2438314 12.7314943,36.2685057 C11.7561686,35.2931799 11.7561686,33.7068201 12.7314943,32.7314943" id="Fill-28" fill="#A0A8C4"></path>
                    <path d="M12.6594612,32.6594612 C13.5387429,31.7801796 14.9688878,31.7801796 15.8481694,32.6594612 C16.7274511,33.5387429 13.5387429,36.7274511 12.6594612,35.8481694 C11.7801796,34.9688878 11.7801796,33.5387429 12.6594612,32.6594612" id="Fill-30" fill="#B4B9D0"></path>
                    <path d="M21.7314943,25.7314943 C22.7068201,24.7561686 24.2931799,24.7561686 25.2685057,25.7314943 C26.2438314,26.7068201 26.2438314,28.2931799 25.2685057,29.2685057 C24.2931799,30.2438314 22.7068201,30.2438314 21.7314943,29.2685057 C20.7561686,28.2931799 20.7561686,26.7068201 21.7314943,25.7314943" id="Fill-32" fill="#A0A8C4"></path>
                    <path d="M21.6594612,25.6594612 C22.5387429,24.7801796 23.9688878,24.7801796 24.8481694,25.6594612 C25.7274511,26.5387429 22.5387429,29.7274511 21.6594612,28.8481694 C20.7801796,27.9688878 20.7801796,26.5387429 21.6594612,25.6594612" id="Fill-34" fill="#B4B9D0"></path>
                    <path d="M21.7314943,32.7314943 C22.7068201,31.7561686 24.2931799,31.7561686 25.2685057,32.7314943 C26.2438314,33.7068201 26.2438314,35.2931799 25.2685057,36.2685057 C24.2931799,37.2438314 22.7068201,37.2438314 21.7314943,36.2685057 C20.7561686,35.2931799 20.7561686,33.7068201 21.7314943,32.7314943" id="Fill-36" fill="#A0A8C4"></path>
                    <path d="M21.6594612,32.6594612 C22.5387429,31.7801796 23.9688878,31.7801796 24.8481694,32.6594612 C25.7274511,33.5387429 22.5387429,36.7274511 21.6594612,35.8481694 C20.7801796,34.9688878 20.7801796,33.5387429 21.6594612,32.6594612" id="Fill-38" fill="#B4B9D0"></path>
                    <path d="M12.7314943,18.7314943 C13.7068201,17.7561686 15.2931799,17.7561686 16.2685057,18.7314943 C17.2438314,19.7068201 17.2438314,21.2931799 16.2685057,22.2685057 C15.2931799,23.2438314 13.7068201,23.2438314 12.7314943,22.2685057 C11.7561686,21.2931799 11.7561686,19.7068201 12.7314943,18.7314943" id="Fill-40" fill="#68C3C9"></path>
                    <path d="M12.6594612,18.6594612 C13.5387429,17.7801796 14.9688878,17.7801796 15.8481694,18.6594612 C16.7274511,19.5387429 13.5387429,22.7274511 12.6594612,21.8481694 C11.7801796,20.9688878 11.7801796,19.5387429 12.6594612,18.6594612" id="Fill-42" fill="#A1D6DB"></path>
                    <path d="M21.7314943,18.7314943 C22.7068201,17.7561686 24.2931799,17.7561686 25.2685057,18.7314943 C26.2438314,19.7068201 26.2438314,21.2931799 25.2685057,22.2685057 C24.2931799,23.2438314 22.7068201,23.2438314 21.7314943,22.2685057 C20.7561686,21.2931799 20.7561686,19.7068201 21.7314943,18.7314943" id="Fill-44" fill="#E20714"></path>
                    <path d="M21.6594612,18.6594612 C22.5387429,17.7801796 23.9688878,17.7801796 24.8481694,18.6594612 C25.7274511,19.5387429 22.5387429,22.7274511 21.6594612,21.8481694 C20.7801796,20.9688878 20.7801796,19.5387429 21.6594612,18.6594612" id="Fill-46" fill="#EA5D40"></path>
                    <path d="M5.42717489,6 C5.19139013,6 5,6.2047129 5,6.45573617 L5,14.5432113 C5,14.7947608 5.19139013,15 5.42717489,15 L11.1304036,15 L16,6 L5.42717489,6 Z" id="Fill-48" fill="#F3F8FB"></path>
                    <mask id="mask-4" fill="white">
                        <use xlink:href="#path-3"></use>
                    </mask>
                    <g id="Clip-51"></g>
                    <polygon id="Fill-50" fill="#556082" mask="url(#mask-4)" points="0 9 2 9 2 7 0 7"></polygon>
                    <path d="M2.274853,38.2004113 L2.274853,1 C0.947900998,1.46507495 0,2.6526408 0,4.04532704 L0,37.7439676 C0,39.5392788 1.57418296,41 3.50881991,41 L4,41 C2.96950636,40.4323649 2.274853,39.3915312 2.274853,38.2004113" id="Fill-52" fill="#556082" mask="url(#mask-4)"></path>
                </g>
            </g>
        </g>
    </g>
</svg>