<?xml version="1.0" encoding="UTF-8"?>
<svg width="48px" height="43px" viewBox="0 0 48 43" version="1.1" xmlns="http://www.w3.org/2000/svg" xmlns:xlink="http://www.w3.org/1999/xlink">
    <!-- Generator: Sketch 49.2 (51160) - http://www.bohemiancoding.com/sketch -->
    <title>car</title>
    <desc>Created with Sketch.</desc>
    <defs>
        <polygon id="path-1" points="0 43 48 43 48 0 0 0"></polygon>
    </defs>
    <g id="Page-1" stroke="none" stroke-width="1" fill="none" fill-rule="evenodd">
        <g id="Precalificación_individual" transform="translate(-137.000000, -1545.000000)">
            <g id="domicilio-copy-2" transform="translate(99.000000, 1437.000000)">
                <g id="Group-5-Copy" transform="translate(38.000000, 108.000000)">
                    <g id="car">
                        <path d="M44.5341578,23.3188252 C43.8756153,20.9038251 42.1527194,18.9841477 39.9099532,18.1559924 L39.0382999,18.8162212 L20.4022091,15.644948 C18.7681594,15.3821854 17.2361628,15.180432 15.8062192,14.7696766 C15.0372194,14.5117464 14.4747269,14.0997829 14.1169408,13.533182 C13.7579541,12.9671853 13.5796614,12.1432583 13.5796614,11.0614011 L13.5796614,0.254305912 C11.9414095,0.105105056 10.2521311,0.0144972491 8.50282147,0 L5.96830352,0 C4.20878857,0 2.54532357,1.6689958 2.54532357,3.43463994 L2.54532357,20.7032798 L2.32320807,20.7679134 C1.53559851,21.0318842 0.940088846,21.4758624 0.553487814,22.0871631 C0.181294273,22.6755098 0,23.4571531 0,24.476793 L0,36.1271448 C0,36.6085743 0.388401969,37 0.868051387,37 L44.1325489,37 C44.611598,37 45,36.6085743 45,36.1271448 L45,26.4816417 C45,25.5163665 44.8433185,24.4520268 44.5341578,23.3188252" id="Fill-1" fill="#FFD320"></path>
                        <path d="M11.9295227,14.7224349 C12.6042918,15.7883912 13.6185335,16.5544161 14.9430139,16.9971149 L15.0474211,17.0295075 C16.3814473,17.4128199 17.7083141,17.6197726 19.1127406,17.8393224 L19.8883372,17.9616945 L37.3386644,20.9286163 C37.6166859,20.9760055 37.900077,21 38.1816782,21 C39.2764627,21 40.3420131,20.6424817 41.2166474,19.9802331 L42,19.3875686 C41.3216513,18.7751085 40.5645497,18.2670247 39.6976713,17.9466979 C39.1446112,18.3660021 38.4441878,18.5375628 37.7610662,18.4217893 L20.3101424,15.4542676 C18.6855658,15.1927274 17.16301,14.9923732 15.7418784,14.5844664 C14.978214,14.328325 14.4191878,13.9192185 14.0636066,13.3571469 C13.7068322,12.7944755 13.5290416,11.9762626 13.5290416,10.902508 L13.5290416,0.169761197 C12.7003464,0.0941784735 11.856736,0.0425902651 11,0 L11,10.902508 C11,12.486146 11.3042725,13.7362603 11.9295227,14.7224349" id="Fill-3" fill="#FFE078"></path>
                        <path d="M47,35.5 C47,39.0898353 44.0898353,42 40.5,42 C36.9101647,42 34,39.0898353 34,35.5 C34,31.9101647 36.9101647,29 40.5,29 C44.0898353,29 47,31.9101647 47,35.5" id="Fill-5" fill="#FFFFFF"></path>
                        <path d="M39.9997078,29.5798439 C37.0112721,29.5798439 34.5798439,32.0112721 34.5798439,34.9997078 C34.5798439,37.9887279 37.0112721,40.4201561 39.9997078,40.4201561 C42.9887279,40.4201561 45.4195717,37.9887279 45.4195717,34.9997078 C45.4195717,32.0112721 42.9887279,29.5798439 39.9997078,29.5798439 M39.9997078,42 C36.1398155,42 33,38.8596001 33,34.9997078 C33,31.1398155 36.1398155,28 39.9997078,28 C43.8596001,28 47,31.1398155 47,34.9997078 C47,38.8596001 43.8596001,42 39.9997078,42" id="Fill-7" fill="#E20714"></path>
                        <path d="M14,35.5 C14,39.0898353 11.0898353,42 7.5,42 C3.91016471,42 1,39.0898353 1,35.5 C1,31.9101647 3.91016471,29 7.5,29 C11.0898353,29 14,31.9101647 14,35.5" id="Fill-9" fill="#FFFFFF"></path>
                        <path d="M7,29.5798439 C4.01110462,29.5798439 1.58036236,32.0112721 1.58036236,34.9997078 C1.58036236,37.9887279 4.01110462,40.4201561 7,40.4201561 C9.98831093,40.4201561 12.4196376,37.9887279 12.4196376,34.9997078 C12.4196376,32.0112721 9.98831093,29.5798439 7,29.5798439 M7,42 C3.14026885,42 0,38.8596001 0,34.9997078 C0,31.1398155 3.14026885,28 7,28 C10.8597312,28 14,31.1398155 14,34.9997078 C14,38.8596001 10.8597312,42 7,42" id="Fill-11" fill="#E20714"></path>
                        <mask id="mask-2" fill="white">
                            <use xlink:href="#path-1"></use>
                        </mask>
                        <g id="Clip-14"></g>
                        <polygon id="Fill-13" fill="#FFD320" mask="url(#mask-2)" points="5 39 41 39 41 36 5 36"></polygon>
                        <path d="M0.548141059,22.0684503 C0.17954295,22.6575352 0,23.4401594 0,24.4610787 L0,36.1260495 C0,36.6086879 0.384649962,37 0.8590714,37 L40.1825445,37 L41,28.6596698 L11.273157,20.5279991 C9.97533496,20.159065 8.57228409,20 7.16031553,20 C4.70676005,20 2.58969897,20.6338409 2.30076562,20.7475452 C2.01183226,20.8612495 0.931007482,21.4563825 0.548141059,22.0684503" id="Fill-15" fill="#FFE078" mask="url(#mask-2)"></path>
                        <path d="M40,43 C36.1402358,43 33,39.6354616 33,35.5 C33,31.3645384 36.1402358,28 40,28 C43.8597642,28 47,31.3645384 47,35.5 C47,39.6354616 43.8597642,43 40,43" id="Fill-16" fill="#455377" mask="url(#mask-2)"></path>
                        <path d="M39.9996917,42 C36.139749,42 33,38.860251 33,35.0003083 C33,31.1403656 36.139749,28 39.9996917,28 C43.8596344,28 47,31.1403656 47,35.0003083 C47,38.860251 43.8596344,42 39.9996917,42" id="Fill-17" fill="#4D597C" mask="url(#mask-2)"></path>
                        <path d="M41,32 C38.7946218,32 37,33.7946218 37,36 C37,38.2060072 38.7946218,40 41,40 C43.2053782,40 45,38.2060072 45,36 C45,33.7946218 43.2053782,32 41,32" id="Fill-18" fill="#AAB0CA" mask="url(#mask-2)"></path>
                        <path d="M40.5,32 C38.569784,32 37,33.5702686 37,35.5003123 C37,37.4297314 38.569784,39 40.5,39 C42.4295913,39 44,37.4297314 44,35.5003123 C44,33.5702686 42.4295913,32 40.5,32" id="Fill-19" fill="#A0A8C4" mask="url(#mask-2)"></path>
                        <path d="M7,43 C3.1402358,43 0,39.6354616 0,35.5 C0,31.3645384 3.1402358,28 7,28 C10.8597642,28 14,31.3645384 14,35.5 C14,39.6354616 10.8597642,43 7,43" id="Fill-20" fill="#455377" mask="url(#mask-2)"></path>
                        <path d="M6.9996917,42 C3.13974895,42 0,38.860251 0,35.0003083 C0,31.1403656 3.13974895,28 6.9996917,28 C10.8596344,28 14,31.1403656 14,35.0003083 C14,38.860251 10.8596344,42 6.9996917,42" id="Fill-21" fill="#4D597C" mask="url(#mask-2)"></path>
                        <path d="M7,32 C4.7946218,32 3,33.7946218 3,36 C3,38.2060072 4.7946218,40 7,40 C9.2053782,40 11,38.2060072 11,36 C11,33.7946218 9.2053782,32 7,32" id="Fill-22" fill="#AAB0CA" mask="url(#mask-2)"></path>
                        <path d="M7.5,32 C5.56978404,32 4,33.5702686 4,35.5003123 C4,37.4297314 5.56978404,39 7.5,39 C9.42959129,39 11,37.4297314 11,35.5003123 C11,33.5702686 9.42959129,32 7.5,32" id="Fill-23" fill="#A0A8C4" mask="url(#mask-2)"></path>
                        <path d="M14.5311203,12.9800072 C14.8844102,13.5332651 15.439834,13.9365469 16.1985774,14.1880814 C17.611144,14.5901824 19.1238886,14.7873949 20.7374037,15.0442435 L38.0764671,17.9652323 C38.754594,18.0791904 39.4505039,17.9103198 40,17.4981811 L40,17.322225 C40,12.827079 35.1315945,8.30477196 34.5761707,7.80406477 C29.7385892,3.43881919 22.6858328,0.782354984 14,0 L14,10.5638589 C14,11.6207762 14.1766449,12.426159 14.5311203,12.9800072" id="Fill-24" fill="#E6F1F7" mask="url(#mask-2)"></path>
                        <path d="M34.5840732,7.57461142 C33.9868415,7.02277291 33.3546874,6.49810369 32.6911624,6 L27,16.0532418 L38.0786778,17.9641487 C38.7564085,18.0812785 39.4513045,17.9086026 40,17.4871767 L40,17.3078594 C40,12.7108151 35.1386878,8.08660163 34.5840732,7.57461142" id="Fill-25" fill="#DBEAF1" mask="url(#mask-2)"></path>
                    </g>
                </g>
            </g>
        </g>
    </g>
</svg>