<?xml version="1.0" encoding="UTF-8"?>
<svg width="46px" height="40px" viewBox="0 0 46 40" version="1.1" xmlns="http://www.w3.org/2000/svg" xmlns:xlink="http://www.w3.org/1999/xlink">
    <!-- Generator: Sketch 49.2 (51160) - http://www.bohemiancoding.com/sketch -->
    <title>cardiogram</title>
    <desc>Created with Sketch.</desc>
    <defs></defs>
    <g id="Page-1" stroke="none" stroke-width="1" fill="none" fill-rule="evenodd">
        <g id="Datos_Clínicos" transform="translate(-136.000000, -2222.000000)" fill-rule="nonzero">
            <g id="datos-personales-copy-2" transform="translate(99.000000, 1576.000000)">
                <g id="datos-personales" transform="translate(37.000000, 40.000000)">
                    <g id="Group-5-Copy-8" transform="translate(0.000000, 606.000000)">
                        <g id="cardiogram">
                            <path d="M17.0996721,8.80262295 C17.2384699,8.4157377 17.6276503,8.17748634 18.0355191,8.23092896 C18.4430601,8.28404372 18.7586885,8.61387978 18.7937705,9.02338798 L20.190929,25.3474317 L22.8072131,15.9167213 C22.9142077,15.5312568 23.267541,15.2661202 23.669071,15.2763934 C24.0689617,15.2852459 24.4119126,15.5642623 24.5017486,15.9540984 L25.9586885,22.2746448 L28.4462295,11.8230601 C28.5436066,11.4140984 28.9186885,11.1339891 29.3379235,11.1521311 C29.7578142,11.1719126 30.104153,11.4877596 30.162623,11.9040437 L32.0191257,25.139235 L32.8514754,22.4493989 C32.9648087,22.0832787 33.3034973,21.8335519 33.686776,21.8335519 L43.0405464,21.8335519 C44.4134426,19.7664481 45.3903825,17.7084153 45.7154098,15.7288525 C46.4288525,11.347541 45.7328962,7.73420765 43.6421858,4.99092896 C41.5310383,2.22153005 38.324153,0.641420765 33.8291803,0.16 C33.3972678,0.116612022 33.002623,0.0961748634 32.6114754,0.0961748634 C29.4302732,0.0961748634 26.2228415,1.27923497 23.7579235,3.28032787 C21.2965027,1.27923497 18.0862295,0.0961748634 14.9111475,0.0961748634 C14.5160656,0.0961748634 14.124918,0.116612022 13.6900546,0.16 C9.19519126,0.641420765 5.98491803,2.22153005 3.87650273,4.99092896 C1.7863388,7.73431694 1.08972678,11.347541 1.80338798,15.7288525 C2.13355191,17.7396721 3.13551913,19.8308197 4.54163934,21.9298361 L12.3896175,21.9298361 L17.0996721,8.80262295 Z" id="Shape" fill="#E74424"></path>
                            <path d="M32.5323497,29.395847 C32.4112568,29.7871038 32.0338798,30.0421858 31.6268852,30.0088525 C31.2187978,29.9759563 30.8880874,29.6642623 30.8312568,29.2587978 L29.0746448,16.7354098 L26.7957377,26.3104918 C26.7020765,26.7044809 26.3499454,26.9822951 25.9452459,26.9824044 C25.944153,26.9824044 25.9431694,26.9824044 25.9421858,26.9824044 C25.5360656,26.9809836 25.1844809,26.7001093 25.093224,26.3044809 L23.5715847,19.7032787 L20.5768306,30.4979235 C20.470929,30.879235 20.1239344,31.1384699 19.7349727,31.1385792 C19.7078689,31.1385792 19.680765,31.1372678 19.6534426,31.1347541 C19.2321311,31.0956284 18.8993443,30.7603279 18.8632787,30.3386885 L17.3931148,13.1628415 L13.8278689,23.0994536 C13.7032787,23.446776 13.3739891,23.6784699 13.004918,23.6784699 L5.80087432,23.6784699 C8.70808743,27.4664481 12.6922404,31.2151913 16.1834973,34.4995628 C16.1834973,34.4995628 19.1587978,37.4864481 20.051694,38.2519126 C20.7255738,38.8289617 22.1810929,39.9887432 23.7609836,39.9887432 C25.3385792,39.9887432 26.7974863,38.8289617 27.4673224,38.2519126 C28.3603279,37.4863388 31.3355191,34.4995628 31.3355191,34.4995628 C34.8560656,31.1877596 38.8780328,27.4027322 41.7914754,23.5821858 L34.3315847,23.5821858 L32.5323497,29.395847 Z" id="Shape" fill="#E74424"></path>
                            <path d="M44.9428415,21.8335519 L43.0406557,21.8335519 L33.6868852,21.8335519 C33.3036066,21.8335519 32.9650273,22.0832787 32.8515847,22.4493989 L32.019235,25.139235 L30.1627322,11.9040437 C30.1042623,11.4877596 29.7579235,11.1719126 29.3380328,11.1521311 C28.9187978,11.1339891 28.5436066,11.4140984 28.4463388,11.8230601 L25.9587978,22.2746448 L24.5018579,15.9540984 C24.4120219,15.5642623 24.069071,15.2851366 23.6691803,15.2763934 C23.2676503,15.2661202 22.9143169,15.5312568 22.8073224,15.9167213 L20.1910383,25.3474317 L18.7938798,9.02338798 C18.7589071,8.61387978 18.4432787,8.28404372 18.0356284,8.23092896 C17.6277596,8.17748634 17.2385792,8.4157377 17.0997814,8.80262295 L12.3897268,21.9298361 L4.54174863,21.9298361 L0.87431694,21.9298361 C0.39147541,21.9298361 0,22.3213115 0,22.804153 C0,23.2869945 0.39147541,23.6784699 0.87431694,23.6784699 L5.80087432,23.6784699 L13.004918,23.6784699 C13.3738798,23.6784699 13.7032787,23.446776 13.8278689,23.0994536 L17.3931148,13.1628415 L18.8632787,30.3386885 C18.8993443,30.7603279 19.2321311,31.0955191 19.6534426,31.1347541 C19.680765,31.1372678 19.7078689,31.1385792 19.7349727,31.1385792 C20.1240437,31.1385792 20.470929,30.879235 20.5768306,30.4979235 L23.5715847,19.7032787 L25.093224,26.3044809 C25.1844809,26.7002186 25.5360656,26.9809836 25.9421858,26.9824044 C25.9432787,26.9824044 25.9442623,26.9824044 25.9452459,26.9824044 C26.3499454,26.9824044 26.7020765,26.7044809 26.7957377,26.3104918 L29.0746448,16.7354098 L30.8312568,29.2587978 C30.8881967,29.6642623 31.2187978,29.9759563 31.6268852,30.0088525 C32.0339891,30.0421858 32.4112568,29.7871038 32.5323497,29.395847 L34.3314754,23.5821858 L41.7913661,23.5821858 L44.9428415,23.5821858 C45.4256831,23.5821858 45.8171585,23.1907104 45.8171585,22.7078689 C45.8171585,22.2250273 45.4256831,21.8335519 44.9428415,21.8335519 Z" id="Shape" fill="#F7F1E6"></path>
                        </g>
                    </g>
                </g>
            </g>
        </g>
    </g>
</svg>