<?xml version="1.0" encoding="UTF-8"?>
<svg width="33px" height="41px" viewBox="0 0 33 41" version="1.1" xmlns="http://www.w3.org/2000/svg" xmlns:xlink="http://www.w3.org/1999/xlink">
    <!-- Generator: Sketch 49.2 (51160) - http://www.bohemiancoding.com/sketch -->
    <title>cigarette</title>
    <desc>Created with Sketch.</desc>
    <defs></defs>
    <g id="Page-1" stroke="none" stroke-width="1" fill="none" fill-rule="evenodd">
        <g id="Datos_Clínicos" transform="translate(-141.000000, -1357.000000)" fill-rule="nonzero">
            <g id="datos-personales-copy" transform="translate(99.000000, 715.000000)">
                <g id="datos-personales" transform="translate(36.000000, 40.000000)">
                    <g id="Group-5-Copy-6" transform="translate(2.000000, 602.000000)">
                        <g id="cigarette" transform="translate(4.000000, 0.000000)">
                            <rect id="Rectangle-path" fill="#ED5565" x="0.38703125" y="5.308125" width="21.2335938" height="11.865625"></rect>
                            <g id="Group" opacity="0.2" transform="translate(0.312500, 5.234375)" fill="#000000">
                                <rect id="Rectangle-path" x="0.07453125" y="0.07375" width="21.2335938" height="11.865625"></rect>
                            </g>
                            <path d="M29.7397656,30.2892188 C29.7397656,31.3242188 28.90125,32.1628125 27.86625,32.1628125 C26.83125,32.1628125 25.9927344,31.3242188 25.9927344,30.2892188 C25.9927344,29.2542969 26.83125,28.4157031 27.86625,28.4157031 C28.90125,28.4157031 29.7397656,29.2542969 29.7397656,30.2892188 Z" id="Shape" fill="#FFCE54"></path>
                            <g id="Group" opacity="0.5" transform="translate(25.937500, 28.359375)" fill="#FFFFFF">
                                <path d="M0.6796875,1.92984375 C0.6796875,1.00164063 1.35546875,0.236796875 2.24101563,0.088046875 C2.13914063,0.0703125 2.03546875,0.056328125 1.92875,0.056328125 C0.89375,0.056328125 0.055234375,0.894921875 0.055234375,1.92984375 C0.055234375,2.96484375 0.89375,3.8034375 1.92875,3.8034375 C2.03546875,3.8034375 2.13914062,3.789375 2.24101563,3.77171875 C1.35546875,3.62289062 0.6796875,2.858125 0.6796875,1.92984375 Z" id="Shape"></path>
                            </g>
                            <g id="Group" opacity="0.2" transform="translate(27.500000, 28.359375)" fill="#000000">
                                <path d="M1.61523438,1.92984375 C1.61523438,2.858125 0.93953125,3.62289062 0.053984375,3.77171875 C0.155859375,3.78945313 0.25953125,3.8034375 0.36625,3.8034375 C1.40125,3.8034375 2.23976563,2.96484375 2.23976563,1.92984375 C2.23976563,0.894921875 1.40125,0.056328125 0.36625,0.056328125 C0.25953125,0.056328125 0.155859375,0.070390625 0.053984375,0.088046875 C0.93953125,0.236875 1.61523438,1.00171875 1.61523438,1.92984375 Z" id="Shape"></path>
                            </g>
                            <path d="M27.2417188,15.3007812 C27.2417188,15.9942188 26.6794531,16.5498438 25.9927344,16.5498438 C25.3060156,16.5498438 24.7436719,15.9942188 24.7436719,15.3007812 C24.7436719,14.6073438 25.3060156,11.5536719 25.9927344,11.5536719 C26.6794531,11.5536719 27.2417188,14.6073438 27.2417188,15.3007812 Z" id="Shape" fill="#FFCE54"></path>
                            <g id="Group" opacity="0.5" transform="translate(24.687500, 11.484375)" fill="#FFFFFF">
                                <path d="M0.680625,3.81640625 C0.680625,3.23210937 1.08070312,0.977421875 1.61742187,0.2809375 C1.51734375,0.151015625 1.413125,0.069296875 1.30515625,0.069296875 C0.6184375,0.069296875 0.05609375,3.12296875 0.05609375,3.81640625 C0.05609375,4.50984375 0.6184375,5.06546875 1.30515625,5.06546875 C1.41375,5.06546875 1.51671875,5.0471875 1.61742187,5.0209375 C1.08132813,4.8825 0.680625,4.400625 0.680625,3.81640625 Z" id="Shape"></path>
                            </g>
                            <g id="Group" opacity="0.2" transform="translate(25.625000, 11.640625)" fill="#000000">
                                <path d="M0.9921875,3.66015625 C0.9921875,3.19664062 0.7409375,1.68289062 0.36890625,0.728515625 L0.601796875,0.06921875 C1.13789062,0.76875 1.61664062,3.0765625 1.61664062,3.66023437 C1.61664062,4.35367187 1.054375,4.90929687 0.36765625,4.90929687 C0.2590625,4.90929687 0.156015625,4.89101562 0.055390625,4.86476563 C0.591484375,4.72625 0.9921875,4.244375 0.9921875,3.66015625 Z" id="Shape"></path>
                            </g>
                            <path d="M27.86625,17.7988281 C28.5529687,17.7988281 29.1152344,18.3611719 29.1152344,19.0478906 L29.1152344,21.5459375 L24.1191406,21.5459375 L24.1191406,20.2969531 L24.1191406,17.7988281 L27.86625,17.7988281 Z" id="Shape" fill="#CCD1D9"></path>
                            <g id="Group" transform="translate(24.062500, 19.609375)" fill="#656D78">
                                <polygon id="Shape" points="7.55085938 1.9365625 7.55085938 3.18570312 0.056640625 3.18570312 0.056640625 1.9365625 5.05273438 1.9365625 6.92632812 1.9365625"></polygon>
                                <polygon id="Shape" points="6.92632812 0.063046875 6.92632812 1.9365625 5.05273438 1.9365625 5.05273438 0.063046875 6.30179688 0.063046875 6.77015625 0.063046875"></polygon>
                            </g>
                            <path d="M29.7397656,30.2892187 C29.7397656,29.2524219 28.9030469,28.4157031 27.86625,28.4157031 C26.8294531,28.4157031 25.9927344,29.2525 25.9927344,30.2892187 C25.9927344,31.3260156 26.8294531,32.1628125 27.86625,32.1628125 C28.9030469,32.1628125 29.7397656,31.3260937 29.7397656,30.2892187 Z M31.6133594,22.7950781 L31.6133594,39.6571094 L24.1191406,39.6571094 L24.1191406,22.7950781 L31.6133594,22.7950781 Z" id="Shape" fill="#5D9CEC"></path>
                            <g id="Group" opacity="0.4" transform="translate(24.062500, 22.734375)" fill="#FFFFFF">
                                <rect id="Rectangle-path" x="0.0565625" y="0.06046875" width="1" height="16.8617188"></rect>
                            </g>
                            <g id="Group" opacity="0.3" transform="translate(30.937500, 22.734375)" fill="#000000">
                                <rect id="Rectangle-path" x="0.05109375" y="0.06046875" width="1" height="16.8617188"></rect>
                            </g>
                            <rect id="Rectangle-path" fill="#FFCE54" x="2.26125" y="4.0596875" width="1.87359375" height="8.11875"></rect>
                            <rect id="Rectangle-path" fill="#E6E9ED" x="2.26125" y="12.1784375" width="1.87359375" height="4.99617187"></rect>
                            <g id="Group" opacity="0.5" transform="translate(2.187500, 3.984375)" fill="#FFFFFF">
                                <rect id="Rectangle-path" x="0.07375" y="0.0753125" width="1" height="8.11875"></rect>
                            </g>
                            <g id="Group" opacity="0.2" transform="translate(3.437500, 3.984375)" fill="#000000">
                                <rect id="Rectangle-path" x="0.0721875" y="0.0753125" width="1" height="8.11875"></rect>
                            </g>
                            <g id="Group" opacity="0.2" transform="translate(3.437500, 12.109375)" fill="#000000">
                                <rect id="Rectangle-path" x="0.0721875" y="0.0690625" width="1" height="4.99617188"></rect>
                            </g>
                            <rect id="Rectangle-path" fill="#FFFFFF" x="2.26125" y="12.1784375" width="1" height="4.99617187"></rect>
                            <rect id="Rectangle-path" fill="#FFCE54" x="14.7510938" y="4.0596875" width="1.87351562" height="8.11875"></rect>
                            <rect id="Rectangle-path" fill="#E6E9ED" x="14.7510938" y="12.1784375" width="1.87351562" height="4.99617187"></rect>
                            <g id="Group" opacity="0.5" transform="translate(14.687500, 3.984375)" fill="#FFFFFF">
                                <rect id="Rectangle-path" x="0.06359375" y="0.0753125" width="1" height="8.11875"></rect>
                            </g>
                            <g id="Group" opacity="0.2" transform="translate(15.937500, 3.984375)" fill="#000000">
                                <rect id="Rectangle-path" x="0.0628125" y="0.0753125" width="1" height="8.11875"></rect>
                            </g>
                            <g id="Group" opacity="0.2" transform="translate(15.937500, 12.109375)" fill="#000000">
                                <rect id="Rectangle-path" x="0.0628125" y="0.0690625" width="1" height="4.37164063"></rect>
                            </g>
                            <rect id="Rectangle-path" fill="#FFFFFF" x="14.7510938" y="12.1784375" width="1" height="4.37164063"></rect>
                            <rect id="Rectangle-path" fill="#FFCE54" x="17.87375" y="6.55734375" width="1.87359375" height="8.11875"></rect>
                            <rect id="Rectangle-path" fill="#E6E9ED" x="17.87375" y="14.6760937" width="1.87359375" height="2.49804688"></rect>
                            <g id="Group" opacity="0.5" transform="translate(17.812500, 6.484375)" fill="#FFFFFF">
                                <rect id="Rectangle-path" x="0.06125" y="0.07296875" width="1" height="8.11875"></rect>
                            </g>
                            <g id="Group" opacity="0.2" transform="translate(19.062500, 6.484375)" fill="#000000">
                                <rect id="Rectangle-path" x="0.06046875" y="0.07296875" width="1" height="8.11875"></rect>
                            </g>
                            <g id="Group" opacity="0.2" transform="translate(19.062500, 14.609375)" fill="#000000">
                                <rect id="Rectangle-path" x="0.06046875" y="0.06671875" width="1" height="2.49804688"></rect>
                            </g>
                            <rect id="Rectangle-path" fill="#FFFFFF" x="17.87375" y="14.6760937" width="1" height="2.49804688"></rect>
                            <rect id="Rectangle-path" fill="#FFCE54" x="5.383125" y="2.18625" width="1.87351563" height="8.11875"></rect>
                            <rect id="Rectangle-path" fill="#E6E9ED" x="5.383125" y="10.3042188" width="1.87351563" height="6.86953125"></rect>
                            <g id="Group" opacity="0.5" transform="translate(5.312500, 2.109375)" fill="#FFFFFF">
                                <rect id="Rectangle-path" x="0.070625" y="0.076875" width="1" height="8.11875"></rect>
                            </g>
                            <g id="Group" opacity="0.2" transform="translate(6.562500, 2.109375)" fill="#000000">
                                <rect id="Rectangle-path" x="0.06984375" y="0.076875" width="1" height="8.11875"></rect>
                            </g>
                            <g id="Group" opacity="0.2" transform="translate(6.562500, 10.234375)" fill="#000000">
                                <rect id="Rectangle-path" x="0.06984375" y="0.06984375" width="1" height="6.24515625"></rect>
                            </g>
                            <rect id="Rectangle-path" fill="#FFFFFF" x="5.383125" y="10.3042188" width="1" height="6.24515625"></rect>
                            <rect id="Rectangle-path" fill="#FFCE54" x="11.6284375" y="2.18625" width="1.87351563" height="8.11875"></rect>
                            <rect id="Rectangle-path" fill="#E6E9ED" x="11.6284375" y="10.3042188" width="1.87351563" height="6.86953125"></rect>
                            <g id="Group" opacity="0.5" transform="translate(11.562500, 2.109375)" fill="#FFFFFF">
                                <rect id="Rectangle-path" x="0.0659375" y="0.076875" width="1" height="8.11875"></rect>
                            </g>
                            <g id="Group" opacity="0.2" transform="translate(12.812500, 2.109375)" fill="#000000">
                                <rect id="Rectangle-path" x="0.06515625" y="0.076875" width="1" height="8.11875"></rect>
                            </g>
                            <g id="Group" opacity="0.2" transform="translate(12.812500, 10.234375)" fill="#000000">
                                <rect id="Rectangle-path" x="0.06515625" y="0.06984375" width="1" height="6.24515625"></rect>
                            </g>
                            <rect id="Rectangle-path" fill="#FFFFFF" x="11.6284375" y="10.3042188" width="1" height="6.24515625"></rect>
                            <rect id="Rectangle-path" fill="#FFCE54" x="8.50578125" y="0.312265625" width="1.87351563" height="8.11875"></rect>
                            <rect id="Rectangle-path" fill="#E6E9ED" x="8.50578125" y="8.43078125" width="1.87351563" height="8.74296875"></rect>
                            <g id="Group" opacity="0.5" transform="translate(8.437500, 0.234375)" fill="#FFFFFF">
                                <rect id="Rectangle-path" x="0.06828125" y="0.077890625" width="1" height="8.11875"></rect>
                            </g>
                            <g id="Group" opacity="0.2" transform="translate(9.687500, 0.234375)" fill="#000000">
                                <rect id="Rectangle-path" x="0.0675" y="0.077890625" width="1" height="8.11875"></rect>
                            </g>
                            <g id="Group" opacity="0.2" transform="translate(9.687500, 8.359375)" fill="#000000">
                                <rect id="Rectangle-path" x="0.0675" y="0.07140625" width="1" height="8.11875"></rect>
                            </g>
                            <rect id="Rectangle-path" fill="#FFFFFF" x="8.50578125" y="8.43078125" width="1" height="8.11875"></rect>
                            <path d="M21.6210156,39.6571094 L0.387265625,39.6571094 L0.387265625,12.1782031 C3.7471875,12.1782031 1.87992187,17.174375 4.13445312,17.174375 L17.8738281,17.174375 C19.7474219,17.174375 18.4983594,12.1782031 21.6210156,12.1782031 L21.6210156,39.6571094 Z" id="Shape" fill="#ED5565"></path>
                            <g id="Group" opacity="0.3" transform="translate(0.312500, 12.109375)" fill="#FFFFFF">
                                <path d="M0.074765625,0.068828125 L0.074765625,27.5477344 L1.32382812,27.5477344 L1.32382812,0.428671875 C1.014375,0.2090625 0.618203125,0.068828125 0.074765625,0.068828125 Z" id="Shape"></path>
                            </g>
                            <g id="Group" opacity="0.2" transform="translate(20.312500, 12.109375)" fill="#000000">
                                <path d="M1.30851563,0.068828125 L1.30851563,27.5477344 L0.059453125,27.5477344 L0.059453125,0.428671875 C0.369296875,0.2090625 0.765703125,0.068828125 1.30851563,0.068828125 Z" id="Shape"></path>
                            </g>
                            <circle id="Oval" fill="#FFCE54" cx="11.0042187" cy="27.1667188" r="5.62070313"></circle>
                            <g id="Group" opacity="0.5" transform="translate(5.312500, 21.484375)" fill="#FFFFFF">
                                <path d="M1.32,5.68234375 C1.32,2.7890625 3.50609375,0.409296875 6.31617187,0.098203125 C6.1109375,0.075625 5.90296875,0.0615625 5.69164062,0.0615625 C2.58742187,0.0615625 0.071015625,2.57796875 0.071015625,5.68226562 C0.071015625,8.78648437 2.58742187,11.3028906 5.69164062,11.3028906 C5.90296875,11.3028906 6.1109375,11.2888281 6.31617187,11.2663281 C3.50609375,10.9553906 1.32,8.575625 1.32,5.68234375 Z" id="Shape"></path>
                            </g>
                            <g id="Group" opacity="0.2" transform="translate(10.312500, 21.484375)" fill="#000000">
                                <path d="M5.06328125,5.68234375 C5.06328125,8.575625 2.8771875,10.9553906 0.0671875,11.2664844 C0.272109375,11.2889844 0.480703125,11.3030469 0.691640625,11.3030469 C3.7959375,11.3030469 6.31234375,8.78664063 6.31234375,5.68242188 C6.31234375,2.578125 3.7959375,0.06171875 0.691640625,0.06171875 C0.480703125,0.06171875 0.272109375,0.07578125 0.0671875,0.098359375 C2.87710937,0.409296875 5.06328125,2.7890625 5.06328125,5.68234375 Z" id="Shape"></path>
                            </g>
                            <g id="Group" opacity="0.2" transform="translate(5.312500, 16.484375)" fill="#000000">
                                <rect id="Rectangle-path" x="0.070625" y="0.06515625" width="1.87351563" height="1"></rect>
                            </g>
                            <g id="Group" opacity="0.2" transform="translate(8.437500, 16.484375)" fill="#000000">
                                <rect id="Rectangle-path" x="0.06828125" y="0.06515625" width="1.87351563" height="1"></rect>
                            </g>
                            <g id="Group" opacity="0.2" transform="translate(11.562500, 16.484375)" fill="#000000">
                                <rect id="Rectangle-path" x="0.0659375" y="0.06515625" width="1.87351563" height="1"></rect>
                            </g>
                            <g id="Group" opacity="0.2" transform="translate(14.687500, 16.484375)" fill="#000000">
                                <rect id="Rectangle-path" x="0.06359375" y="0.06515625" width="1.87351563" height="1"></rect>
                            </g>
                            <g id="Group" opacity="0.2" transform="translate(24.062500, 21.484375)" fill="#FFFFFF">
                                <rect id="Rectangle-path" x="0.0565625" y="0.06125" width="1" height="1.2490625"></rect>
                            </g>
                            <rect id="Rectangle-path" fill="#FFFFFF" x="24.1190625" y="17.79875" width="1" height="3.74710937"></rect>
                            <g id="Group" opacity="0.2" transform="translate(30.937500, 21.484375)" fill="#000000">
                                <rect id="Rectangle-path" x="0.05109375" y="0.06125" width="1" height="1.2490625"></rect>
                            </g>
                            <g id="Group" opacity="0.2" transform="translate(29.062500, 19.609375)" fill="#000000">
                                <rect id="Rectangle-path" x="0.05265625" y="0.0628125" width="1" height="1.87351563"></rect>
                            </g>
                            <g id="Group" opacity="0.2" transform="translate(29.687500, 19.609375)" fill="#000000">
                                <rect id="Rectangle-path" x="0.05265625" y="0.0628125" width="1.24898438" height="1"></rect>
                            </g>
                            <g id="Group" fill="#3A3847">
                                <path d="M12.2532031,28.7279687 C12.1733594,28.7279687 12.0933594,28.6974219 12.0324219,28.6364844 L9.53429688,26.1383594 C9.41226563,26.0163281 9.41226563,25.81875 9.53429688,25.6967969 C9.65632813,25.5748437 9.85390625,25.5748437 9.97585938,25.6967969 L12.4739844,28.195 C12.5959375,28.3169531 12.5959375,28.5145312 12.4739844,28.6364844 C12.4129687,28.6974219 12.333125,28.7279687 12.2532031,28.7279687 Z" id="Shape"></path>
                                <path d="M9.75515625,26.2298438 C9.6753125,26.2298438 9.59507812,26.199375 9.5340625,26.1383594 C9.41234375,26.0163281 9.41234375,25.818125 9.5346875,25.6967969 L15.7792969,19.4516406 C15.9013281,19.3303125 16.0992188,19.3303125 16.2208594,19.4510156 C16.343125,19.5729688 16.343125,19.7705469 16.2214844,19.8932031 L9.97570312,26.1383594 C9.91484375,26.1994531 9.835,26.2298438 9.75515625,26.2298438 Z" id="Shape"></path>
                                <path d="M7.26953125,31.6822656 C7.19546875,31.6822656 7.12140625,31.6560156 7.0615625,31.6029688 C5.79671875,30.4746875 5.07117188,28.8578906 5.07117188,27.1667188 C5.07117188,23.8953125 7.73265625,21.2338281 11.0040625,21.2338281 C11.4398438,21.2338281 11.8683594,21.2807812 12.3135156,21.3783594 C12.4821875,21.415 12.5889063,21.5814844 12.5520312,21.7497656 C12.5153906,21.9186719 12.3477344,22.0248438 12.180625,21.9882812 C8.77195312,21.2472656 5.69601563,23.8496094 5.69570312,27.1667969 C5.69570312,28.6798437 6.34515625,30.1271875 7.4775,31.1371094 C7.60617187,31.2517969 7.6175,31.449375 7.5025,31.5780469 C7.44085937,31.646875 7.35523437,31.6822656 7.26953125,31.6822656 Z" id="Shape"></path>
                                <path d="M11.0041406,33.0996094 C10.5705469,33.0996094 10.1277344,33.0507812 9.68867188,32.9550781 C9.52,32.9184375 9.41328125,32.7519531 9.45015625,32.5835937 C9.48679688,32.4146875 9.65476563,32.3091406 9.8215625,32.3451562 C10.2171094,32.4311719 10.615,32.475 11.0041406,32.475 C13.9313281,32.475 16.3125781,30.0934375 16.3125781,27.1666406 C16.3125781,25.6602344 15.6676563,24.2172656 14.5427344,23.2085156 C14.4142969,23.0932031 14.4036719,22.89625 14.5189063,22.7675 C14.6347656,22.6388281 14.8314844,22.6291406 14.9599219,22.7436719 C16.2165625,23.8707812 16.9371875,25.4827344 16.9371875,27.1665625 C16.9371094,30.438125 14.275625,33.0996094 11.0041406,33.0996094 Z" id="Shape"></path>
                                <path d="M6.6325,34.3486719 C6.55234375,34.3486719 6.47242187,34.318125 6.41148437,34.2564844 C6.28945312,34.1345313 6.29007812,33.9369531 6.41210938,33.815 L12.0324219,28.1949219 C12.1544531,28.0728906 12.3520312,28.0728906 12.4739844,28.1949219 C12.5959375,28.316875 12.5959375,28.5144531 12.4739844,28.6364063 L6.85296875,34.2576563 C6.79203125,34.3182031 6.71210937,34.3486719 6.6325,34.3486719 Z" id="Shape"></path>
                                <path d="M0.387265625,39.969375 C0.2146875,39.969375 0.075,39.8296875 0.075,39.6571094 L0.075,12.1782031 C0.075,12.005625 0.2146875,11.8659375 0.387265625,11.8659375 C0.559921875,11.8659375 0.69953125,12.0055469 0.69953125,12.1782031 L0.69953125,39.6571094 C0.69953125,39.8296875 0.559921875,39.969375 0.387265625,39.969375 Z" id="Shape"></path>
                                <path d="M21.6210156,39.969375 C21.4483594,39.969375 21.30875,39.8296875 21.30875,39.6571094 L21.30875,12.1782031 C21.30875,12.005625 21.4483594,11.8659375 21.6210156,11.8659375 C21.7935938,11.8659375 21.9332813,12.0055469 21.9332813,12.1782031 L21.9332813,39.6571094 C21.9332813,39.8296875 21.7935938,39.969375 21.6210156,39.969375 Z" id="Shape"></path>
                                <path d="M0.387265625,11.8659375 C0.2146875,11.8659375 0.075,11.72625 0.075,11.5536719 L0.075,5.30851563 C0.075,5.1359375 0.2146875,4.99625 0.387265625,4.99625 C0.559921875,4.99625 0.69953125,5.1359375 0.69953125,5.30851563 L0.69953125,11.5536719 C0.69953125,11.72625 0.559921875,11.8659375 0.387265625,11.8659375 Z" id="Shape"></path>
                                <path d="M21.6210156,11.8659375 C21.4483594,11.8659375 21.30875,11.72625 21.30875,11.5536719 L21.30875,5.30851563 C21.30875,5.1359375 21.4483594,4.99625 21.6210156,4.99625 C21.7935938,4.99625 21.9332813,5.1359375 21.9332813,5.30851563 L21.9332813,11.5536719 C21.9332813,11.72625 21.7935938,11.8659375 21.6210156,11.8659375 Z" id="Shape"></path>
                                <path d="M4.13445313,17.4865625 C2.85726563,17.4865625 2.63320313,16.2198437 2.435,15.1019531 C2.15570313,13.5242187 1.86195313,12.4904687 0.387265625,12.4904687 C0.2146875,12.4904687 0.075,12.3507812 0.075,12.1782031 C0.075,12.005625 0.2146875,11.8659375 0.387265625,11.8659375 C2.4959375,11.8659375 2.80335938,13.5997656 3.05007813,14.9933594 C3.28023438,16.2924219 3.4521875,16.8620313 4.13445313,16.8620313 C4.30703125,16.8620313 4.44664063,17.0017188 4.44664063,17.1742969 C4.44664063,17.3469531 4.30703125,17.4865625 4.13445313,17.4865625 Z" id="Shape"></path>
                                <path d="M17.8738281,17.4865625 C17.70125,17.4865625 17.5616406,17.346875 17.5616406,17.1742969 C17.5616406,17.0017188 17.70125,16.8620313 17.8738281,16.8620313 C18.4166406,16.8620313 18.6026562,16.1844531 18.8617969,15.078125 C19.1966406,13.6473437 19.6138281,11.8658594 21.6209375,11.8658594 C21.7935156,11.8658594 21.9332031,12.0054688 21.9332031,12.178125 C21.9332031,12.3507812 21.7935156,12.4903906 21.6209375,12.4903906 C20.2175781,12.4903906 19.8436719,13.6223438 19.4698437,15.2208594 C19.2089062,16.3345312 18.939375,17.4865625 17.8738281,17.4865625 Z" id="Shape"></path>
                                <path d="M17.8738281,17.4865625 L4.13445313,17.4865625 C3.96179688,17.4865625 3.8221875,17.346875 3.8221875,17.1742969 C3.8221875,17.0017188 3.96179688,16.8620313 4.13445313,16.8620313 L17.8738281,16.8620313 C18.0464844,16.8620313 18.1860938,17.0017188 18.1860938,17.1742969 C18.1861719,17.3469531 18.0464844,17.4865625 17.8738281,17.4865625 Z" id="Shape"></path>
                                <path d="M2.26085937,12.4904687 C2.08828125,12.4904687 1.94867188,12.3507812 1.94867188,12.1782031 L1.94867188,4.059375 C1.94867188,3.88679687 2.08828125,3.74710937 2.26085937,3.74710937 C2.43351562,3.74710937 2.573125,3.88679687 2.573125,4.059375 L2.573125,12.178125 C2.573125,12.3507813 2.43351563,12.4904687 2.26085937,12.4904687 Z" id="Shape"></path>
                                <path d="M4.13445313,16.8621094 C3.96179688,16.8621094 3.8221875,16.7224219 3.8221875,16.5498438 L3.8221875,4.059375 C3.8221875,3.88679687 3.96179688,3.74710937 4.13445313,3.74710937 C4.30703125,3.74710937 4.44664063,3.88679687 4.44664063,4.059375 L4.44664063,16.5497656 C4.44664063,16.7224219 4.30703125,16.8621094 4.13445313,16.8621094 Z" id="Shape"></path>
                                <path d="M4.13445313,4.37164063 L2.26085937,4.37164063 C2.08828125,4.37164063 1.94867188,4.23195313 1.94867188,4.059375 C1.94867188,3.88679687 2.08828125,3.74710937 2.26085937,3.74710937 L4.13445312,3.74710937 C4.30703125,3.74710937 4.44664062,3.88679687 4.44664062,4.059375 C4.44664063,4.23203125 4.30703125,4.37164063 4.13445313,4.37164063 Z" id="Shape"></path>
                                <path d="M4.13445313,12.4904687 L2.26085937,12.4904687 C2.08828125,12.4904687 1.94867188,12.3507812 1.94867188,12.1782031 C1.94867188,12.005625 2.08828125,11.8659375 2.26085937,11.8659375 L4.13445312,11.8659375 C4.30703125,11.8659375 4.44664062,12.0055469 4.44664062,12.1782031 C4.44664062,12.3508594 4.30703125,12.4904687 4.13445313,12.4904687 Z" id="Shape"></path>
                                <path d="M5.3834375,16.8621094 C5.21085938,16.8621094 5.07117188,16.7224219 5.07117188,16.5498438 L5.07117188,2.18585937 C5.07117188,2.01328125 5.21085938,1.87359375 5.3834375,1.87359375 C5.55601563,1.87359375 5.69570313,2.01328125 5.69570313,2.18585937 L5.69570313,16.5498438 C5.69578125,16.7224219 5.55601563,16.8621094 5.3834375,16.8621094 Z" id="Shape"></path>
                                <path d="M7.25703125,16.8621094 C7.08445312,16.8621094 6.94476562,16.7224219 6.94476562,16.5498438 L6.94476562,2.18585937 C6.94476562,2.01328125 7.08445312,1.87359375 7.25703125,1.87359375 C7.42960937,1.87359375 7.56929688,2.01328125 7.56929688,2.18585937 L7.56929688,16.5498438 C7.56929688,16.7224219 7.42960937,16.8621094 7.25703125,16.8621094 Z" id="Shape"></path>
                                <path d="M7.25703125,2.498125 L5.38351562,2.498125 C5.2109375,2.498125 5.07125,2.3584375 5.07125,2.18585937 C5.07125,2.01328125 5.2109375,1.87359375 5.38351562,1.87359375 L7.25703125,1.87359375 C7.42960937,1.87359375 7.56929688,2.01328125 7.56929688,2.18585937 C7.56929688,2.3584375 7.42960937,2.498125 7.25703125,2.498125 Z" id="Shape"></path>
                                <path d="M7.25703125,10.616875 L5.38351562,10.616875 C5.2109375,10.616875 5.07125,10.4772656 5.07125,10.3046094 C5.07125,10.1319531 5.2109375,9.99234375 5.38351562,9.99234375 L7.25703125,9.99234375 C7.42960937,9.99234375 7.56929688,10.1320312 7.56929688,10.3046094 C7.56929688,10.4771875 7.42960937,10.616875 7.25703125,10.616875 Z" id="Shape"></path>
                                <path d="M8.50609375,16.8621094 C8.3334375,16.8621094 8.19382812,16.7224219 8.19382812,16.5498438 L8.19382812,0.312265625 C8.19382812,0.1396875 8.3334375,0 8.50609375,0 C8.67867187,0 8.81828125,0.1396875 8.81828125,0.312265625 L8.81828125,16.5497656 C8.81828125,16.7224219 8.67867187,16.8621094 8.50609375,16.8621094 Z" id="Shape"></path>
                                <path d="M10.3796875,16.8621094 C10.2070313,16.8621094 10.0674219,16.7224219 10.0674219,16.5498438 L10.0674219,0.312265625 C10.0674219,0.1396875 10.2070313,0 10.3796875,0 C10.5522656,0 10.6919531,0.1396875 10.6919531,0.312265625 L10.6919531,16.5497656 C10.6919531,16.7224219 10.5522656,16.8621094 10.3796875,16.8621094 Z" id="Shape"></path>
                                <path d="M10.3796875,0.62453125 L8.50617188,0.62453125 C8.33351563,0.62453125 8.19390625,0.48484375 8.19390625,0.312265625 C8.19390625,0.1396875 8.33351563,0 8.50617187,0 L10.3796875,0 C10.5522656,0 10.6919531,0.1396875 10.6919531,0.312265625 C10.6919531,0.48484375 10.5522656,0.62453125 10.3796875,0.62453125 Z" id="Shape"></path>
                                <path d="M10.3796875,8.74328125 L8.50617188,8.74328125 C8.33351563,8.74328125 8.19390625,8.60359375 8.19390625,8.43101563 C8.19390625,8.2584375 8.33351563,8.11875 8.50617188,8.11875 L10.3796875,8.11875 C10.5522656,8.11875 10.6919531,8.2584375 10.6919531,8.43101563 C10.6919531,8.60367187 10.5522656,8.74328125 10.3796875,8.74328125 Z" id="Shape"></path>
                                <path d="M11.6286719,16.8621094 C11.4560937,16.8621094 11.3164062,16.7224219 11.3164062,16.5498438 L11.3164062,2.18585937 C11.3164062,2.01328125 11.4560938,1.87359375 11.6286719,1.87359375 C11.80125,1.87359375 11.9409375,2.01328125 11.9409375,2.18585937 L11.9409375,16.5498438 C11.9409375,16.7224219 11.80125,16.8621094 11.6286719,16.8621094 Z" id="Shape"></path>
                                <path d="M13.5021875,16.8621094 C13.3296094,16.8621094 13.1899219,16.7224219 13.1899219,16.5498438 L13.1899219,2.18585937 C13.1899219,2.01328125 13.3296094,1.87359375 13.5021875,1.87359375 C13.6748438,1.87359375 13.8144531,2.01328125 13.8144531,2.18585937 L13.8144531,16.5498438 C13.8144531,16.7224219 13.6748437,16.8621094 13.5021875,16.8621094 Z" id="Shape"></path>
                                <path d="M13.5021875,2.498125 L11.6286719,2.498125 C11.4560937,2.498125 11.3164062,2.3584375 11.3164062,2.18585937 C11.3164062,2.01328125 11.4560938,1.87359375 11.6286719,1.87359375 L13.5021875,1.87359375 C13.6748438,1.87359375 13.8144531,2.01328125 13.8144531,2.18585937 C13.8144531,2.3584375 13.6748437,2.498125 13.5021875,2.498125 Z" id="Shape"></path>
                                <path d="M13.5021875,10.616875 L11.6286719,10.616875 C11.4560937,10.616875 11.3164062,10.4772656 11.3164062,10.3046094 C11.3164062,10.1319531 11.4560938,9.99234375 11.6286719,9.99234375 L13.5021875,9.99234375 C13.6748438,9.99234375 13.8144531,10.1320312 13.8144531,10.3046094 C13.8144531,10.4771875 13.6748437,10.616875 13.5021875,10.616875 Z" id="Shape"></path>
                                <path d="M14.7513281,16.8621094 C14.5786719,16.8621094 14.4390625,16.7224219 14.4390625,16.5498438 L14.4390625,4.059375 C14.4390625,3.88679687 14.5786719,3.74710937 14.7513281,3.74710937 C14.9239063,3.74710937 15.0635938,3.88679687 15.0635938,4.059375 L15.0635938,16.5497656 C15.0635938,16.7224219 14.9239063,16.8621094 14.7513281,16.8621094 Z" id="Shape"></path>
                                <path d="M16.6248438,16.8621094 C16.4522656,16.8621094 16.3125781,16.7224219 16.3125781,16.5498438 L16.3125781,4.059375 C16.3125781,3.88679687 16.4522656,3.74710937 16.6248438,3.74710937 C16.7974219,3.74710937 16.9371094,3.88679687 16.9371094,4.059375 L16.9371094,16.5497656 C16.9371094,16.7224219 16.7974219,16.8621094 16.6248438,16.8621094 Z" id="Shape"></path>
                                <path d="M16.6248438,4.37164063 L14.7513281,4.37164063 C14.5786719,4.37164063 14.4390625,4.23195313 14.4390625,4.059375 C14.4390625,3.88679687 14.5786719,3.74710937 14.7513281,3.74710937 L16.6248438,3.74710937 C16.7974219,3.74710937 16.9371094,3.88679687 16.9371094,4.059375 C16.9371094,4.23203125 16.7974219,4.37164063 16.6248438,4.37164063 Z" id="Shape"></path>
                                <path d="M16.6248438,12.4904687 L14.7513281,12.4904687 C14.5786719,12.4904687 14.4390625,12.3507812 14.4390625,12.1782031 C14.4390625,12.005625 14.5786719,11.8659375 14.7513281,11.8659375 L16.6248438,11.8659375 C16.7974219,11.8659375 16.9371094,12.0055469 16.9371094,12.1782031 C16.9371094,12.3508594 16.7974219,12.4904687 16.6248438,12.4904687 Z" id="Shape"></path>
                                <path d="M17.8738281,16.8621094 C17.70125,16.8621094 17.5616406,16.7224219 17.5616406,16.5498438 L17.5616406,6.5575 C17.5616406,6.38492188 17.70125,6.24523438 17.8738281,6.24523438 C18.0464844,6.24523438 18.1860938,6.38492188 18.1860938,6.5575 L18.1860938,16.5498438 C18.1861719,16.7224219 18.0464844,16.8621094 17.8738281,16.8621094 Z" id="Shape"></path>
                                <path d="M19.7475,12.4904687 C19.5748438,12.4904687 19.4352344,12.3507812 19.4352344,12.1782031 L19.4352344,6.5575 C19.4352344,6.38492188 19.5748437,6.24523438 19.7475,6.24523438 C19.9200781,6.24523438 20.0596875,6.38492188 20.0596875,6.5575 L20.0596875,12.1782031 C20.0596875,12.3507812 19.9200781,12.4904687 19.7475,12.4904687 Z" id="Shape"></path>
                                <path d="M19.7475,6.86976563 L17.8739063,6.86976563 C17.7013281,6.86976563 17.5617188,6.73007813 17.5617188,6.5575 C17.5617188,6.38492188 17.7013281,6.24523438 17.8739063,6.24523438 L19.7475,6.24523438 C19.9200781,6.24523438 20.0596875,6.38492188 20.0596875,6.5575 C20.0596875,6.73007812 19.9200781,6.86976563 19.7475,6.86976563 Z" id="Shape"></path>
                                <path d="M18.4984375,14.9885156 L17.8739063,14.9885156 C17.7013281,14.9885156 17.5617188,14.8489063 17.5617188,14.67625 C17.5617188,14.5035938 17.7013281,14.3639844 17.8739063,14.3639844 L18.4984375,14.3639844 C18.6710156,14.3639844 18.8107031,14.5036719 18.8107031,14.67625 C18.8107031,14.8488281 18.6710156,14.9885156 18.4984375,14.9885156 Z" id="Shape"></path>
                                <path d="M5.64414062,3.85265625 C5.38617187,3.85265625 5.21148437,3.72828125 5.131875,3.6203125 C5.0296875,3.48125 5.05921875,3.28546875 5.19835937,3.18359375 C5.32796875,3.08726563 5.50726562,3.10679688 5.61367187,3.22390625 C5.63742187,3.23242188 5.71640625,3.23609375 5.8621875,3.15867188 C6.015625,3.078125 6.20375,3.13671875 6.28421875,3.28914063 C6.3646875,3.44164063 6.30617187,3.63070313 6.15367187,3.71117188 C5.95890625,3.81367188 5.7884375,3.85265625 5.64414062,3.85265625 Z" id="Shape"></path>
                                <path d="M6.6325,6.86976563 C6.04671875,6.86976563 5.74820312,6.128125 5.71617187,6.04398437 C5.65484375,5.88296875 5.735625,5.70375 5.89640625,5.64210937 C6.05742188,5.57992187 6.23726562,5.66101562 6.29953125,5.82140625 C6.37390625,6.01351563 6.53882812,6.24523437 6.6325,6.24523437 C6.80515625,6.24523437 6.94476562,6.38492187 6.94476562,6.5575 C6.94476562,6.73007813 6.80515625,6.86976563 6.6325,6.86976563 Z" id="Shape"></path>
                                <path d="M12.8777344,6.86976563 C12.291875,6.86976563 11.9934375,6.128125 11.9614063,6.04398437 C11.9000781,5.88296875 11.9809375,5.70375 12.1416406,5.64210937 C12.3023438,5.57992187 12.4825781,5.66101562 12.5447656,5.82140625 C12.6191406,6.01351563 12.7841406,6.24523437 12.8778125,6.24523437 C13.0503906,6.24523437 13.19,6.38492187 13.19,6.5575 C13.1899219,6.73007813 13.0503125,6.86976563 12.8777344,6.86976563 Z" id="Shape"></path>
                                <path d="M16.0003125,9.99234375 C15.4145313,9.99234375 15.1160156,9.25070313 15.0839844,9.1665625 C15.0227344,9.00554687 15.1035156,8.82625 15.2642969,8.76460937 C15.4255469,8.70179687 15.6051562,8.78351562 15.6674219,8.94390625 C15.7417969,9.13601563 15.9067187,9.3678125 16.0003906,9.3678125 C16.1730469,9.3678125 16.3126562,9.5075 16.3126562,9.68007812 C16.3125781,9.85273437 16.1729687,9.99234375 16.0003125,9.99234375 Z" id="Shape"></path>
                                <path d="M6.70328125,8.74632812 C6.6715625,8.74632812 6.63859375,8.74507812 6.60445313,8.74203125 C6.43273437,8.72679687 6.30625,8.57492187 6.32148438,8.40296875 C6.33695313,8.2315625 6.48585938,8.11148437 6.66054688,8.12 C6.78867188,8.1321875 6.8315625,8.09195312 6.8459375,8.07851562 C6.92765625,8.00351563 6.94476562,7.83632812 6.94476562,7.8065625 C6.94476562,7.63390625 7.08445313,7.49429687 7.25703125,7.49429687 C7.42960937,7.49429687 7.56929688,7.63390625 7.56929688,7.8065625 C7.56929688,7.85351562 7.56078125,8.270625 7.26742188,8.53898437 C7.16039062,8.6371875 6.97890625,8.74632812 6.70328125,8.74632812 Z" id="Shape"></path>
                                <path d="M14.8220312,6.8728125 C14.7903125,6.8728125 14.7574219,6.8715625 14.7232031,6.86851562 C14.5515625,6.85328125 14.425,6.70140625 14.4402344,6.52945312 C14.4557813,6.35742187 14.6039844,6.23304687 14.7792969,6.24640625 C14.9095313,6.25742187 14.9503906,6.21835937 14.9647656,6.205 C15.0464844,6.13 15.0635937,5.9628125 15.0635937,5.93296875 C15.0635937,5.76039062 15.2032031,5.62070312 15.3757813,5.62070312 C15.5484375,5.62070312 15.6880469,5.7603125 15.6880469,5.93296875 C15.6880469,5.97992187 15.6795312,6.39710937 15.3861719,6.66539062 C15.2791406,6.76367188 15.0976562,6.8728125 14.8220312,6.8728125 Z" id="Shape"></path>
                                <path d="M2.26085937,5.62078125 L0.387265625,5.62078125 C0.2146875,5.62078125 0.075,5.48109375 0.075,5.30851563 C0.075,5.1359375 0.2146875,4.99625 0.387265625,4.99625 L2.26078125,4.99625 C2.4334375,4.99625 2.57304688,5.1359375 2.57304688,5.30851563 C2.573125,5.48109375 2.43351563,5.62078125 2.26085937,5.62078125 Z" id="Shape"></path>
                                <path d="M5.3834375,5.62078125 L4.13445313,5.62078125 C3.96179688,5.62078125 3.8221875,5.48109375 3.8221875,5.30851563 C3.8221875,5.1359375 3.96179688,4.99625 4.13445313,4.99625 L5.3834375,4.99625 C5.55601563,4.99625 5.69570313,5.1359375 5.69570313,5.30851563 C5.69578125,5.48109375 5.55601563,5.62078125 5.3834375,5.62078125 Z" id="Shape"></path>
                                <path d="M8.50609375,5.62078125 L7.25703125,5.62078125 C7.08445312,5.62078125 6.94476562,5.48109375 6.94476562,5.30851563 C6.94476562,5.1359375 7.08445312,4.99625 7.25703125,4.99625 L8.50609375,4.99625 C8.67867187,4.99625 8.81828125,5.1359375 8.81828125,5.30851563 C8.81828125,5.48109375 8.67867187,5.62078125 8.50609375,5.62078125 Z" id="Shape"></path>
                                <path d="M11.6286719,5.62078125 L10.3796875,5.62078125 C10.2070313,5.62078125 10.0674219,5.48109375 10.0674219,5.30851563 C10.0674219,5.1359375 10.2070313,4.99625 10.3796875,4.99625 L11.6286719,4.99625 C11.80125,4.99625 11.9409375,5.1359375 11.9409375,5.30851563 C11.9409375,5.48109375 11.80125,5.62078125 11.6286719,5.62078125 Z" id="Shape"></path>
                                <path d="M14.7513281,5.62078125 L13.5022656,5.62078125 C13.3296875,5.62078125 13.19,5.48109375 13.19,5.30851563 C13.19,5.1359375 13.3296875,4.99625 13.5022656,4.99625 L14.7513281,4.99625 C14.9239063,4.99625 15.0635938,5.1359375 15.0635938,5.30851563 C15.0635938,5.48109375 14.9239063,5.62078125 14.7513281,5.62078125 Z" id="Shape"></path>
                                <path d="M21.6210156,5.62078125 L16.6248438,5.62078125 C16.4522656,5.62078125 16.3125781,5.48109375 16.3125781,5.30851563 C16.3125781,5.1359375 16.4522656,4.99625 16.6248438,4.99625 L21.6210156,4.99625 C21.7935938,4.99625 21.9332813,5.1359375 21.9332813,5.30851563 C21.9332813,5.48109375 21.7935938,5.62078125 21.6210156,5.62078125 Z" id="Shape"></path>
                                <path d="M9.13054688,4.37164062 C8.53289063,4.37164062 8.26054688,3.79898438 8.19992188,3.49648438 C8.16601563,3.32695313 8.27554687,3.16226563 8.44476563,3.12875 C8.61195312,3.09335937 8.7771875,3.20375 8.81195312,3.37203125 C8.814375,3.38304687 8.89765625,3.74710937 9.13054687,3.74710937 C9.30320312,3.74710937 9.4428125,3.88679687 9.4428125,4.059375 C9.4428125,4.23203125 9.30320312,4.37164062 9.13054688,4.37164062 Z" id="Shape"></path>
                                <path d="M18.4984375,8.74328125 C17.9007813,8.74328125 17.628125,8.170625 17.5678125,7.868125 C17.5335938,7.69859375 17.6434375,7.53390625 17.8123438,7.50039063 C17.9789063,7.465 18.1453906,7.57539063 18.1794531,7.74367188 C18.181875,7.7546875 18.2654688,8.11875 18.4984375,8.11875 C18.6710156,8.11875 18.8107031,8.2584375 18.8107031,8.43101563 C18.8107031,8.60367187 18.6710156,8.74328125 18.4984375,8.74328125 Z" id="Shape"></path>
                                <path d="M2.88539063,6.86976563 C2.28773438,6.86976563 2.01539063,6.29710938 1.95476563,5.99460938 C1.92085938,5.82507813 2.03039063,5.66039063 2.19960938,5.62679688 C2.36671875,5.59203125 2.53203125,5.70179688 2.56671875,5.87015625 C2.56914063,5.88117188 2.6525,6.24523438 2.88539062,6.24523438 C3.05796875,6.24523438 3.19765625,6.38492187 3.19765625,6.5575 C3.19765625,6.73007813 3.05796875,6.86976563 2.88539063,6.86976563 Z" id="Shape"></path>
                                <path d="M13.5021875,4.37164062 C12.9045313,4.37164062 12.6321875,3.79898438 12.5715625,3.49648438 C12.5376563,3.32695313 12.6471875,3.16226563 12.8164062,3.12875 C12.9839063,3.09335937 13.1488281,3.20375 13.1835938,3.37203125 C13.1859375,3.38304687 13.2692969,3.74710937 13.5021875,3.74710937 C13.6748438,3.74710937 13.8144531,3.88679687 13.8144531,4.059375 C13.8144531,4.23203125 13.6748438,4.37164062 13.5021875,4.37164062 Z" id="Shape"></path>
                                <path d="M10.3796875,6.24523437 C10.003125,6.24523437 9.44289063,5.99585937 9.44289063,5.30851563 C9.44289063,5.1359375 9.58257813,4.99625 9.75515625,4.99625 C9.92773438,4.99625 10.0674219,5.1359375 10.0674219,5.30851563 C10.0674219,5.55976562 10.2390625,5.61710938 10.3833594,5.62078125 C10.5541406,5.625 10.6919531,5.76585937 10.6898438,5.93664062 C10.6876562,6.10804687 10.5503906,6.24523437 10.3796875,6.24523437 Z" id="Shape"></path>
                                <path d="M19.7475,11.2414062 C19.3711719,11.2414062 18.8107031,10.9919531 18.8107031,10.3046094 C18.8107031,10.1320312 18.9503906,9.99234375 19.1229688,9.99234375 C19.2955469,9.99234375 19.4352344,10.1320312 19.4352344,10.3046094 C19.4352344,10.5558594 19.6071875,10.6132031 19.7511719,10.616875 C19.9219531,10.6211719 20.0596875,10.7620313 20.0572656,10.9328125 C20.0553906,11.1042187 19.9182031,11.2414062 19.7475,11.2414062 Z" id="Shape"></path>
                                <path d="M9.75515625,2.498125 C9.58257813,2.498125 9.44289063,2.3584375 9.44289063,2.18585937 C9.44289063,1.92976563 9.15195313,1.8790625 9.09375,1.87117188 C8.92382813,1.84921875 8.80164063,1.69429688 8.82195313,1.52421875 C8.84242188,1.3546875 8.9903125,1.23023438 9.16476563,1.2509375 C9.47703125,1.28570313 10.0674219,1.52539062 10.0674219,2.18585937 C10.0674219,2.3584375 9.92773438,2.498125 9.75515625,2.498125 Z" id="Shape"></path>
                                <path d="M3.50992188,9.99234375 C3.33734375,9.99234375 3.19765625,9.85265625 3.19765625,9.68007812 C3.19765625,9.42390625 2.90671875,9.37328125 2.84851563,9.36539062 C2.67859375,9.3434375 2.55632813,9.18851563 2.57671875,9.01835938 C2.5971875,8.84882813 2.7484375,8.72742188 2.91953125,8.74507813 C3.23179688,8.77984375 3.8221875,9.01953125 3.8221875,9.68007812 C3.8221875,9.85273438 3.6825,9.99234375 3.50992188,9.99234375 Z" id="Shape"></path>
                                <path d="M12.2532031,8.74328125 C12.080625,8.74328125 11.9409375,8.60359375 11.9409375,8.43101563 C11.9409375,8.17492187 11.65,8.12429688 11.5917969,8.11632812 C11.421875,8.094375 11.2996094,7.93945312 11.32,7.76929688 C11.3404687,7.59976562 11.4877344,7.4765625 11.6628125,7.49609375 C11.9750781,7.53085937 12.5654687,7.77054688 12.5654687,8.43101563 C12.5654687,8.60367187 12.4257812,8.74328125 12.2532031,8.74328125 Z" id="Shape"></path>
                                <path d="M21.6210156,39.969375 L0.387265625,39.969375 C0.2146875,39.969375 0.075,39.8296875 0.075,39.6571094 C0.075,39.4845313 0.2146875,39.3448438 0.387265625,39.3448438 L21.6210156,39.3448438 C21.7935937,39.3448438 21.9332813,39.4845313 21.9332813,39.6571094 C21.9332813,39.8296875 21.7935938,39.969375 21.6210156,39.969375 Z" id="Shape"></path>
                                <path d="M18.4984375,36.8467187 L3.50992188,36.8467187 C3.33734375,36.8467187 3.19765625,36.7071094 3.19765625,36.5345312 C3.19765625,36.361875 3.33734375,36.2221875 3.50992188,36.2221875 L18.4984375,36.2221875 C18.6710156,36.2221875 18.8107031,36.361875 18.8107031,36.5345312 C18.8107031,36.7071094 18.6710156,36.8467187 18.4984375,36.8467187 Z" id="Shape"></path>
                                <path d="M14.7513281,38.0957813 L7.25703125,38.0957813 C7.08445312,38.0957813 6.94476562,37.9560938 6.94476562,37.7835156 C6.94476562,37.6109375 7.08445312,37.47125 7.25703125,37.47125 L14.7513281,37.47125 C14.9239063,37.47125 15.0635938,37.6109375 15.0635938,37.7835156 C15.0635938,37.9560938 14.9239063,38.0957813 14.7513281,38.0957813 Z" id="Shape"></path>
                                <path d="M24.1191406,39.969375 C23.9464844,39.969375 23.806875,39.8296875 23.806875,39.6571094 L23.806875,21.5459375 C23.806875,21.3733594 23.9464844,21.23375 24.1191406,21.23375 C24.2917188,21.23375 24.4313281,21.3733594 24.4313281,21.5459375 L24.4313281,39.6570313 C24.4313281,39.8296875 24.2917188,39.969375 24.1191406,39.969375 Z" id="Shape"></path>
                                <path d="M31.6133594,21.8582031 L24.1191406,21.8582031 C23.9464844,21.8582031 23.806875,21.7185156 23.806875,21.5459375 C23.806875,21.3733594 23.9464844,21.23375 24.1191406,21.23375 L31.6133594,21.23375 C31.7859375,21.23375 31.925625,21.3733594 31.925625,21.5459375 C31.925625,21.7185156 31.7859375,21.8582031 31.6133594,21.8582031 Z" id="Shape"></path>
                                <path d="M31.6133594,39.969375 C31.4407813,39.969375 31.3010937,39.8296875 31.3010937,39.6571094 L31.3010937,21.5459375 C31.3010937,21.3733594 31.4407813,21.23375 31.6133594,21.23375 C31.7859375,21.23375 31.925625,21.3733594 31.925625,21.5459375 L31.925625,39.6570313 C31.925625,39.8296875 31.7859375,39.969375 31.6133594,39.969375 Z" id="Shape"></path>
                                <path d="M31.6133594,39.969375 L24.1191406,39.969375 C23.9464844,39.969375 23.806875,39.8296875 23.806875,39.6571094 C23.806875,39.4845313 23.9464844,39.3448438 24.1191406,39.3448438 L31.6133594,39.3448438 C31.7859375,39.3448438 31.925625,39.4845313 31.925625,39.6571094 C31.925625,39.8296875 31.7859375,39.969375 31.6133594,39.969375 Z" id="Shape"></path>
                                <path d="M24.1191406,21.8582031 C23.9464844,21.8582031 23.806875,21.7185156 23.806875,21.5459375 L23.806875,17.7988281 C23.806875,17.62625 23.9464844,17.4865625 24.1191406,17.4865625 C24.2917188,17.4865625 24.4313281,17.62625 24.4313281,17.7988281 L24.4313281,21.5459375 C24.4313281,21.7185156 24.2917188,21.8582031 24.1191406,21.8582031 Z" id="Shape"></path>
                                <path d="M27.86625,18.1111719 L24.1191406,18.1111719 C23.9464844,18.1111719 23.806875,17.9714844 23.806875,17.7989063 C23.806875,17.6263281 23.9464844,17.4866406 24.1191406,17.4866406 L27.86625,17.4866406 C28.0388281,17.4866406 28.1785156,17.6263281 28.1785156,17.7989063 C28.1785156,17.9714844 28.0388281,18.1111719 27.86625,18.1111719 Z" id="Shape"></path>
                                <path d="M29.1152344,21.8582031 C28.9426563,21.8582031 28.8029688,21.7185156 28.8029688,21.5459375 L28.8029688,19.0478906 C28.8029688,18.8753125 28.9426563,18.735625 29.1152344,18.735625 C29.2878906,18.735625 29.4275,18.8753125 29.4275,19.0478906 L29.4275,21.5459375 C29.4275,21.7185156 29.2878906,21.8582031 29.1152344,21.8582031 Z" id="Shape"></path>
                                <path d="M29.1152344,19.3601563 C28.9426563,19.3601563 28.8029688,19.2205469 28.8029688,19.0478906 C28.8029688,18.5313281 28.3828125,18.1110938 27.86625,18.1110938 C27.6936719,18.1110938 27.5539844,17.9714063 27.5539844,17.7988281 C27.5539844,17.62625 27.6936719,17.4865625 27.86625,17.4865625 C28.7273437,17.4865625 29.4275,18.1867188 29.4275,19.0478906 C29.4275,19.2205469 29.2878906,19.3601563 29.1152344,19.3601563 Z" id="Shape"></path>
                                <path d="M31.6133594,19.9846875 L29.7398438,19.9846875 C29.5672656,19.9846875 29.4275781,19.845 29.4275781,19.6724219 C29.4275781,19.4998438 29.5672656,19.3601562 29.7398438,19.3601562 L31.6133594,19.3601562 C31.7859375,19.3601562 31.925625,19.4998438 31.925625,19.6724219 C31.925625,19.845 31.7859375,19.9846875 31.6133594,19.9846875 Z" id="Shape"></path>
                                <path d="M30.9888281,21.8582031 C30.81625,21.8582031 30.6766406,21.7185156 30.6766406,21.5459375 L30.6766406,19.6724219 C30.6766406,19.4998438 30.81625,19.3601562 30.9888281,19.3601562 C31.1614844,19.3601562 31.3010937,19.4998438 31.3010937,19.6724219 L31.3010937,21.5459375 C31.3010937,21.7185156 31.1614844,21.8582031 30.9888281,21.8582031 Z" id="Shape"></path>
                                <path d="M27.2417188,19.3601562 L25.4242188,19.3601562 C25.2516406,19.3601562 25.1120313,19.2205469 25.1120313,19.0478906 C25.1120313,18.8752344 25.2516406,18.735625 25.4242188,18.735625 L27.2417188,18.735625 C27.4142969,18.735625 27.5539844,18.8753125 27.5539844,19.0478906 C27.5539844,19.2204687 27.4142969,19.3601562 27.2417188,19.3601562 Z" id="Shape"></path>
                                <path d="M24.1191406,20.6092188 L23.4946094,20.6092188 C23.3220313,20.6092188 23.1823438,20.4695312 23.1823438,20.2969531 C23.1823438,20.124375 23.3220313,19.9846875 23.4946094,19.9846875 L24.1191406,19.9846875 C24.2917188,19.9846875 24.4313281,20.124375 24.4313281,20.2969531 C24.4313281,20.4695312 24.2917188,20.6092188 24.1191406,20.6092188 Z" id="Shape"></path>
                                <path d="M31.6133594,23.1072656 L24.1191406,23.1072656 C23.9464844,23.1072656 23.806875,22.9676563 23.806875,22.7950781 C23.806875,22.6225 23.9464844,22.4828125 24.1191406,22.4828125 L31.6133594,22.4828125 C31.7859375,22.4828125 31.925625,22.6225 31.925625,22.7950781 C31.925625,22.9676563 31.7859375,23.1072656 31.6133594,23.1072656 Z" id="Shape"></path>
                                <path d="M27.86625,32.4750781 C26.6610937,32.4750781 25.6803906,31.494375 25.6803906,30.2892187 C25.6803906,29.0840625 26.6610937,28.1033594 27.86625,28.1033594 C29.0714062,28.1033594 30.0521094,29.0840625 30.0521094,30.2892187 C30.0521094,31.494375 29.0714062,32.4750781 27.86625,32.4750781 Z M27.86625,28.7279687 C27.0050781,28.7279687 26.305,29.428125 26.305,30.2892187 C26.305,31.1503906 27.0050781,31.8504687 27.86625,31.8504687 C28.7273437,31.8504687 29.4275,31.1503906 29.4275,30.2892187 C29.4275,29.428125 28.7273437,28.7279687 27.86625,28.7279687 Z" id="Shape"></path>
                                <path d="M27.86625,34.9732031 C27.6936719,34.9732031 27.5539844,34.8335156 27.5539844,34.6609375 L27.5539844,25.9175781 C27.5539844,25.745 27.6936719,25.6053906 27.86625,25.6053906 C28.0388281,25.6053906 28.1785156,25.745 28.1785156,25.9175781 L28.1785156,34.6608594 C28.1785156,34.8334375 28.0388281,34.9732031 27.86625,34.9732031 Z" id="Shape"></path>
                                <path d="M29.7397656,37.47125 L25.9926562,37.47125 C25.82,37.47125 25.6803906,37.3316406 25.6803906,37.1589844 C25.6803906,36.9864063 25.82,36.8467188 25.9926562,36.8467188 L29.7397656,36.8467188 C29.9123437,36.8467188 30.0520312,36.9864063 30.0520312,37.1589844 C30.0520312,37.3316406 29.9123437,37.47125 29.7397656,37.47125 Z" id="Shape"></path>
                                <path d="M29.7397656,38.7203125 L25.9926562,38.7203125 C25.82,38.7203125 25.6803906,38.580625 25.6803906,38.4079688 C25.6803906,38.2353906 25.82,38.0957813 25.9926562,38.0957813 L29.7397656,38.0957813 C29.9123437,38.0957813 30.0520312,38.2353906 30.0520312,38.4079688 C30.0520312,38.580625 29.9123437,38.7203125 29.7397656,38.7203125 Z" id="Shape"></path>
                                <path d="M25.9926563,16.8621094 C25.1315625,16.8621094 24.4313281,16.1619531 24.4313281,15.3007812 C24.4313281,15.0232813 24.8661719,11.2414063 25.9926563,11.2414063 C27.1191406,11.2414063 27.5539063,15.0232812 27.5539063,15.3007812 C27.5539844,16.1619531 26.8538281,16.8621094 25.9926563,16.8621094 Z M25.9707031,11.8622656 C25.6334375,12.0305469 25.0558594,14.4267969 25.0558594,15.3007812 C25.0558594,15.8173437 25.4760938,16.2375781 25.9926563,16.2375781 C26.5092187,16.2375781 26.929375,15.8173437 26.929375,15.3007812 C26.9294531,14.4267969 26.351875,12.030625 25.9707031,11.8622656 Z" id="Shape"></path>
                            </g>
                        </g>
                    </g>
                </g>
            </g>
        </g>
    </g>
</svg>