<?xml version="1.0" encoding="UTF-8"?>
<svg width="28px" height="28px" viewBox="0 0 28 28" version="1.1" xmlns="http://www.w3.org/2000/svg" xmlns:xlink="http://www.w3.org/1999/xlink">
    <!-- Generator: Sketch 50.2 (55047) - http://www.bohemiancoding.com/sketch -->
    <title>Client_icon</title>
    <desc>Created with Sketch.</desc>
    <defs></defs>
    <g id="New" stroke="none" stroke-width="1" fill="none" fill-rule="evenodd" stroke-linecap="round" stroke-linejoin="round">
        <g id="Paso_1.1" transform="translate(-920.000000, -22.000000)" stroke="#EC0000">
            <g id="Top" transform="translate(135.000000, 23.000000)">
                <g id="Client_icon" transform="translate(787.000000, 1.000000)">
                    <g>
                        <path d="M12.0271169,0.109090909 C9.15335065,0.109090909 6.23906494,2.37444156 6.73246753,5.40779221 L7.39480519,10.7064935 C7.75636364,13.0790649 9.58441558,14.6805195 12.0271169,14.6805195 C14.4698182,14.6805195 16.3062857,13.0790649 16.6675325,10.7064935 L17.3298701,5.40779221 C17.8235844,2.37444156 14.9011948,0.109090909 12.0271169,0.109090909 Z" id="Stroke-1" stroke-width="2.7"></path>
                        <path d="M0.109153247,21.3038961 C0.109153247,19.2807273 2.83175065,17.6403117 6.07019221,17.6403117 C6.86842597,17.6403117 7.95216623,17.8566234 8.7398026,17.9834805 C9.30333506,18.0741818 9.86219221,18.1935584 10.4141922,18.3384935 C10.9502961,18.4793766 11.4698805,18.6545455 12.0312312,18.6545455 C12.619387,18.6545455 13.5479065,18.3615584 14.3152831,18.177974 C15.417413,17.9145974 16.8592831,17.6403117 17.9922701,17.6403117 C21.576374,17.6403117 23.9533091,19.2807273 23.9533091,21.3038961 L23.9533091,22.2975584 C23.9533091,23.2120519 23.2121143,23.9532468 22.2976208,23.9532468 L1.76484156,23.9532468 C0.85065974,23.9532468 0.109153247,23.2120519 0.109153247,22.2975584 L0.109153247,21.3038961 Z" id="Stroke-3" stroke-width="2.7"></path>
                    </g>
                </g>
            </g>
        </g>
    </g>
</svg>