<?xml version="1.0" encoding="UTF-8"?>
<svg width="50px" height="50px" viewBox="0 0 50 50" version="1.1" xmlns="http://www.w3.org/2000/svg" xmlns:xlink="http://www.w3.org/1999/xlink">
    <!-- Generator: Sketch 48.2 (47327) - http://www.bohemiancoding.com/sketch -->
    <title>clock</title>
    <desc>Created with Sketch.</desc>
    <defs></defs>
    <g id="estatus" stroke="none" stroke-width="1" fill="none" fill-rule="evenodd" transform="translate(-575.000000, -407.000000)">
        <g id="datos-personales" transform="translate(99.000000, 332.000000)">
            <g id="clock" transform="translate(476.000000, 75.000000)">
                <circle id="Oval" fill="#E7ECED" fill-rule="nonzero" cx="25" cy="25" r="25"></circle>
                <path d="M25,3.44827586 C36.8836207,3.44827586 46.5517241,13.1163793 46.5517241,25 C46.5517241,36.8836207 36.8836207,46.5517241 25,46.5517241 C13.1163793,46.5517241 3.44827586,36.8836207 3.44827586,25 C3.44827586,13.1163793 13.1163793,3.44827586 25,3.44827586 Z M25,0 C11.1931034,0 0,11.1931034 0,25 C0,38.8068966 11.1931034,50 25,50 C38.8068966,50 50,38.8068966 50,25 C50,11.1931034 38.8068966,0 25,0 Z" id="Shape" fill="#424A60" fill-rule="nonzero"></path>
                <g id="Group" transform="translate(5.172414, 4.310345)" fill="#7383BF" fill-rule="nonzero">
                    <path d="M19.8275862,0.757758621 C19.3517241,0.757758621 18.9655172,1.14310345 18.9655172,1.61982759 L18.9655172,2.48189655 C18.9655172,2.95862069 19.3517241,3.34396552 19.8275862,3.34396552 C20.3034483,3.34396552 20.6896552,2.95862069 20.6896552,2.48189655 L20.6896552,1.61982759 C20.6896552,1.14310345 20.3034483,0.757758621 19.8275862,0.757758621 Z" id="Shape"></path>
                    <path d="M19.8275862,37.8267241 C19.3517241,37.8267241 18.9655172,38.212069 18.9655172,38.6887931 L18.9655172,39.5508621 C18.9655172,40.0275862 19.3517241,40.412931 19.8275862,40.412931 C20.3034483,40.412931 20.6896552,40.0275862 20.6896552,39.5508621 L20.6896552,38.6887931 C20.6896552,38.212069 20.3034483,37.8267241 19.8275862,37.8267241 Z" id="Shape"></path>
                    <path d="M38.7931034,19.7232759 L37.9310345,19.7232759 C37.4551724,19.7232759 37.0689655,20.1086207 37.0689655,20.5853448 C37.0689655,21.062069 37.4551724,21.4474138 37.9310345,21.4474138 L38.7931034,21.4474138 C39.2689655,21.4474138 39.6551724,21.062069 39.6551724,20.5853448 C39.6551724,20.1086207 39.2689655,19.7232759 38.7931034,19.7232759 Z" id="Shape"></path>
                    <path d="M1.72413793,19.7232759 L0.862068966,19.7232759 C0.386206897,19.7232759 0,20.1086207 0,20.5853448 C0,21.062069 0.386206897,21.4474138 0.862068966,21.4474138 L1.72413793,21.4474138 C2.2,21.4474138 2.5862069,21.062069 2.5862069,20.5853448 C2.5862069,20.1086207 2.2,19.7232759 1.72413793,19.7232759 Z" id="Shape"></path>
                    <path d="M32.6284483,6.56465517 L32.0189655,7.17413793 C31.6818966,7.5112069 31.6818966,8.05603448 32.0189655,8.39310345 C32.187069,8.5612069 32.4077586,8.64568966 32.6284483,8.64568966 C32.8491379,8.64568966 33.0698276,8.5612069 33.237931,8.39310345 L33.8474138,7.78362069 C34.1844828,7.44655172 34.1844828,6.90172414 33.8474138,6.56465517 C33.5103448,6.22758621 32.9655172,6.22758621 32.6284483,6.56465517 Z" id="Shape"></path>
                    <path d="M6.41724138,32.7767241 L5.80775862,33.3862069 C5.47068966,33.7232759 5.47068966,34.2681034 5.80775862,34.6051724 C5.97586207,34.7732759 6.19655172,34.8577586 6.41724138,34.8577586 C6.63793103,34.8577586 6.85862069,34.7732759 7.02672414,34.6051724 L7.6362069,33.9956897 C7.97327586,33.6586207 7.97327586,33.1137931 7.6362069,32.7767241 C7.29913793,32.4396552 6.75344828,32.4405172 6.41724138,32.7767241 Z" id="Shape"></path>
                    <path d="M33.237931,32.7767241 C32.9008621,32.4396552 32.3560345,32.4396552 32.0189655,32.7767241 C31.6818966,33.1137931 31.6818966,33.6586207 32.0189655,33.9956897 L32.6284483,34.6051724 C32.7965517,34.7732759 33.0172414,34.8577586 33.237931,34.8577586 C33.4586207,34.8577586 33.6793103,34.7732759 33.8474138,34.6051724 C34.1844828,34.2681034 34.1844828,33.7232759 33.8474138,33.3862069 L33.237931,32.7767241 Z" id="Shape"></path>
                    <path d="M7.02672414,6.56465517 C6.68965517,6.22758621 6.14482759,6.22758621 5.80775862,6.56465517 C5.47068966,6.90172414 5.47068966,7.44655172 5.80775862,7.78362069 L6.41724138,8.39310345 C6.58534483,8.5612069 6.80603448,8.64568966 7.02672414,8.64568966 C7.24741379,8.64568966 7.46810345,8.5612069 7.6362069,8.39310345 C7.97327586,8.05603448 7.97327586,7.5112069 7.6362069,7.17413793 L7.02672414,6.56465517 Z" id="Shape"></path>
                </g>
                <path d="M22.4137931,24.8956897 L15.5172414,24.8956897" id="Shape" stroke="#424A60" stroke-width="2" stroke-linecap="round" stroke-linejoin="round"></path>
                <path d="M25,22.3094828 L25,12.8267241" id="Shape" stroke="#424A60" stroke-width="2" stroke-linecap="round" stroke-linejoin="round"></path>
                <circle id="Oval" stroke="#424A60" stroke-width="2" stroke-linecap="round" stroke-linejoin="round" cx="25" cy="24.8956897" r="2.5862069"></circle>
            </g>
        </g>
    </g>
</svg>