<?xml version="1.0" encoding="UTF-8"?>
<svg width="47px" height="50px" viewBox="0 0 47 50" version="1.1" xmlns="http://www.w3.org/2000/svg" xmlns:xlink="http://www.w3.org/1999/xlink">
    <!-- Generator: Sketch 48.2 (47327) - http://www.bohemiancoding.com/sketch -->
    <title>commission</title>
    <desc>Created with Sketch.</desc>
    <defs></defs>
    <g id="Home_valor" stroke="none" stroke-width="1" fill="none" fill-rule="evenodd" transform="translate(-577.000000, -2282.000000)">
        <g id="steps" transform="translate(0.000000, 2003.000000)" fill="#000000" fill-rule="nonzero">
            <g id="Step-Copy" transform="translate(456.000000, 252.000000)">
                <g id="number" transform="translate(92.000000, 0.000000)">
                    <g id="commission" transform="translate(29.000000, 27.000000)">
                        <path d="M45.3892857,33.2107143 C44.7276786,32.6535714 43.8535714,32.4223214 43.0107143,32.56875 L25.3035714,35.6482143 L20.2741071,30.61875 C20.1071429,30.4508929 19.8803571,30.3571429 19.6428571,30.3571429 L10.7142857,30.3571429 C10.7142857,29.8642857 10.3151786,29.4642857 9.82142857,29.4642857 L6.25,29.4642857 L0,29.4642857 L0,31.25 L5.35714286,31.25 L5.35714286,43.75 L0,43.75 L0,45.5357143 L6.25,45.5357143 L9.82142857,45.5357143 C10.3151786,45.5357143 10.7142857,45.1357143 10.7142857,44.6428571 L13.1821429,44.6428571 L22.7276786,49.4160714 C23.1410714,49.6223214 23.5875,49.7258929 24.0339286,49.725 C24.5410714,49.725 25.0491071,49.5919643 25.5035714,49.3267857 L44.9821429,37.9642857 C45.8741071,37.4428571 46.4285714,36.4767857 46.4285714,35.44375 C46.4285714,34.5803571 46.0491071,33.7660714 45.3892857,33.2107143 Z M8.92857143,43.75 L7.14285714,43.75 L7.14285714,31.25 L8.92857143,31.25 L8.92857143,43.75 Z M44.08125,36.4223214 L24.6035714,47.7839286 C24.2732143,47.9767857 23.8705357,47.9901786 23.5267857,47.81875 L13.7928571,42.9517857 C13.66875,42.8892857 13.53125,42.8571429 13.3928571,42.8571429 L10.7142857,42.8571429 L10.7142857,32.1428571 L19.2732143,32.1428571 L26.3080357,39.1767857 C26.6160714,39.4857143 26.7857143,39.8955357 26.7857143,40.33125 C26.7857143,41.2321429 26.0535714,41.9642857 25.1535714,41.9642857 C24.7241071,41.9642857 24.3035714,41.7901786 23.9991071,41.4857143 L19.38125,36.86875 L18.11875,38.13125 L22.7366071,42.7482143 C23.3821429,43.3946429 24.2392857,43.75 25.1535714,43.75 C27.0375,43.75 28.5714286,42.2169643 28.5714286,40.33125 C28.5714286,39.41875 28.2160714,38.5607143 27.5705357,37.9142857 L26.8482143,37.1919643 L43.3160714,34.3276786 C43.6482143,34.2696429 43.9830357,34.3616071 44.2392857,34.5767857 C44.4955357,34.7928571 44.6428571,35.1089286 44.6428571,35.44375 C44.6428571,35.8446429 44.4276786,36.2196429 44.08125,36.4223214 Z" id="Shape"></path>
                        <rect id="Rectangle-path" transform="translate(26.786179, 14.734184) rotate(-47.723613) translate(-26.786179, -14.734184) " x="20.1496467" y="13.8408908" width="13.2730636" height="1.78658686"></rect>
                        <path d="M23.2142857,14.7321429 C24.6910714,14.7321429 25.8928571,13.5303571 25.8928571,12.0535714 C25.8928571,10.5767857 24.6910714,9.375 23.2142857,9.375 C21.7375,9.375 20.5357143,10.5767857 20.5357143,12.0535714 C20.5357143,13.5303571 21.7375,14.7321429 23.2142857,14.7321429 Z M23.2142857,11.1607143 C23.7071429,11.1607143 24.1071429,11.5616071 24.1071429,12.0535714 C24.1071429,12.5455357 23.7071429,12.9464286 23.2142857,12.9464286 C22.7214286,12.9464286 22.3214286,12.5455357 22.3214286,12.0535714 C22.3214286,11.5616071 22.7214286,11.1607143 23.2142857,11.1607143 Z" id="Shape"></path>
                        <path d="M27.6785714,17.4107143 C27.6785714,18.8875 28.8803571,20.0892857 30.3571429,20.0892857 C31.8339286,20.0892857 33.0357143,18.8875 33.0357143,17.4107143 C33.0357143,15.9339286 31.8339286,14.7321429 30.3571429,14.7321429 C28.8803571,14.7321429 27.6785714,15.9339286 27.6785714,17.4107143 Z M31.25,17.4107143 C31.25,17.9026786 30.85,18.3035714 30.3571429,18.3035714 C29.8642857,18.3035714 29.4642857,17.9026786 29.4642857,17.4107143 C29.4642857,16.91875 29.8642857,16.5178571 30.3571429,16.5178571 C30.85,16.5178571 31.25,16.91875 31.25,17.4107143 Z" id="Shape"></path>
                        <path d="M26.1375,33.65 C26.3071429,33.8276786 26.5410714,33.9285714 26.7857143,33.9285714 C27.0303571,33.9285714 27.2642857,33.8276786 27.4339286,33.65 L41.5928571,18.7321429 C45.6482143,14.4589286 45.6482143,7.50625 41.5928571,3.23392857 C39.6133929,1.14821429 36.9785714,0 34.1732143,0 C31.3821429,0 28.7607143,1.13571429 26.7857143,3.2 C24.8107143,1.13571429 22.1892857,0 19.3982143,0 C16.5928571,0 13.9580357,1.14821429 11.9785714,3.23392857 C7.92321429,7.50714286 7.92321429,14.4598214 11.9785714,18.7321429 L26.1375,33.65 Z M13.2741071,4.46339286 C14.9125,2.73660714 17.0875,1.78571429 19.3982143,1.78571429 C21.7098214,1.78571429 23.8839286,2.73660714 25.5223214,4.46339286 L26.1375,5.1125 C26.4758929,5.46696429 27.0946429,5.46696429 27.4330357,5.1125 L28.0482143,4.46339286 C29.6875,2.73660714 31.8625,1.78571429 34.1732143,1.78571429 C36.4839286,1.78571429 38.6580357,2.73660714 40.2964286,4.46339286 C43.7089286,8.05803571 43.7089286,13.9080357 40.2964286,17.5026786 L26.7857143,31.7383929 L13.2741071,17.5026786 C9.86160714,13.9080357 9.86160714,8.05803571 13.2741071,4.46339286 Z" id="Shape"></path>
                        <rect id="Rectangle-path" x="22.3214286" y="21.4285714" width="1.78571429" height="1.78571429"></rect>
                        <rect id="Rectangle-path" x="25.8928571" y="21.4285714" width="1.78571429" height="1.78571429"></rect>
                        <rect id="Rectangle-path" x="29.4642857" y="21.4285714" width="1.78571429" height="1.78571429"></rect>
                    </g>
                </g>
            </g>
        </g>
    </g>
</svg>