<?xml version="1.0" encoding="UTF-8"?>
<svg width="20px" height="24px" viewBox="0 0 20 24" version="1.1" xmlns="http://www.w3.org/2000/svg" xmlns:xlink="http://www.w3.org/1999/xlink">
    <!-- Generator: Sketch 50.2 (55047) - http://www.bohemiancoding.com/sketch -->
    <title>copy-icon</title>
    <desc>Created with Sketch.</desc>
    <defs></defs>
    <g id="New" stroke="none" stroke-width="1" fill="none" fill-rule="evenodd">
        <g id="Paso_1.1" transform="translate(-562.000000, -244.000000)" fill="#EC0000" fill-rule="nonzero">
            <g id="Group-8" transform="translate(134.000000, 236.000000)">
                <g id="Group-6" transform="translate(428.000000, 8.000000)">
                    <g id="copy-icon">
                        <path d="M18.9486784,12.7269708 C19.4655439,12.7269708 19.8844912,12.3080234 19.8844912,11.7911579 L19.8844912,3.74325146 C19.8844912,1.67920468 18.2052398,0 16.1412398,0 L7.53178947,0 C5.46891228,0 3.79045614,1.67733333 3.78853801,3.73978947 C1.72453801,3.73978947 0.0452865497,5.41899415 0.0452865497,7.48304094 L0.0452865497,20.2100117 C0.0452865497,22.2740117 1.72449123,23.9532632 3.78853801,23.9532632 L12.8658713,23.9532632 C14.9298713,23.9532632 16.6091228,22.2740585 16.6091228,20.2100117 L16.6091228,20.1815673 C18.4530526,19.9505497 19.8844444,18.3728187 19.8844444,16.467462 C19.8844444,15.9505965 19.4654971,15.5316491 18.9486316,15.5316491 C18.4317661,15.5316491 18.0128187,15.9505965 18.0128187,16.467462 C18.0128187,17.4992281 17.1734269,18.3388538 16.1416608,18.3390877 L7.53221053,18.341193 L7.53178947,18.341193 C7.03190643,18.341193 6.56196491,18.1465731 6.20851462,17.7931228 C5.85492398,17.4396257 5.66016374,16.9695439 5.66016374,16.4695673 L5.66016374,3.74325146 C5.66016374,2.71125146 6.49978947,1.87162573 7.53178947,1.87162573 L16.1412865,1.87162573 C17.1732865,1.87162573 18.0129123,2.71125146 18.0129123,3.74325146 L18.0129123,11.7912047 C18.0128655,12.3080234 18.4318129,12.7269708 18.9486784,12.7269708 Z M7.53178947,20.2127251 L7.53272515,20.2127251 L14.7374971,20.2109474 C14.7369357,21.2424795 13.8975439,22.0815439 12.8658713,22.0815439 L3.7885848,22.0815439 C2.7565848,22.0815439 1.91695906,21.2419181 1.91695906,20.2099181 L1.91695906,7.48294737 C1.91695906,6.45094737 2.7565848,5.61132164 3.7885848,5.61132164 L3.7885848,16.4695205 C3.7885848,17.4695205 4.17805848,18.4096842 4.88523977,19.1166784 C5.5922807,19.8235789 6.53202339,20.2127251 7.53178947,20.2127251 Z" id="Shape"></path>
                    </g>
                </g>
            </g>
        </g>
    </g>
</svg>