<?xml version="1.0" encoding="UTF-8"?>
<svg width="56px" height="40px" viewBox="0 0 56 40" version="1.1" xmlns="http://www.w3.org/2000/svg" xmlns:xlink="http://www.w3.org/1999/xlink">
    <!-- Generator: Sketch 48.2 (47327) - http://www.bohemiancoding.com/sketch -->
    <title>credit-card</title>
    <desc>Created with Sketch.</desc>
    <defs></defs>
    <g id="Precalificación_individual" stroke="none" stroke-width="1" fill="none" fill-rule="evenodd" transform="translate(-617.000000, -1544.000000)">
        <g id="domicilio-copy-2" transform="translate(99.000000, 1437.000000)" fill-rule="nonzero">
            <g id="Group-5" transform="translate(518.000000, 107.000000)">
                <g id="credit-card">
                    <path d="M52.1742857,40 L3.06380952,40 C1.37142857,40 0,38.6285714 0,36.9361905 L0,3.06380952 C0,1.37142857 1.37142857,0 3.06380952,0 L52.1742857,0 C53.8666667,0 55.2380952,1.37142857 55.2380952,3.06380952 L55.2380952,36.9361905 C55.2380952,38.6285714 53.8666667,40 52.1742857,40" id="XMLID_121_" fill="#D1D4D2"></path>
                    <rect id="XMLID_120_" fill="#A5A5A4" x="0" y="4.76190476" width="55.2380952" height="7.61904762"></rect>
                    <path d="M14.2857143,19.047619 L6.66666667,19.047619 C6.14095238,19.047619 5.71428571,18.6209524 5.71428571,18.0952381 C5.71428571,17.5695238 6.14095238,17.1428571 6.66666667,17.1428571 L14.2857143,17.1428571 C14.8114286,17.1428571 15.2380952,17.5695238 15.2380952,18.0952381 C15.2380952,18.6209524 14.8114286,19.047619 14.2857143,19.047619" id="XMLID_119_" fill="#FFFFFF"></path>
                    <path d="M25.7142857,19.047619 L18.0952381,19.047619 C17.5695238,19.047619 17.1428571,18.6209524 17.1428571,18.0952381 C17.1428571,17.5695238 17.5695238,17.1428571 18.0952381,17.1428571 L25.7142857,17.1428571 C26.24,17.1428571 26.6666667,17.5695238 26.6666667,18.0952381 C26.6666667,18.6209524 26.24,19.047619 25.7142857,19.047619" id="XMLID_118_" fill="#FFFFFF"></path>
                    <path d="M7.61904762,23.8095238 L6.66666667,23.8095238 C6.14095238,23.8095238 5.71428571,23.3828571 5.71428571,22.8571429 C5.71428571,22.3314286 6.14095238,21.9047619 6.66666667,21.9047619 L7.61904762,21.9047619 C8.1447619,21.9047619 8.57142857,22.3314286 8.57142857,22.8571429 C8.57142857,23.3828571 8.1447619,23.8095238 7.61904762,23.8095238" id="XMLID_117_" fill="#FFFFFF"></path>
                    <path d="M13.3333333,23.8095238 L11.4285714,23.8095238 C10.9028571,23.8095238 10.4761905,23.3828571 10.4761905,22.8571429 C10.4761905,22.3314286 10.9028571,21.9047619 11.4285714,21.9047619 L13.3333333,21.9047619 C13.8590476,21.9047619 14.2857143,22.3314286 14.2857143,22.8571429 C14.2857143,23.3828571 13.8590476,23.8095238 13.3333333,23.8095238" id="XMLID_116_" fill="#FFFFFF"></path>
                    <path d="M18.0952381,23.8095238 L17.1428571,23.8095238 C16.6171429,23.8095238 16.1904762,23.3828571 16.1904762,22.8571429 C16.1904762,22.3314286 16.6171429,21.9047619 17.1428571,21.9047619 L18.0952381,21.9047619 C18.6209524,21.9047619 19.047619,22.3314286 19.047619,22.8571429 C19.047619,23.3828571 18.6209524,23.8095238 18.0952381,23.8095238" id="XMLID_115_" fill="#FFFFFF"></path>
                    <path d="M23.8095238,23.8095238 L21.9047619,23.8095238 C21.3790476,23.8095238 20.952381,23.3828571 20.952381,22.8571429 C20.952381,22.3314286 21.3790476,21.9047619 21.9047619,21.9047619 L23.8095238,21.9047619 C24.3352381,21.9047619 24.7619048,22.3314286 24.7619048,22.8571429 C24.7619048,23.3828571 24.3352381,23.8095238 23.8095238,23.8095238" id="XMLID_114_" fill="#FFFFFF"></path>
                    <path d="M27.6190476,23.8095238 C27.3714286,23.8095238 27.1238095,23.7047619 26.9428571,23.5333333 C26.7714286,23.352381 26.6666667,23.1142857 26.6666667,22.8571429 C26.6666667,22.6095238 26.7714286,22.3619048 26.9428571,22.1809524 C27.2952381,21.8285714 27.9428571,21.8285714 28.2952381,22.1809524 C28.4666667,22.3619048 28.5714286,22.6095238 28.5714286,22.8571429 C28.5714286,23.1047619 28.4666667,23.352381 28.2952381,23.5333333 C28.1142857,23.7047619 27.8666667,23.8095238 27.6190476,23.8095238" id="XMLID_113_" fill="#FFFFFF"></path>
                    <path d="M44.7619048,23.8095238 L43.8095238,23.8095238 C43.2838095,23.8095238 42.8571429,23.3828571 42.8571429,22.8571429 C42.8571429,22.3314286 43.2838095,21.9047619 43.8095238,21.9047619 L44.7619048,21.9047619 C45.287619,21.9047619 45.7142857,22.3314286 45.7142857,22.8571429 C45.7142857,23.3828571 45.287619,23.8095238 44.7619048,23.8095238" id="XMLID_112_" fill="#FFFFFF"></path>
                    <path d="M48.5714286,23.8095238 C48.3238095,23.8095238 48.0761905,23.7047619 47.8952381,23.5333333 C47.7238095,23.352381 47.6190476,23.1047619 47.6190476,22.8571429 C47.6190476,22.6095238 47.7238095,22.3619048 47.8952381,22.1809524 C48.247619,21.8285714 48.8952381,21.8285714 49.247619,22.1809524 C49.4190476,22.3619048 49.5238095,22.6095238 49.5238095,22.8571429 C49.5238095,23.1047619 49.4190476,23.352381 49.247619,23.5333333 C49.0666667,23.7047619 48.8190476,23.8095238 48.5714286,23.8095238" id="XMLID_111_" fill="#FFFFFF"></path>
                    <path d="M37.1428571,19.047619 L29.5238095,19.047619 C28.9980952,19.047619 28.5714286,18.6209524 28.5714286,18.0952381 C28.5714286,17.5695238 28.9980952,17.1428571 29.5238095,17.1428571 L37.1428571,17.1428571 C37.6685714,17.1428571 38.0952381,17.5695238 38.0952381,18.0952381 C38.0952381,18.6209524 37.6685714,19.047619 37.1428571,19.047619" id="XMLID_110_" fill="#FFFFFF"></path>
                    <path d="M48.5714286,19.047619 L40.952381,19.047619 C40.4266667,19.047619 40,18.6209524 40,18.0952381 C40,17.5695238 40.4266667,17.1428571 40.952381,17.1428571 L48.5714286,17.1428571 C49.0971429,17.1428571 49.5238095,17.5695238 49.5238095,18.0952381 C49.5238095,18.6209524 49.0971429,19.047619 48.5714286,19.047619" id="XMLID_109_" fill="#FFFFFF"></path>
                    <path d="M36.1904762,23.8095238 L31.4285714,23.8095238 C30.9028571,23.8095238 30.4761905,23.3828571 30.4761905,22.8571429 C30.4761905,22.3314286 30.9028571,21.9047619 31.4285714,21.9047619 L36.1904762,21.9047619 C36.7161905,21.9047619 37.1428571,22.3314286 37.1428571,22.8571429 C37.1428571,23.3828571 36.7161905,23.8095238 36.1904762,23.8095238" id="XMLID_108_" fill="#FFFFFF"></path>
                    <path d="M40,23.8095238 C39.752381,23.8095238 39.5047619,23.7047619 39.3238095,23.5333333 C39.152381,23.352381 39.047619,23.1047619 39.047619,22.8571429 C39.047619,22.6095238 39.152381,22.3619048 39.3238095,22.1809524 C39.6761905,21.8285714 40.3238095,21.8285714 40.6761905,22.1809524 C40.847619,22.3619048 40.952381,22.6095238 40.952381,22.8571429 C40.952381,23.1047619 40.847619,23.352381 40.6761905,23.5333333 C40.4952381,23.7047619 40.247619,23.8095238 40,23.8095238" id="XMLID_107_" fill="#FFFFFF"></path>
                    <path d="M34.9533333,27.047619 C32.2457143,28.4561905 31.8657143,31.5361905 31.7733333,34.2857143 L33.3990476,33.612381 C32.5085714,32.8657143 31.6180952,32.1190476 30.7266667,31.3733333 C29.7942857,30.5914286 28.4390476,31.9314286 29.38,32.72 C30.2704762,33.4666667 31.1619048,34.212381 32.052381,34.9590476 C32.6790476,35.4838095 33.6495238,35.152381 33.6780952,34.2857143 C33.747619,32.2228571 33.8447619,29.7695238 35.9142857,28.692381 C37.0028571,28.1266667 36.04,26.4819048 34.9533333,27.047619" id="XMLID_106_" fill="#4482C4"></path>
                    <path d="M35.9057143,31.5047619 C37.9095238,33.6828571 40.5590476,32.667619 42.7438095,31.3266667 C42.3095238,31.212381 41.8752381,31.0990476 41.4409524,30.9847619 C41.9561905,31.9038095 42.6885714,32.5704762 43.7495238,32.7847619 C44.5047619,32.9371429 47.5828571,31.6990476 47.7495238,31.9266667 C48.4647619,32.9066667 50.1190476,31.9571429 49.3942857,30.9657143 C48.9028571,30.292381 48.4485714,29.9333333 47.5771429,29.8780952 C46.1885714,29.7904762 44.1552381,31.9304762 43.0847619,30.0238095 C42.8371429,29.5819048 42.2152381,29.4161905 41.7819048,29.6819048 C40.4333333,30.5095238 38.6714286,31.7 37.252381,30.1580952 C36.4209524,29.2542857 35.0761905,30.6038095 35.9057143,31.5047619" id="XMLID_105_" fill="#4482C4"></path>
                </g>
            </g>
        </g>
    </g>
</svg>