<?xml version="1.0" encoding="UTF-8"?>
<svg width="50px" height="50px" viewBox="0 0 50 50" version="1.1" xmlns="http://www.w3.org/2000/svg" xmlns:xlink="http://www.w3.org/1999/xlink">
    <!-- Generator: Sketch 49.2 (51160) - http://www.bohemiancoding.com/sketch -->
    <title>deal</title>
    <desc>Created with Sketch.</desc>
    <defs>
        <polygon id="path-1" points="0 0.00293845006 49.5005 0.00293845006 49.5005 23.9999385 0 23.9999385"></polygon>
        <polygon id="path-3" points="0.000726174194 0.514285714 10.6524611 0.514285714 10.6524611 17.9586643 0.000726174194 17.9586643"></polygon>
    </defs>
    <g id="Page-1" stroke="none" stroke-width="1" fill="none" fill-rule="evenodd">
        <g id="Home_valor" transform="translate(-896.000000, -2282.000000)">
            <g id="steps" transform="translate(0.000000, 2003.000000)">
                <g id="Step-Copy-2" transform="translate(776.000000, 252.000000)">
                    <g id="number" transform="translate(92.000000, 0.000000)">
                        <g id="deal" transform="translate(28.000000, 27.000000)">
                            <g id="Group-3" transform="translate(0.000000, 26.000000)">
                                <mask id="mask-2" fill="white">
                                    <use xlink:href="#path-1"></use>
                                </mask>
                                <g id="Clip-2"></g>
                                <path d="M24.564875,23.9999385 C23.65425,23.9999385 22.73925,23.8424 21.8705,23.5267077 L1.222375,14.5020923 C0.684875,14.2485538 0.299875,13.8214769 0.114875,13.2897846 C-0.0645,12.7734769 -0.03325,12.2202462 0.203,11.7285538 L0.4955,10.9630154 C0.506125,10.9365538 0.517375,10.9100923 0.5305,10.8848615 C1.319875,9.33101538 3.018625,8.47993846 4.75925,8.76855385 L17.818625,11.0153231 C17.61425,8.83316923 18.856125,6.66886154 20.973625,5.77593846 L31.684875,1.16301538 C35.27425,-0.383446154 39.39175,-0.384061538 42.98175,1.16301538 L48.994875,3.75132308 C49.302375,3.88363077 49.5005,4.18209231 49.5005,4.51193846 L49.5005,18.2005538 C49.5005,18.6590154 49.123,19.0319385 48.65675,19.0319385 L43.79925,19.0319385 C42.878625,19.0319385 41.963625,19.1648615 41.08175,19.4264 L27.068,23.5870154 C26.266125,23.8614769 25.417375,23.9999385 24.564875,23.9999385" id="Fill-1" fill="#FCE3D7" mask="url(#mask-2)"></path>
                            </g>
                            <path d="M25,41 L22.7226527,34.8699309 L19.0230735,34 C18.5282738,34.9458045 18.2960985,36.0341992 18.3937898,37.1291347 L5.60258339,34.8293777 C5.18010058,34.753504 4.74619931,34.7979817 4.34528469,34.9536535 C3.85175372,35.1479163 3.89869625,35.88376 4.41316106,36.00869 L25,41 Z" id="Fill-4" fill="#FBD9CA"></path>
                            <path d="M40.2276715,43.233353 L26.2353134,46.1166765 C25.0358219,46.3635828 23.9780884,47.0082499 23.2667321,47.9286977 C22.606691,48.7807896 23.2442817,49.9976429 24.3828366,50 L24.4078527,50 C25.2834174,50 26.1544921,49.8680024 26.9774588,49.6051856 L41.3591705,45.6210961 C42.2648829,45.3694755 43.2033086,45.2427814 44.1487902,45.2427814 L49.1340569,45.2427814 C49.6119292,45.2427814 50,44.8874484 50,44.4478491 L50,43 L44.3200545,43 C42.9525058,43 41.5855986,43.0771951 40.2276715,43.233353" id="Fill-6" fill="#FBD9CA"></path>
                            <path d="M24.9558395,31 C24.8119034,31 24.6660817,30.9626677 24.5328308,30.8848392 L0.424475337,16.8769881 C0.22962733,16.7643583 0.0875768465,16.5770639 0.0291224442,16.3587646 C-0.0293319582,16.1398326 0.000838055947,15.9063474 0.113975609,15.7101944 L8.30827715,1.42709636 C8.5427233,1.01833893 9.06127042,0.878500866 9.46730852,1.1151499 L33.5737783,15.1248993 C33.7686263,15.2381618 33.9125624,15.4216598 33.9710169,15.6412245 C34.0294713,15.858891 33.9986727,16.0917435 33.8861637,16.2885292 L25.6912336,30.5728928 C25.5340981,30.8468742 25.2493686,31 24.9558395,31" id="Fill-8" fill="#5A9D55"></path>
                            <g id="Group-12">
                                <mask id="mask-4" fill="white">
                                    <use xlink:href="#path-3"></use>
                                </mask>
                                <g id="Clip-11"></g>
                                <path d="M2.27412778,16.7751643 L10.6524611,1.50923571 L9.20535,0.631092857 C8.81118333,0.390664286 8.30701667,0.533378571 8.07907222,0.948664286 L0.111405556,15.4598786 C0.00201666667,15.66045 -0.0279277778,15.8963786 0.0289055556,16.1188071 C0.0857388889,16.3405929 0.22385,16.5308786 0.413294444,16.6453071 L2.57540556,17.9586643 C2.18185,17.7195214 2.04618333,17.19045 2.27412778,16.7751643" id="Fill-10" fill="#65A15C" mask="url(#mask-4)"></path>
                            </g>
                            <path d="M26.9562373,40 C26.8123001,40 26.6664773,39.9633002 26.5325969,39.8854715 L2.42405988,25.8775557 C2.22921041,25.7642927 2.08715886,25.5776301 2.02870401,25.3586971 C1.97087772,25.1410296 2.00104796,24.9062778 2.11355782,24.7107567 L10.3085496,10.42696 C10.5429975,10.0188335 11.0615485,9.87836201 11.4669612,10.1150121 L35.5754981,24.1222951 C35.7703476,24.2349254 35.9130277,24.4222207 35.970854,24.6411537 C36.0293089,24.859454 35.9991386,25.0923076 35.8866288,25.2890942 L27.691637,39.5728908 C27.5345003,39.8475062 27.2491401,40 26.9562373,40" id="Fill-13" fill="#6FA664"></path>
                            <path d="M19.5,28 C17.5699375,28 16,26.4299334 16,24.4997123 C16,22.5700666 17.5699375,21 19.5,21 C21.4300625,21 23,22.5700666 23,24.4997123 C23,26.4299334 21.4300625,28 19.5,28" id="Fill-15" fill="#5A9D55"></path>
                            <path d="M4.34773188,25.8460469 L13,10.9699497 L11.5055747,10.1135686 C11.0985205,9.87989623 10.5778698,10.0183455 10.3424726,10.4230436 L2.11429811,24.5649208 C2.00133269,24.7597522 1.97040919,24.9902923 2.02910072,25.2064236 C2.08779226,25.4231813 2.23105009,25.6079892 2.42605745,25.7201269 L4.65886012,27 C4.25243702,26.7669541 4.11233465,26.2507449 4.34773188,25.8460469" id="Fill-17" fill="#79AA6C"></path>
                            <path d="M22.0970914,41.9999997 C20.3618359,42.0006631 18.825977,40.8629649 18.2681713,39.1030156 C17.4036985,36.3758569 18.6940976,33.3541571 21.2061166,32.2230928 L32.0170739,27.2510534 C35.6396564,25.5826505 39.7960666,25.5833139 43.4199111,27.2510534 L49.4895194,30.0405698 C49.7993414,30.1831967 50,30.5049364 50,30.8605085 L50,37.6051016 C50,38.0993203 49.6188748,38.5013291 49.1481473,38.5013291 L37.8103033,38.5013291 L22.8113857,41.9363151 C22.5709739,41.9794349 22.3324552,41.9999997 22.0970914,41.9999997" id="Fill-19" fill="#FCE3D7"></path>
                            <path d="M31.086379,30.1681314 C34.6575605,28.4774399 40.7759532,27.7833242 46,28.2822827 L43.845383,27.2642463 C40.284125,25.5789199 36.1987876,25.5782493 32.6375295,27.2642463 L22.0120552,32.2913879 C21.286407,32.6273801 20.6655747,33.1290213 20.1718858,33.7393066 C19.6800576,34.34758 20.3319005,35.2556309 21.0166147,34.9323809 L31.086379,30.1681314 Z" id="Fill-21" fill="#FDECE5"></path>
                            <path d="M37.9126976,38.0745313 L22.8338302,41.0913008 C22.5927713,41.1279842 22.3523468,41.1460347 22.1157285,41.1460347 C20.3712234,41.146617 18.8271779,40.149179 18.2663988,38.6032375 C18.1940811,38.4035169 18.1414288,38.2020496 18.0989263,38 C17.9308195,38.7977175 17.9707845,39.6396879 18.2663988,40.45138 C18.8284466,42.0008152 20.3788358,43 22.1017725,43 C22.3307784,43 22.5623218,42.9819495 22.7951339,42.9452661 C22.842077,42.9388611 22.8883856,42.9277978 22.93406,42.9132409 L35.3035524,38.9555141 C36.191664,38.6707814 37.118472,38.433213 38.0579673,38.2486317 C38.3669033,38.1874927 38.6815485,38.1292652 39,38.0745313 L37.9126976,38.0745313 Z" id="Fill-23" fill="#FACFBD"></path>
                        </g>
                    </g>
                </g>
            </g>
        </g>
    </g>
</svg>