<?xml version="1.0" encoding="UTF-8"?>
<svg width="51px" height="50px" viewBox="0 0 51 50" version="1.1" xmlns="http://www.w3.org/2000/svg" xmlns:xlink="http://www.w3.org/1999/xlink">
    <!-- Generator: Sketch 48.2 (47327) - http://www.bohemiancoding.com/sketch -->
    <title>deal</title>
    <desc>Created with Sketch.</desc>
    <defs></defs>
    <g id="Home_valor" stroke="none" stroke-width="1" fill="none" fill-rule="evenodd" transform="translate(-895.000000, -2282.000000)">
        <g id="steps" transform="translate(0.000000, 2003.000000)" fill="#000000" fill-rule="nonzero">
            <g id="Step-Copy-2" transform="translate(776.000000, 252.000000)">
                <g id="number" transform="translate(92.000000, 0.000000)">
                    <g id="deal" transform="translate(27.000000, 27.000000)">
                        <path d="M46.3533898,27.1411017 L37.0313559,17.8190678 C36.7,17.4877119 36.1644068,17.4877119 35.8330508,17.8190678 L30.8220339,22.8300847 L26.8779661,25.1987288 L23.7228814,25.1987288 C23.6279661,25.1987288 23.5347458,25.2182203 23.4466102,25.2487288 L19.1076271,23.6216102 L14.1533898,18.6673729 C13.8220339,18.3360169 13.2864407,18.3360169 12.9550847,18.6673729 L4.48050847,27.1419492 C4.14830508,27.4733051 4.14830508,28.0088983 4.47966102,28.3402542 L9.52288136,33.3834746 L11.5889831,36.1385593 C10.6220339,37.1317797 10.6271186,38.725 11.6101695,39.7080508 L12.9542373,41.0521186 L15.4966102,43.5944915 L18.0389831,46.1368644 L19.3822034,47.4809322 C19.8627119,47.9605932 20.5008475,48.2258475 21.1805085,48.2258475 C21.8601695,48.2258475 22.4983051,47.9614407 22.9779661,47.4809322 L23.7228814,46.7360169 L26.1618644,49.1758475 C26.6423729,49.6555085 27.2805085,49.9207627 27.9601695,49.9207627 C28.6398305,49.9207627 29.2779661,49.6563559 29.7576271,49.1758475 L29.9033898,49.0300847 C30.3644068,48.5682203 30.6016949,47.9707627 30.6330508,47.365678 C31.2618644,47.3334746 31.8508475,47.0817797 32.2991525,46.6334746 L32.4449153,46.4877119 C32.9059322,46.0258475 33.1432203,45.4283898 33.1745763,44.8233051 C33.8033898,44.7911017 34.3923729,44.5394068 34.840678,44.0911017 L34.9864407,43.945339 C35.4474576,43.4834746 35.6847458,42.8860169 35.7161017,42.2809322 C36.3449153,42.2487288 36.9338983,41.9970339 37.3822034,41.5487288 L37.5279661,41.4029661 C38.3254237,40.604661 38.4694915,39.4088983 37.9830508,38.4538136 L41.3305085,33.3622881 L46.3533898,28.3394068 C46.6847458,28.0080508 46.6847458,27.4724576 46.3533898,27.1411017 Z M6.27711864,27.7411017 L13.5533898,20.4648305 L17.4398305,24.3512712 L10.1635593,31.6275424 L6.27711864,27.7411017 Z M12.809322,38.5097458 C12.4788136,38.1792373 12.4788136,37.6419492 12.809322,37.3114407 L13.8025424,36.3182203 C14.1220339,35.9970339 14.6805085,35.9970339 15.0008475,36.3182203 L15.1457627,36.4639831 C15.4762712,36.7944915 15.4762712,37.3317797 15.1457627,37.6622881 L13.5533898,39.254661 L12.809322,38.5097458 Z M14.7516949,40.4529661 L16.3440678,38.8605932 C16.6635593,38.5394068 17.2220339,38.5394068 17.5423729,38.8605932 L17.6872881,39.0063559 C18.0177966,39.3368644 18.0177966,39.8741525 17.6872881,40.204661 L16.0957627,41.7970339 L14.7516949,40.4529661 Z M18.6381356,44.3394068 L17.2940678,42.995339 L18.8864407,41.4029661 C19.2059322,41.0817797 19.7644068,41.0817797 20.0847458,41.4029661 L20.229661,41.5487288 C20.5601695,41.8792373 20.5601695,42.4165254 20.229661,42.7470339 L18.6381356,44.3394068 Z M22.7728814,45.2894068 L21.779661,46.2826271 C21.4601695,46.6038136 20.9016949,46.6038136 20.5813559,46.2826271 L19.8364407,45.5377119 L21.4288136,43.945339 C21.7483051,43.6241525 22.3067797,43.6241525 22.6271186,43.945339 L22.7720339,44.0911017 C23.1025424,44.4216102 23.1025424,44.9588983 22.7728814,45.2894068 Z M36.3313559,40.204661 L36.1855932,40.3504237 C35.8661017,40.6716102 35.3076271,40.6716102 34.9872881,40.3504237 L32.7957627,38.1588983 L31.5974576,39.3572034 L33.7881356,41.5487288 C34.1186441,41.8792373 34.1186441,42.4165254 33.7881356,42.7470339 L33.6423729,42.8927966 C33.3228814,43.2139831 32.7644068,43.2139831 32.4440678,42.8927966 L30.2525424,40.7012712 L29.0542373,41.8995763 L31.2449153,44.0911017 C31.5754237,44.4216102 31.5754237,44.9588983 31.2449153,45.2894068 L31.0991525,45.4351695 C30.779661,45.7563559 30.2211864,45.7563559 29.9008475,45.4351695 L27.709322,43.2436441 L26.5110169,44.4419492 L28.7016949,46.6334746 C29.0322034,46.9639831 29.0322034,47.5012712 28.7016949,47.8317797 L28.5559322,47.9775424 C28.2364407,48.2987288 27.6779661,48.2987288 27.3576271,47.9775424 L24.6398305,45.2597458 C24.8288136,44.434322 24.609322,43.534322 23.9677966,42.8927966 L23.8228814,42.7470339 C23.3754237,42.2995763 22.7711864,42.0699153 22.1584746,42.0394068 C22.1322034,41.425 21.8932203,40.8182203 21.4254237,40.3504237 L21.2805085,40.204661 C20.8330508,39.7572034 20.2288136,39.5275424 19.6161017,39.4970339 C19.5898305,38.8826271 19.3508475,38.2758475 18.8830508,37.8080508 L18.7381356,37.6622881 C18.290678,37.2148305 17.6864407,36.9851695 17.0737288,36.954661 C17.0474576,36.3402542 16.8084746,35.7334746 16.340678,35.265678 L16.1957627,35.1199153 C15.3,34.225 13.7915254,34.175 12.8118644,34.9495763 L11.279661,32.9055085 L18.8491525,25.3360169 L21.9254237,26.4894068 L17.8949153,30.0190678 C17.8898305,30.0233051 17.8864407,30.0292373 17.8822034,30.0334746 C17.7279661,30.1699153 17.5932203,30.3207627 17.4737288,30.4809322 C17.4237288,30.5478814 17.3855932,30.6199153 17.3415254,30.6902542 C17.2779661,30.7919492 17.2161017,30.8927966 17.1661017,30.9995763 C17.1220339,31.0919492 17.0881356,31.1860169 17.0542373,31.2817797 C17.0211864,31.3758475 16.9923729,31.4707627 16.9686441,31.5673729 C16.9432203,31.6699153 16.9211864,31.7724576 16.9076271,31.8783898 C16.8932203,31.9834746 16.8898305,32.0885593 16.8864407,32.1944915 C16.8838983,32.2699153 16.8677966,32.3419492 16.8711864,32.4182203 C16.8720339,32.4419492 16.8805085,32.4639831 16.8822034,32.4877119 C16.8949153,32.684322 16.9237288,32.8792373 16.9754237,33.0716102 C16.9889831,33.1216102 17.0135593,33.1673729 17.029661,33.2173729 C17.0788136,33.3690678 17.1364407,33.5190678 17.2101695,33.6631356 C17.2423729,33.725 17.2822034,33.7817797 17.3186441,33.8411017 C17.3694915,33.925 17.4110169,34.0122881 17.4711864,34.0919492 C17.4991525,34.1292373 17.5347458,34.1572034 17.5644068,34.1927966 C17.6177966,34.2580508 17.6762712,34.3173729 17.7347458,34.3783898 C17.8245763,34.4707627 17.9177966,34.5580508 18.0186441,34.6377119 C18.0601695,34.6707627 18.0915254,34.7122881 18.1347458,34.7436441 C18.1923729,34.7860169 18.2567797,34.8165254 18.3169492,34.8538136 C18.3457627,34.8716102 18.3745763,34.8902542 18.4042373,34.9063559 C18.9016949,35.1902542 19.4635593,35.3182203 20.0288136,35.2851695 C20.1228814,35.2809322 20.2135593,35.265678 20.3059322,35.2521186 C20.3779661,35.2411017 20.45,35.2300847 20.5220339,35.2139831 C20.6381356,35.1885593 20.7508475,35.1563559 20.8635593,35.1173729 C20.9135593,35.1004237 20.9618644,35.0792373 21.0110169,35.0597458 C21.1237288,35.0131356 21.2355932,34.965678 21.3432203,34.9055085 C21.4279661,34.8588983 21.5067797,34.8012712 21.5881356,34.7470339 C21.6449153,34.7072034 21.7067797,34.6783898 21.7610169,34.6351695 L21.7983051,34.6055085 L24.1372881,32.7334746 L26.4025424,31.9783898 L28.5008475,31.9783898 L33.2932203,35.9673729 L36.3313559,39.0063559 C36.6618644,39.3368644 36.6618644,39.8741525 36.3313559,40.204661 Z M36.8372881,37.115678 L35.3389831,35.6165254 L35.3372881,35.6182203 L34.4347458,34.7173729 L29.35,30.4800847 C29.1974576,30.3529661 29.0059322,30.2834746 28.8076271,30.2834746 L26.2652542,30.2834746 C26.1745763,30.2834746 26.0838983,30.2987288 25.9974576,30.3275424 L23.4550847,31.175 C23.3601695,31.2063559 23.2720339,31.254661 23.1932203,31.3165254 L20.7364407,33.2826271 C20.4991525,33.4724576 20.2135593,33.5775424 19.9305085,33.595339 C19.9220339,33.595339 19.9127119,33.5944915 19.9042373,33.5944915 C19.7974576,33.5987288 19.6923729,33.5834746 19.5898305,33.5622881 C19.5474576,33.5529661 19.5033898,33.5470339 19.4627119,33.5334746 C19.3627119,33.5021186 19.2686441,33.4563559 19.1813559,33.3987288 C19.140678,33.3733051 19.1025424,33.3436441 19.0644068,33.3139831 C19.0237288,33.2800847 18.9830508,33.245339 18.9474576,33.2080508 C18.9211864,33.1809322 18.8949153,33.1538136 18.870339,33.1241525 C18.8457627,33.0944915 18.8254237,33.0614407 18.8033898,33.0300847 C18.6271186,32.775 18.5516949,32.4775424 18.5737288,32.1851695 C18.5754237,32.165678 18.5754237,32.145339 18.5779661,32.1258475 C18.5957627,31.9817797 18.6364407,31.8411017 18.7008475,31.7097458 C18.709322,31.6919492 18.7211864,31.675 18.7305085,31.6572034 C18.8025424,31.525 18.8923729,31.4004237 19.0118644,31.2961864 L24.0415254,26.8936441 L27.1127119,26.8936441 C27.2661017,26.8936441 27.4169492,26.8521186 27.5491525,26.7724576 L31.2186441,24.5707627 L39.5847458,32.9368644 L36.8372881,37.115678 Z M40.6720339,31.6275424 L32.5483051,23.5038136 L36.4347458,19.6173729 L44.5584746,27.7411017 L40.6720339,31.6275424 Z" id="Shape"></path>
                        <path d="M35.3389831,1.71822034 C33.1389831,-0.481779661 29.5610169,-0.481779661 27.3610169,1.71822034 L25.4177966,3.66144068 L23.4745763,1.71822034 C21.2745763,-0.481779661 17.6966102,-0.481779661 15.4966102,1.71822034 C13.2966102,3.91822034 13.2966102,7.49618644 15.4966102,9.69618644 L24.8186441,19.0182203 C24.9838983,19.1834746 25.2008475,19.2665254 25.4177966,19.2665254 C25.6347458,19.2665254 25.8516949,19.1834746 26.0169492,19.0182203 L35.3389831,9.69618644 C37.5389831,7.49618644 37.5389831,3.91822034 35.3389831,1.71822034 Z M34.140678,8.49788136 L25.4177966,17.2207627 L16.6949153,8.49788136 C15.1567797,6.95974576 15.1567797,4.45466102 16.6949153,2.91652542 C17.4644068,2.1470339 18.4754237,1.76313559 19.4855932,1.76313559 C20.4957627,1.76313559 21.5067797,2.1470339 22.2762712,2.91652542 L24.8186441,5.45889831 C25.15,5.79025424 25.6855932,5.79025424 26.0169492,5.45889831 L28.559322,2.91652542 C30.0974576,1.37754237 32.6025424,1.37754237 34.140678,2.91652542 C35.6788136,4.45466102 35.6788136,6.95974576 34.140678,8.49788136 Z" id="Shape"></path>
                        <path d="M3.16355932,12.8961864 C2.88220339,13.404661 2.61440678,13.9300847 2.36779661,14.4588983 L3.90338983,15.1758475 C4.13305085,14.6834746 4.38305085,14.1927966 4.64576271,13.7190678 L3.16355932,12.8961864 Z" id="Shape"></path>
                        <path d="M5.06864407,9.95550847 C4.71949153,10.4207627 4.38135593,10.904661 4.06525424,11.3936441 L5.48813559,12.3139831 C5.78305085,11.8588983 6.09830508,11.4080508 6.42372881,10.9733051 L5.06864407,9.95550847 Z" id="Shape"></path>
                        <path d="M0.654237288,19.4224576 C0.522033898,19.9894068 0.407627119,20.5682203 0.316101695,21.1444915 L1.98983051,21.4122881 C2.07627119,20.875 2.18220339,20.3351695 2.30508475,19.8063559 L0.654237288,19.4224576 Z" id="Shape"></path>
                        <path d="M1.68135593,16.0733051 C1.47288136,16.615678 1.28050847,17.1733051 1.10932203,17.7309322 L2.72966102,18.2275424 C2.88898305,17.7080508 3.06864407,17.1868644 3.26355932,16.6809322 L1.68135593,16.0733051 Z" id="Shape"></path>
                        <path d="M4.15423729,35.7411017 L2.63559322,36.4944915 C2.89322034,37.0131356 3.17372881,37.5326271 3.46864407,38.0368644 L4.93135593,37.1792373 C4.6559322,36.7088983 4.3940678,36.225 4.15423729,35.7411017 Z" id="Shape"></path>
                        <path d="M9.98813559,4.99025424 C9.52288136,5.34618644 9.06694915,5.71991525 8.63305085,6.10211864 L9.75338983,7.37330508 C10.1576271,7.01737288 10.5830508,6.66822034 11.0177966,6.33516949 L9.98813559,4.99025424 Z" id="Shape"></path>
                        <path d="M7.35932203,7.30466102 C6.94830508,7.71822034 6.54745763,8.15127119 6.16864407,8.59025424 L7.45169492,9.69788136 C7.8059322,9.28855932 8.17966102,8.88432203 8.56271186,8.49788136 L7.35932203,7.30466102 Z" id="Shape"></path>
                        <path d="M0.0974576271,22.8851695 C0.0457627119,23.465678 0.0127118644,24.0538136 0,24.634322 L1.69491525,24.6707627 C1.70677966,24.1292373 1.73728814,23.5800847 1.78559322,23.0360169 L0.0974576271,22.8851695 Z" id="Shape"></path>
                        <path d="M2.08898305,29.5555085 L0.422033898,29.8631356 C0.527118644,30.4317797 0.654237288,31.0080508 0.800847458,31.5758475 L2.44237288,31.1521186 C2.3059322,30.6233051 2.18644068,30.0860169 2.08898305,29.5555085 Z" id="Shape"></path>
                        <path d="M1.71525424,26.3063559 L0.0220338983,26.3834746 C0.0483050847,26.9631356 0.0949152542,27.5504237 0.161864407,28.1309322 L1.84576271,27.9368644 C1.78305085,27.3944915 1.73983051,26.8461864 1.71525424,26.3063559 Z" id="Shape"></path>
                        <path d="M2.9059322,32.7199153 L1.29830508,33.2563559 C1.48220339,33.8072034 1.68813559,34.3597458 1.91101695,34.8987288 L3.47711864,34.2521186 C3.26949153,33.7495763 3.07711864,33.234322 2.9059322,32.7199153 Z" id="Shape"></path>
                        <path d="M7.83050847,41.1300847 L6.57627119,42.2690678 C6.96949153,42.7029661 7.38050847,43.1258475 7.79661017,43.525 L8.97033898,42.3038136 C8.58220339,41.9300847 8.19830508,41.5351695 7.83050847,41.1300847 Z" id="Shape"></path>
                        <path d="M15.7194915,46.8605932 L15.0245763,48.4063559 C15.5550847,48.6444915 16.1016949,48.8682203 16.6491525,49.0682203 L17.2330508,47.4783898 C16.7228814,47.2911017 16.2135593,47.0834746 15.7194915,46.8605932 Z" id="Shape"></path>
                        <path d="M10.1881356,43.3970339 L9.10084746,44.6961864 C9.54661017,45.0690678 10.0110169,45.4317797 10.4813559,45.7741525 L11.4788136,44.4038136 C11.0389831,44.0834746 10.6050847,43.745339 10.1881356,43.3970339 Z" id="Shape"></path>
                        <path d="M12.8338983,45.3199153 L11.9338983,46.754661 C12.4288136,47.065678 12.9398305,47.3622881 13.4516949,47.634322 L14.2491525,46.1394068 C13.7720339,45.8851695 13.2966102,45.6097458 12.8338983,45.3199153 Z" id="Shape"></path>
                        <path d="M5.8059322,38.5614407 L4.4059322,39.5173729 C4.73474576,39.9987288 5.08389831,40.475 5.4440678,40.9309322 L6.77372881,39.8792373 C6.43813559,39.4538136 6.11186441,39.0114407 5.8059322,38.5614407 Z" id="Shape"></path>
                        <path d="M40.5932203,43.4402542 C40.1737288,43.7885593 39.7389831,44.1266949 39.3008475,44.4436441 L40.2940678,45.8173729 C40.7635593,45.4783898 41.229661,45.1165254 41.6779661,44.7427966 L40.5932203,43.4402542 Z" id="Shape"></path>
                        <path d="M40.9076271,5.03771186 L39.8728814,6.38008475 C40.3025424,6.71144068 40.7271186,7.06228814 41.1355932,7.42245763 L42.2584746,6.1529661 C41.8220339,5.76652542 41.3677966,5.39194915 40.9076271,5.03771186 Z" id="Shape"></path>
                        <path d="M42.9576271,41.1800847 C42.5872881,41.5868644 42.2025424,41.9800847 41.8152542,42.3495763 L42.9855932,43.5758475 C43.4016949,43.1783898 43.8135593,42.7572034 44.2101695,42.3224576 L42.9576271,41.1800847 Z" id="Shape"></path>
                        <path d="M44.990678,38.6182203 C44.6847458,39.0631356 44.3567797,39.5063559 44.0177966,39.9351695 L45.3457627,40.9877119 C45.709322,40.5292373 46.059322,40.054661 46.3872881,39.5783898 L44.990678,38.6182203 Z" id="Shape"></path>
                        <path d="M35.0550847,46.8885593 C34.5584746,47.1097458 34.0483051,47.315678 33.5398305,47.5012712 L34.1194915,49.0936441 C34.6652542,48.8961864 35.2118644,48.675 35.7449153,48.4368644 L35.0550847,46.8885593 Z" id="Shape"></path>
                        <path d="M37.9432203,45.3555085 C37.4779661,45.6444915 37.0016949,45.9190678 36.5262712,46.1707627 L37.320339,47.6690678 C37.8305085,47.3995763 38.3415254,47.104661 38.8389831,46.7944915 L37.9432203,45.3555085 Z" id="Shape"></path>
                        <path d="M45.8127119,10.0165254 L44.4533898,11.0292373 C44.7771186,11.4639831 45.090678,11.9165254 45.3864407,12.3741525 L46.8110169,11.4555085 C46.4957627,10.9665254 46.159322,10.4826271 45.8127119,10.0165254 Z" id="Shape"></path>
                        <path d="M49.179661,16.1402542 L47.5966102,16.7444915 C47.7889831,17.2495763 47.9669492,17.7690678 48.1254237,18.2911017 L49.7474576,17.7978814 C49.5771186,17.2394068 49.3864407,16.6809322 49.179661,16.1402542 Z" id="Shape"></path>
                        <path d="M46.6516949,35.8004237 C46.4084746,36.2868644 46.1449153,36.7716102 45.8694915,37.2368644 L47.329661,38.0995763 C47.6245763,37.5995763 47.9067797,37.0809322 48.1677966,36.5588983 L46.6516949,35.8004237 Z" id="Shape"></path>
                        <path d="M47.7084746,12.9622881 L46.2228814,13.7783898 C46.4855932,14.2563559 46.7347458,14.7478814 46.9618644,15.2385593 L48.4991525,14.525 C48.2559322,14.0004237 47.9898305,13.4741525 47.7084746,12.9622881 Z" id="Shape"></path>
                        <path d="M43.5313559,7.35889831 L42.3237288,8.54872881 C42.7042373,8.93432203 43.0771186,9.34025424 43.4313559,9.7529661 L44.7177966,8.64872881 C44.3381356,8.20720339 43.9389831,7.77245763 43.5313559,7.35889831 Z" id="Shape"></path>
                        <path d="M50.7432203,22.9538136 L49.0550847,23.1012712 C49.1025424,23.6419492 49.1313559,24.1911017 49.1415254,24.734322 L50.8364407,24.7029661 C50.8254237,24.1207627 50.7940678,23.5317797 50.7432203,22.9538136 Z" id="Shape"></path>
                        <path d="M50.1991525,19.4919492 L48.5466102,19.8707627 C48.6677966,20.3987288 48.7720339,20.9394068 48.8567797,21.4766949 L50.5313559,21.2131356 C50.4415254,20.6368644 50.3288136,20.0580508 50.1991525,19.4919492 Z" id="Shape"></path>
                        <path d="M47.909322,32.7826271 C47.7355932,33.2961864 47.5415254,33.8122881 47.3330508,34.3148305 L48.8983051,34.965678 C49.1211864,34.4275424 49.3288136,33.875 49.5152542,33.3241525 L47.909322,32.7826271 Z" id="Shape"></path>
                        <path d="M49.1177966,26.3716102 C49.0915254,26.915678 49.0457627,27.4639831 48.9830508,28.0029661 L50.6661017,28.1995763 C50.7338983,27.6241525 50.7830508,27.0368644 50.8110169,26.454661 L49.1177966,26.3716102 Z" id="Shape"></path>
                        <path d="M48.7355932,29.6182203 C48.6355932,30.1504237 48.5152542,30.6868644 48.3771186,31.2139831 L50.0177966,31.6427966 C50.1652542,31.0775424 50.2940678,30.5021186 50.4016949,29.9326271 L48.7355932,29.6182203 Z" id="Shape"></path>
                    </g>
                </g>
            </g>
        </g>
    </g>
</svg>