<?xml version="1.0" encoding="UTF-8"?>
<svg width="36px" height="40px" viewBox="0 0 36 40" version="1.1" xmlns="http://www.w3.org/2000/svg" xmlns:xlink="http://www.w3.org/1999/xlink">
    <!-- Generator: Sketch 49.2 (51160) - http://www.bohemiancoding.com/sketch -->
    <title>blood-transfusion (1)</title>
    <desc>Created with Sketch.</desc>
    <defs></defs>
    <g id="Page-1" stroke="none" stroke-width="1" fill="none" fill-rule="evenodd">
        <g id="Datos_Clínicos" transform="translate(-617.000000, -2220.000000)" fill-rule="nonzero">
            <g id="datos-personales-copy-2" transform="translate(99.000000, 1576.000000)">
                <g id="datos-personales" transform="translate(37.000000, 40.000000)">
                    <g id="Group-5-Copy-9" transform="translate(481.000000, 604.000000)">
                        <g id="blood-transfusion-(1)">
                            <path d="M35.7239844,21.1666406 C35.7239844,27.0832812 30.890625,31.9166406 24.9739844,31.9166406 C19.0573438,31.9166406 14.2239844,27.0832812 14.2239844,21.1666406 C14.2239844,15.25 24.9739844,2.41664062 24.9739844,2.41664062 C24.9739844,2.41664062 35.7239844,15.1666406 35.7239844,21.1666406 Z" id="Shape" fill="#F1543F"></path>
                            <path d="M29.3072656,25.4166406 C29.3072656,33.5 22.7239844,40 14.7239844,40 C6.72398438,40 0.057265625,33.4166406 0.057265625,25.4166406 C0.057265625,17.4166406 14.640625,0 14.640625,0 C14.640625,0 29.3072656,17.3333594 29.3072656,25.4166406 Z" id="Shape" fill="#FF7058"></path>
                            <path d="M14.140625,35.5833594 C8.640625,35.5833594 4.22398437,31.0833594 4.22398437,25.6667187 C4.22398437,25.1667188 3.890625,24.8333594 3.390625,24.8333594 C2.890625,24.8333594 2.55726562,25.1667188 2.55726562,25.6667187 C2.55726562,32.0833594 7.72398437,37.25 14.140625,37.25 C14.640625,37.25 14.9739844,36.9166406 14.9739844,36.4166406 C14.9739844,35.9166406 14.640625,35.5833594 14.140625,35.5833594 Z" id="Shape" fill="#F1543F"></path>
                            <circle id="Oval" fill="#FFFFFF" cx="14.640625" cy="23.0833594" r="6.58335937"></circle>
                            <g id="Group" transform="translate(10.859375, 19.296875)" fill="#FF7058">
                                <rect id="Rectangle-path" x="0.03125" y="2.953125" width="7.5" height="1.66664063"></rect>
                                <rect id="Rectangle-path" x="3.03125" y="0.036484375" width="1.66664063" height="7.5"></rect>
                            </g>
                        </g>
                    </g>
                </g>
            </g>
        </g>
    </g>
</svg>