<?xml version="1.0" encoding="UTF-8"?>
<svg width="51px" height="50px" viewBox="0 0 51 50" version="1.1" xmlns="http://www.w3.org/2000/svg" xmlns:xlink="http://www.w3.org/1999/xlink">
    <!-- Generator: Sketch 49.2 (51160) - http://www.bohemiancoding.com/sketch -->
    <title>hoja</title>
    <desc>Created with Sketch.</desc>
    <defs>
        <polygon id="path-1" points="0 0.436 47.5200147 0.436 47.5200147 3.99971429 0 3.99971429"></polygon>
        <polygon id="path-3" points="0.148511905 0.47559375 24.5241071 0.47559375 24.5241071 18.5169844 0.148511905 18.5169844"></polygon>
        <polygon id="path-5" points="0.364265625 0.486321429 18.4694844 0.486321429 18.4694844 16.5304357 0.364265625 16.5304357"></polygon>
        <polygon id="path-7" points="0.05315 0.0027 0.1005 0.0027 0.1005 0.5027 0.05315 0.5027"></polygon>
        <polygon id="path-9" points="0.07705 0.0835 0.1005 0.0835 0.1005 0.5835 0.07705 0.5835"></polygon>
    </defs>
    <g id="Page-1" stroke="none" stroke-width="1" fill="none" fill-rule="evenodd">
        <g id="Home_valor" transform="translate(-576.000000, -2283.000000)">
            <g id="steps" transform="translate(0.000000, 2003.000000)">
                <g id="Step-Copy" transform="translate(456.000000, 252.000000)">
                    <g id="number" transform="translate(92.000000, 0.000000)">
                        <g id="hoja" transform="translate(28.000000, 28.000000)">
                            <path d="M23.2874795,30 L16.1963418,30 C6.96534714,30 1,23.9211673 1,14.5135349 L1,14.1807738 C1,13.8593028 1.19719651,13.568731 1.50184376,13.4427572 C3.81691861,12.4848805 6.49647122,12 9.46418716,12 L9.87140101,12 C19.3679699,12 26,17.3414103 26,24.988974 L26,27.3593028 C26,28.8151327 24.7832426,30 23.2874795,30" id="Fill-1" fill="#9AC879"></path>
                            <path d="M16.2141757,27.664578 C7.54751718,27.664578 1.75670522,22.3591596 1.06906922,14 C1.0287279,14.0943605 1,14.1940288 1,14.2995945 L1,14.630446 C1,23.9662366 6.97173663,30 16.2141757,30 L23.3136354,30 C24.7096892,30 25.8502482,28.9738297 26,27.664578 L16.2141757,27.664578 Z" id="Fill-3" fill="#5A9D55"></path>
                            <path d="M2,48 L3.91035294,47.6910869 C17.8684967,45.4363044 32.130902,45.4363044 46.0890458,47.6910869 L48,48" id="Stroke-5" stroke="#E20714" stroke-width="2.7" stroke-linecap="round" stroke-linejoin="round"></path>
                            <g id="Group-9" transform="translate(1.000000, 44.000000)">
                                <mask id="mask-2" fill="white">
                                    <use xlink:href="#path-1"></use>
                                </mask>
                                <g id="Clip-8"></g>
                                <path d="M46.71084,3.99971429 C46.66524,3.99971429 46.61964,3.99628571 46.57344,3.98885714 L0.94764,3.98885714 C0.50844,4.05914286 0.08784,3.77857143 0.01164,3.35914286 C-0.06396,2.94028571 0.23244,2.53971429 0.67344,2.46771429 L2.57964,2.15628571 C16.63404,-0.137428571 30.88584,-0.137428571 44.94024,2.15628571 L46.84764,2.46771429 C47.28744,2.53971429 47.58384,2.94028571 47.50824,3.35914286 C47.44044,3.73457143 47.09844,3.99971429 46.71084,3.99971429" id="Fill-7" fill="#CD7E74" mask="url(#mask-2)"></path>
                            </g>
                            <path d="M25.6666667,46 L24.3333333,46 C24.1488889,46 24,45.8766468 24,45.7244497 L24,16 L26,16 L26,45.7244497 C26,45.8766468 25.8511111,46 25.6666667,46" id="Fill-10" fill="#5A9D55"></path>
                            <g id="Group-14" transform="translate(24.000000, 0.000000)">
                                <mask id="mask-4" fill="white">
                                    <use xlink:href="#path-3"></use>
                                </mask>
                                <g id="Clip-13"></g>
                                <path d="M9.70565476,18.5169844 L2.79732143,18.5169844 C1.33660714,18.5169844 0.148511905,17.3306719 0.148511905,15.8718281 L0.148511905,15.2561094 C0.148511905,6.27742187 6.32053571,0.475296875 15.8723214,0.475296875 L16.2693452,0.475296875 C19.1639881,0.475296875 21.7758929,0.960984375 24.0342262,1.91692187 C24.3306548,2.04279687 24.5241071,2.33373437 24.5241071,2.65554687 L24.5241071,3.17685937 C24.5241071,12.6388594 18.8455357,18.5169844 9.70565476,18.5169844" id="Fill-12" fill="#9AC879" mask="url(#mask-4)"></path>
                            </g>
                            <path d="M33.7833794,16.6690457 L24,16.6690457 C24.1521968,17.9763814 25.2927557,19 26.6894208,19 L33.7833794,19 C43.1688467,19 49,13.1726142 49,3.79228901 L49,3.27547642 C49,3.17894195 48.9755507,3.08711647 48.9425442,3 C48.3331459,11.473843 42.6437984,16.6690457 33.7833794,16.6690457" id="Fill-15" fill="#5A9D55"></path>
                            <path d="M6.62344081,25 L14,12.3773023 C12.6837844,12.1306047 11.2874088,12 9.82311132,12 L9.41496823,12 C6.4392563,12 3.7548129,12.4952093 1.43445517,13.4693023 C1.23007767,13.5545581 1.08016004,13.7184186 1,13.9131163 C1.38672629,18.7394419 3.39439868,22.5711163 6.62344081,25" id="Fill-17" fill="#ABD18F"></path>
                            <path d="M1,14.206 C1.021,14.136 1.041,14.067 1.068,14 C1.04,14.067 1.018,14.134 1,14.206" id="Fill-19" fill="#9AC879"></path>
                            <path d="M24.421,30 C24.283,30.075 24.148,30.153 24,30.213 C24.149,30.153 24.282,30.074 24.421,30" id="Fill-21" fill="#9AC879"></path>
                            <path d="M25.461,30 C25.315,30.125 25.163,30.245 25,30.35 C25.164,30.245 25.315,30.124 25.461,30" id="Fill-23" fill="#9AC879"></path>
                            <path d="M25.456,30 C25.316,30.176 25.165,30.343 25,30.496 C25.166,30.343 25.314,30.176 25.456,30" id="Fill-25" fill="#9AC879"></path>
                            <path d="M25.399,29 C25.284,29.223 25.148,29.434 25,29.632 C25.15,29.434 25.282,29.223 25.399,29" id="Fill-27" fill="#9AC879"></path>
                            <path d="M25.465,28 C25.404,28.3566343 25.242,28.6938511 25,29 C25.246,28.6932039 25.403,28.3579288 25.465,28" id="Fill-29" fill="#9AC879"></path>
                            <path d="M24.332,30 C24.221,30.031 24.114,30.074 24,30.097 C24.114,30.074 24.221,30.031 24.332,30" id="Fill-31" fill="#9AC879"></path>
                            <path d="M1,14.302 C1,14.198 1.021,14.099 1.044,14 C1.02,14.098 1,14.198 1,14.302" id="Fill-33" fill="#5A9D55"></path>
                            <path d="M25.014,29 C25.01,29.008 25.005,29.018 25,29.025 C25.005,29.018 25.01,29.008 25.014,29" id="Fill-35" fill="#5A9D55"></path>
                            <path d="M24.465,30 C24.317,30.062 24.157,30.102 24,30.146 C24.157,30.101 24.317,30.062 24.465,30" id="Fill-37" fill="#5A9D55"></path>
                            <path d="M25.16,30 C25.109,30.047 25.055,30.087 25,30.132 C25.055,30.087 25.109,30.047 25.16,30" id="Fill-39" fill="#5A9D55"></path>
                            <path d="M25.064,29 C25.043,29.027 25.02,29.052 25,29.079 C25.02,29.052 25.043,29.027 25.064,29" id="Fill-41" fill="#5A9D55"></path>
                            <path d="M23.861,30 C23.582,30.056 23.295,30.087 23,30.087 C23.295,30.087 23.582,30.056 23.861,30" id="Fill-43" fill="#5A9D55"></path>
                            <path d="M24.293,30 C24.199,30.061 24.099,30.106 24,30.159 C24.099,30.106 24.2,30.061 24.293,30" id="Fill-45" fill="#5A9D55"></path>
                            <path d="M1.07159751,14 C1.0541819,14.0414722 1.0399914,14.0848014 1.02773597,14.1281307 C1.01290045,14.1887915 1,14.2506904 1,14.3144462 L1,14.6616989 C1,19.9218646 2.8170286,24.1811256 6.00731026,27 L7,25.3497762 C3.59621587,22.8639177 1.48054182,18.9401486 1.07159751,14" id="Fill-47" fill="#65A15C"></path>
                            <path d="M23.3467725,30 C23.5248212,30 23.698645,29.9818058 23.8670368,29.9505345 C23.9370492,29.9374574 24.0004225,29.9130089 24.0674171,29.8948146 C24.1633823,29.8697976 24.2581404,29.8470548 24.3480701,29.8129406 C24.4367927,29.7782579 24.5188762,29.7339095 24.6021668,29.6918353 C24.6619187,29.6617012 24.7222742,29.6349784 24.7790084,29.6014328 C24.8773878,29.5411644 24.9691282,29.4729361 25.0572472,29.4018649 C25.0898392,29.3768479 25.1230347,29.3535365 25.153816,29.3268137 C25.2534025,29.2403912 25.3457464,29.1460086 25.429037,29.0448033 C25.4423152,29.030589 25.4555934,29.0163748 25.4694752,29.0010234 C25.5588013,28.8878781 25.6408848,28.7679099 25.7102936,28.6405504 C25.7133114,28.6365704 25.7163292,28.6320218 25.719347,28.6269047 C25.8648037,28.3579713 25.9625796,28.0617466 26,27.7484649 L16.3364819,27.7484649 C12.5968555,27.7484649 9.40103208,26.7710939 6.92887105,25 L6,26.5158062 C8.57657603,28.7497157 12.1091831,30 16.3364819,30 L23.3467725,30 Z" id="Fill-49" fill="#5A9D55"></path>
                            <path d="M24.398,18.629 C24.25,18.432 24.114,18.222 24,18 C24.116,18.222 24.248,18.432 24.398,18.629" id="Fill-51" fill="#9AC879"></path>
                            <path d="M25.453,18.493 C25.29,18.341 25.141,18.175 25,18 C25.141,18.175 25.288,18.341 25.453,18.493" id="Fill-53" fill="#9AC879"></path>
                            <path d="M25.459,18.348 C25.297,18.244 25.147,18.124 25,18 C25.147,18.124 25.296,18.244 25.459,18.348" id="Fill-55" fill="#9AC879"></path>
                            <path d="M26.419,19.212 C26.273,19.152 26.139,19.075 26,19 C26.139,19.074 26.273,19.153 26.419,19.212" id="Fill-57" fill="#9AC879"></path>
                            <path d="M24.467,18 C24.225,17.6936528 24.064,17.3568653 24,17 C24.064,17.357513 24.221,17.6936528 24.467,18" id="Fill-59" fill="#9AC879"></path>
                            <path d="M26.332,19.097 C26.217,19.074 26.111,19.032 26,19 C26.111,19.032 26.217,19.074 26.332,19.097" id="Fill-61" fill="#9AC879"></path>
                            <path d="M39,1 C29.8717298,1.19628928 24,7.06558122 24,16.0718667 L24,16.7007194 C24,16.8031049 24.018157,16.9006437 24.0286997,17 L30.0691136,17 L39,1 Z" id="Fill-63" fill="#ABD18F"></path>
                            <g id="Group-67" transform="translate(30.000000, 0.000000)">
                                <mask id="mask-6" fill="white">
                                    <use xlink:href="#path-5"></use>
                                </mask>
                                <g id="Clip-66"></g>
                                <path d="M3.74389063,16.5304357 C12.3508906,16.5304357 17.8775156,11.1717929 18.4694844,2.43136429 C18.3940781,2.22432857 18.2426719,2.05007857 18.0366406,1.96022143 C15.7839531,0.982721429 13.1785781,0.486078571 10.2911719,0.486078571 L9.89514063,0.486078571 C9.73423438,0.486078571 9.57629688,0.49215 9.41776563,0.495792857 L0.364265625,16.5304357 L3.74389063,16.5304357 Z" id="Fill-65" fill="#9AC879" mask="url(#mask-6)"></path>
                            </g>
                            <g id="Group-70" transform="translate(49.000000, 3.000000)">
                                <mask id="mask-8" fill="white">
                                    <use xlink:href="#path-7"></use>
                                </mask>
                                <g id="Clip-69"></g>
                                <path d="M0.05315,0.0027 C0.06365,0.0292 0.06965,0.0562 0.07715,0.0837 C0.07065,0.0557 0.06365,0.0292 0.05315,0.0027" id="Fill-68" fill="#9AC879" mask="url(#mask-8)"></path>
                            </g>
                            <path d="M25.163,18.134 C25.109,18.089 25.052,18.047 25,18 C25.052,18.048 25.109,18.089 25.163,18.134" id="Fill-71" fill="#5A9D55"></path>
                            <path d="M24.016,18.028 C24.011,18.019 24.005,18.009 24,18 C24.005,18.009 24.011,18.019 24.016,18.028" id="Fill-73" fill="#5A9D55"></path>
                            <path d="M25.295,19.161 C25.195,19.108 25.094,19.06 25,19 C25.094,19.061 25.196,19.107 25.295,19.161" id="Fill-75" fill="#5A9D55"></path>
                            <path d="M26.862,19.087 C26.567,19.087 26.279,19.055 26,19 C26.279,19.055 26.566,19.087 26.862,19.087" id="Fill-77" fill="#5A9D55"></path>
                            <path d="M26.466,19.145 C26.309,19.101 26.152,19.061 26,19 C26.151,19.062 26.309,19.101 26.466,19.145" id="Fill-79" fill="#5A9D55"></path>
                            <path d="M25.066,18.083 C25.045,18.055 25.02,18.029 25,18 C25.02,18.029 25.045,18.055 25.066,18.083" id="Fill-81" fill="#5A9D55"></path>
                            <g id="Group-85" transform="translate(49.000000, 3.000000)">
                                <mask id="mask-10" fill="white">
                                    <use xlink:href="#path-9"></use>
                                </mask>
                                <g id="Clip-84"></g>
                                <path d="M0.07705,0.0835 C0.08855,0.1335 0.09955,0.1835 0.09955,0.236 C0.09955,0.1835 0.09005,0.133 0.07705,0.0835" id="Fill-83" fill="#5A9D55" mask="url(#mask-10)"></path>
                            </g>
                            <path d="M24,17 C24.036071,17.2782828 24.1314845,17.5414141 24.2716959,17.779798 C24.2746049,17.7848485 24.2786774,17.7893939 24.2804228,17.7939394 C24.3484922,17.9060606 24.4258703,18.0121212 24.5131388,18.1116162 C24.5253563,18.1257576 24.5393193,18.1393939 24.5521187,18.1535354 C24.6335693,18.2414141 24.7208378,18.3252525 24.8156695,18.4020202 C24.8459226,18.4262626 24.8802482,18.4474747 24.9105013,18.470202 C24.9960244,18.5328283 25.0832929,18.5929293 25.1775429,18.6454545 C25.2322312,18.6757576 25.2915737,18.7 25.3491709,18.7267677 C25.429458,18.7646465 25.5085814,18.8035354 25.5929409,18.8338384 C25.681373,18.8641414 25.7727141,18.8848485 25.8640551,18.9070707 C25.9286338,18.9232323 25.9903035,18.9444444 26.0572093,18.9560606 C26.2195288,18.9838384 26.3876661,19 26.5587123,19 L28.6694463,19 L30,17 L24,17 Z" id="Fill-86" fill="#5A9D55"></path>
                            <path d="M49,3.79172952 L49,3.27489791 C49,3.21309003 48.9872236,3.15422538 48.9726219,3.09536073 C48.9634959,3.06298517 48.9555867,3.03119826 48.9434186,3 C48.3368418,11.4735661 42.6750525,16.6689599 33.8544398,16.6689599 L30.390807,16.6689599 L29,19 L33.8544398,19 C43.1970614,19 49,13.1723998 49,3.79172952" id="Fill-88" fill="#65A15C"></path>
                        </g>
                    </g>
                </g>
            </g>
        </g>
    </g>
</svg>