<?xml version="1.0" encoding="UTF-8"?>
<svg width="41px" height="42px" viewBox="0 0 41 42" version="1.1" xmlns="http://www.w3.org/2000/svg" xmlns:xlink="http://www.w3.org/1999/xlink">
    <!-- Generator: Sketch 49.2 (51160) - http://www.bohemiancoding.com/sketch -->
    <title>Home</title>
    <desc>Created with Sketch.</desc>
    <defs>
        <polygon id="path-1" points="0 0.415321429 40.59 0.415321429 40.59 28.7772741 0 28.7772741"></polygon>
        <polygon id="path-3" points="0 42 41 42 41 1 0 1"></polygon>
    </defs>
    <g id="Page-1" stroke="none" stroke-width="1" fill="none" fill-rule="evenodd">
        <g id="Precalificación_individual" transform="translate(-379.000000, -1543.000000)">
            <g id="domicilio-copy-2" transform="translate(99.000000, 1437.000000)">
                <g id="Group-5-Copy-2" transform="translate(279.000000, 106.000000)">
                    <g id="Home" transform="translate(1.000000, 0.000000)">
                        <g id="Group-3">
                            <mask id="mask-2" fill="white">
                                <use xlink:href="#path-1"></use>
                            </mask>
                            <g id="Clip-2"></g>
                            <path d="M0.69090125,28.7771661 C0.57353875,28.7771661 0.45463875,28.7471304 0.34598875,28.6834339 C0.01491375,28.4902732 -0.09834875,28.0630411 0.09281375,27.7290232 L13.4249887,4.42545179 C14.8405137,1.95216607 17.4763012,0.415166071 20.3037637,0.415166071 C23.1332762,0.415166071 25.7700887,1.95371964 27.1845887,4.42959464 L40.4972888,27.7290232 C40.6884512,28.0630411 40.5746763,28.4902732 40.2441138,28.6829161 C39.9135512,28.8771125 39.4912512,28.7616304 39.2995763,28.4276125 L25.9873887,5.12818393 C24.8188887,3.08264821 22.6407637,1.81234464 20.3037637,1.81234464 C17.9683012,1.81234464 15.7912012,3.0816125 14.6227012,5.12507679 L1.29052625,28.4286482 C1.16188875,28.6523625 0.92972625,28.7771661 0.69090125,28.7771661" id="Fill-1" fill="#E20714" mask="url(#mask-2)"></path>
                        </g>
                        <path d="M25.7435036,5.34797386 C24.5644473,3.28261438 22.3666451,2 20.0085326,2 C17.6524887,2 15.4552036,3.28156863 14.2761474,5.3448366 L6,19.8201307 L6,38.5166013 C6,40.4366013 7.54518423,42 9.44460246,42 L30.5553975,42 C32.4548158,42 34,40.4366013 34,38.5166013 L34,19.8075817 L25.7435036,5.34797386 Z" id="Fill-4" fill="#FFF9E6"></path>
                        <path d="M8.04238192,19.5071324 L16.3006639,5.28608685 C17.3048264,3.55700004 19.0494685,2.38937843 21,2.08321808 C20.6645911,2.03082151 20.3240222,2 19.978809,2 C17.627335,2 15.4353091,3.25957245 14.258282,5.28608685 L6,19.5071324 L6,37.8752124 C6,39.2673173 6.84110221,40.4657605 8.04238192,41 L8.04238192,19.5071324 Z" id="Fill-6" fill="#FFE48F"></path>
                        <mask id="mask-4" fill="white">
                            <use xlink:href="#path-3"></use>
                        </mask>
                        <g id="Clip-9"></g>
                        <polygon id="Fill-8" fill="#BA4546" mask="url(#mask-4)" points="17 26 19 26 19 24 17 24"></polygon>
                        <path d="M17,36.1995257 L17,41 L25.3447215,41 C25.7066062,41 26,40.6885956 26,40.3044958 L26,26 L22.5482513,26 L17,36.1995257 Z" id="Fill-10" fill="#CA756C" mask="url(#mask-4)"></path>
                        <path d="M23.9848016,24 L23.2839854,24 L22,26 L26,26 L26,25.8112826 C26,24.8120415 25.0959752,24 23.9848016,24" id="Fill-11" fill="#BA4546" mask="url(#mask-4)"></path>
                        <path d="M15,40.6805928 L15,41.275051 C15,41.6751155 15.3052046,42 15.6816574,42 L17,42 L17,37 L15,40.6805928 Z" id="Fill-12" fill="#BA4546" mask="url(#mask-4)"></path>
                        <path d="M17,27.8096345 L17,36 L23,26 L18.8805813,26 C17.8436351,26 17,26.8113026 17,27.8096345" id="Fill-13" fill="#D1877D" mask="url(#mask-4)"></path>
                        <path d="M17.0168724,27.9399823 C17.0168724,26.9069988 17.8352395,26.0675362 18.8411278,26.0675362 L22.8371645,26.0675362 L24,24 L16.824765,24 C15.8183671,24 15,24.8399856 15,25.8724461 L15,40 L17.0168724,36.4146318 L17.0168724,27.9399823 Z" id="Fill-14" fill="#BD4F4D" mask="url(#mask-4)"></path>
                    </g>
                </g>
            </g>
        </g>
    </g>
</svg>