<?xml version="1.0" encoding="UTF-8"?>
<svg width="40px" height="40px" viewBox="0 0 40 40" version="1.1" xmlns="http://www.w3.org/2000/svg" xmlns:xlink="http://www.w3.org/1999/xlink">
    <!-- Generator: Sketch 49.2 (51160) - http://www.bohemiancoding.com/sketch -->
    <title>hospital</title>
    <desc>Created with Sketch.</desc>
    <defs></defs>
    <g id="Page-1" stroke="none" stroke-width="1" fill="none" fill-rule="evenodd">
        <g id="Datos_Clínicos" transform="translate(-137.000000, -1178.000000)" fill-rule="nonzero">
            <g id="datos-personales-copy" transform="translate(99.000000, 715.000000)">
                <g id="datos-personales" transform="translate(36.000000, 40.000000)">
                    <g id="Group-5-Copy-4" transform="translate(2.000000, 423.000000)">
                        <g id="hospital">
                            <polyline id="Shape" fill="#ECEDF2" points="19.7030469 2.13992188 37.7542969 2.13992188 37.7542969 38.5553125 2.2459375 38.5553125 2.2459375 2.13992188 7.13578125 2.13992188"></polyline>
                            <polyline id="Shape" fill="#C6CAD5" points="19.7030469 2.13992188 37.7542969 2.13992188 37.7542969 5.88390625 2.2459375 5.88390625 2.2459375 2.13992188 7.13578125 2.13992188"></polyline>
                            <path d="M14.8635938,3.55742187 L37.7542969,3.55742187 L39.3488281,3.55742187 C39.7084375,3.55742187 40,3.2659375 40,2.90625 L40,1.37351562 C40,1.01390625 39.7085156,0.72234375 39.3488281,0.72234375 L16.5421875,0.72234375 L10.2957031,0.72234375 L0.65140625,0.72234375 C0.291796875,0.72234375 0.000234375,1.01382812 0.000234375,1.37351562 L0.000234375,2.90632812 C0.000234375,3.2659375 0.29171875,3.5575 0.65140625,3.5575 L2.2459375,3.5575 L10.8575,3.5575" id="Shape" fill="#525C66"></path>
                            <circle id="Oval" fill="#C6CAD5" cx="13.4195313" cy="8.20015625" r="7.35671875"></circle>
                            <circle id="Oval" fill="#FFFFFF" cx="13.4195313" cy="7.38390625" r="7.35671875"></circle>
                            <path d="M17.7154687,5.9396875 L15.1892969,5.9396875 C15.0094531,5.9396875 14.8635937,5.79390625 14.8635937,5.61398438 L14.8635937,3.0878125 C14.8635937,2.90796875 14.7178125,2.76210938 14.5378906,2.76210938 L12.300625,2.76210938 C12.1207813,2.76210938 11.9749219,2.90789063 11.9749219,3.0878125 L11.9749219,5.6140625 C11.9749219,5.79390625 11.8291406,5.93976562 11.6492187,5.93976562 L9.12304687,5.93976562 C8.94320312,5.93976562 8.79734375,6.08554688 8.79734375,6.26546875 L8.79734375,8.50273437 C8.79734375,8.68257813 8.943125,8.8284375 9.12304687,8.8284375 L11.6492187,8.8284375 C11.8290625,8.8284375 11.9749219,8.97421875 11.9749219,9.15414062 L11.9749219,11.6803125 C11.9749219,11.8601562 12.1207031,12.0060156 12.300625,12.0060156 L14.5378906,12.0060156 C14.7177344,12.0060156 14.8635937,11.8602344 14.8635937,11.6803125 L14.8635937,9.15414062 C14.8635937,8.97429687 15.009375,8.8284375 15.1892969,8.8284375 L17.7154687,8.8284375 C17.8953125,8.8284375 18.0411719,8.68265625 18.0411719,8.50273437 L18.0411719,6.26546875 C18.0411719,6.08554688 17.8953906,5.9396875 17.7154687,5.9396875 Z" id="Shape" fill="#D81616"></path>
                            <g id="Group" transform="translate(4.843750, 7.421875)" fill="#A0D9F2">
                                <rect id="Rectangle-path" x="19.7283594" y="9.78804688" width="3.9784375" height="7.26484375"></rect>
                                <rect id="Rectangle-path" x="6.6059375" y="9.78804688" width="3.9784375" height="7.26484375"></rect>
                                <rect id="Rectangle-path" x="26.2891406" y="9.78804688" width="3.9784375" height="7.26484375"></rect>
                                <rect id="Rectangle-path" x="13.1667187" y="9.78804688" width="3.9784375" height="7.26484375"></rect>
                                <rect id="Rectangle-path" x="0.045390625" y="9.78804688" width="3.9784375" height="7.26484375"></rect>
                                <rect id="Rectangle-path" x="6.6059375" y="19.521875" width="3.9784375" height="7.26484375"></rect>
                                <rect id="Rectangle-path" x="13.1667187" y="19.521875" width="3.9784375" height="7.26484375"></rect>
                                <rect id="Rectangle-path" x="0.045390625" y="19.521875" width="3.9784375" height="7.26484375"></rect>
                                <rect id="Rectangle-path" x="19.7283594" y="0.0534375" width="3.9784375" height="7.26484375"></rect>
                                <rect id="Rectangle-path" x="26.2891406" y="0.0534375" width="3.9784375" height="7.26484375"></rect>
                            </g>
                            <g id="Group" transform="translate(4.375000, 16.718750)" fill="#FFFFFF">
                                <path d="M24.1753125,8.24570313 L20.196875,8.24570313 C19.9264063,8.24570313 19.7071094,8.02632813 19.7071094,7.7559375 L19.7071094,0.49109375 C19.7071094,0.220625 19.9264844,0.001328125 20.196875,0.001328125 L24.1753125,0.001328125 C24.4457812,0.001328125 24.6650781,0.220703125 24.6650781,0.49109375 L24.6650781,7.7559375 C24.6650781,8.02640625 24.4457031,8.24570313 24.1753125,8.24570313 Z M20.6866406,7.26609375 L23.6854688,7.26609375 L23.6854688,0.980859375 L20.6866406,0.980859375 L20.6866406,7.26609375 Z" id="Shape"></path>
                                <path d="M11.0535156,8.24570313 L7.07507813,8.24570313 C6.80460938,8.24570313 6.5853125,8.02632813 6.5853125,7.7559375 L6.5853125,0.49109375 C6.5853125,0.220625 6.8046875,0.001328125 7.07507813,0.001328125 L11.0535156,0.001328125 C11.3239844,0.001328125 11.5432813,0.220703125 11.5432813,0.49109375 L11.5432813,7.7559375 C11.5432812,8.02640625 11.3239063,8.24570313 11.0535156,8.24570313 Z M7.56484375,7.26609375 L10.5636719,7.26609375 L10.5636719,0.980859375 L7.56484375,0.980859375 L7.56484375,7.26609375 Z" id="Shape"></path>
                                <path d="M30.7361719,8.24570313 L26.7577344,8.24570313 C26.4872656,8.24570313 26.2679688,8.02632813 26.2679688,7.7559375 L26.2679688,0.49109375 C26.2679688,0.220625 26.4873438,0.001328125 26.7577344,0.001328125 L30.7361719,0.001328125 C31.0066406,0.001328125 31.2259375,0.220703125 31.2259375,0.49109375 L31.2259375,7.7559375 C31.2259375,8.02640625 31.0066406,8.24570313 30.7361719,8.24570313 Z M27.2475,7.26609375 L30.2463281,7.26609375 L30.2463281,0.980859375 L27.2475,0.980859375 L27.2475,7.26609375 Z" id="Shape"></path>
                                <path d="M17.614375,8.24570313 L13.6359375,8.24570313 C13.3654688,8.24570313 13.1461719,8.02632813 13.1461719,7.7559375 L13.1461719,0.49109375 C13.1461719,0.220625 13.3655469,0.001328125 13.6359375,0.001328125 L17.614375,0.001328125 C17.8848438,0.001328125 18.1041406,0.220703125 18.1041406,0.49109375 L18.1041406,7.7559375 C18.1041406,8.02640625 17.8847656,8.24570313 17.614375,8.24570313 Z M14.1257031,7.26609375 L17.1245313,7.26609375 L17.1245313,0.980859375 L14.1257031,0.980859375 L14.1257031,7.26609375 Z" id="Shape"></path>
                                <path d="M4.4925,8.24570313 L0.514140625,8.24570313 C0.243671875,8.24570313 0.024375,8.02632813 0.024375,7.7559375 L0.024375,0.49109375 C0.024375,0.220625 0.24375,0.001328125 0.514140625,0.001328125 L4.49257812,0.001328125 C4.76304687,0.001328125 4.98234375,0.220703125 4.98234375,0.49109375 L4.98234375,7.7559375 C4.98234375,8.02640625 4.76304687,8.24570313 4.4925,8.24570313 Z M1.00390625,7.26609375 L4.00273437,7.26609375 L4.00273437,0.980859375 L1.00390625,0.980859375 L1.00390625,7.26609375 Z" id="Shape"></path>
                            </g>
                            <polygon id="Shape" fill="#A0D9F2" points="35.1111719 26.9439063 24.571875 26.9439063 24.571875 37.1376562 35.1111719 37.9540625"></polygon>
                            <g id="Group" transform="translate(4.375000, 6.953125)" fill="#FFFFFF">
                                <path d="M31.2259375,30.5927344 L30.2463281,30.5927344 L30.2463281,20.4805469 L20.6866406,20.4805469 L20.6866406,30.5927344 L19.7070312,30.5927344 L19.7070312,19.9907813 C19.7070312,19.7203125 19.9264062,19.5010156 20.1967969,19.5010156 L30.7360938,19.5010156 C31.0065625,19.5010156 31.2258594,19.7203906 31.2258594,19.9907813 L31.2259375,30.5927344 Z" id="Shape"></path>
                                <path d="M11.0535156,27.7454688 L7.07507813,27.7454688 C6.80460938,27.7454688 6.5853125,27.5260938 6.5853125,27.2557031 L6.5853125,19.9908594 C6.5853125,19.7203906 6.8046875,19.5010937 7.07507813,19.5010937 L11.0535156,19.5010937 C11.3239844,19.5010937 11.5432813,19.7204687 11.5432813,19.9908594 L11.5432813,27.2557031 C11.5432812,27.5260938 11.3239063,27.7454688 11.0535156,27.7454688 Z M7.56484375,26.7658594 L10.5636719,26.7658594 L10.5636719,20.480625 L7.56484375,20.480625 L7.56484375,26.7658594 Z" id="Shape"></path>
                                <path d="M17.614375,27.7454688 L13.6359375,27.7454688 C13.3654688,27.7454688 13.1461719,27.5260938 13.1461719,27.2557031 L13.1461719,19.9908594 C13.1461719,19.7203906 13.3655469,19.5010937 13.6359375,19.5010937 L17.614375,19.5010937 C17.8848438,19.5010937 18.1041406,19.7204687 18.1041406,19.9908594 L18.1041406,27.2557031 C18.1041406,27.5260938 17.8847656,27.7454688 17.614375,27.7454688 Z M14.1257031,26.7658594 L17.1245313,26.7658594 L17.1245313,20.480625 L14.1257031,20.480625 L14.1257031,26.7658594 Z" id="Shape"></path>
                                <path d="M4.4925,27.7454688 L0.514140625,27.7454688 C0.243671875,27.7454688 0.024375,27.5260938 0.024375,27.2557031 L0.024375,19.9908594 C0.024375,19.7203906 0.24375,19.5010937 0.514140625,19.5010937 L4.49257812,19.5010937 C4.76304687,19.5010937 4.98234375,19.7204687 4.98234375,19.9908594 L4.98234375,27.2557031 C4.98234375,27.5260938 4.76304687,27.7454688 4.4925,27.7454688 Z M1.00390625,26.7658594 L4.00273437,26.7658594 L4.00273437,20.480625 L1.00390625,20.480625 L1.00390625,26.7658594 Z" id="Shape"></path>
                                <path d="M24.1753125,8.27726563 L20.196875,8.27726563 C19.9264063,8.27726563 19.7071094,8.05789063 19.7071094,7.7875 L19.7071094,0.5225 C19.7071094,0.25203125 19.9264844,0.032734375 20.196875,0.032734375 L24.1753125,0.032734375 C24.4457812,0.032734375 24.6650781,0.252109375 24.6650781,0.5225 L24.6650781,7.78734375 C24.6650781,8.05789063 24.4457031,8.27726563 24.1753125,8.27726563 Z M20.6866406,7.29765625 L23.6854688,7.29765625 L23.6854688,1.01234375 L20.6866406,1.01234375 L20.6866406,7.29765625 Z" id="Shape"></path>
                                <path d="M30.7361719,8.27726563 L26.7577344,8.27726563 C26.4872656,8.27726563 26.2679688,8.05789063 26.2679688,7.7875 L26.2679688,0.5225 C26.2679688,0.25203125 26.4873438,0.032734375 26.7577344,0.032734375 L30.7361719,0.032734375 C31.0066406,0.032734375 31.2259375,0.252109375 31.2259375,0.5225 L31.2259375,7.78734375 C31.2259375,8.05789063 31.0066406,8.27726563 30.7361719,8.27726563 Z M27.2475,7.29765625 L30.2463281,7.29765625 L30.2463281,1.01234375 L27.2475,1.01234375 L27.2475,7.29765625 Z" id="Shape"></path>
                                <rect id="Rectangle-path" x="20.1971094" y="21.990625" width="10.5395312" height="1"></rect>
                                <rect id="Rectangle-path" x="24.9766406" y="22.4803906" width="1" height="8.51992188"></rect>
                                <rect id="Rectangle-path" x="7.0746875" y="21.8273438" width="3.97875" height="1"></rect>
                                <path d="M17.6145312,22.8066406 L13.6357813,22.8066406 L13.6357813,21.8270313 L17.1247656,21.8270313 L17.1247656,19.9910938 L18.104375,19.9910938 L18.104375,22.3167969 C18.1042969,22.5873437 17.885,22.8066406 17.6145312,22.8066406 Z" id="Shape"></path>
                                <rect id="Rectangle-path" x="0.51421875" y="21.8273438" width="3.97796875" height="1"></rect>
                                <path d="M30.7360156,13.0728906 L26.7580469,13.0728906 L26.7580469,12.0932812 L30.2461719,12.0932812 L30.2461719,10.2565625 L31.2257813,10.2565625 L31.2257813,12.5830469 C31.2258594,12.8535156 31.0065625,13.0728906 30.7360156,13.0728906 Z" id="Shape"></path>
                                <rect id="Rectangle-path" x="13.6354687" y="12.0935156" width="3.97875" height="1"></rect>
                                <rect id="Rectangle-path" x="0.51421875" y="12.0935156" width="3.97796875" height="1"></rect>
                                <rect id="Rectangle-path" x="7.0746875" y="12.0935156" width="3.97875" height="1"></rect>
                                <rect id="Rectangle-path" x="20.19625" y="12.0935156" width="3.97875" height="1"></rect>
                                <path d="M30.7360156,3.33898438 L26.7580469,3.33898438 L26.7580469,2.359375 L30.2461719,2.359375 L30.2461719,0.52265625 L31.2257813,0.52265625 L31.2257813,2.84914062 C31.2258594,3.1196875 31.0065625,3.33898438 30.7360156,3.33898438 Z" id="Shape"></path>
                                <rect id="Rectangle-path" x="20.19625" y="2.3596875" width="3.97875" height="1"></rect>
                            </g>
                            <path d="M38.8022656,37.1377344 L1.1975,37.1377344 C0.536171875,37.1377344 0,37.6739063 0,38.3351562 L0,39.9728125 L39.9997656,39.9728125 L39.9997656,38.3351562 C39.9997656,37.6739063 39.4635938,37.1377344 38.8022656,37.1377344 Z" id="Shape" fill="#423E3E"></path>
                        </g>
                    </g>
                </g>
            </g>
        </g>
    </g>
</svg>