<?xml version="1.0" encoding="UTF-8"?>
<svg width="60px" height="40px" viewBox="0 0 60 40" version="1.1" xmlns="http://www.w3.org/2000/svg" xmlns:xlink="http://www.w3.org/1999/xlink">
    <!-- Generator: Sketch 49.2 (51160) - http://www.bohemiancoding.com/sketch -->
    <title>hospital-bed</title>
    <desc>Created with Sketch.</desc>
    <defs></defs>
    <g id="Page-1" stroke="none" stroke-width="1" fill="none" fill-rule="evenodd">
        <g id="Datos_Clínicos" transform="translate(-623.000000, -1178.000000)" fill-rule="nonzero">
            <g id="datos-personales-copy" transform="translate(99.000000, 715.000000)">
                <g id="datos-personales" transform="translate(36.000000, 40.000000)">
                    <g id="Group-5-Copy-5" transform="translate(488.000000, 423.000000)">
                        <g id="hospital-bed">
                            <path d="M24.9506433,12.5140351 C23.5782456,12.5140351 22.4561404,11.3909942 22.4561404,10.0185965 L22.4561404,7.52409357 C22.4561404,6.15169591 23.5782456,5.02865497 24.9506433,5.02865497 L37.4269006,5.02865497 C38.7992982,5.02865497 39.9214035,6.15169591 39.9214035,7.52409357 L39.9214035,10.0185965 C39.9214035,11.3909942 38.7992982,12.5140351 37.4269006,12.5140351 L24.9506433,12.5140351 Z" id="Shape" fill="#DA4453"></path>
                            <path d="M16.2189474,22.4939181 L3.74269006,22.4939181 L3.74269006,29.9792982 L19.9616374,29.9792982 L19.9616374,26.2366082 C19.9616374,24.1697076 18.285848,22.4939181 16.2189474,22.4939181 Z" id="Shape" fill="#E6E9ED"></path>
                            <rect id="Rectangle-path" fill="#F4BE8E" x="3.74269006" y="27.4852632" width="52.3976608" height="7.48538012"></rect>
                            <rect id="Rectangle-path" fill="#FB6D51" x="3.74269006" y="27.4852632" width="52.3976608" height="4.99087719"></rect>
                            <g id="Group" transform="translate(0.000000, 10.994152)" fill="#FFD2A6">
                                <path d="M11.2280702,22.7278363 C10.5390643,22.7278363 9.97988304,23.2870175 9.97988304,23.9760234 L12.4762573,23.9760234 C12.4762573,23.2870175 11.917076,22.7278363 11.2280702,22.7278363 Z" id="Shape"></path>
                                <path d="M18.7134503,22.7278363 C18.0244444,22.7278363 17.4652632,23.2870175 17.4652632,23.9760234 L19.9616374,23.9760234 C19.9616374,23.2870175 19.4024561,22.7278363 18.7134503,22.7278363 Z" id="Shape"></path>
                                <path d="M26.1988304,22.7278363 C25.5098246,22.7278363 24.9506433,23.2870175 24.9506433,23.9760234 L27.4470175,23.9760234 C27.4470175,23.2870175 26.8878363,22.7278363 26.1988304,22.7278363 Z" id="Shape"></path>
                                <path d="M33.6842105,22.7278363 C32.9952047,22.7278363 32.4360234,23.2870175 32.4360234,23.9760234 L34.9323977,23.9760234 C34.9323977,23.2870175 34.3732164,22.7278363 33.6842105,22.7278363 Z" id="Shape"></path>
                                <path d="M41.1695906,22.7278363 C40.4805848,22.7278363 39.9214035,23.2870175 39.9214035,23.9760234 L42.4177778,23.9760234 C42.4177778,23.2870175 41.8585965,22.7278363 41.1695906,22.7278363 Z" id="Shape"></path>
                                <path d="M48.6549708,22.7278363 C47.9659649,22.7278363 47.4067836,23.2870175 47.4067836,23.9760234 L49.9031579,23.9760234 C49.9031579,23.2870175 49.3439766,22.7278363 48.6549708,22.7278363 Z" id="Shape"></path>
                                <rect id="Rectangle-path" x="0" y="0.0115789474" width="6.2374269" height="28.954386"></rect>
                                <rect id="Rectangle-path" x="53.645614" y="9.00573099" width="6.2374269" height="19.9614035"></rect>
                            </g>
                            <path d="M34.9323977,15.0094737 C34.9323977,16.3818713 33.808538,17.5039766 32.4360234,17.5039766 L29.9415205,17.5039766 C28.5691228,17.5039766 27.4470175,16.3818713 27.4470175,15.0094737 L27.4470175,2.53321637 C27.4470175,1.16081871 28.5691228,0.0387134503 29.9415205,0.0387134503 L32.4360234,0.0387134503 C33.8084211,0.0387134503 34.9323977,1.16081871 34.9323977,2.53321637 L34.9323977,15.0094737 Z" id="Shape" fill="#ED5564"></path>
                        </g>
                    </g>
                </g>
            </g>
        </g>
    </g>
</svg>