<?xml version="1.0" encoding="UTF-8"?>
<svg width="15px" height="16px" viewBox="0 0 15 16" version="1.1" xmlns="http://www.w3.org/2000/svg" xmlns:xlink="http://www.w3.org/1999/xlink">
    <!-- Generator: Sketch 50.2 (55047) - http://www.bohemiancoding.com/sketch -->
    <title>idea</title>
    <desc>Created with Sketch.</desc>
    <defs></defs>
    <g id="New" stroke="none" stroke-width="1" fill="none" fill-rule="evenodd">
        <g id="Paso_1_Aceptado" transform="translate(-608.000000, -835.000000)" fill="#137E84">
            <g id="Group-7" transform="translate(608.000000, 835.000000)">
                <g id="idea">
                    <g id="Shape">
                        <path d="M7.24637681,2.37037037 C4.52927536,2.37037037 2.31884058,4.62992593 2.31884058,7.40740741 C2.31884058,9.51466667 3.5915942,11.3813333 5.50724638,12.1185185 L5.50724638,14.8148148 C5.50724638,14.9786667 5.63681159,15.1111111 5.79710145,15.1111111 L6.08695652,15.1111111 L6.08695652,15.7037037 C6.08695652,15.8675556 6.21652174,16 6.37681159,16 L8.11594203,16 C8.27623188,16 8.4057971,15.8675556 8.4057971,15.7037037 L8.4057971,15.1111111 L8.69565217,15.1111111 C8.85594203,15.1111111 8.98550725,14.9786667 8.98550725,14.8148148 L8.98550725,12.1185185 C10.9011594,11.3813333 12.173913,9.51466667 12.173913,7.40740741 C12.173913,4.62992593 9.96347826,2.37037037 7.24637681,2.37037037 Z M8.11594203,14.5185185 C7.95565217,14.5185185 7.82608696,14.650963 7.82608696,14.8148148 L7.82608696,15.4074074 L6.66666667,15.4074074 L6.66666667,14.8148148 C6.66666667,14.650963 6.53710145,14.5185185 6.37681159,14.5185185 L6.08695652,14.5185185 L6.08695652,13.037037 L8.4057971,13.037037 L8.4057971,14.5185185 L8.11594203,14.5185185 Z M8.60521739,11.6272593 C8.48608696,11.6672593 8.4057971,11.781037 8.4057971,11.9087407 L8.4057971,12.4444444 L6.08695652,12.4444444 L6.08695652,11.9087407 C6.08695652,11.7807407 6.00666667,11.6672593 5.88753623,11.6272593 C4.1,11.0263704 2.89855072,9.33037037 2.89855072,7.40740741 C2.89855072,4.95674074 4.84898551,2.96296296 7.24637681,2.96296296 C9.64376812,2.96296296 11.5942029,4.95674074 11.5942029,7.40740741 C11.5942029,9.33037037 10.3927536,11.0263704 8.60521739,11.6272593 Z" fill-rule="nonzero"></path>
                        <path d="M7.24637681,1.77777778 C7.40666667,1.77777778 7.53623188,1.64533333 7.53623188,1.48148148 L7.53623188,0.296296296 C7.53623188,0.132444444 7.40666667,0 7.24637681,0 C7.08608696,0 6.95652174,0.132444444 6.95652174,0.296296296 L6.95652174,1.48148148 C6.95652174,1.64533333 7.08608696,1.77777778 7.24637681,1.77777778 Z" fill-rule="nonzero"></path>
                        <path d="M14.2028986,7.11111111 L13.0434783,7.11111111 C12.8831884,7.11111111 12.7536232,7.24355556 12.7536232,7.40740741 C12.7536232,7.57125926 12.8831884,7.7037037 13.0434783,7.7037037 L14.2028986,7.7037037 C14.3631884,7.7037037 14.4927536,7.57125926 14.4927536,7.40740741 C14.4927536,7.24355556 14.3631884,7.11111111 14.2028986,7.11111111 Z" fill-rule="nonzero"></path>
                        <path d="M1.44927536,7.11111111 L0.289855072,7.11111111 C0.129565217,7.11111111 0,7.24355556 0,7.40740741 C0,7.57125926 0.129565217,7.7037037 0.289855072,7.7037037 L1.44927536,7.7037037 C1.60956522,7.7037037 1.73913043,7.57125926 1.73913043,7.40740741 C1.73913043,7.24355556 1.60956522,7.11111111 1.44927536,7.11111111 Z" fill-rule="nonzero"></path>
                        <path d="M11.9605797,2.16948148 L11.1408696,3.00740741 C11.0275362,3.12325926 11.0275362,3.31051852 11.1408696,3.42637037 C11.1973913,3.48414815 11.2715942,3.51318519 11.3457971,3.51318519 C11.42,3.51318519 11.4942029,3.48414815 11.5507246,3.42637037 L12.3704348,2.58844444 C12.4837681,2.47259259 12.4837681,2.28533333 12.3704348,2.16948148 C12.2571014,2.05362963 12.0736232,2.05392593 11.9605797,2.16948148 Z" fill-rule="nonzero"></path>
                        <path d="M2.94202899,11.3884444 L2.12231884,12.2263704 C2.00898551,12.3422222 2.00898551,12.5294815 2.12231884,12.6453333 C2.17884058,12.7031111 2.25304348,12.7321481 2.32724638,12.7321481 C2.40144928,12.7321481 2.47565217,12.7031111 2.53217391,12.6453333 L3.35188406,11.8074074 C3.46521739,11.6915556 3.46521739,11.5042963 3.35188406,11.3884444 C3.23855072,11.2725926 3.05536232,11.2725926 2.94202899,11.3884444 Z" fill-rule="nonzero"></path>
                        <path d="M11.5507246,11.3884444 C11.4373913,11.2725926 11.2542029,11.2725926 11.1408696,11.3884444 C11.0275362,11.5042963 11.0275362,11.6915556 11.1408696,11.8074074 L11.9605797,12.6453333 C12.0171014,12.7031111 12.0913043,12.7321481 12.1655072,12.7321481 C12.2397101,12.7321481 12.313913,12.7031111 12.3704348,12.6453333 C12.4837681,12.5294815 12.4837681,12.3422222 12.3704348,12.2263704 L11.5507246,11.3884444 Z" fill-rule="nonzero"></path>
                        <path d="M2.94202899,3.42637037 C2.99855072,3.48414815 3.07275362,3.51318519 3.14695652,3.51318519 C3.22115942,3.51318519 3.29536232,3.48414815 3.35188406,3.42637037 C3.46521739,3.31051852 3.46521739,3.12325926 3.35188406,3.00740741 L2.53217391,2.16948148 C2.41884058,2.05362963 2.23565217,2.05362963 2.12231884,2.16948148 C2.00898551,2.28533333 2.00898551,2.47259259 2.12231884,2.58844444 L2.94202899,3.42637037 Z" fill-rule="nonzero"></path>
                        <path d="M7.24637681,3.85185185 C5.3284058,3.85185185 3.76811594,5.44681481 3.76811594,7.40740741 C3.76811594,7.57125926 3.89768116,7.7037037 4.05797101,7.7037037 C4.21826087,7.7037037 4.34782609,7.57125926 4.34782609,7.40740741 C4.34782609,5.77362963 5.64811594,4.44444444 7.24637681,4.44444444 C7.40666667,4.44444444 7.53623188,4.312 7.53623188,4.14814815 C7.53623188,3.9842963 7.40666667,3.85185185 7.24637681,3.85185185 Z" fill-rule="nonzero"></path>
                    </g>
                </g>
            </g>
        </g>
    </g>
</svg>