<?xml version="1.0" encoding="UTF-8"?>
<svg width="24px" height="24px" viewBox="0 0 24 24" version="1.1" xmlns="http://www.w3.org/2000/svg" xmlns:xlink="http://www.w3.org/1999/xlink">
    <!-- Generator: Sketch 50.2 (55047) - http://www.bohemiancoding.com/sketch -->
    <title>seo-tips-interface-symbol</title>
    <desc>Created with Sketch.</desc>
    <defs></defs>
    <g id="New" stroke="none" stroke-width="1" fill="none" fill-rule="evenodd">
        <g id="Paso_1.1" transform="translate(-139.000000, -240.000000)" fill="#137E84">
            <g id="Group-8" transform="translate(134.000000, 236.000000)">
                <g id="seo-tips-interface-symbol" transform="translate(5.000000, 4.000000)">
                    <g>
                        <path d="M16.4719433,2.81503546 C12.7192057,-0.938326241 6.61293617,-0.938326241 2.85968794,2.81503546 C-0.893843972,6.56777305 -0.893843972,12.6743262 2.85968794,16.4270071 C6.48374468,20.0515745 12.3024113,20.1749787 16.0779574,16.7993191 L16.8405106,17.562156 C16.650383,18.0494184 16.7499574,18.6219007 17.1426383,19.0145816 L21.1694752,23.0417021 C21.6990638,23.5712908 22.5575603,23.5710071 23.0866383,23.0417021 C23.616227,22.5131915 23.616227,21.654695 23.0866383,21.1251064 L19.0598014,17.0982695 C18.6670638,16.7060993 18.0935603,16.6065248 17.6073759,16.7967092 L16.8441986,16.0330213 C20.2212199,12.2575319 20.0967943,6.43892199 16.4719433,2.81503546 Z M4.00970213,15.2772766 C0.890893617,12.1584681 0.890893617,7.08402837 4.00970213,3.96521986 C7.12851064,0.84612766 12.2036312,0.846411348 15.3224397,3.96521986 C18.4412482,7.08402837 18.4412482,12.1587518 15.3224397,15.2775603 C12.2036312,18.3963688 7.12856738,18.3960284 4.00970213,15.2772766 Z" id="Shape" fill-rule="nonzero"></path>
                        <path d="M8.87778723,10.0426099 L8.64896454,6.6111773 C8.60578723,5.94241135 8.58434043,5.46246809 8.58434043,5.17106383 C8.58434043,4.77469504 8.68817021,4.46524823 8.896,4.24334752 C9.10360284,4.02156028 9.3769078,3.91024113 9.71608511,3.91024113 C10.1270355,3.91024113 10.4013617,4.05231206 10.5399149,4.33639716 C10.6786383,4.62053901 10.7480284,5.03029787 10.7480284,5.56493617 C10.7480284,5.88034043 10.7310638,6.20028369 10.6974184,6.52510638 L10.3897305,10.0570213 C10.3563688,10.4772766 10.2845957,10.7996028 10.174695,11.0241702 C10.0647943,11.2487376 9.88340426,11.3608511 9.63024113,11.3608511 C9.37236879,11.3608511 9.19330496,11.2521418 9.09299291,11.0350071 C8.9924539,10.8175319 8.92119149,10.4868085 8.87778723,10.0426099 Z M9.67324823,14.7564255 C9.38195745,14.7564255 9.12748936,14.6619007 8.91035461,14.4727943 C8.69293617,14.2848227 8.58439716,14.020539 8.58439716,13.6815887 C8.58439716,13.3855887 8.68822695,13.1337872 8.89605674,12.9261844 C9.10394326,12.7177872 9.35812766,12.6148085 9.65866667,12.6148085 C9.95948936,12.6148085 10.2165674,12.7188652 10.4292199,12.9261844 C10.641305,13.1337872 10.7480284,13.3856454 10.7480284,13.6815887 C10.7480284,14.0158298 10.6405106,14.2785248 10.4254752,14.4696738 C10.2107801,14.6613333 9.95977305,14.7564255 9.67324823,14.7564255 Z" id="Shape" fill-rule="nonzero"></path>
                        <rect id="Rectangle-path" fill-rule="nonzero" x="4.78558865" y="20.5324823" width="9.76153191" height="1.08459574"></rect>
                        <rect id="Rectangle-path" fill-rule="nonzero" x="6.95455319" y="22.8976454" width="5.4230922" height="1.08459574"></rect>
                    </g>
                </g>
            </g>
        </g>
    </g>
</svg>