<?xml version="1.0" encoding="UTF-8"?>
<svg width="50px" height="50px" viewBox="0 0 50 50" version="1.1" xmlns="http://www.w3.org/2000/svg" xmlns:xlink="http://www.w3.org/1999/xlink">
    <!-- Generator: Sketch 48.2 (47327) - http://www.bohemiancoding.com/sketch -->
    <title>light-bulb (1)</title>
    <desc>Created with Sketch.</desc>
    <defs></defs>
    <g id="Home_valor" stroke="none" stroke-width="1" fill="none" fill-rule="evenodd" transform="translate(-255.000000, -2282.000000)">
        <g id="steps" transform="translate(0.000000, 2003.000000)" fill="#000000" fill-rule="nonzero">
            <g id="Step" transform="translate(136.000000, 252.000000)">
                <g id="number" transform="translate(92.000000, 0.000000)">
                    <g id="light-bulb-(1)" transform="translate(27.000000, 27.000000)">
                        <path d="M25,0 C14.0891667,0 7.53416667,8.87833333 7.5,17.4625 C7.48083333,22.3325 9.5175,27.0283333 13.0883333,30.345 C15.8333333,32.8966667 17.5,34.7083333 17.5,38.3708333 L17.5,39.1666667 L17.5,40.8333333 C17.5,41.4758333 17.7508333,42.0566667 18.15,42.5 C17.75,42.9433333 17.5,43.5241667 17.5,44.1666667 C17.5,45.545 18.6216667,46.6666667 20,46.6666667 L20.0841667,46.6666667 C20.4716667,48.5658333 22.1541667,50 24.1666667,50 L25.8333333,50 C27.845,50 29.5283333,48.5658333 29.9158333,46.6666667 L30,46.6666667 C31.3783333,46.6666667 32.5,45.545 32.5,44.1666667 C32.5,43.5241667 32.2491667,42.9433333 31.85,42.5 C32.25,42.0566667 32.5,41.4758333 32.5,40.8333333 L32.5,39.1666667 L32.5,38.3675 C32.5,34.6733333 34.145,32.8933333 36.8533333,30.4 C40.4416667,27.0966667 42.5,22.4066667 42.5,17.5341667 C42.5,7.37416667 35.14,0 25,0 Z M25.8333333,48.3333333 L24.1666667,48.3333333 C23.08,48.3333333 22.1533333,47.6366667 21.8091667,46.6666667 L28.1908333,46.6666667 C27.8466667,47.6366667 26.92,48.3333333 25.8333333,48.3333333 Z M30,45 L29.1666667,45 L20.8333333,45 L20,45 C19.54,45 19.1666667,44.6266667 19.1666667,44.1666667 C19.1666667,43.7066667 19.54,43.3333333 20,43.3333333 L30,43.3333333 C30.46,43.3333333 30.8333333,43.7066667 30.8333333,44.1666667 C30.8333333,44.6266667 30.46,45 30,45 Z M30.8333333,40.8333333 C30.8333333,41.2933333 30.46,41.6666667 30,41.6666667 L20,41.6666667 C19.54,41.6666667 19.1666667,41.2933333 19.1666667,40.8333333 L19.1666667,40 L30.8333333,40 L30.8333333,40.8333333 Z M35.7241667,29.175 C32.8675,31.8033333 30.8441667,34.0008333 30.8333333,38.3333333 L29.1666667,38.3333333 L29.1666667,18.3333333 L34.32,18.3333333 C34.665,19.3008333 35.5816667,20 36.6666667,20 C38.045,20 39.1666667,18.8783333 39.1666667,17.5 C39.1666667,16.1216667 38.045,15 36.6666667,15 C35.5816667,15 34.665,15.6991667 34.32,16.6666667 L28.3333333,16.6666667 C27.8725,16.6666667 27.5,17.0391667 27.5,17.5 L27.5,38.3333333 L25.8333333,38.3333333 L25.8333333,13.3333333 C25.8333333,12.8725 25.4608333,12.5 25,12.5 L19.8466667,12.5 C19.5016667,11.5325 18.585,10.8333333 17.5,10.8333333 C16.1216667,10.8333333 15,11.955 15,13.3333333 C15,14.7116667 16.1216667,15.8333333 17.5,15.8333333 C18.585,15.8333333 19.5016667,15.1341667 19.8466667,14.1666667 L24.1666667,14.1666667 L24.1666667,38.3333333 L22.5,38.3333333 L22.5,21.6666667 C22.5,21.2058333 22.1275,20.8333333 21.6666667,20.8333333 L16.5133333,20.8333333 C16.1683333,19.8658333 15.2516667,19.1666667 14.1666667,19.1666667 C12.7883333,19.1666667 11.6666667,20.2883333 11.6666667,21.6666667 C11.6666667,23.045 12.7883333,24.1666667 14.1666667,24.1666667 C15.2516667,24.1666667 16.1683333,23.4675 16.5133333,22.5 L20.8333333,22.5 L20.8333333,38.3333333 L19.1666667,38.3333333 C19.155,34.0391667 17.1091667,31.8066667 14.2225,29.1241667 C10.9916667,26.1225 9.14833333,21.8741667 9.16666667,17.4691667 C9.19666667,9.92583333 14.8025,2.15333333 24.1666667,1.70916667 L24.1666667,8.33333333 C24.1666667,8.79416667 24.5391667,9.16666667 25,9.16666667 L29.32,9.16666667 C29.665,10.1341667 30.5816667,10.8333333 31.6666667,10.8333333 C33.045,10.8333333 34.1666667,9.71166667 34.1666667,8.33333333 C34.1666667,6.955 33.045,5.83333333 31.6666667,5.83333333 C30.5816667,5.83333333 29.665,6.5325 29.32,7.5 L25.8333333,7.5 L25.8333333,1.70333333 C34.7033333,2.08416667 40.8333333,8.47583333 40.8333333,17.5341667 C40.8333333,21.9416667 38.9716667,26.185 35.7241667,29.175 Z M35.8333333,17.5 C35.8333333,17.04 36.2066667,16.6666667 36.6666667,16.6666667 C37.1266667,16.6666667 37.5,17.04 37.5,17.5 C37.5,17.96 37.1266667,18.3333333 36.6666667,18.3333333 C36.2066667,18.3333333 35.8333333,17.96 35.8333333,17.5 Z M18.3333333,13.3333333 C18.3333333,13.7933333 17.96,14.1666667 17.5,14.1666667 C17.04,14.1666667 16.6666667,13.7933333 16.6666667,13.3333333 C16.6666667,12.8733333 17.04,12.5 17.5,12.5 C17.96,12.5 18.3333333,12.8733333 18.3333333,13.3333333 Z M15,21.6666667 C15,22.1266667 14.6266667,22.5 14.1666667,22.5 C13.7066667,22.5 13.3333333,22.1266667 13.3333333,21.6666667 C13.3333333,21.2066667 13.7066667,20.8333333 14.1666667,20.8333333 C14.6266667,20.8333333 15,21.2066667 15,21.6666667 Z M30.8333333,8.33333333 C30.8333333,7.87333333 31.2066667,7.5 31.6666667,7.5 C32.1266667,7.5 32.5,7.87333333 32.5,8.33333333 C32.5,8.79333333 32.1266667,9.16666667 31.6666667,9.16666667 C31.2066667,9.16666667 30.8333333,8.79333333 30.8333333,8.33333333 Z" id="Shape"></path>
                        <path d="M49.1666667,3.54166667 C47.7883333,3.54166667 46.6666667,2.42 46.6666667,1.04166667 C46.6666667,0.580833333 46.2941667,0.208333333 45.8333333,0.208333333 C45.3725,0.208333333 45,0.580833333 45,1.04166667 C45,2.42 43.8783333,3.54166667 42.5,3.54166667 C42.0391667,3.54166667 41.6666667,3.91416667 41.6666667,4.375 C41.6666667,4.83583333 42.0391667,5.20833333 42.5,5.20833333 C43.8783333,5.20833333 45,6.33 45,7.70833333 C45,8.16916667 45.3725,8.54166667 45.8333333,8.54166667 C46.2941667,8.54166667 46.6666667,8.16916667 46.6666667,7.70833333 C46.6666667,6.33 47.7883333,5.20833333 49.1666667,5.20833333 C49.6275,5.20833333 50,4.83583333 50,4.375 C50,3.91416667 49.6275,3.54166667 49.1666667,3.54166667 Z M45.8333333,5.21083333 C45.5958333,4.89416667 45.3141667,4.6125 44.9975,4.375 C45.3141667,4.1375 45.5958333,3.85583333 45.8333333,3.53916667 C46.0708333,3.85583333 46.3525,4.1375 46.6691667,4.375 C46.3525,4.6125 46.0708333,4.89416667 45.8333333,5.21083333 Z" id="Shape"></path>
                        <path d="M10.8333333,39.375 C8.53583333,39.375 6.66666667,37.5058333 6.66666667,35.2083333 C6.66666667,34.7475 6.29416667,34.375 5.83333333,34.375 C5.3725,34.375 5,34.7475 5,35.2083333 C5,37.5058333 3.13083333,39.375 0.833333333,39.375 C0.3725,39.375 0,39.7475 0,40.2083333 C0,40.6691667 0.3725,41.0416667 0.833333333,41.0416667 C3.13083333,41.0416667 5,42.9108333 5,45.2083333 C5,45.6691667 5.3725,46.0416667 5.83333333,46.0416667 C6.29416667,46.0416667 6.66666667,45.6691667 6.66666667,45.2083333 C6.66666667,42.9108333 8.53583333,41.0416667 10.8333333,41.0416667 C11.2941667,41.0416667 11.6666667,40.6691667 11.6666667,40.2083333 C11.6666667,39.7475 11.2941667,39.375 10.8333333,39.375 Z M5.83333333,42.2058333 C5.34083333,41.3891667 4.6525,40.7 3.83583333,40.2083333 C4.6525,39.7158333 5.34166667,39.0275 5.83333333,38.2108333 C6.32583333,39.0275 7.01416667,39.7166667 7.83083333,40.2083333 C7.01416667,40.7008333 6.32583333,41.3891667 5.83333333,42.2058333 Z" id="Shape"></path>
                    </g>
                </g>
            </g>
        </g>
    </g>
</svg>