<?xml version="1.0" encoding="UTF-8"?>
<svg width="41px" height="40px" viewBox="0 0 41 40" version="1.1" xmlns="http://www.w3.org/2000/svg" xmlns:xlink="http://www.w3.org/1999/xlink">
    <!-- Generator: Sketch 49.2 (51160) - http://www.bohemiancoding.com/sketch -->
    <title>lungs</title>
    <desc>Created with Sketch.</desc>
    <defs></defs>
    <g id="Page-1" stroke="none" stroke-width="1" fill="none" fill-rule="evenodd">
        <g id="Datos_Clínicos" transform="translate(-617.000000, -2401.000000)" fill-rule="nonzero">
            <g id="datos-personales-copy-2" transform="translate(99.000000, 1576.000000)">
                <g id="datos-personales" transform="translate(37.000000, 40.000000)">
                    <g id="Group-5-Copy-11" transform="translate(481.000000, 785.000000)">
                        <g id="lungs">
                            <path d="M17.31664,9.20656 C16.59184,6.6396 13.54112,5.66744 11.5144,7.35808 C4.48648,13.22064 0,22.1368 0,32.12272 C0,33.76432 0.1216,35.37704 0.3556,36.952 C0.5124,38.00776 1.25152,38.88224 2.25408,39.18792 C3.98512,39.7156 5.8192,39.99944 7.7184,39.99944 C10.34688,39.99944 12.85064,39.45592 15.1288,38.474 C15.84472,38.16544 16.39784,37.56048 16.64984,36.81024 C18.21736,32.14384 19.06872,27.13816 19.06872,21.92936 C19.06864,17.51488 18.45728,13.24624 17.31664,9.20656 Z" id="Shape" fill="#BE6054"></path>
                            <g id="Group" transform="translate(0.800000, 6.480000)" fill="#F2CDB7">
                                <path d="M13.77344,27.8348 L13.85896,27.76224 C17.43264,24.64632 18.1904,16.05648 18.26552,15.07872 C18.23224,10.79376 17.62472,6.64848 16.51488,2.72024 C15.7892,0.15176 12.73248,-0.80664 10.70512,0.886 C5.42776,5.2916 1.58512,11.41992 0.00096,18.42976 C0.56496,21.73 1.94056,24.7448 3.90944,27.25424 C4.8284,28.42544 6.2492,29.062 7.71712,28.9768 C8.6812,28.9208 9.77464,28.88608 11.00448,28.88608 C12.07496,28.88608 12.99032,28.49056 13.77344,27.8348 Z" id="Shape" opacity="0.15"></path>
                                <path d="M10.72504,0.8692 C6.47792,4.40888 3.15832,9.06344 1.19424,14.3952 C0.96224,15.02496 1.21048,15.73184 1.776,16.07768 C4.6508,17.83584 8.0144,18.84712 11.60976,18.84712 C13.59248,18.84712 15.5048,18.5396 17.30352,17.96904 C17.85768,17.7932 18.2356,17.27128 18.2516,16.67928 C18.26264,16.27064 18.26864,15.86072 18.26864,15.44928 C18.26864,11.0348 17.65728,6.76616 16.51656,2.72648 C15.79344,0.16536 12.748,-0.8168 10.72504,0.8692 Z" id="Shape" opacity="0.15"></path>
                                <path d="M7.50168,6.16472 C6.61,8.02488 6.60168,9.91432 7.48304,10.38472 C8.3644,10.8552 9.80168,9.72864 10.69336,7.8684 C11.58504,6.00816 11.59336,4.1188 10.712,3.6484 C9.83064,3.178 8.39344,4.30456 7.50168,6.16472 Z" id="Shape" opacity="0.2"></path>
                            </g>
                            <g id="Group" transform="translate(2.960000, 7.680000)" fill="#612721" opacity="0.5">
                                <path d="M14.25976,1.2292 C13.53856,-0.71592 10.68536,-0.20096 10.66072,1.87856 C10.66056,1.89072 10.66056,1.90296 10.66056,1.91512 C10.66056,3.5652 11.3788,5.13008 12.62088,6.1864 C14.74104,7.98952 16.00248,10.62528 16.1016,13.42872 C16.03072,9.30568 15.42648,5.31544 14.35664,1.52656 C14.32792,1.42488 14.2956,1.32568 14.25976,1.2292 Z" id="Shape"></path>
                                <path d="M3.42664,29.48416 C5.33432,29.67464 8.38664,30.06696 11.09352,29.43144 C12.056,29.22552 12.92944,28.73248 13.60832,28.028 C14.03904,27.58104 14.34312,27.0228 14.50576,26.4184 C14.5064,26.41616 14.50696,26.41384 14.5076,26.4116 L14.51096,26.40944 C14.59976,26.07888 14.68376,25.74632 14.76552,25.4128 C14.77416,25.3776 14.78264,25.3424 14.7912,25.3072 C14.84336,25.09224 14.89528,24.87728 14.9432,24.66128 C14.96024,24.58456 14.97792,24.50808 14.99504,24.43136 C15.04936,24.1868 15.10184,23.94152 15.15224,23.6956 C15.15744,23.67 15.16344,23.64472 15.16864,23.61912 L15.16816,23.61952 C15.78384,20.59448 16.1088,17.46072 16.1088,14.24928 C16.1088,14.11136 16.11,13.97384 16.1088,13.83616 C16.05488,14.56984 15.332,23.39464 11.69904,26.56232 L11.61352,26.63488 C10.8304,27.29064 9.91496,27.68608 8.84448,27.68608 C3.85696,27.68608 1.10584,28.25656 0.15216,28.50232 C0.10768,28.51376 0.04944,28.5716 0.04944,28.5716 C0.04328,28.57976 0.03768,28.58832 0.03296,28.59728 C-0.02384,28.70288 0.04248,28.83504 0.15568,28.86888 C1.22056,29.18728 2.3172,29.37336 3.42664,29.48416 Z" id="Shape"></path>
                            </g>
                            <path d="M23.64336,9.20656 C24.36816,6.6396 27.41888,5.66744 29.4456,7.35808 C36.47352,13.22056 40.96,22.1368 40.96,32.12264 C40.96,33.76424 40.8384,35.37696 40.6044,36.95192 C40.4476,38.00768 39.70848,38.88216 38.70592,39.18784 C36.97488,39.71552 35.1408,39.99936 33.2416,39.99936 C30.61312,39.99936 28.10936,39.45584 25.8312,38.47392 C25.11528,38.16536 24.56216,37.5604 24.31016,36.81016 C22.74264,32.14376 21.89128,27.13808 21.89128,21.92928 C21.89136,17.51488 22.50272,13.24624 23.64336,9.20656 Z" id="Shape" fill="#BE6054"></path>
                            <g id="Group" transform="translate(21.840000, 6.480000)" fill="#F2CDB7" opacity="0.15">
                                <path d="M0.0612,15.16248 C0.06224,15.17504 0.06328,15.18776 0.06448,15.20168 C0.06544,15.21272 0.0664,15.22496 0.06744,15.23688 C0.06864,15.2508 0.06984,15.26504 0.0712,15.28016 C0.07232,15.29328 0.0736,15.3072 0.0748,15.3212 C0.07632,15.33816 0.07784,15.3556 0.07952,15.37376 C0.08072,15.38744 0.082,15.40136 0.08336,15.41568 C0.0852,15.43544 0.0872,15.45608 0.08912,15.47704 C0.09064,15.49256 0.09208,15.508 0.0936,15.52424 C0.09576,15.54616 0.098,15.56936 0.10032,15.59248 C0.10192,15.60864 0.10352,15.62456 0.10512,15.64128 C0.10792,15.66912 0.11088,15.69832 0.11392,15.72768 C0.11528,15.74144 0.11664,15.75464 0.11808,15.76872 C0.12736,15.85776 0.13768,15.95336 0.14912,16.0552 C0.1508,16.06968 0.15256,16.08496 0.15424,16.09976 C0.1584,16.13656 0.16272,16.17368 0.1672,16.212 C0.16944,16.2312 0.17176,16.25096 0.17408,16.27048 C0.17824,16.30592 0.18256,16.34176 0.18704,16.3784 C0.18968,16.39992 0.19232,16.42184 0.19504,16.44368 C0.19952,16.47984 0.20408,16.51648 0.20872,16.55384 C0.2116,16.57664 0.21448,16.59968 0.21744,16.62288 C0.2224,16.6612 0.22736,16.70008 0.23248,16.73952 C0.23552,16.76304 0.23864,16.78656 0.24176,16.8104 C0.24712,16.85112 0.25272,16.89264 0.25848,16.9344 C0.26168,16.95744 0.26472,16.98048 0.268,17.00392 C0.2744,17.05024 0.28104,17.09744 0.28768,17.14496 C0.29008,17.16208 0.2924,17.17904 0.29496,17.19632 C0.6568,19.72384 2.45776,21.80952 4.90792,22.52864 C6.42984,22.97536 7.45744,24.39416 7.40728,25.97944 L7.33792,28.17144 C7.32576,28.55608 7.62664,28.8768 8.01,28.89032 C8.78264,28.8988 9.49768,28.9208 10.15608,28.9532 C10.1784,28.95424 10.19952,28.95528 10.22064,28.95616 C10.22688,28.9564 10.23328,28.9568 10.23952,28.95712 C10.25392,28.95784 10.26936,28.95848 10.28304,28.95928 C10.39176,28.96488 10.49864,28.9708 10.60432,28.97696 C12.07168,29.06168 13.49192,28.42528 14.41064,27.2544 C16.37944,24.74496 17.75512,21.73016 18.31912,18.42992 C16.73496,11.42008 12.8924,5.29176 7.61496,0.88608 C5.5876,-0.80656 2.5308,0.15184 1.8052,2.72032 C0.69536,6.64864 0.08784,10.79392 0.05456,15.0788 C0.05512,15.086 0.05584,15.09488 0.0564,15.10288 C0.05712,15.1128 0.05792,15.12248 0.0588,15.13368 C0.0596,15.14256 0.06048,15.1528 0.0612,15.16248 Z" id="Shape"></path>
                                <path d="M0.28046,16.94368 C0.25146,16.7744716 0.22296,16.608168 0.19496,16.44368 C0.22246,16.608168 0.25096,16.7744716 0.28046,16.94368 Z" id="Shape"></path>
                            </g>
                            <path d="M22.12046,23.42368 C22.09146,23.2544716 22.06296,23.088168 22.03496,22.92368 C22.06246,23.088168 22.09096,23.2544716 22.12046,23.42368 Z" id="Shape" fill="#612721" opacity="0.5"></path>
                            <path d="M22.231,23.98384 C22.189,23.8156608 22.1475,23.6480487 22.108,23.48384 C22.148,23.6483323 22.1895,23.8153772 22.231,23.98384 Z" id="Shape" fill="#F2CDB7" opacity="0.15"></path>
                            <path d="M22.231,23.98384 C22.189,23.8156608 22.1475,23.6480487 22.108,23.48384 C22.148,23.6483323 22.1895,23.8153772 22.231,23.98384 Z" id="Shape" fill="#612721" opacity="0.5"></path>
                            <path d="M22.18626,23.7904 C22.15076,23.6220129 22.11576,23.4545935 22.08176,23.2904 C22.11626,23.4545935 22.15076,23.6220129 22.18626,23.7904 Z" id="Shape" fill="#F2CDB7" opacity="0.15"></path>
                            <path d="M22.18626,23.7904 C22.15076,23.6220129 22.11576,23.4545935 22.08176,23.2904 C22.11626,23.4545935 22.15076,23.6220129 22.18626,23.7904 Z" id="Shape" fill="#612721" opacity="0.5"></path>
                            <path d="M22.15144,23.6028 C22.11944,23.4340757 22.08744,23.2670661 22.05744,23.1028 C22.08794,23.2674091 22.11944,23.4340757 22.15144,23.6028 Z" id="Shape" fill="#F2CDB7" opacity="0.15"></path>
                            <path d="M22.15144,23.6028 C22.11944,23.4340757 22.08744,23.2670661 22.05744,23.1028 C22.08794,23.2674091 22.11944,23.4340757 22.15144,23.6028 Z" id="Shape" fill="#612721" opacity="0.5"></path>
                            <path d="M32.39958,35.45162 C32.26758,35.44512 32.13558,35.43962 31.99608,35.43312 C32.12908,35.43912 32.26708,35.44462 32.39958,35.45162 Z" id="Shape" fill="#F2CDB7" opacity="0.15"></path>
                            <path d="M32.39958,35.45162 C32.26758,35.44512 32.13558,35.43962 31.99608,35.43312 C32.12908,35.43912 32.26708,35.44462 32.39958,35.45162 Z" id="Shape" fill="#612721" opacity="0.5"></path>
                            <path d="M21.9217,21.8874 C21.9147,21.8009 21.9077,21.7219 21.9012,21.6424 C21.9077,21.7219 21.9142,21.8004 21.9217,21.8874 Z" id="Shape" fill="#F2CDB7" opacity="0.15"></path>
                            <path d="M21.9217,21.8874 C21.9147,21.8009 21.9077,21.7219 21.9012,21.6424 C21.9077,21.7219 21.9142,21.8004 21.9217,21.8874 Z" id="Shape" fill="#612721" opacity="0.5"></path>
                            <path d="M21.93094,21.98722 C21.92294,21.89322 21.91544,21.80422 21.90744,21.71672 C21.91494,21.80472 21.92244,21.89272 21.93094,21.98722 Z" id="Shape" fill="#F2CDB7" opacity="0.15"></path>
                            <path d="M21.93094,21.98722 C21.92294,21.89322 21.91544,21.80422 21.90744,21.71672 C21.91494,21.80472 21.92244,21.89272 21.93094,21.98722 Z" id="Shape" fill="#612721" opacity="0.5"></path>
                            <path d="M22.095,23.25048 C22.067,23.0807246 22.0405,22.9146757 22.014,22.75048 C22.0405,22.9150463 22.067,23.0807246 22.095,23.25048 Z" id="Shape" fill="#F2CDB7" opacity="0.15"></path>
                            <path d="M22.095,23.25048 C22.067,23.0807246 22.0405,22.9146757 22.014,22.75048 C22.0405,22.9150463 22.067,23.0807246 22.095,23.25048 Z" id="Shape" fill="#612721" opacity="0.5"></path>
                            <path d="M21.89648,21.5828 C21.90098,21.6448 21.90598,21.7048 21.91148,21.7753 C21.90548,21.7058 21.90098,21.6453 21.89648,21.5828 Z" id="Shape" fill="#F2CDB7" opacity="0.15"></path>
                            <path d="M21.89648,21.5828 C21.90098,21.6448 21.90598,21.7048 21.91148,21.7753 C21.90548,21.7058 21.90098,21.6453 21.89648,21.5828 Z" id="Shape" fill="#612721" opacity="0.5"></path>
                            <path d="M32.07952,35.43704 C32.248233,35.47604 32.4144246,35.51704 32.5776564,35.56004 C32.5783141,35.56004 32.5789719,35.56004 32.57952,35.56004 C32.4347053,35.52154 32.2883558,35.48454 32.1392657,35.44954 C32.1204102,35.44554 32.0992525,35.44104 32.07952,35.43704 Z" id="Shape" fill="#F2CDB7" opacity="0.15"></path>
                            <path d="M32.07952,35.43704 C32.248233,35.47604 32.4144246,35.51704 32.5776564,35.56004 C32.5783141,35.56004 32.5789719,35.56004 32.57952,35.56004 C32.4347053,35.52154 32.2883558,35.48454 32.1392657,35.44954 C32.1204102,35.44554 32.0992525,35.44104 32.07952,35.43704 Z" id="Shape" fill="#612721" opacity="0.5"></path>
                            <path d="M21.9443,22.12954 C21.9338,22.01604 21.9238,21.90704 21.9148,21.80104 C21.9243,21.90704 21.9338,22.01554 21.9443,22.12954 Z" id="Shape" fill="#F2CDB7" opacity="0.15"></path>
                            <path d="M21.9443,22.12954 C21.9338,22.01604 21.9238,21.90704 21.9148,21.80104 C21.9243,21.90704 21.9338,22.01554 21.9443,22.12954 Z" id="Shape" fill="#612721" opacity="0.5"></path>
                            <path d="M22.07508,23.07976 C22.04708,22.9090544 22.02058,22.7436944 21.99408,22.57976 C22.02108,22.7436944 22.04758,22.9090544 22.07508,23.07976 Z" id="Shape" fill="#F2CDB7" opacity="0.15"></path>
                            <path d="M22.07508,23.07976 C22.04708,22.9090544 22.02058,22.7436944 21.99408,22.57976 C22.02108,22.7436944 22.04758,22.9090544 22.07508,23.07976 Z" id="Shape" fill="#612721" opacity="0.5"></path>
                            <path d="M22.15208,22.7488 C22.08058,22.5710564 22.01608,22.4039243 21.95808,22.2488 C22.01608,22.4039243 22.08058,22.5709167 22.15208,22.7488 Z" id="Shape" fill="#F2CDB7" opacity="0.15"></path>
                            <path d="M22.15208,22.7488 C22.08058,22.5710564 22.01608,22.4039243 21.95808,22.2488 C22.01608,22.4039243 22.08058,22.5709167 22.15208,22.7488 Z" id="Shape" fill="#612721" opacity="0.5"></path>
                            <path d="M22.00004,22.62128 C21.98154,22.4513726 21.96204,22.2819281 21.94504,22.12128 C21.96254,22.2819281 21.98154,22.4509096 22.00004,22.62128 Z" id="Shape" fill="#F2CDB7" opacity="0.15"></path>
                            <path d="M22.00004,22.62128 C21.98154,22.4513726 21.96204,22.2819281 21.94504,22.12128 C21.96254,22.2819281 21.98154,22.4509096 22.00004,22.62128 Z" id="Shape" fill="#612721" opacity="0.5"></path>
                            <path d="M21.9756,22.43066 C21.9611,22.28566 21.9471,22.14116 21.9336,22.00416 C21.9471,22.14116 21.9606,22.28516 21.9756,22.43066 Z" id="Shape" fill="#F2CDB7" opacity="0.15"></path>
                            <path d="M21.9756,22.43066 C21.9611,22.28566 21.9471,22.14116 21.9336,22.00416 C21.9471,22.14116 21.9606,22.28516 21.9756,22.43066 Z" id="Shape" fill="#612721" opacity="0.5"></path>
                            <path d="M21.95936,22.2791 C21.94736,22.1476 21.93486,22.0186 21.92336,21.8956 C21.93486,22.0186 21.94636,22.1471 21.95936,22.2791 Z" id="Shape" fill="#F2CDB7" opacity="0.15"></path>
                            <path d="M21.95936,22.2791 C21.94736,22.1476 21.93486,22.0186 21.92336,21.8956 C21.93486,22.0186 21.94636,22.1471 21.95936,22.2791 Z" id="Shape" fill="#612721" opacity="0.5"></path>
                            <path d="M29.43504,7.3492 C33.68208,10.88888 37.00168,15.54344 38.96584,20.8752 C39.19784,21.50496 38.9496,22.21184 38.38408,22.55768 C35.50928,24.31584 32.14568,25.32712 28.55032,25.32712 C26.5676,25.32712 24.65528,25.0196 22.85656,24.44904 C22.3024,24.2732 21.92448,23.75128 21.90848,23.15928 C21.89744,22.75064 21.89144,22.34072 21.89144,21.92928 C21.89144,17.5148 22.5028,13.24616 23.64352,9.20648 C24.36664,6.64536 27.41208,5.6632 29.43504,7.3492 Z" id="Shape" fill="#F2CDB7" opacity="0.15"></path>
                            <g id="Group" transform="translate(21.840000, 7.680000)" fill="#612721" opacity="0.5">
                                <path d="M1.90024,1.2292 C2.62144,-0.71592 5.47464,-0.20096 5.49928,1.87856 C5.49944,1.89072 5.49944,1.90296 5.49944,1.91512 C5.49944,3.5652 4.7812,5.13008 3.53912,6.1864 C1.41896,7.98952 0.15752,10.62528 0.0584,13.42872 C0.12928,9.30568 0.73352,5.31544 1.80336,1.52656 C1.83208,1.42488 1.8644,1.32568 1.90024,1.2292 Z" id="Shape"></path>
                                <path d="M16.12704,28.59728 C16.12224,28.58832 16.11672,28.57976 16.11056,28.5716 C16.11056,28.5716 16.0524,28.51376 16.00784,28.50232 C15.28944,28.3172 13.55048,27.94784 10.60424,27.7768 C10.60376,27.7768 10.60328,27.7768 10.60288,27.7768 C10.48376,27.76992 10.36248,27.76328 10.23936,27.75704 C10.23312,27.7568 10.2268,27.7564 10.22048,27.75608 C10.19928,27.75504 10.1772,27.75416 10.15592,27.75312 C9.59776,27.728 8.66376,27.70488 8.01944,27.69096 C8.01616,27.69088 8.01312,27.6904 8.00984,27.69032 C7.62648,27.6768 7.3256,27.35608 7.33776,26.97144 L7.40712,24.77944 C7.45728,23.19416 6.42968,21.77536 4.90776,21.32864 C2.45768,20.60952 0.65664,18.52392 0.2948,15.99632 C0.29472,15.99552 0.29456,15.99464 0.2944,15.99368 C0.29208,15.97712 0.28992,15.96128 0.2876,15.94496 C0.28088,15.89744 0.27424,15.85024 0.26792,15.80392 C0.26464,15.78048 0.2616,15.7576 0.2584,15.7344 C0.25272,15.69264 0.24712,15.65112 0.24168,15.6104 C0.23848,15.58648 0.23544,15.56304 0.2324,15.53952 C0.22728,15.50016 0.22216,15.46128 0.21736,15.42288 C0.2144,15.3996 0.21152,15.37664 0.20864,15.35384 C0.20392,15.31656 0.19944,15.27992 0.19496,15.24368 C0.19224,15.22184 0.1896,15.19984 0.18696,15.1784 C0.18248,15.14176 0.17824,15.10592 0.174,15.07048 C0.17168,15.05096 0.16936,15.03112 0.16712,15.012 C0.16264,14.97368 0.1584,14.93656 0.15416,14.89976 C0.15248,14.88496 0.15072,14.86968 0.14904,14.8552 C0.1376,14.75336 0.12728,14.6576 0.118,14.56872 C0.11648,14.55456 0.1152,14.54144 0.11384,14.52768 C0.1108,14.49832 0.10776,14.46904 0.10504,14.44128 C0.10336,14.42448 0.10176,14.40872 0.10024,14.39248 C0.09792,14.3692 0.09568,14.34624 0.09352,14.32424 C0.09192,14.30808 0.09056,14.29264 0.08904,14.27704 C0.08712,14.256 0.08512,14.23544 0.08328,14.21568 C0.082,14.20128 0.08064,14.18752 0.07944,14.17376 C0.07776,14.1556 0.07616,14.13824 0.07472,14.1212 C0.07352,14.10712 0.07232,14.09336 0.07112,14.08016 C0.06984,14.06496 0.06864,14.05096 0.06736,14.03688 C0.06632,14.02488 0.06528,14.01288 0.0644,14.00168 C0.0632,13.98776 0.06216,13.9752 0.06112,13.96248 C0.06032,13.95272 0.05944,13.94256 0.0588,13.93368 C0.05784,13.9224 0.05712,13.91288 0.0564,13.90288 C0.05432,13.8768 0.05256,13.85352 0.05128,13.83624 C0.05008,13.97392 0.05128,14.11136 0.05128,14.24936 C0.05128,17.4608 0.37616,20.59456 0.99192,23.6196 L0.99144,23.6192 C0.99664,23.6448 1.00248,23.67008 1.00784,23.69568 C1.05832,23.94176 1.11072,24.18696 1.16504,24.43144 C1.18216,24.50824 1.19984,24.5848 1.21688,24.66168 C1.2648,24.87752 1.31672,25.09248 1.36888,25.30736 C1.37744,25.34264 1.38592,25.37784 1.39456,25.41296 C1.47632,25.7464 1.56032,26.07896 1.64912,26.4096 L1.65248,26.41168 C1.65312,26.41392 1.65368,26.41624 1.65432,26.41848 C1.81704,27.02296 2.12112,27.5812 2.55176,28.02808 C3.23064,28.73256 4.10416,29.22552 5.06656,29.43152 C7.77328,30.06712 10.82576,29.6748 12.73344,29.48424 C13.84288,29.37344 14.93952,29.18728 16.0044,28.86888 C16.1176,28.83504 16.18392,28.7028 16.12704,28.59728 Z" id="Shape"></path>
                            </g>
                            <path d="M25.37912,13.8664 C25.58224,13.6936 25.76992,13.50592 25.94424,13.30784 L22.6596,10.57064 C22.44752,10.39392 22.32488,10.13216 22.32488,9.85608 L22.32488,1.90552 C22.32488,0.89672 21.5404,0.0376 20.53232,0.00176 C19.47392,-0.03592 18.60408,0.81096 18.60408,1.86096 L18.60408,9.856 C18.60408,10.13208 18.48144,10.39384 18.26936,10.57056 L15.00248,13.29296 C15.18032,13.49664 15.37248,13.6892 15.5808,13.86632 C16.33008,14.50352 16.97144,15.2452 17.4928,16.06096 L19.86888,14.0808 C20.21376,13.79336 20.71488,13.79336 21.05992,14.0808 L23.45632,16.07784 C23.97976,15.25552 24.6248,14.508 25.37912,13.8664 Z" id="Shape" fill="#DAC69C"></path>
                            <g id="Group" transform="translate(17.440000, 1.120000)" fill="#C9AD80">
                                <path d="M4.88496,3.41192 L4.88496,0.78552 C4.88496,0.77488 4.88368,0.76472 4.88344,0.75416 C4.88008,1.22616 4.69936,1.69712 4.34,2.05648 C3.61464,2.78184 2.4344,2.78184 1.70904,2.05648 C1.26176,1.6092 1.09128,0.98904 1.1956,0.4092 C1.17616,0.51712 1.16416,0.62752 1.16416,0.74104 L1.16416,3.41192 C1.72096,3.80008 2.37248,3.99512 3.02456,3.99512 C3.67656,3.99512 4.32808,3.80008 4.88496,3.41192 Z" id="Shape"></path>
                                <path d="M1.16464,6.15304 C1.16424,6.1688 1.16584,6.18424 1.16584,6.19984 C1.72232,6.58488 2.37312,6.77832 3.02448,6.77832 C3.67584,6.77832 4.32664,6.58496 4.88312,6.19984 C4.88312,6.18424 4.88472,6.1688 4.88432,6.15304 L4.88488,6.15304 L4.88488408,3.4936 L4.88432,3.4936 C4.89672,4.00416 4.70432,4.48328 4.34288,4.84248 C3.61592,5.56496 2.43304,5.56488 1.706,4.84248 C1.34456,4.4832 1.15216,4.00416 1.16456,3.4936 L1.16399592,3.4936 L1.164,6.15304 L1.16464,6.15304 Z" id="Shape"></path>
                                <path d="M4.89256,8.8504 C4.88792,8.81264 4.88496,8.77448 4.88496,8.736 L4.88496,6.19864 C4.8844,6.19904 4.88376,6.19944 4.8832,6.19984 C4.88304,6.69272 4.69336,7.15376 4.34296,7.50192 C3.616,8.2244 2.43312,8.22432 1.70608,7.50192 C1.35576,7.15376 1.16608,6.69272 1.16584,6.19984 C1.16528,6.19944 1.16464,6.19904 1.16408,6.19864 L1.16408,8.736 C1.16408,8.77448 1.16112,8.81264 1.15648,8.8504 L1.16464,8.85056 C1.16456,8.85328 1.16488,8.85584 1.1648,8.85848 C1.72144,9.24392 2.3728,9.4376 3.02448,9.4376 C3.67616,9.4376 4.32752,9.24392 4.88416,8.85848 C4.88408,8.85576 4.88448,8.8532 4.88432,8.85048 L4.89256,8.8504 Z" id="Shape"></path>
                                <path d="M5.73512,9.88016 L5.2196,9.45056 C5.03768,9.29896 4.92224,9.08464 4.89288,8.85256 C4.89,8.85464 4.88704,8.85656 4.88416,8.85864 C4.89432,9.36624 4.70248,9.84224 4.34288,10.1996 C3.61592,10.92208 2.43304,10.92208 1.706,10.1996 C1.3464,9.84224 1.15456,9.36624 1.16472,8.85864 C1.16184,8.85656 1.15888,8.85464 1.156,8.85256 C1.12672,9.08464 1.0112,9.29904 0.82928,9.45056 L0.33984,9.85848 L0.01192,10.13176 C0.17328,10.52224 0.41216,10.88096 0.7224,11.18928 C1.35704,11.81992 2.19072,12.13528 3.0244,12.13528 C3.85808,12.13528 4.69168,11.81992 5.3264,11.18928 C5.63672,10.88088 5.8756,10.52224 6.03688,10.13176 L5.73512,9.88016 Z" id="Shape"></path>
                                <circle id="Oval" cx="3.02448" cy="0.74128" r="1"></circle>
                            </g>
                            <g id="Group" transform="translate(16.320000, 1.840000)" fill="#B69362" opacity="0.5">
                                <path d="M6.3396,8.73064 C6.12752,8.55392 6.00488,8.29216 6.00488,8.01608 L6.00488,0.06552 C6.00488,0.05944 6.00432,0.05352 6.00432,0.04744 C5.99768,0.51496 5.81744,0.9804 5.4612,1.3364 C5.34232,1.4552 5.21128,1.55456 5.07192,1.63432 C4.4964,1.96432 4.14448,2.57968 4.14448,3.24304 L4.14448,8.01584 C4.14448,8.844 4.5124,9.62944 5.14856,10.15968 L8.2792,12.76856 C8.5244,12.50816 8.78432,12.26008 9.0592,12.02632 C9.26232,11.85352 9.45,11.66584 9.62432,11.46776 L6.3396,8.73064 Z" id="Shape"></path>
                                <path d="M0.07784,12.80808 C0.48624,13.24648 0.8524,13.7196 1.17288,14.22104 L3.54896,12.24088 C3.72144,12.0972 3.93288,12.02536 4.14432,12.02528 L2.24784,12.02528 C1.45536,12.02536 0.68784,12.30224 0.07784,12.80808 Z" id="Shape"></path>
                            </g>
                        </g>
                    </g>
                </g>
            </g>
        </g>
    </g>
</svg>