<?xml version="1.0" encoding="UTF-8"?>
<svg width="40px" height="40px" viewBox="0 0 40 40" version="1.1" xmlns="http://www.w3.org/2000/svg" xmlns:xlink="http://www.w3.org/1999/xlink">
    <!-- Generator: Sketch 49.2 (51160) - http://www.bohemiancoding.com/sketch -->
    <title>otorhinolaryngology</title>
    <desc>Created with Sketch.</desc>
    <defs></defs>
    <g id="Page-1" stroke="none" stroke-width="1" fill="none" fill-rule="evenodd">
        <g id="Datos_Clínicos" transform="translate(-139.000000, -2402.000000)" fill-rule="nonzero">
            <g id="datos-personales-copy-2" transform="translate(99.000000, 1576.000000)">
                <g id="datos-personales" transform="translate(37.000000, 40.000000)">
                    <g id="Group-5-Copy-10" transform="translate(1.000000, 786.000000)">
                        <g id="otorhinolaryngology" transform="translate(2.000000, 0.000000)">
                            <circle id="Oval" fill="#21D0C3" cx="20" cy="20" r="20"></circle>
                            <path d="M23.545625,39.6864062 C25.54,37.3279687 25.6670313,33.6113281 26.3486719,28.33 C26.858125,28.6175781 27.945,28.9628906 28.5625,28.7363281 C29.1799219,28.5100781 30.136875,27.4871094 30.3529688,26.6748438 C30.5720312,26.1782813 30.1822656,23.3428125 31.1183594,22.5529688 C33.2191406,20.7797656 32.7828906,14.33125 31.08375,13.3707031 C29.25,12.3339844 27.6741406,13.5575781 27.4850781,14.5704688 C27.8722656,11.8219531 28.0014063,6.84625 25.23375,1.92335938 C24.9442969,1.40882813 24.6174219,0.919453125 24.2561719,0.45546875 C22.8846094,0.158046875 21.4610156,0 20.0003906,0 C8.95460938,0 0.000390625,8.95429687 0.000390625,20 C0.000390625,31.0457031 8.95460938,40 20.0003906,40 C21.2103125,40 22.3953125,39.8925 23.5460156,39.6867969 L23.545625,39.6864062 Z" id="Shape" fill="#FED298"></path>
                            <path d="M25.5179688,18.511875 C24.3607812,19.2732812 20,20 20,20 L19.9403906,20.08875 C19.9490625,20.1601562 19.9552344,20.2288281 19.9599219,20.2922656 C21.803125,20.4478125 27.3824219,20.75375 27.6841406,18.7175 C27.7350781,18.3728906 27.8151563,18.0592969 27.9157812,17.7782031 L27.9157812,17.7778125 C27.9157812,17.7778125 28.0203906,14.27375 26.4640625,15.2382031 C24.7544531,16.2976562 26.4449219,17.9015625 25.5179687,18.5114063 L25.5179687,18.511875 Z" id="Shape" fill="#FAD24D"></path>
                            <g id="Group" transform="translate(14.140625, 14.609375)" fill="#E8B57F">
                                <path d="M15.8954687,1.62234375 C15.1878906,1.08679687 13.8494531,2.04304687 13.5435156,4.10820312 C13.241875,6.1440625 7.6625,5.8384375 5.81929687,5.68296875 C5.7734375,5.05007812 5.55804687,3.90398437 4.58773437,4.28398437 C3.268125,4.8003125 3.71773437,6.16757812 3.18226562,6.29171875 C2.64671875,6.41625 -1.2059375,7.03757812 0.47671875,9.06445312 C2.15929687,11.09125 3.47859375,10.0019531 4.05234375,9.35171875 C4.53476562,8.80507812 5.23296875,9.19078125 5.86382812,9.0096875 C7.11960937,9.1446875 9.406875,7.03085937 11.4403125,7.47390625 C13.5435937,7.93257812 11.899375,9.38632812 13.1615625,9.348125 C14.4233594,9.30984375 15.2648437,8.12453125 14.8828125,6.74789062 C14.5930469,5.7046875 14.0478125,1.6228125 15.8960937,1.6228125 L15.8954687,1.62234375 Z" id="Shape"></path>
                                <path d="M16.731875,4.07320313 C15.7457031,6.26382813 17.5383594,0.969296875 15.1730469,0.43265625 C16.0841406,-1.15679687 17.5292969,2.05171875 16.731875,4.07320313 Z" id="Shape"></path>
                            </g>
                            <path d="M2.21992188,19.4757031 C5.85976563,14.7403125 11.2809375,14.7403125 14.9203906,19.4757031 C11.0009375,23.0513281 5.57101563,23.0152344 2.21992188,19.4757031 Z" id="Shape" fill="#FFFFFF"></path>
                            <path d="M26.4608594,20.5007813 C26.4608594,20.5007813 22.5666406,20.9297656 21.5689062,20.8357031 C20.5711719,20.7415625 19.9852344,21.3535156 19.3067969,20.8660156 C18.6284375,20.3785156 18.8542969,19.4648438 18.4303125,20.1046094 C18.0063281,20.744375 16.7054688,22.2364844 15.9419531,22.4803906 C15.1784375,22.7239844 14.9239844,23.6682813 15.885625,23.9425 C16.846875,24.2167188 16.4510937,23.3333594 17.8366406,23.1504688 C19.2222656,22.9675781 19.7188281,23.5758594 21.0117188,22.7845313 C22.3046094,21.9932031 24.9910938,21.0796094 26.0938281,21.5363281 C27.1965625,21.9932031 27.1600781,23.1403125 27.9842969,22.8104688 C28.8084375,22.480625 28.511875,19.8414844 27.8117969,19.9349219 C27.1117187,20.02875 26.4611719,20.5003906 26.4611719,20.5003906 L26.4608594,20.5007813 Z" id="Shape" fill="#D9A473"></path>
                            <path d="M10.8375,16.32625 C11.1961719,16.8014844 11.4090625,17.3932031 11.4090625,18.0348438 C11.4090625,19.6027344 10.1382031,20.8735937 8.5703125,20.8735937 C7.00242188,20.8735937 5.73125,19.6027344 5.73125,18.0348438 C5.73125,17.3932813 5.94414063,16.8014844 6.3028125,16.32625 C7.79164063,15.7914844 9.34835938,15.7910938 10.8371875,16.32625 L10.8375,16.32625 Z" id="Shape" fill="#21D0C3"></path>
                            <path d="M8.57039062,17.0028906 C9.14015625,17.0028906 9.60234375,17.4650781 9.60234375,18.0348438 C9.60234375,18.6046094 9.14015625,19.0667969 8.57039062,19.0667969 C8.000625,19.0667969 7.5384375,18.6049219 7.5384375,18.0348438 C7.53835937,17.4650781 8.00023437,17.0028906 8.57039062,17.0028906 Z" id="Shape" fill="#666666"></path>
                            <g id="Group" transform="translate(6.640625, 16.328125)" fill="#FFFFFF">
                                <path d="M0.522109375,0.049453125 C0.79234375,0.049453125 1.01179688,0.268515625 1.01179688,0.53875 C1.01179688,0.809375 0.79234375,1.0284375 0.522109375,1.0284375 C0.251875,1.0284375 0.0328125,0.809375 0.0328125,0.53875 C0.032734375,0.2684375 0.251796875,0.049453125 0.522109375,0.049453125 Z" id="Shape"></path>
                                <path d="M2.78273438,2.228125 C2.96671875,2.228125 3.11578125,2.37710938 3.11578125,2.56117188 C3.11578125,2.74515625 2.96679688,2.89460938 2.78273438,2.89460938 C2.59875,2.89460938 2.4496875,2.74523438 2.4496875,2.56117188 C2.4496875,2.37710937 2.59875,2.228125 2.78273438,2.228125 Z" id="Shape"></path>
                            </g>
                            <path d="M11.33875,10.99125 C14.3661719,12.0705469 15.1824219,12.6500781 15.1824219,12.6500781 C15.1824219,12.6500781 11.9705469,11.4654687 10.5755469,11.6235156 C9.18015625,11.7815625 1.7565625,14.7826563 1.7565625,14.7826563 C1.00492187,13.0285938 9.239375,10.2428906 11.3390625,10.9916406 L11.33875,10.99125 Z" id="Shape" fill="#828282"></path>
                            <path d="M25.5482813,23.5640625 C24.0976563,22.61 19.9436719,24.4514063 20.004375,23.6185938 C21.2601563,23.7535938 23.5474219,21.6396875 25.5808594,22.0828125 C27.6841406,22.5414844 26.0399219,23.9952344 27.3021094,23.9570312 C27.4929688,23.95125 27.6741406,23.9191406 27.8429688,23.8639062 C28.1684375,25.3975 27.5459375,27.0779688 26.4945313,26.8372656 C24.5339844,26.3882812 26.5903906,24.2496875 25.5482813,23.5640625 Z" id="Shape" fill="#FAD24D"></path>
                            <path d="M26.489375,27.2940625 C26.489375,27.2940625 27.0657031,28.7972656 28.6959375,28.6778906 C28.6500781,28.7009375 28.6010156,28.7121875 28.5620313,28.7367188 C27.8620313,29.17875 26.2428906,28.51625 26.1541406,28.1471094 C26.0628125,27.7664844 26.4890625,27.2944531 26.4890625,27.2944531 L26.489375,27.2940625 Z" id="Shape" fill="#E8B57F"></path>
                            <path d="M31.0835938,13.3703125 C28.9784375,11.9407031 27.674375,13.6655469 27.4849219,14.5700781 C27.2139844,15.8651563 27.3698438,16.8069531 27.92875,17.7242188 C27.92875,17.7242188 27.9464063,12.8675781 31.0835938,13.3703125 Z" id="Shape" fill="#FFE5BA"></path>
                            <g id="Group" transform="translate(2.187500, 15.468750)" fill="#E8B57F">
                                <path d="M0.032421875,4.00695312 C5.953125,-3.68117188 11.6630469,3.67023437 12.7328906,4.00695312 C12.7328906,4.00695312 6.01476563,-4.98664062 0.032421875,4.00695312 Z" id="Shape"></path>
                                <path d="M0.032421875,4.00695312 C5.953125,9.6140625 11.6630469,4.25234375 12.7328906,4.00695312 C12.7328906,4.00695312 6.01476563,10.5663281 0.032421875,4.00695312 Z" id="Shape"></path>
                            </g>
                            <path d="M26.2028906,8.94851563 L26.2035937,8.94851563 L26.2042969,8.94851563 L26.205,8.94851563 L26.2057031,8.94851563 L26.2064063,8.94851563 L26.2071094,8.94851563 L26.2764063,8.94890625 L26.3457031,8.94960938 L26.4142188,8.95070313 L26.483125,8.9525 L26.5520313,8.9546875 L26.6205469,8.9571875 L26.6890625,8.96007813 L26.7572656,8.96367188 L26.8254688,8.96765625 L26.8936719,8.97203125 L26.961875,8.97671875 L27.0296875,8.98210938 L27.0971094,8.98789063 L27.1649219,8.9940625 L27.2327344,9.00054688 L27.3001563,9.0078125 L27.3675781,9.01539063 L27.4346875,9.02335938 L27.5017969,9.03164062 L27.5689062,9.04070313 L27.635625,9.05007813 L27.7023437,9.05984375 L27.76875,9.07 L27.8351563,9.08046875 L27.9011719,9.09164063 L27.9671875,9.10320313 L28.0332031,9.11515625 L28.0988281,9.12742187 L28.1644531,9.14007813 L28.2297656,9.153125 L28.2950781,9.166875 L28.3607031,9.1809375 L28.425625,9.19539063 L28.4905469,9.21023438 L28.5554688,9.22539063 L28.62,9.2409375 L28.6845313,9.2571875 L28.7490625,9.27382813 L28.8132813,9.29085938 L28.8775,9.30820313 L28.9413281,9.3259375 L29.0051563,9.344375 L29.0685938,9.3628125 L29.1321094,9.38195313 L29.1952344,9.40148438 L29.2583594,9.42140625 L29.2814063,9.42898438 C29.6389844,9.54265625 29.8825781,9.04109375 29.5292969,8.83648438 C29.51125,8.82742188 29.495,8.82054688 29.4765625,8.81453125 L29.4535156,8.80695313 L29.3860938,8.78609375 L29.3186719,8.76554688 L29.25125,8.74539063 L29.1834375,8.72546875 L29.115625,8.7059375 L29.0474219,8.68679688 L28.9792188,8.66835938 L28.9110156,8.6503125 L28.8425,8.63257813 L28.7739844,8.61554688 L28.7050781,8.59890625 L28.6361719,8.58265625 L28.566875,8.56671875 L28.4975781,8.5515625 L28.4282813,8.53671875 L28.3586719,8.52226563 L28.2886719,8.50820313 L28.2190625,8.49445313 L28.1490625,8.48140625 L28.0790625,8.46875 L28.00875,8.45648438 L27.9384375,8.44492188 L27.8677344,8.43375 L27.7970313,8.42289063 L27.7263281,8.41242188 L27.6552344,8.40265625 L27.5841406,8.39328125 L27.5127344,8.38421875 L27.4409375,8.3759375 L27.3695313,8.36796875 L27.2977344,8.36039063 L27.2259375,8.35351563 L27.1541406,8.34703125 L27.0819531,8.34085938 L27.0097656,8.33546875 L26.9375781,8.33039063 L26.8650781,8.32570313 L26.7925781,8.32171875 L26.7196875,8.318125 L26.6467969,8.31484375 L26.5739063,8.31195313 L26.5010156,8.30976563 L26.428125,8.30796875 L26.3545313,8.30648438 L26.2813281,8.30578125 L26.208125,8.30539063 L26.1349219,8.30578125 L26.0617188,8.30648438 L25.988125,8.30796875 L25.9152344,8.30976563 L25.8423438,8.31195313 L25.7694531,8.31484375 L25.6965625,8.318125 L25.6236719,8.32171875 L25.5511719,8.32570313 L25.4970313,8.32929688 C25.1192188,8.36210938 25.0849219,8.89945313 25.4732813,8.97015625 C25.4978125,8.97234375 25.5151563,8.97375 25.5403906,8.97265625 L25.5902344,8.969375 L25.6584375,8.96539063 L25.7266406,8.96179688 L25.7951563,8.95890625 L25.8636719,8.95640625 L25.9325781,8.95421875 L26.0014844,8.95242188 L26.07,8.95132813 L26.1392969,8.950625 L26.2038281,8.95023438 L26.2028906,8.94851563 Z M22.5046094,9.65148438 C22.8275781,9.5284375 22.745625,9.02976563 22.3822656,9.02976563 C22.3375,9.03195313 22.3079688,9.03664063 22.2660938,9.0528125 L22.2339844,9.06546875 L22.1690625,9.09140625 L22.1045313,9.11804688 L22.04,9.14507813 L21.9757812,9.1725 L21.9115625,9.20023438 L21.8477344,9.22835938 L21.7839062,9.256875 L21.7204687,9.28570313 L21.6570312,9.31492188 L21.5939062,9.34484375 L21.5308594,9.375 L21.468125,9.405625 L21.4053906,9.43664063 L21.3429688,9.46804688 L21.2809375,9.49976563 L21.2189063,9.531875 L21.156875,9.564375 L21.0955469,9.5971875 L21.0342188,9.63039063 L20.9732813,9.66390625 L20.9123438,9.6978125 L20.8517969,9.73210938 L20.7911719,9.76671875 L20.7309375,9.80210938 L20.6710156,9.8375 L20.6110938,9.87359375 L20.5514844,9.91 L20.4922656,9.94640625 L20.4330469,9.98320313 L20.3742188,10.0207031 L20.3153906,10.0585938 L20.2572656,10.0964844 L20.19875,10.1347656 L20.140625,10.17375 L20.0828906,10.2127344 L20.0254688,10.2520313 L19.9684375,10.2917188 L19.9114063,10.3321094 L19.8546875,10.3728906 L19.7983594,10.4136719 L19.7420313,10.4548438 L19.6860938,10.4967187 L19.6301563,10.5385938 L19.5749219,10.5807812 L19.5196875,10.6233594 L19.4644531,10.6663281 L19.4096094,10.7096094 L19.4052344,10.7128906 C19.1414844,10.9178906 19.3407031,11.3746094 19.7119531,11.2689062 C19.7498438,11.2555469 19.7790625,11.2389844 19.8104688,11.214375 L19.8115625,11.2136719 L19.8632031,11.1725 L19.9148438,11.1317188 L19.9671875,11.0913281 L20.0195313,11.05125 L20.071875,11.0115625 L20.1246094,10.9722656 L20.1776563,10.9332813 L20.2310938,10.8946875 L20.2845313,10.8564063 L20.3383594,10.8185156 L20.3925,10.780625 L20.4466406,10.7434375 L20.5011719,10.7066406 L20.5557031,10.6702344 L20.6105469,10.6341406 L20.6657813,10.5980469 L20.7210156,10.5623438 L20.7766406,10.5273438 L20.8322656,10.4923437 L20.8882031,10.4577344 L20.9441406,10.4234375 L21.0004688,10.3899219 L21.0571875,10.3564062 L21.1139063,10.3232031 L21.1709375,10.2903906 L21.2279688,10.2578906 L21.2853906,10.2257812 L21.3428125,10.1940625 L21.4009375,10.1626562 L21.4590625,10.1316406 L21.5167969,10.1013281 L21.5753125,10.0710156 L21.6341406,10.0410937 L21.6929688,10.0115625 L21.7517969,9.98234375 L21.8110156,9.95351562 L21.870625,9.925 L21.9302344,9.896875 L21.9898438,9.86914062 L22.0497656,9.84210937 L22.1096875,9.81546875 L22.1699219,9.78882813 L22.2302344,9.76289063 L22.2907813,9.73726563 L22.3514063,9.71203125 L22.4123438,9.6871875 L22.4732813,9.66265625 L22.5053906,9.65 L22.5046094,9.65148438 Z M17.6692969,13.4871875 C17.891875,13.1620313 17.4524219,12.799375 17.1753125,13.0765625 C17.1622656,13.0903125 17.1525781,13.1021875 17.1414063,13.1177344 L17.1085938,13.1642969 L17.0682031,13.2224219 L17.0278125,13.2809375 L16.9877344,13.3397656 L16.9480469,13.3989844 L16.90875,13.4582031 L16.8697656,13.5178125 L16.8311719,13.5777344 L16.7928906,13.6376563 L16.755,13.6978906 L16.7175,13.7584375 L16.6803125,13.8189844 L16.643125,13.8803125 L16.6063281,13.9416406 L16.5699219,14.0032812 L16.5338281,14.0649219 L16.498125,14.1269531 L16.4627344,14.189375 L16.4277344,14.2517969 L16.393125,14.3145312 L16.3588281,14.3776562 L16.3249219,14.4410938 L16.2914063,14.5045313 L16.2582031,14.5683594 L16.2253906,14.6321875 L16.1929688,14.6964063 L16.1608594,14.7609375 L16.1291406,14.8258594 L16.0977344,14.8903906 L16.0667188,14.9553125 L16.0360938,15.020625 L16.0057813,15.08625 L15.9758594,15.151875 L15.9463281,15.2178906 L15.9171094,15.2842969 L15.8882813,15.3507031 L15.8597656,15.4171094 L15.8316406,15.4842188 L15.8039063,15.5513281 L15.7764844,15.61875 L15.7494531,15.6865625 L15.7228125,15.754375 L15.6964844,15.8225781 L15.6705469,15.8907812 L15.6449219,15.9589844 L15.6196875,16.0275 L15.6146094,16.0415625 C15.5016406,16.3382031 15.8682813,16.6210938 16.1421875,16.3814062 C16.1800781,16.3435156 16.2021094,16.3089062 16.2219531,16.2576562 L16.2255469,16.2475 L16.2492969,16.1825781 L16.2734375,16.1176562 L16.2979687,16.053125 L16.3228125,15.9889063 L16.3480469,15.9246875 L16.3736719,15.8608594 L16.3996094,15.7970312 L16.4259375,15.7332031 L16.4525781,15.6697656 L16.4796094,15.6063281 L16.5070313,15.5432031 L16.5347656,15.4804687 L16.5628906,15.4177344 L16.5914063,15.3553125 L16.6202344,15.2932812 L16.6494531,15.23125 L16.6789844,15.1696094 L16.7089063,15.1079687 L16.7388281,15.0466406 L16.7691406,14.9857031 L16.7997656,14.9247656 L16.8307813,14.8642187 L16.8625,14.8036719 L16.8942188,14.7434375 L16.9263281,14.6835938 L16.9588281,14.6239844 L16.9916406,14.564375 L17.0248438,14.5047656 L17.0583594,14.4455469 L17.0922656,14.3867187 L17.1261719,14.3278906 L17.1604687,14.269375 L17.1950781,14.21125 L17.2300781,14.1535156 L17.2654688,14.0957812 L17.3011719,14.0383594 L17.3372656,13.9813281 L17.3736719,13.9242969 L17.4104688,13.8675781 L17.4476563,13.8108594 L17.4848438,13.7545312 L17.5223438,13.6989063 L17.5602344,13.6432813 L17.5985156,13.5876563 L17.6371094,13.5324219 L17.6699219,13.4858594 L17.6692969,13.4871875 Z M15.5504688,19.3169531 C15.581875,18.9571875 15.0709375,18.8185938 14.92625,19.1801563 C14.9164844,19.2078906 14.9107031,19.2339844 14.9082031,19.263125 L14.9049219,19.3021094 L14.89875,19.3785938 L14.8929687,19.4550781 L14.8875781,19.5315625 L14.8828906,19.6080469 L14.8785156,19.6849219 L14.8745313,19.7617969 L14.8709375,19.8389844 L14.8680469,19.9161719 L14.8655469,19.9933594 L14.8633594,20.0709375 L14.861875,20.1485156 L14.8607812,20.2260938 L14.8600781,20.3040625 L14.8596875,20.3820313 L14.8600781,20.46 L14.8607812,20.5379688 L14.861875,20.6155469 L14.8633594,20.693125 L14.8655469,20.7707031 L14.8680469,20.8478906 L14.8709375,20.9250781 L14.8745313,21.0022656 L14.8785156,21.0791406 L14.8828906,21.1560156 L14.8875781,21.2325 L14.8929687,21.3089844 L14.89875,21.3854688 L14.9049219,21.4619531 L14.9114063,21.5380469 L14.9182812,21.6141406 L14.9258594,21.6902344 L14.9338281,21.7660156 L14.9421094,21.8417969 L14.9511719,21.9171875 L14.9602344,21.9925781 L14.97,22.0679687 L14.9801563,22.1426562 L14.990625,22.2177344 L15.0017969,22.2924219 L15.0133594,22.3671094 L15.0253125,22.4414062 L15.0375781,22.5157031 L15.0444531,22.5557813 C15.1040625,22.8838281 15.5575781,22.9188281 15.666875,22.605625 C15.683125,22.5507812 15.6899219,22.5035156 15.6795313,22.4457812 L15.6733594,22.409375 L15.6617969,22.3390625 L15.650625,22.2679687 L15.6397656,22.196875 L15.6292969,22.1261719 L15.6191406,22.0550781 L15.609375,21.9836719 L15.6,21.9122656 L15.5913281,21.8408594 L15.5830469,21.7690625 L15.5750781,21.6972656 L15.5675,21.6250781 L15.5602344,21.5528906 L15.55375,21.4803906 L15.5475781,21.4078906 L15.5417969,21.3353906 L15.5364063,21.2628906 L15.5313281,21.19 L15.5266406,21.1171094 L15.5226563,21.0442188 L15.5190625,20.9710156 L15.5157813,20.8978125 L15.5128906,20.8246094 L15.5103906,20.7510156 L15.5085938,20.6774219 L15.5071094,20.6038281 L15.5060156,20.5298438 L15.5053125,20.4558594 L15.5049219,20.381875 L15.5053125,20.3078906 L15.5060156,20.2339063 L15.5071094,20.1599219 L15.5085938,20.0863281 L15.5103906,20.0127344 L15.5128906,19.9391406 L15.5157813,19.8659375 L15.5190625,19.7927344 L15.5226563,19.7195312 L15.5266406,19.6466406 L15.5313281,19.57375 L15.5364063,19.5008594 L15.5417969,19.4283594 L15.5475781,19.3558594 L15.5508594,19.316875 L15.5504688,19.3169531 Z M16.60375,25.4357031 C16.4135938,25.0550781 15.8507031,25.3144531 16.0196094,25.708125 L16.03625,25.7438281 L16.066875,25.8091406 L16.0978906,25.8740625 L16.1292969,25.9385937 L16.1610156,26.0035156 L16.193125,26.0680469 L16.225625,26.1322656 L16.2584375,26.1960938 L16.2916406,26.2599219 L16.3251562,26.3234375 L16.3590625,26.386875 L16.3933594,26.45 L16.4279687,26.5127344 L16.4629687,26.5751563 L16.4983594,26.6375781 L16.5340625,26.6996094 L16.5701562,26.76125 L16.6065625,26.8228906 L16.6433594,26.8842187 L16.6805469,26.9455469 L16.7177344,27.0060937 L16.7552344,27.0666406 L16.793125,27.1269531 L16.8314063,27.186875 L16.87,27.2467969 L16.9089844,27.3064062 L16.9482812,27.365625 L16.9879688,27.4248437 L17.0280469,27.4836719 L17.0684375,27.5421875 L17.1088281,27.6003125 L17.15,27.6584375 L17.1914844,27.7161719 L17.2329687,27.7735937 L17.2748437,27.830625 L17.3170312,27.8876562 L17.3596094,27.944375 L17.4021875,28.0007031 L17.4451562,28.0566406 L17.4888281,28.1125781 L17.5325,28.1682031 L17.5765625,28.2234375 L17.6209375,28.2782812 L17.6657031,28.333125 L17.7107812,28.3876562 L17.75625,28.4417969 L17.7959375,28.48875 C17.9724219,28.6886719 18.2903125,28.6117969 18.3548437,28.3530469 C18.3778906,28.2559375 18.3526562,28.1459375 18.2863281,28.0704687 L18.2491406,28.0267969 L18.2061719,27.9755469 L18.1635937,27.9242969 L18.1214062,27.8726562 L18.0795312,27.8207031 L18.0376562,27.7683594 L17.9961719,27.7160156 L17.9553906,27.6632812 L17.9146094,27.6102344 L17.8742187,27.5567969 L17.8338281,27.5029687 L17.7941406,27.4491406 L17.7544531,27.395 L17.7151562,27.3404687 L17.6761719,27.2859375 L17.6375781,27.2310937 L17.5989844,27.1758594 L17.5607031,27.1202344 L17.5228125,27.0646094 L17.4853125,27.0089844 L17.4482031,26.953125 L17.4110156,26.8964062 L17.3742188,26.8396875 L17.3378125,26.7826562 L17.3017187,26.725625 L17.2660156,26.6682031 L17.230625,26.6104687 L17.195625,26.5527344 L17.1610156,26.4946094 L17.1267187,26.4360937 L17.0928125,26.3772656 L17.0589062,26.3184375 L17.0253906,26.2592187 L16.9921875,26.1996094 L16.959375,26.14 L16.926875,26.0803906 L16.8947656,26.0204687 L16.8630469,25.9601563 L16.8313281,25.8996094 L16.8003125,25.8389844 L16.7696875,25.7780469 L16.739375,25.7171094 L16.7094531,25.6557813 L16.6795312,25.5941406 L16.65,25.5325 L16.6207813,25.4704688 L16.6041406,25.4347656 L16.60375,25.4357031 Z M20.6217188,30.1382031 C20.2944531,29.9314062 19.9473438,30.3654688 20.2215625,30.6397656 C20.2371094,30.6542188 20.2529688,30.6675 20.2710156,30.6790625 L20.3150781,30.7075781 L20.3739063,30.7454688 L20.4327344,30.7829688 L20.4919531,30.8197656 L20.5511719,30.8561719 L20.6107812,30.8925781 L20.6707031,30.9286719 L20.730625,30.9640625 L20.7908594,30.9994531 L20.8514844,31.0340625 L20.9120312,31.0683594 L20.9729687,31.1022656 L21.0339062,31.1357813 L21.0952344,31.1689844 L21.1565625,31.2017969 L21.2185937,31.2342969 L21.280625,31.2664063 L21.3426562,31.298125 L21.4050781,31.3295313 L21.4678125,31.3605469 L21.5305469,31.3911719 L21.5932812,31.4210937 L21.6564062,31.4510156 L21.7198437,31.4802344 L21.7832812,31.5090625 L21.8471094,31.5375781 L21.9109375,31.5657031 L21.9751562,31.5934375 L22.039375,31.6208594 L22.1039062,31.6478906 L22.1684375,31.6745313 L22.2333594,31.7004688 L22.2986719,31.7260938 L22.3639844,31.7513281 L22.4296094,31.7761719 L22.4952344,31.8007031 L22.5608594,31.8244531 L22.626875,31.8482031 L22.6932812,31.87125 L22.7592969,31.8939844 L22.8260156,31.9163281 L22.8927344,31.9379687 L22.9598437,31.9596094 L23.0272656,31.9804687 L23.0946875,32.0010156 L23.1621094,32.02125 L23.2299219,32.0410938 L23.2775781,32.0548437 C23.6322656,32.1515625 23.8459375,31.6777344 23.5424219,31.4753125 C23.5125,31.456875 23.4860937,31.4435937 23.4525781,31.4341406 L23.4089062,31.4214844 L23.3454687,31.4030469 L23.2820312,31.3839062 L23.2189062,31.364375 L23.1557812,31.3444531 L23.0926562,31.3242187 L23.0299219,31.3036719 L22.9675,31.2828125 L22.9047656,31.2611719 L22.8423437,31.2395312 L22.7803125,31.2171875 L22.7182813,31.1944531 L22.6566406,31.1714063 L22.595,31.1479687 L22.5336719,31.1242188 L22.4723438,31.1000781 L22.4114062,31.0755469 L22.3504688,31.0507031 L22.2899219,31.0254687 L22.229375,30.9998438 L22.1690625,30.9739063 L22.10875,30.9472656 L22.0488281,30.920625 L21.9889063,30.8935938 L21.9292969,30.8658594 L21.8696875,30.8377344 L21.8100781,30.8092187 L21.7508594,30.7803906 L21.6920313,30.7511719 L21.6332031,30.7216406 L21.574375,30.6917187 L21.5158594,30.6614063 L21.458125,30.6310937 L21.4,30.6000781 L21.341875,30.5686719 L21.2844531,30.5369531 L21.2270313,30.5048437 L21.17,30.4723438 L21.1129688,30.4395312 L21.05625,30.4063281 L20.9995313,30.3728125 L20.9432031,30.3392969 L20.8872656,30.305 L20.8313281,30.2703906 L20.7757031,30.2353906 L20.7200781,30.2003906 L20.6648438,30.1646875 L20.6207813,30.1361719 L20.6217188,30.1382031 Z M26.5416406,31.8114844 C26.1436719,31.8288281 26.1169531,32.4177344 26.534375,32.455625 L26.5632031,32.4560156 L26.5736719,32.455625 L26.6465625,32.4527344 L26.7194531,32.4494531 L26.7923438,32.4458594 L26.8648438,32.441875 L26.9373438,32.4371875 L27.0095313,32.4321094 L27.0817188,32.4267188 L27.1539062,32.4205469 L27.2257031,32.4140625 L27.2975,32.4071875 L27.3692969,32.3996094 L27.4407031,32.3916406 L27.5125,32.3833594 L27.5839062,32.3742969 L27.655,32.3649219 L27.7260937,32.3551563 L27.7967969,32.3446875 L27.8675,32.3338281 L27.9382031,32.3226563 L28.0085156,32.3110937 L28.0788281,32.2988281 L28.1488281,32.2861719 L28.2188281,32.273125 L28.2884375,32.259375 L28.3584375,32.2453125 L28.4280469,32.2308594 L28.4973437,32.2160156 L28.5666406,32.2008594 L28.6359375,32.1849219 L28.7048437,32.1686719 L28.77375,32.1520313 L28.8422656,32.1350781 L28.9107812,32.1173438 L28.9789844,32.0992969 L29.0471875,32.0808594 L29.1153906,32.0617188 L29.1832031,32.0421875 L29.2510156,32.0222656 L29.3184375,32.0020313 L29.3858594,31.9814844 L29.4532812,31.960625 L29.5203906,31.9389844 L29.5871094,31.9173438 L29.6538281,31.895 L29.7198437,31.8722656 L29.78625,31.8492188 L29.8150781,31.83875 C30.1860156,31.6977344 30.0334375,31.1484375 29.6414844,31.2195313 C29.6259375,31.223125 29.6111719,31.2267969 29.5960156,31.2321875 L29.5711719,31.24125 L29.50875,31.2628906 L29.4460156,31.2845313 L29.3835938,31.3053906 L29.3208594,31.3259375 L29.2577344,31.3461719 L29.1946094,31.3660156 L29.1314844,31.3855469 L29.0680469,31.4046875 L29.0045313,31.423125 L28.9407031,31.4415625 L28.876875,31.4592969 L28.8126563,31.4766406 L28.7484375,31.4935937 L28.6839062,31.5102344 L28.619375,31.5264844 L28.5548437,31.5420313 L28.4899219,31.5571875 L28.425,31.5720313 L28.3600781,31.5864844 L28.2944531,31.6005469 L28.2291406,31.6142969 L28.1638281,31.6273438 L28.0982031,31.64 L28.0325781,31.6522656 L27.9665625,31.6642188 L27.9005469,31.6757813 L27.8345312,31.6869531 L27.768125,31.6974219 L27.7017187,31.7075781 L27.635,31.7173437 L27.5682812,31.7267187 L27.5011719,31.7357812 L27.4340625,31.7440625 L27.3669531,31.7520312 L27.2995312,31.7596094 L27.2321094,31.766875 L27.1642969,31.7733594 L27.0964844,31.7795313 L27.0290625,31.7853125 L26.96125,31.7907031 L26.8930469,31.7953906 L26.8248437,31.7997656 L26.7566406,31.80375 L26.6884375,31.8073438 L26.6199219,31.8102344 L26.5514062,31.8127344 L26.5408594,31.8129687 L26.5416406,31.8114844 Z M32.3407812,29.7546094 C32.0214062,30.0028906 32.3458594,30.4939844 32.7034375,30.286875 L32.7271875,30.270625 L32.729375,30.2691406 L32.7853125,30.2272656 L32.8405469,30.1850781 L32.8957812,30.1425 L32.9510156,30.0995312 L33.0058594,30.05625 L33.0603906,30.0125781 L33.1145312,29.9685156 L33.1683594,29.9241406 L33.2221875,29.879375 L33.275625,29.8342969 L33.3286719,29.7888281 L33.3814062,29.7429687 L33.4341406,29.6971094 L33.4864844,29.6505469 L33.5388281,29.6035937 L33.5904687,29.5566406 L33.6421094,29.509375 L33.6933594,29.4617187 L33.7442969,29.4136719 L33.7951562,29.3653125 L33.8457031,29.3165625 L33.8958594,29.2675 L33.9460156,29.2180469 L33.9954688,29.1685937 L34.0449219,29.11875 L34.094375,29.0682031 L34.143125,29.0176562 L34.1914844,28.9671094 L34.2398437,28.9158594 L34.2878906,28.8642187 L34.3355469,28.8125781 L34.3828125,28.760625 L34.4300781,28.7082812 L34.4770313,28.6555469 L34.5232031,28.6028125 L34.569375,28.5497656 L34.6152344,28.4963281 L34.6607031,28.4425 L34.7061719,28.3883594 L34.75125,28.3338281 L34.7960156,28.2789844 L34.8403906,28.2241406 L34.8844531,28.1689062 L34.928125,28.1132812 L34.9717969,28.0573437 L35.0147656,28.0014062 L35.0573438,27.9450781 L35.065625,27.9339062 C35.2446094,27.6860156 35.0252344,27.3579687 34.725,27.4294531 C34.6489063,27.4521875 34.5979688,27.4850781 34.5489063,27.5482031 L34.5424219,27.5564844 L34.5020313,27.6099219 L34.46125,27.6629687 L34.4204688,27.7157031 L34.3789844,27.7680469 L34.3371094,27.8203906 L34.2952344,27.8723437 L34.2530469,27.9239844 L34.2104688,27.9752344 L34.1675,28.0264844 L34.1245313,28.0774219 L34.08125,28.1279687 L34.0375781,28.1785156 L33.9935156,28.2286719 L33.9494531,28.2785156 L33.9050781,28.3279687 L33.86,28.3774219 L33.8149219,28.4264844 L33.7698437,28.4748437 L33.724375,28.5232031 L33.6785156,28.5711719 L33.6323438,28.6192187 L33.5861719,28.6664844 L33.5392188,28.71375 L33.4922656,28.7607031 L33.4453125,28.8072656 L33.3980469,28.8534375 L33.3503906,28.8992969 L33.3023437,28.9451562 L33.2539844,28.990625 L33.205625,29.0357031 L33.156875,29.0804687 L33.1078125,29.1252344 L33.05875,29.1692969 L33.0092969,29.2129687 L32.9594531,29.2566406 L32.9092969,29.2999219 L32.8591406,29.3428906 L32.8085938,29.3854687 L32.7580469,29.4276563 L32.7071094,29.4695312 L32.6558594,29.5110156 L32.6046094,29.5521875 L32.5529687,29.5933594 L32.5013281,29.6341406 L32.4489844,29.6745312 L32.3966406,29.7146094 L32.3442969,29.7542969 L32.3421094,29.7557031 L32.3407812,29.7546094 Z M36.0747656,24.8204687 C35.9470313,25.1557031 36.3782031,25.4238281 36.6232031,25.1434375 C36.6448438,25.1149219 36.6617969,25.0896094 36.6751563,25.0546875 L36.6925,25.0103125 L36.7188281,24.9421094 L36.7447656,24.8739062 L36.7703906,24.8057031 L36.795625,24.7371875 L36.8204688,24.6682812 L36.8446094,24.599375 L36.8683594,24.5304687 L36.8921094,24.4611719 L36.9155469,24.3915625 L36.9382812,24.3215625 L36.960625,24.2519531 L36.9825781,24.1819531 L37.0042187,24.1116406 L37.0254687,24.0409375 L37.0460156,23.9702344 L37.0665625,23.8991406 L37.0867187,23.8280469 L37.10625,23.7566406 L37.1253906,23.6852344 L37.1442187,23.6134375 L37.1626562,23.5416406 L37.1807031,23.4698438 L37.1984375,23.3976563 L37.2157812,23.3251563 L37.2327344,23.2526563 L37.2489844,23.1801563 L37.2649219,23.1072656 L37.2804687,23.034375 L37.295625,22.9611719 L37.3104687,22.8879688 L37.3249219,22.814375 L37.3389844,22.7407813 L37.3527344,22.6671875 L37.3657812,22.5932031 L37.3784375,22.5192188 L37.3907031,22.4449219 L37.4026562,22.370625 L37.4142187,22.2959375 L37.4253906,22.22125 L37.4358594,22.1461719 L37.4460156,22.0714844 L37.4557812,21.9960937 L37.4648437,21.9207031 L37.4724219,21.8572656 C37.5110156,21.4329687 36.8896875,21.3617969 36.8319531,21.7847656 L36.8250781,21.844375 L36.8164062,21.9157812 L36.8070312,21.9871875 L36.7972656,22.0585937 L36.7871094,22.1296875 L36.7766406,22.2003906 L36.7657812,22.2714844 L36.7546094,22.3425781 L36.7430469,22.4128906 L36.7310937,22.4832031 L36.7188281,22.5535156 L36.7061719,22.6235156 L36.693125,22.6935156 L36.679375,22.763125 L36.6653125,22.8327344 L36.6508594,22.9023437 L36.6360156,22.9716406 L36.6208594,23.0405469 L36.6053125,23.1094531 L36.589375,23.1783594 L36.573125,23.246875 L36.5564844,23.3153906 L36.5391406,23.3839062 L36.5217969,23.4521094 L36.50375,23.5199219 L36.4853125,23.5877344 L36.4664844,23.6555469 L36.4473437,23.7229687 L36.4278125,23.7903906 L36.4078906,23.8575 L36.3877344,23.9242187 L36.3671875,23.9909375 L36.3463281,24.0576562 L36.3250781,24.124375 L36.3034375,24.1903906 L36.2814844,24.2560156 L36.2591406,24.3220312 L36.2364062,24.3876562 L36.2136719,24.453125 L36.1902344,24.5180469 L36.1664844,24.5829687 L36.1423438,24.6478906 L36.1178125,24.7124219 L36.0929688,24.7766406 L36.075625,24.8210156 L36.0747656,24.8204687 Z M36.7885156,18.6504688 C36.8397656,19.0253906 37.4113281,19.0210937 37.4300781,18.6078906 C37.4300781,18.5909375 37.4289844,18.5754688 37.4267969,18.5588281 L37.425,18.5465625 L37.4138281,18.471875 L37.4022656,18.3971875 L37.3903125,18.3228906 L37.3780469,18.2485938 L37.3653906,18.1746094 L37.3523438,18.100625 L37.3385938,18.0270313 L37.3245313,17.9534375 L37.3100781,17.8798438 L37.2952344,17.8066406 L37.2800781,17.7334375 L37.2645313,17.6605469 L37.2485937,17.5876563 L37.2323437,17.5151563 L37.2153125,17.4426563 L37.1979687,17.3701563 L37.1802344,17.2979688 L37.1621875,17.2261719 L37.14375,17.154375 L37.1249219,17.0825781 L37.1057812,17.0111719 L37.08625,16.9397656 L37.0660938,16.8686719 L37.0455469,16.7975781 L37.025,16.726875 L37.00375,16.6561719 L36.9821094,16.5858594 L36.9601563,16.5158594 L36.9378125,16.44625 L36.9150781,16.37625 L36.8916406,16.3066406 L36.8678906,16.2373438 L36.8441406,16.1684375 L36.82,16.0995313 L36.7951563,16.030625 L36.7699219,15.9621094 L36.7442969,15.8939063 L36.7183594,15.8257031 L36.6920313,15.7575 L36.6653906,15.6896875 L36.6383594,15.621875 L36.6109375,15.5544531 L36.5832031,15.4873438 L36.5550781,15.4202344 L36.5391406,15.3830469 C36.3883594,15.0316406 35.8405469,15.1921875 35.9310938,15.5916406 C35.9357813,15.6078906 35.9404688,15.6222656 35.9470313,15.6382031 L35.9614844,15.6721094 L35.988125,15.7355469 L36.0144531,15.799375 L36.0403906,15.8632031 L36.0660156,15.9270313 L36.09125,15.99125 L36.1160938,16.0554688 L36.140625,16.12 L36.1647656,16.1849219 L36.1885156,16.2498438 L36.2119531,16.3147656 L36.235,16.3800781 L36.2577344,16.4457031 L36.2800781,16.5117188 L36.3020313,16.5773438 L36.3236719,16.6433594 L36.3449219,16.7100781 L36.3657813,16.7767969 L36.3863281,16.8435156 L36.4064844,16.9102344 L36.4264063,16.9773438 L36.4459375,17.0447656 L36.4650781,17.1121875 L36.4839063,17.18 L36.5023438,17.2478125 L36.5203906,17.315625 L36.5377344,17.3838281 L36.5550781,17.4523438 L36.5717188,17.5208594 L36.5879688,17.589375 L36.6039063,17.6582813 L36.6194531,17.7271875 L36.6346094,17.7960938 L36.6494531,17.8653906 L36.6639063,17.935 L36.6780469,18.0046094 L36.6917969,18.0742188 L36.7048438,18.1442188 L36.7175,18.2142188 L36.7297656,18.2845313 L36.7417188,18.3548438 L36.7532813,18.4251563 L36.7644531,18.49625 L36.7753125,18.5673438 L36.7857812,18.6380469 L36.7875781,18.6503125 L36.7885156,18.6504688 Z M34.3430469,12.953125 C34.5574219,13.2288281 35.0217969,12.9967969 34.8958594,12.6374219 C34.8821094,12.6035156 34.868125,12.5785938 34.8457031,12.5500781 L34.8388281,12.5414063 L34.7944531,12.4865625 L34.7496875,12.4317188 L34.7046094,12.3771875 L34.6591406,12.3230469 L34.6136719,12.2692188 L34.5678125,12.2157813 L34.5216406,12.1627344 L34.4754688,12.11 L34.4285156,12.0572656 L34.38125,12.0049219 L34.3339844,11.9529688 L34.2863281,11.9013281 L34.2383594,11.8496875 L34.19,11.7984375 L34.1416406,11.7478906 L34.0928906,11.6973438 L34.0434375,11.6467969 L33.9939844,11.5969531 L33.9445312,11.5475 L33.894375,11.4980469 L33.8442187,11.4489844 L33.7936719,11.4002344 L33.7427344,11.351875 L33.691875,11.3039063 L33.640625,11.25625 L33.5889844,11.2089844 L33.5373437,11.1620313 L33.485,11.1150781 L33.4326562,11.0685156 L33.3799219,11.0226563 L33.3271875,10.9767969 L33.2741406,10.9313281 L33.2207031,10.88625 L33.166875,10.8414844 L33.1130469,10.7971094 L33.0589062,10.7530469 L33.004375,10.709375 L32.9495312,10.6660938 L32.8942969,10.623125 L32.8390625,10.5805469 L32.7838281,10.5383594 L32.7278906,10.4964844 L32.6719531,10.4546094 L32.615625,10.4134375 L32.5592969,10.3726563 L32.5025781,10.331875 L32.4455469,10.2914844 L32.4364844,10.2853125 C32.12,10.06875 31.75375,10.4892188 32.0210937,10.7742969 C32.0366406,10.7898438 32.0514062,10.8028125 32.0694531,10.8150781 L32.0752344,10.8190625 L32.1290625,10.8569531 L32.1825,10.8952344 L32.2359375,10.9338281 L32.2889844,10.9728125 L32.3417187,11.0121094 L32.3940625,11.0517969 L32.4464063,11.091875 L32.49875,11.1322656 L32.5503906,11.1730469 L32.6020313,11.2142188 L32.6532813,11.2553906 L32.7045313,11.296875 L32.7553906,11.33875 L32.8059375,11.3809375 L32.8564844,11.4235156 L32.9066406,11.4664844 L32.9567969,11.5097656 L33.0066406,11.5534375 L33.0560938,11.5971094 L33.1051563,11.6411719 L33.1542187,11.6859375 L33.2029687,11.7307031 L33.2513281,11.7757813 L33.2996875,11.82125 L33.3476562,11.8671094 L33.3953125,11.9129688 L33.4425781,11.9591406 L33.4895313,12.0057031 L33.5364844,12.0526563 L33.5834375,12.0999219 L33.6296094,12.1471875 L33.6757813,12.1952344 L33.7216406,12.2432031 L33.7671094,12.2915625 L33.8121875,12.3399219 L33.8572656,12.3889844 L33.9023438,12.4384375 L33.9467188,12.4878906 L33.9907813,12.5377344 L34.0348438,12.5878906 L34.0785156,12.6384375 L34.1217969,12.6889844 L34.1647656,12.7399219 L34.2077344,12.7911719 L34.2503125,12.8424219 L34.2925,12.8940625 L34.334375,12.9460156 L34.34125,12.9546875 L34.3430469,12.953125 Z" id="Shape" fill="#FEFEFE"></path>
                        </g>
                    </g>
                </g>
            </g>
        </g>
    </g>
</svg>