<?xml version="1.0" encoding="UTF-8"?>
<svg width="40px" height="41px" viewBox="0 0 40 41" version="1.1" xmlns="http://www.w3.org/2000/svg" xmlns:xlink="http://www.w3.org/1999/xlink">
    <!-- Generator: Sketch 48.2 (47327) - http://www.bohemiancoding.com/sketch -->
    <title>pain</title>
    <desc>Created with Sketch.</desc>
    <defs></defs>
    <g id="Datos_Clínicos" stroke="none" stroke-width="1" fill="none" fill-rule="evenodd" transform="translate(-137.000000, -1805.000000)">
        <g id="datos-personales-copy-2" transform="translate(99.000000, 1519.000000)" fill-rule="nonzero">
            <g id="datos-personales" transform="translate(37.000000, 40.000000)">
                <g id="Group-5-Copy-4" transform="translate(1.000000, 246.000000)">
                    <g id="pain">
                        <circle id="Oval" fill="#21D0C3" cx="20" cy="20" r="20"></circle>
                        <path d="M14.158125,31.3689844 C14.158125,31.3689844 12.6485937,35.0346875 12.5857031,38.5792969 C14.8785937,39.4951562 17.3801562,40 20,40 C22.2340625,40 24.3821875,39.6323437 26.3883594,38.9564844 C26.3608594,38.7955469 26.334375,38.6528906 26.3092187,38.5335156 C25.8376563,36.2930469 25.6016406,34.9960156 25.6016406,34.9960156 C25.6016406,34.9960156 25.9160156,32.9124219 25.7785937,31.9102344 C25.6409375,30.9079688 25.660625,28.4315625 26.0930469,27.2915625 C26.5253906,26.1517188 27.1540625,22.9679688 27.3900781,20.5309375 C27.6258594,18.0939063 28.2153906,16.4428125 28.8838281,15.4601563 C29.5521094,14.4777344 24.6257812,12.8489844 23.9970312,13.0063281 C23.3680469,13.1634375 22.0814844,12.5401563 22.0814844,12.5401563 L21.3797656,11.9963281 L20.6263281,9.56679688 C20.6263281,9.56679688 20.9827344,9.10695313 21.2748437,8.4309375 C21.2748437,8.4309375 21.6739062,8.374375 21.8210937,8.14851563 C21.9685156,7.92242188 22.3224219,6.536875 22.2634375,6.08492188 C22.2338281,5.85765625 21.9682031,5.88390625 21.71125,5.9659375 C21.7182031,4.62507813 21.4346875,2.4059375 19.586875,1.68273438 C16.874375,0.6215625 15.4491406,2.58046875 15.4491406,2.58046875 C15.4491406,2.58046875 14.6532031,3.69109375 14.7907812,5.0275 C14.9282812,6.3640625 14.9676562,6.756875 14.9676562,6.756875 C14.9676562,6.756875 14.3888281,6.41757812 14.3396875,7.00726562 C14.2905469,7.59695312 15.0435937,8.79851562 15.1025781,8.89679687 C15.1615625,8.99507812 15.5004687,8.8328125 15.5004687,8.8328125 C15.5004687,8.8328125 15.7807812,9.6778125 15.9378906,9.87445312 C16.0951562,10.0708594 16.1785937,10.1103125 16.1785937,10.1103125 C16.1785937,10.1103125 16.7782031,12.2178906 16.7782031,12.4342187 C16.7782031,12.6503906 14.5376562,14.1045312 14.0658594,14.2225781 C13.834375,14.2805469 12.9442969,14.2816406 11.8889062,14.5466406 C10.8334375,14.8117187 11.4203125,15.8538281 11.4203125,15.8538281 C11.4203125,15.8538281 11.8085156,18.5757812 12.260625,19.6174219 C12.7126562,20.6590625 13.8917969,23.4300781 14.7958594,24.5503906 C15.6997656,25.6707031 15.2786719,27.8267969 15.2786719,27.8267969 L14.158125,31.3689844 Z" id="Shape" fill="#FF5B62"></path>
                        <g id="Group" transform="translate(14.296875, 12.500000)" fill="#ED4C54">
                            <path d="M5.0196875,27.4884375 L5.02703125,27.4885937 C4.2475,26.7901562 4.37609375,24.6846094 4.55796875,24.2375781 C4.08453125,25.1629688 4.14117187,26.4022656 4.52523437,27.1875 C4.56835937,27.275625 4.48523437,27.3824219 4.39546875,27.4575781 C4.60273437,27.4711719 4.81070312,27.4814062 5.0196875,27.4884375 Z" id="Shape"></path>
                            <path d="M4.1925,4.64859375 C4.1925,4.64859375 3.44507812,4.25921875 3.209375,4.42140625 C2.97382812,4.58375 3.13148437,4.82171875 3.44601562,4.93539063 C3.76078125,5.04921875 3.88390625,5.139375 4.2084375,5.32921875 C4.40210938,5.4425 4.744375,5.41335938 4.9375,5.29953125 C5.26117187,5.10882813 5.27632812,5.04203125 5.590625,4.92726563 C5.90484375,4.81234375 6.06140625,4.57421875 5.82546875,4.41265625 C5.58914062,4.25109375 4.87742187,4.61398438 4.87742187,4.61398438 C4.6815625,4.69554687 4.38859375,4.71835938 4.1925,4.64859375 Z M3.29507812,0.1246875 C3.11765625,0.2584375 3.27367187,0.44109375 3.52804687,0.500390625 C3.78234375,0.55953125 3.8865625,0.618203125 4.15578125,0.735234375 C4.31640625,0.805 4.51242187,0.8528125 4.650625,0.747265625 C4.88242188,0.57015625 5.06015625,0.547421875 5.29195312,0.43 C5.53210938,0.3084375 5.52789063,0.1940625 5.44445312,0.119375 C5.35882812,0.042890625 5.18554688,0.01046875 4.78617187,0.278515625 C4.30257813,0.609609375 3.5271875,-0.05015625 3.29507812,0.1246875 Z M4.10273437,1.18703125 C4.10273437,1.18703125 3.42390625,0.84234375 3.21273437,0.99078125 C3.00125,1.13945312 3.14617187,1.35296875 3.43140625,1.45289062 C3.71695312,1.55265625 3.8290625,1.63320312 4.1240625,1.80179687 C4.3,1.90203125 4.60898438,1.8728125 4.78234375,1.76835937 C5.07320313,1.59296875 5.08578125,1.5325 5.36867187,1.4259375 C5.65140625,1.31953125 5.79078125,1.1028125 5.57585937,0.9590625 C5.36101562,0.81515625 4.72148437,1.1496875 4.72148437,1.1496875 C4.5453125,1.22484375 4.28070313,1.24804687 4.10273437,1.18703125 Z M4.15289063,2.24867187 C4.15289063,2.24867187 3.40585938,1.85953125 3.17007813,2.02195313 C2.93460938,2.18429688 3.0921875,2.421875 3.406875,2.53546875 C3.72132813,2.64945313 3.84476563,2.73984375 4.16929688,2.9296875 C4.36257813,3.04289063 4.7053125,3.01382813 4.89828125,2.89976562 C5.2221875,2.7090625 5.23703125,2.64242187 5.55125,2.52757812 C5.86554688,2.41273437 6.0225,2.17421875 5.78625,2.01296875 C5.55007813,1.85132813 4.83828125,2.21421875 4.83828125,2.21421875 C4.6421875,2.29601563 4.34921875,2.31859375 4.15289063,2.24867187 Z M4.21203125,3.5059375 C4.21203125,3.5059375 3.46445312,3.11671875 3.22921875,3.2790625 C2.9934375,3.44125 3.15109375,3.67882812 3.46578125,3.79273437 C3.78039062,3.90648437 3.90359375,3.996875 4.22820312,4.18671875 C4.42164062,4.29976562 4.76414062,4.27078125 4.9571875,4.156875 C5.28109375,3.96617187 5.29609375,3.89929687 5.61015625,3.78453125 C5.92445312,3.6696875 6.08109375,3.43140625 5.84515625,3.27015625 C5.60875,3.10859375 4.89710937,3.47140625 4.89710937,3.47140625 C4.70117188,3.55289062 4.408125,3.57554687 4.21203125,3.5059375 Z M5.73546875,16.6211719 C5.73546875,16.6211719 5.00914062,16.1960156 4.76539062,16.3467187 C4.52179687,16.4973437 4.66679687,16.7424219 4.97507812,16.8714844 C5.88757812,17.2524219 5.966875,17.4079687 6.07164062,17.3947656 C6.16898437,17.3825781 6.28835937,17.2248437 7.11726562,16.9675781 C7.4371875,16.8682812 7.6059375,16.6376562 7.37835937,16.465 C7.15085937,16.2921875 6.42148437,16.6201562 6.42148437,16.6201562 C6.22171875,16.6919531 5.92773438,16.7004687 5.73546875,16.6211719 Z M5.7453125,15.5260937 C5.7453125,15.5260937 5.01898438,15.1010938 4.77546875,15.2515625 C4.53148438,15.4021875 4.67664063,15.6475781 4.98507813,15.77625 C5.29320312,15.9053125 5.41171875,16.0014062 5.7259375,16.2067187 C5.91328125,16.3291406 6.25703125,16.3167187 6.45570313,16.2124219 C6.78921875,16.0375781 6.80734375,15.9714844 7.1271875,15.8724219 C7.44703125,15.7728125 7.61585938,15.5423437 7.38828125,15.3697656 C7.16085938,15.1971875 6.43125,15.5249219 6.43125,15.5249219 C6.23132813,15.596875 5.9378125,15.6053125 5.7453125,15.5260937 Z M5.77671875,14.3142969 C5.77671875,14.3142969 4.97171875,14.0542969 4.768125,14.2529687 C4.56460938,14.4517969 4.76164063,14.6600781 5.09171875,14.7201562 C5.42171875,14.7803906 5.55898437,14.8489063 5.91210938,14.9822656 C6.1228125,15.0617187 6.45515625,14.9767187 6.6253125,14.8324219 C6.91078125,14.5908594 6.91367188,14.5227344 7.20320313,14.3577344 C7.49273438,14.1925781 7.60515625,13.931875 7.34398438,13.811875 C7.08273438,13.6917969 6.4453125,14.1671875 6.4453125,14.1671875 C6.266875,14.2794531 5.9821875,14.350625 5.77671875,14.3142969 Z M5.47,13.0475 C5.47,13.0475 4.7225,12.6583594 4.48695312,12.8203906 C4.25140625,12.9829688 4.40898438,13.2207031 4.72359375,13.334375 C5.03828125,13.4482031 5.16148437,13.5382813 5.48601563,13.7282031 C5.67945313,13.8415625 6.02171875,13.8123438 6.215,13.6985156 C6.53890625,13.5078906 6.55367188,13.4410156 6.868125,13.3260938 C7.18234375,13.2114844 7.33898438,12.973125 7.10289063,12.8117188 C6.8665625,12.6501563 6.155,13.0132031 6.155,13.0132031 C5.9590625,13.0944531 5.6659375,13.1173438 5.47,13.0475 Z M5.11609375,11.87625 C5.11609375,11.87625 4.36882812,11.4871094 4.13335937,11.6491406 C3.8975,11.8114844 4.05507812,12.0492969 4.36992187,12.1629688 C4.68453125,12.2769531 4.80773437,12.3671094 5.13234375,12.5570313 C5.325625,12.6702344 5.66828125,12.6411719 5.86117187,12.5271875 C6.18515625,12.3364063 6.2,12.2696094 6.51429687,12.1548437 C6.82851562,12.0399219 6.9853125,11.8017969 6.7490625,11.6403125 C6.51304687,11.4786719 5.80140625,11.8415625 5.80140625,11.8415625 C5.6053125,11.923125 5.31210938,11.9460156 5.11609375,11.87625 Z M4.85078125,10.6192969 C4.85078125,10.6192969 4.10351562,10.2301563 3.8678125,10.3922656 C3.6321875,10.5546875 3.7896875,10.7924219 4.10460938,10.9061719 C4.4190625,11.02 4.54234375,11.1102344 4.86695313,11.3001563 C5.0603125,11.4132031 5.40273438,11.3842188 5.59585938,11.2702344 C5.91976563,11.0795313 5.93460938,11.0128125 6.24882813,10.8979688 C6.56320313,10.7832031 6.71984375,10.5448438 6.48382812,10.3833594 C6.24773438,10.2217969 5.53601562,10.5848438 5.53601562,10.5848438 C5.33992187,10.6664062 5.04703125,10.68875 4.85078125,10.6192969 Z M4.66421875,9.3621875 C4.66421875,9.3621875 3.916875,8.97304687 3.68117187,9.13507813 C3.445625,9.2975 3.60304687,9.5353125 3.9178125,9.6490625 C4.23242187,9.7628125 4.35570312,9.853125 4.68015625,10.0428125 C4.87359375,10.1560938 5.21625,10.1271875 5.409375,10.0132031 C5.73328125,9.8225 5.74804688,9.75570313 6.06234375,9.6409375 C6.37664063,9.52601563 6.53320312,9.28757813 6.29734375,9.12632813 C6.06101563,8.9646875 5.34929688,9.32773438 5.34929688,9.32773438 C5.15328125,9.40929688 4.8603125,9.43195312 4.66421875,9.3621875 Z M4.48726563,8.14335938 C4.48726563,8.14335938 3.73984375,7.754375 3.50414063,7.91648438 C3.26875,8.07875 3.42625,8.3165625 3.7409375,8.43023438 C4.055625,8.5440625 4.17882812,8.63414063 4.5034375,8.8240625 C4.69679687,8.93734375 5.03945312,8.90820313 5.23242188,8.79445313 C5.55632812,8.60367188 5.57109375,8.536875 5.88539062,8.4221875 C6.1996875,8.30734375 6.35648437,8.06890625 6.1203125,7.90757813 C5.88414062,7.7459375 5.1725,8.10898438 5.1725,8.10898438 C4.97632813,8.19039062 4.68335938,8.213125 4.48726563,8.14335938 Z M4.42835937,6.98140625 C4.42835937,6.98140625 3.6809375,6.59242187 3.44539062,6.75460937 C3.20976563,6.91679687 3.3675,7.1546875 3.68203125,7.26835937 C3.9965625,7.38203125 4.11976563,7.47242187 4.444375,7.6625 C4.63804688,7.7753125 4.9803125,7.74632812 5.17335937,7.63257813 C5.49726562,7.44179687 5.51226562,7.37484375 5.82640625,7.26023438 C6.14078125,7.14539063 6.29742187,6.90710937 6.06132812,6.74570313 C5.82523437,6.5840625 5.11335937,6.94703125 5.11335937,6.94703125 C4.91757812,7.02851563 4.62445313,7.05117187 4.42835937,6.98140625 Z M4.24164062,5.82 C4.24164062,5.82 3.4940625,5.43085938 3.25882812,5.59289063 C3.02328125,5.75515625 3.18070312,5.99304688 3.49539062,6.10664063 C3.81,6.22046875 3.93328125,6.310625 4.25765625,6.500625 C4.45132812,6.61382813 4.79382812,6.5846875 4.98671875,6.4709375 C5.31078125,6.28023438 5.32554687,6.21335938 5.63976562,6.09851563 C5.95398438,5.98375 6.110625,5.74539063 5.8746875,5.58421875 C5.63867187,5.42257813 4.926875,5.78554688 4.926875,5.78554688 C4.73078125,5.86671875 4.43789062,5.8896875 4.24164062,5.82 Z" id="Shape"></path>
                            <path d="M0.0190625,19.0135937 L2.08265625,20.2124219 L4.53929688,20.8020312 C4.53929688,20.8020312 4.53929688,20.5071875 4.38203125,20.3402344 C4.22484375,20.1732031 2.40695313,19.3772656 2.40695313,19.3772656 L1.846875,18.9842187 L3.29132813,19.5149219 L5.75804687,19.7803125 C5.75804687,19.7803125 5.93476562,19.5838281 5.80703125,19.3771875 C5.679375,19.1710156 3.910625,18.8467187 3.910625,18.8467187 L2.25960937,18.2078906 L2.07289062,17.9719531 L3.73351562,18.5323437 C3.73351562,18.5323437 5.28625,18.7384375 5.43367187,18.6794531 C5.58101563,18.6204687 5.453125,18.2767187 5.453125,18.2767187 L3.635,17.6085156 L2.30335938,17.1025 L2.30335938,16.9107812 L3.06507813,17.18125 L4.78984375,17.416875 C4.78984375,17.416875 5.07476563,17.3186719 4.86828125,17.0434375 C4.66195313,16.7682813 3.0159375,16.3459375 3.0159375,16.3459375 C3.0159375,16.3459375 2.80953125,16.1592188 1.72867187,15.5989844 C1.498125,15.4794531 1.24195312,15.3914063 0.98171875,15.3265625 L0.0190625,19.0135937 Z" id="Shape"></path>
                        </g>
                        <g id="Group" transform="translate(2.343750, 2.968750)" fill="#FF5B62">
                            <path d="M9.48703125,11.5926562 C8.40570313,11.8725781 7.1625,12.4327344 6.27773438,13.6122656 C6.27773438,13.6122656 3.13328125,15.4595313 1.75726562,17.8967187 C0.381484375,20.3339063 -0.48328125,21.1198437 0.4209375,22.2991406 C1.32492187,23.4785156 8.77351562,25.7976563 9.24515625,26.0728125 C9.65617188,26.3125 10.3171094,27.0036719 10.4802344,27.1774219 L11.9720313,28.545 L12.9348438,24.858125 C11.9752344,24.6192187 10.9596875,24.6982813 10.9596875,24.6982813 C10.9596875,24.6982813 10.7042187,24.7376563 9.74132813,23.9710156 C8.778125,23.2046094 3.963125,20.4924219 3.963125,20.4924219 C3.963125,20.4924219 4.92632812,20.0402344 5.86953125,19.4704687 C6.81289063,18.900625 9.91671875,16.6489844 9.91671875,16.6489844 C9.91671875,16.6489844 10.5276563,15.5202344 11.1171875,13.9676562 C11.7071875,12.4146094 9.48703125,11.5926562 9.48703125,11.5926562 Z" id="Shape"></path>
                            <path d="M25.3092187,15.7591406 C25.6061719,14.2829687 26.0519531,13.2092188 26.5400781,12.4916406 C27.2083594,11.5092188 30.9621094,8.44304688 31.5123437,6.51695313 C32.0628125,4.59117188 33.025625,3.21515625 33.2614844,2.52734375 C33.4974219,1.839375 33.5367188,0.070625 31.9645313,0.03140625 C30.3920313,-0.00796875 21.6069531,3.2740625 21.6069531,3.2740625 L20.3688281,3.58867188 C20.3688281,3.58867188 19.6767969,3.67929688 19.3713281,3.97359375 L19.2972656,4.06015625 L18.1270312,5.38625 L16.5740625,6.23 C16.5740625,6.23 15.7095312,6.29015625 15.7488281,6.58507813 C15.788125,6.88 16.7249219,6.73367188 16.7249219,6.73367188 L18.0532813,6.28515625 L16.8314844,6.8965625 C16.8314844,6.8965625 15.4638281,7.1059375 15.4246094,7.21382813 C15.3853906,7.32171875 15.40625,7.65664063 15.6126562,7.63695313 C15.8190625,7.61726563 17.5176563,7.41054688 17.5176563,7.41054688 L18.5691406,7.115625 L17.31125,7.75429688 C17.31125,7.75429688 15.2771094,7.98039063 15.2279688,8.19664063 C15.1788281,8.41289063 15.2279688,8.61914063 15.3657031,8.66828125 C15.5032031,8.71742188 17.5471094,8.56007813 17.5471094,8.56007813 L19.1196094,7.93132813 L17.7922656,8.7240625 L15.9453906,9.06140625 C15.9453906,9.06140625 15.8630469,9.5109375 16.1775,9.5696875 C16.4919531,9.6284375 18.1489844,9.41867188 18.1489844,9.41867188 L20.0979688,8.5840625 C20.0979688,8.5840625 21.3980469,7.13703125 21.5060156,6.576875 C21.6139844,6.01671875 21.7182031,5.90140625 21.9835156,5.665625 C22.2488281,5.42984375 22.3028906,5.55257813 22.3028906,5.55257813 L27.461875,4.36359375 C27.461875,4.36359375 26.8623438,5.0121875 26.5772656,5.58210938 C26.2923438,6.15210938 23.4916406,7.03617188 22.9413281,8.2940625 C21.9801563,10.4907031 21.3452344,10.1616406 19.7376563,9.57164063 C19.7376563,9.57164063 18.4182813,10.6947656 18.4071875,11.1382031 C18.3497656,13.3966406 19.4957031,19.4235156 19.6039063,19.4885156 C19.7335156,19.5661719 23.208125,20.8544531 25.3092187,15.7591406 Z" id="Shape"></path>
                        </g>
                        <path d="M22.2242188,6.67101562 C22.0396094,6.73117187 21.8432813,6.81867187 21.715,6.94226562 L21.6409375,7.02882812 L20.4707031,8.35492187 L19.0440625,9.13 C18.9213281,9.19664062 18.2014063,9.21679688 18.0376563,9.370625 C17.5725,9.8075 18.9728125,9.7346875 19.1171094,9.6859375 L20.3967969,9.25398437 L19.175,9.86539062 C19.175,9.86539062 17.7616406,10.1254687 17.7224219,10.2334375 C17.6832031,10.3414062 17.6721094,10.61375 17.8785156,10.5941406 C18.0849219,10.5745312 19.445,10.5417969 19.445,10.5417969 L20.7967969,10.1170312 L20.6260938,9.56703125 C20.6260938,9.56703125 20.9825,9.1071875 21.2746094,8.43117187 C21.2746094,8.43117187 21.6736719,8.37460937 21.8208594,8.14875 C21.9251563,7.98882812 22.1325,7.25023437 22.2242188,6.67101562 Z M20.8039063,10.1397656 L19.4621875,10.814375 C19.4621875,10.814375 17.6208594,10.9491406 17.5717187,11.1653125 C17.5225781,11.3815625 17.6327344,11.4864062 17.7703906,11.5355469 C17.9079688,11.5846875 19.7335156,11.5035156 19.7335156,11.5035156 L21.0864844,11.0507031 L20.8039063,10.1397656 Z M21.1059375,11.1135156 L20.1359375,11.6928125 L18.4072656,12.0085937 C18.3319531,12.0223437 18.2785156,12.0870312 18.279375,12.1635937 C18.2807813,12.3010156 18.3190625,12.5007812 18.5211719,12.5385156 C18.8355469,12.5971875 20.4174219,12.3042187 20.4174219,12.3042187 L21.3889844,12.0036719 L21.3796875,11.9964844 L21.1059375,11.1135156 Z" id="Shape" fill="#ED4C54"></path>
                        <path d="M16.6517188,11.3948438 C17.6685156,11.3948438 18.4926562,12.2189844 18.4926562,13.2357812 C18.4926562,14.2525781 17.6684375,15.0767187 16.6517188,15.0767187 C15.6349219,15.0767187 14.8107813,14.2525 14.8107813,13.2357812 C14.8107813,12.2191406 15.6349219,11.3948438 16.6517188,11.3948438 Z M16.6517188,9.76523438 C17.609375,9.76523438 18.4766406,10.1538281 19.1047656,10.7817969 L19.1058594,10.7828906 C19.7336719,11.4109375 20.1224219,12.2785156 20.1224219,13.2359375 C20.1224219,14.1935938 19.7338281,15.0608594 19.1058594,15.6889844 L19.1047656,15.6900781 C18.4767188,16.3178906 17.609375,16.7066406 16.6517188,16.7066406 C15.694375,16.7066406 14.8267969,16.3180469 14.1986719,15.6900781 L14.1975781,15.6889844 C13.5697656,15.0609375 13.1810156,14.1935938 13.1810156,13.2359375 C13.1810156,12.2785938 13.5696094,11.4110156 14.1975781,10.7828906 L14.1986719,10.7817969 C14.8267188,10.1538281 15.694375,9.76523438 16.6517188,9.76523438 Z M18.728125,11.1594531 C18.1969531,10.62875 17.4628906,10.3003125 16.6517969,10.3003125 C15.8407031,10.3003125 15.1066406,10.62875 14.5754688,11.1594531 C14.0447656,11.690625 13.7163281,12.4247656 13.7163281,13.2357813 C13.7163281,14.0469531 14.0447656,14.7809375 14.5754688,15.3121094 C15.1066406,15.8428125 15.8407813,16.17125 16.6517969,16.17125 C17.4629688,16.17125 18.1969531,15.8428125 18.728125,15.3121094 C19.2588281,14.7809375 19.5872656,14.046875 19.5872656,13.2357813 C19.5871875,12.4247656 19.2588281,11.6907031 18.728125,11.1594531 Z" id="Shape" fill="#FEFEFE"></path>
                        <path d="M11.98,18.1228125 C11.9278906,18.5464062 12.0596875,19.6048438 11.8771094,19.8945312 C12.3442969,20.5801562 12.8885938,21.0770313 13.3484375,22.0327344 C12.8540625,20.9492187 12.3651563,19.8340625 11.98,18.1228125 Z" id="Shape" fill="#ED4C54"></path>
                        <path d="M21.6408594,30.4353125 C22.3407813,30.4353125 22.908125,31.0027344 22.908125,31.7025781 C22.908125,32.4024219 22.3407031,32.9698438 21.6408594,32.9698438 C20.9410156,32.9698438 20.3735938,32.4024219 20.3735938,31.7025781 C20.3735938,31.0027344 20.9409375,30.4353125 21.6408594,30.4353125 Z M21.6408594,29.3135156 C22.3000781,29.3135156 22.8971094,29.5810156 23.3294531,30.0132813 C23.7790625,30.4628906 24.0298437,31.0666406 24.0298437,31.7025781 C24.0298437,32.3617969 23.7623437,32.9588281 23.3300781,33.3911719 C22.8803906,33.8408594 22.2767969,34.0915625 21.6407812,34.0915625 C20.9817188,34.0915625 20.3845313,33.8240625 19.9521875,33.391875 C19.5025,32.9421875 19.2517969,32.3385938 19.2517969,31.7025781 C19.2517969,31.0435156 19.5192969,30.4463281 19.9514844,30.0139844 C20.4011719,29.564375 21.0049219,29.3135156 21.6408594,29.3135156 Z M23.0701563,30.2732813 C22.7045313,29.9079688 22.1992969,29.681875 21.6409375,29.681875 C21.0826563,29.681875 20.5773438,29.9079688 20.2117188,30.2732813 C19.8464063,30.6389063 19.6203125,31.1442969 19.6203125,31.7025 C19.6203125,32.2608594 19.8464063,32.7660938 20.2117188,33.1317188 C20.5773438,33.4970313 21.0826563,33.723125 21.6409375,33.723125 C22.1992969,33.723125 22.7045313,33.4970313 23.0701563,33.1317188 C23.4354688,32.7660938 23.6615625,32.2608594 23.6615625,31.7025 C23.6614844,31.1442969 23.4354688,30.6389063 23.0701563,30.2732813 Z" id="Shape" fill="#FEFEFE"></path>
                        <path d="M29.805625,7.33234375 C30.0801563,7.3465625 31.2884375,7.08328125 32.0314063,6.56742188 L32.7623437,6.05984375 C31.8014844,7.0709375 30.9642188,7.48742188 29.5157031,7.67117188 C29.6796094,7.46859375 29.805625,7.33234375 29.805625,7.33234375 Z" id="Shape" fill="#ED4C54"></path>
                    </g>
                </g>
            </g>
        </g>
    </g>
</svg>