<?xml version="1.0" encoding="UTF-8"?>
<svg width="47px" height="40px" viewBox="0 0 47 40" version="1.1" xmlns="http://www.w3.org/2000/svg" xmlns:xlink="http://www.w3.org/1999/xlink">
    <!-- Generator: Sketch 48.2 (47327) - http://www.bohemiancoding.com/sketch -->
    <title>races</title>
    <desc>Created with Sketch.</desc>
    <defs></defs>
    <g id="Precalificación_individual" stroke="none" stroke-width="1" fill="none" fill-rule="evenodd" transform="translate(-137.000000, -1544.000000)">
        <g id="domicilio-copy-2" transform="translate(99.000000, 1437.000000)" fill-rule="nonzero">
            <g id="Group-5-Copy" transform="translate(38.000000, 107.000000)">
                <g id="races">
                    <path d="M38.8157466,39.9719457 L7.51909502,39.9719457 C7.30995475,39.9719457 7.10950226,39.8900452 6.95963801,39.7441629 C2.47149321,35.3472398 0,29.4703167 0,23.1954751 C0,10.421267 10.3932127,0.0280542986 23.1674208,0.0280542986 C35.941629,0.0280542986 46.3348416,10.421267 46.3348416,23.1954751 C46.3348416,29.4702262 43.8633484,35.3471493 39.3751131,39.7440724 C39.2253394,39.8900452 39.0247964,39.9719457 38.8157466,39.9719457 Z" id="Shape" fill="#4E6E82"></path>
                    <circle id="Oval" fill="#B7B7B7" cx="23.1674208" cy="23.1954751" r="10.3854299"></circle>
                    <path d="M38.8157466,39.9719457 L7.51909502,39.9719457 C7.30995475,39.9719457 7.10950226,39.8900452 6.95963801,39.7441629 C2.47149321,35.3472398 0,29.4703167 0,23.1954751 C0,10.421267 10.3932127,0.0280542986 23.1674208,0.0280542986 C35.941629,0.0280542986 46.3348416,10.421267 46.3348416,23.1954751 C46.3348416,29.4702262 43.8633484,35.3471493 39.3751131,39.7440724 C39.2253394,39.8900452 39.0247964,39.9719457 38.8157466,39.9719457 Z M7.84832579,38.3741176 L38.4865158,38.3741176 C42.519819,34.3071493 44.7370136,28.9295928 44.7370136,23.1954751 C44.7370136,11.301991 35.0608145,1.62579186 23.1673303,1.62579186 C11.2738462,1.62579186 1.59773756,11.301991 1.59773756,23.1954751 C1.59773756,28.9296833 3.81493213,34.3071493 7.84832579,38.3741176 Z" id="Shape" fill="#464655"></path>
                    <path d="M20.3713122,26.7904072 C20.1668778,26.7904072 19.9624434,26.7123982 19.8065158,26.5563801 C19.4944796,26.2443439 19.4944796,25.738733 19.8065158,25.4266968 L31.7896833,13.4435294 C32.1017195,13.1314932 32.6073303,13.1314932 32.9193665,13.4435294 C33.2314027,13.7555656 33.2314027,14.2611765 32.9193665,14.5732127 L20.9362896,26.5563801 C20.780181,26.7124887 20.5757466,26.7904072 20.3713122,26.7904072 Z" id="Shape" fill="#EB0029"></path>
                    <circle id="Oval" fill="#464655" cx="23.1674208" cy="23.1954751" r="2.39665158"></circle>
                    <g id="Group" transform="translate(3.167421, 3.167421)" fill="#FFFFFF">
                        <path d="M3.22361991,20.8269683 L0.826968326,20.8269683 C0.385429864,20.8269683 0.0280542986,20.4696833 0.0280542986,20.0280543 C0.0280542986,19.5865158 0.385339367,19.2291403 0.826968326,19.2291403 L3.22361991,19.2291403 C3.66515837,19.2291403 4.02253394,19.5864253 4.02253394,20.0280543 C4.02244344,20.4696833 3.66515837,20.8269683 3.22361991,20.8269683 Z" id="Shape"></path>
                        <path d="M39.1730317,20.8269683 L36.7763801,20.8269683 C36.3348416,20.8269683 35.9774661,20.4696833 35.9774661,20.0280543 C35.9774661,19.5865158 36.3347511,19.2291403 36.7763801,19.2291403 L39.1730317,19.2291403 C39.6145701,19.2291403 39.9719457,19.5864253 39.9719457,20.0280543 C39.9719457,20.4696833 39.6146606,20.8269683 39.1730317,20.8269683 Z" id="Shape"></path>
                        <path d="M20,4.05058824 C19.5584615,4.05058824 19.201086,3.69330317 19.201086,3.25167421 L19.201086,0.855022624 C19.201086,0.413484163 19.558371,0.0561085973 20,0.0561085973 C20.4415385,0.0561085973 20.798914,0.413393665 20.798914,0.855022624 L20.798914,3.25167421 C20.798914,3.69321267 20.4415385,4.05058824 20,4.05058824 Z" id="Shape"></path>
                        <path d="M8.13701357,8.9639819 C7.93257919,8.9639819 7.7281448,8.88597285 7.57221719,8.72995475 L5.87773756,7.03547511 C5.56570136,6.72343891 5.56570136,6.21782805 5.87773756,5.90579186 C6.18977376,5.59375566 6.69538462,5.59375566 7.00742081,5.90579186 L8.70190045,7.60027149 C9.01393665,7.91230769 9.01393665,8.41791855 8.70190045,8.72995475 C8.54579186,8.88597285 8.34135747,8.9639819 8.13701357,8.9639819 Z" id="Shape"></path>
                        <path d="M31.8629864,8.9639819 C31.658552,8.9639819 31.4541176,8.88597285 31.29819,8.72995475 C30.9861538,8.41791855 30.9861538,7.91230769 31.29819,7.60027149 L32.9926697,5.90579186 C33.3047059,5.59375566 33.8103167,5.59375566 34.1223529,5.90579186 C34.4343891,6.21782805 34.4343891,6.72343891 34.1223529,7.03547511 L32.4278733,8.72995475 C32.2718552,8.88597285 32.0674208,8.9639819 31.8629864,8.9639819 Z" id="Shape"></path>
                        <path d="M2.28660633,28.1643439 C1.97375566,28.1643439 1.67574661,27.978733 1.54850679,27.6712217 C1.3799095,27.2639819 1.57348416,26.7958371 1.98072398,26.6274208 L4.19484163,25.7099548 C4.59972851,25.5429864 5.07022624,25.7349321 5.23864253,26.1421719 C5.40714932,26.5494118 5.21366516,27.0175566 4.80642534,27.1859729 L2.59230769,28.1034389 C2.49257919,28.1447964 2.38886878,28.1643439 2.28660633,28.1643439 Z" id="Shape"></path>
                        <path d="M35.499276,14.4070588 C35.1864253,14.4070588 34.8884163,14.221448 34.7611765,13.9139367 C34.5925792,13.5066968 34.7861538,13.038552 35.1933937,12.8701357 L37.4075113,11.9526697 C37.8132127,11.7848869 38.2828959,11.9768326 38.4513122,12.3848869 C38.6199095,12.7921267 38.4263348,13.2602715 38.019095,13.4286878 L35.8049774,14.3461538 C35.7052489,14.3876018 35.601448,14.4070588 35.499276,14.4070588 Z" id="Shape"></path>
                        <path d="M13.5800905,5.32769231 C13.2672398,5.32769231 12.9692308,5.14208145 12.841991,4.83457014 L11.9245249,2.62045249 C11.7559276,2.21321267 11.9495023,1.74506787 12.3567421,1.57665158 C12.7631674,1.40886878 13.2321267,1.60081448 13.400543,2.00886878 L14.318009,4.22298643 C14.4866063,4.63022624 14.2930317,5.09837104 13.8857919,5.26678733 C13.7860633,5.3081448 13.6822624,5.32769231 13.5800905,5.32769231 Z" id="Shape"></path>
                        <path d="M4.50072398,14.4070588 C4.39855204,14.4070588 4.29475113,14.3876018 4.19484163,14.3462443 L1.98072398,13.4287783 C1.57348416,13.260181 1.38,12.7922172 1.54850679,12.3849774 C1.71710407,11.9769231 2.18669683,11.7849774 2.59230769,11.9527602 L4.80642534,12.8702262 C5.21366516,13.0388235 5.40714932,13.5067873 5.23864253,13.9140271 C5.11149321,14.221448 4.81357466,14.4070588 4.50072398,14.4070588 Z" id="Shape"></path>
                        <path d="M37.7133937,28.1643439 C37.6112217,28.1643439 37.5074208,28.1448869 37.4075113,28.1035294 L35.1933937,27.1860633 C34.7861538,27.0174661 34.5926697,26.5495023 34.7611765,26.1422624 C34.9297738,25.7342081 35.3993665,25.5430769 35.8049774,25.7100452 L38.019095,26.6275113 C38.4263348,26.7961086 38.619819,27.2640724 38.4513122,27.6713122 C38.3242534,27.9786425 38.0262443,28.1643439 37.7133937,28.1643439 Z" id="Shape"></path>
                        <path d="M26.4199095,5.32769231 C26.3177376,5.32769231 26.2139367,5.30823529 26.1140271,5.26687783 C25.7067873,5.09828054 25.5133032,4.63031674 25.68181,4.22307692 L26.599276,2.00895928 C26.7685068,1.60090498 27.23819,1.40895928 27.6430769,1.57674208 C28.0503167,1.74533937 28.2438009,2.21330317 28.0752941,2.62054299 L27.1578281,4.83466063 C27.0306787,5.14199095 26.7327602,5.32769231 26.4199095,5.32769231 Z" id="Shape"></path>
                    </g>
                    <g id="Group" transform="translate(3.167421, 3.167421)" fill="#EB0029">
                        <path d="M34.2868778,33.6089593 C34.0965611,33.6089593 33.9061538,33.54181 33.7540271,33.4053394 C33.4256109,33.1112217 33.3975566,32.6057014 33.6915837,32.2771946 C36.7108597,28.9046154 38.3741176,24.5544796 38.3741176,20.0280543 C38.3741176,9.8961991 30.1317647,1.65393665 20,1.65393665 C9.86823529,1.65393665 1.62588235,9.8961991 1.62588235,20.0280543 C1.62588235,24.5544796 3.28914027,28.9047059 6.30841629,32.2771946 C6.60253394,32.6056109 6.57447964,33.1112217 6.24597285,33.4053394 C5.91909502,33.699457 5.4119457,33.6721267 5.11782805,33.3428959 C1.83574661,29.6770136 0.0280542986,24.9485068 0.0280542986,20.0280543 C0.0280542986,9.01547511 8.98733032,0.0561085973 20,0.0561085973 C31.0126697,0.0561085973 39.9719457,9.01538462 39.9719457,20.0280543 C39.9719457,24.9484163 38.1642534,29.6770136 34.8821719,33.3428959 C34.7246154,33.519276 34.5062443,33.6089593 34.2868778,33.6089593 Z" id="Shape"></path>
                        <path d="M25.5921267,32.8101357 L14.4078733,32.8101357 C13.9666968,32.8101357 13.6089593,32.4523982 13.6089593,32.0112217 L13.6089593,28.8157466 C13.6089593,28.3745701 13.9666968,28.0168326 14.4078733,28.0168326 L25.5921267,28.0168326 C26.0333032,28.0168326 26.3910407,28.3745701 26.3910407,28.8157466 L26.3910407,32.0112217 C26.3910407,32.4523982 26.0333032,32.8101357 25.5921267,32.8101357 Z" id="Shape"></path>
                    </g>
                    <g id="Group" transform="translate(19.095023, 31.945701)" fill="#464655">
                        <path d="M0.876923077,3.23294118 C0.435746606,3.23294118 0.0780090498,2.87520362 0.0780090498,2.43402715 L0.0780090498,0.836289593 C0.0780090498,0.395113122 0.435746606,0.0373755656 0.876923077,0.0373755656 C1.31809955,0.0373755656 1.6758371,0.395113122 1.6758371,0.836289593 L1.6758371,2.43402715 C1.67574661,2.87529412 1.31809955,3.23294118 0.876923077,3.23294118 Z" id="Shape"></path>
                        <path d="M4.07239819,3.23294118 C3.63122172,3.23294118 3.27348416,2.87520362 3.27348416,2.43402715 L3.27348416,0.836289593 C3.27348416,0.395113122 3.63122172,0.0373755656 4.07239819,0.0373755656 C4.51357466,0.0373755656 4.87131222,0.395113122 4.87131222,0.836289593 L4.87131222,2.43402715 C4.87131222,2.87529412 4.51357466,3.23294118 4.07239819,3.23294118 Z" id="Shape"></path>
                        <path d="M7.2678733,3.23294118 C6.82669683,3.23294118 6.46895928,2.87520362 6.46895928,2.43402715 L6.46895928,0.836289593 C6.46895928,0.395113122 6.82669683,0.0373755656 7.2678733,0.0373755656 C7.70904977,0.0373755656 8.06678733,0.395113122 8.06678733,0.836289593 L8.06678733,2.43402715 C8.06678733,2.87529412 7.70904977,3.23294118 7.2678733,3.23294118 Z" id="Shape"></path>
                    </g>
                </g>
            </g>
        </g>
    </g>
</svg>