<?xml version="1.0" encoding="UTF-8"?>
<svg width="29px" height="40px" viewBox="0 0 29 40" version="1.1" xmlns="http://www.w3.org/2000/svg" xmlns:xlink="http://www.w3.org/1999/xlink">
    <!-- Generator: Sketch 49.2 (51160) - http://www.bohemiancoding.com/sketch -->
    <title>ribbon</title>
    <desc>Created with Sketch.</desc>
    <defs></defs>
    <g id="Page-1" stroke="none" stroke-width="1" fill="none" fill-rule="evenodd">
        <g id="Datos_Clínicos" transform="translate(-629.000000, -1683.000000)" fill-rule="nonzero">
            <g id="datos-personales-copy-2" transform="translate(99.000000, 1576.000000)">
                <g id="datos-personales" transform="translate(37.000000, 40.000000)">
                    <g id="Group-5-Copy-3" transform="translate(487.000000, 67.000000)">
                        <g id="ribbon" transform="translate(6.000000, 0.000000)">
                            <path d="M9.75418182,10.128 C12.8545455,8.73963636 16.3992727,8.73963636 19.4996364,10.128 C20.1112727,9.17527273 22.5556364,7.32945455 23.0530909,4.89309091 L21.8996364,1.40072727 C17.2312727,-0.466909091 12.0225455,-0.466909091 7.35418182,1.40072727 L6.32581818,4.89309091 C6.824,7.32945455 9.14254545,9.17527273 9.75418182,10.128 Z" id="Shape" fill="#FC3952"></path>
                            <path d="M10.2632727,10.8552727 C10.2632727,10.8552727 7.12654545,6.99127273 7.35418182,1.40072727 C7.35418182,1.40072727 1.44509091,11.2647273 3.71781818,15.2189091 L21.5905455,38.3876364 C22.544,39.6232727 24.3447273,39.7927273 25.5112727,38.7556364 L27.9672727,36.5723636 C29.0465455,35.6130909 29.1767273,33.9723636 28.2625455,32.8545455 L10.2632727,10.8552727 Z" id="Shape" fill="#F48E8E"></path>
                            <g id="Group" transform="translate(0.000000, 0.727273)" fill="#F76363">
                                <path d="M14.6269091,15.4610909 L19.8567273,21.8530909 L25.536,14.4909091 C27.8087273,10.536 21.8996364,0.672727273 21.8996364,0.672727273 C22.1272727,6.264 18.9905455,10.1272727 18.9905455,10.1272727 L14.6269091,15.4610909 Z" id="Shape"></path>
                                <path d="M9.39709091,21.8530909 L0.991272727,32.1272727 C0.0763636364,33.2450909 0.206545455,34.8858182 1.28654545,35.8450909 L3.74254545,38.0283636 C4.90909091,39.0654545 6.71054545,38.8967273 7.66327273,37.6603636 L14.6269091,28.6327273 L9.39709091,21.8530909 Z" id="Shape"></path>
                            </g>
                        </g>
                    </g>
                </g>
            </g>
        </g>
    </g>
</svg>