<?xml version="1.0" encoding="UTF-8"?>
<svg width="34px" height="40px" viewBox="0 0 34 40" version="1.1" xmlns="http://www.w3.org/2000/svg" xmlns:xlink="http://www.w3.org/1999/xlink">
    <!-- Generator: Sketch 49.2 (51160) - http://www.bohemiancoding.com/sketch -->
    <title>Santander_doc</title>
    <desc>Created with Sketch.</desc>
    <defs></defs>
    <g id="Page-1" stroke="none" stroke-width="1" fill="none" fill-rule="evenodd">
        <g id="Datos_Clínicos" transform="translate(-139.000000, -496.000000)">
            <g id="datos-personales" transform="translate(99.000000, 389.000000)">
                <g transform="translate(37.000000, 40.000000)" id="Group-5-Copy-2">
                    <g transform="translate(1.000000, 67.000000)">
                        <g id="Santander_doc" transform="translate(2.000000, 0.000000)">
                            <path d="M4.14867187,1.37929688 C4.14867187,0.6175 4.76617187,0 5.52804687,0 L26.2177344,0 L33.1142969,6.8965625 L33.1142969,38.6207031 C33.1142969,39.3825 32.4967969,40 31.735,40 L5.52804687,40 C4.76625,40 4.14875,39.3825 4.14875,38.6207031 L4.14875,1.37929688 L4.14867187,1.37929688 Z" id="Shape" fill="#E4EAF8" fill-rule="nonzero"></path>
                            <path d="M18.1428105,7.60338504 C18.1428105,9.16521887 20.762243,10.9003417 20.762243,12.6836995 C20.762243,12.6836995 20.762243,12.8560953 20.6896671,13.0398798 C23.1389369,13.5568437 24.8736131,14.7750026 24.8736131,16.2024035 C24.8736131,18.1215342 21.7807623,19.7088254 17.9480837,19.7088254 C14.0338968,19.7088254 11,18.1476615 11,16.2758727 C11,14.8495883 12.8796047,13.6917233 15.147993,13.0776193 C15.147993,13.8647889 17.7287928,16.3627405 17.7908731,17.3707642 C17.7984657,17.486439 17.82102,17.5840257 17.7908731,17.7030503 C18.3491494,17.408057 18.3491494,16.484668 18.3491494,16.484668 C18.3491494,14.2953316 15.8389158,13.3237075 15.8389158,11.1705474 C15.8389158,10.3335795 16.2274761,9.71925229 16.578297,9.54730318 L16.578297,10.1495717 C16.578297,11.7118521 19.2944229,13.4588104 19.2944229,14.885988 L19.2944229,15.3538235 C19.9257218,15.1079586 19.9257218,13.9387047 19.9257218,13.9387047 C19.9257218,11.9702224 17.4032061,10.8751076 17.4032061,8.62391415 C17.4032061,7.78806285 17.7908731,7.17306566 18.1428105,7 L18.1428105,7.60338504 Z" id="Page-1" fill="#EB0029"></path>
                            <g id="Group" transform="translate(4.140625, 0.000000)" fill="#D5DCED" fill-rule="nonzero">
                                <path d="M15.8701562,36.5517187 L0.008046875,36.5517187 L0.008046875,24.1379687 L15.8700781,24.1379687 C17.3935937,24.1379687 18.6286719,25.3730469 18.6286719,26.8965625 L18.6286719,33.793125 C18.62875,35.3166406 17.3936719,36.5517187 15.8701562,36.5517187 Z" id="Shape"></path>
                                <path d="M22.0770313,0 L22.0770313,5.51726562 C22.0770313,6.27898437 22.6946094,6.8965625 23.4563281,6.8965625 L28.9735937,6.8965625 L22.0770313,0 Z" id="Shape"></path>
                            </g>
                            <path d="M20.0107812,35.1724219 L1.39007812,35.1724219 C0.62828125,35.1724219 0.01078125,34.5549219 0.01078125,33.793125 L0.01078125,26.8965625 C0.01078125,26.1347656 0.62828125,25.5172656 1.39007812,25.5172656 L20.0107812,25.5172656 C20.7725781,25.5172656 21.3900781,26.1347656 21.3900781,26.8965625 L21.3900781,33.793125 C21.3900781,34.5549219 20.7725781,35.1724219 20.0107812,35.1724219 Z" id="Shape" fill="#EB0029" fill-rule="nonzero"></path>
                            <text id="Seguro" font-family="Ubuntu-Regular, Ubuntu" font-size="6" font-weight="normal" fill="#FFFFFF">
                                <tspan x="1" y="32">Seguro</tspan>
                            </text>
                        </g>
                    </g>
                </g>
            </g>
        </g>
    </g>
</svg>