<?xml version="1.0" encoding="UTF-8"?>
<svg width="138px" height="24px" viewBox="0 0 138 24" version="1.1" xmlns="http://www.w3.org/2000/svg" xmlns:xlink="http://www.w3.org/1999/xlink">
    <!-- Generator: Sketch 50.2 (55047) - http://www.bohemiancoding.com/sketch -->
    <title>Santander_logo</title>
    <desc>Created with Sketch.</desc>
    <defs></defs>
    <g id="New" stroke="none" stroke-width="1" fill="none" fill-rule="evenodd">
        <g id="Paso_3" transform="translate(-146.000000, -1311.000000)" fill="#FFFFFF">
            <g id="footer" transform="translate(1.000000, 1138.000000)">
                <path d="M217.347079,179.709174 L217.347079,184.006267 L221.273157,184.006267 C221.609968,186.198436 221.561852,186.258146 219.622146,186.261334 C218.951423,186.262494 218.28128,186.261624 217.451716,186.261624 C217.451716,188.498721 217.355774,190.65118 217.489977,192.789147 C217.56302,193.954362 218.586786,194.27668 219.642146,194.241608 C220.169102,194.224216 220.693159,194.105956 221.217795,194.033202 C221.511997,195.986531 221.272288,196.306821 219.460408,196.416096 C216.182154,196.613777 214.805925,195.344794 214.792301,192.071467 C214.777809,188.643358 214.788243,185.21525 214.789113,181.787141 C214.789983,179.610334 214.924185,179.495262 217.347079,179.709174 Z M282.405261,183.520587 C282.288739,184.554497 282.215696,185.202902 282.131059,185.955944 L278.238313,185.955944 L278.238313,191.074484 L278.238313,196.075633 L275.779188,196.075633 L275.779188,184.055078 C277.884401,183.885224 280.008454,183.71392 282.405261,183.520587 Z M212.123901,196.106473 C211.618105,196.142415 211.283903,196.183864 210.949411,196.185024 C210.566513,196.186183 210.183615,196.151691 209.571153,196.121546 C209.571153,194.766186 209.571443,193.435174 209.570863,192.103873 C209.570573,190.898368 209.604196,189.691414 209.560428,188.487359 C209.49782,186.762725 208.812604,186.071422 207.081303,185.925625 C206.603333,185.885335 206.117247,185.940118 205.638408,185.904466 C204.592033,185.826205 204.206526,186.237219 204.241599,187.32881 C204.31928,189.737501 204.265367,192.150829 204.265367,194.562129 L204.265367,196.081256 L201.67059,196.081256 C201.67059,194.1801 201.6703,192.316626 201.67059,190.452862 C201.671169,188.716924 201.626532,186.978376 201.70943,185.246206 C201.727981,184.861859 202.179574,184.192875 202.464791,184.174904 C204.701888,184.033745 206.965071,183.822731 209.183617,184.027948 C210.960136,184.192005 212.024481,185.522148 212.093756,187.313448 C212.20564,190.194312 212.123901,193.082132 212.123901,196.106473 Z M236.381792,184.297599 C238.898888,183.702528 241.368159,183.319051 243.877719,183.979049 C245.287861,184.350063 246.509887,185.176728 246.587568,186.653537 C246.750756,189.766573 246.637423,192.893813 246.637423,196.093227 L244.160327,196.093227 C244.160327,193.645696 244.168153,191.290628 244.158298,188.935851 C244.147573,186.385131 241.525839,184.810932 239.291351,186.063973 C239.005265,186.224552 238.878599,186.873536 238.873671,187.298753 C238.838309,190.187732 238.85512,193.077581 238.85512,196.077285 L236.381792,196.077285 L236.381792,184.297599 Z M230.820789,186.102407 C226.300799,185.317192 223.958775,187.926172 225.215584,192.044424 C225.864858,194.172535 228.379925,195.074562 230.230936,193.808188 C230.503689,193.621522 230.788616,193.220943 230.794992,192.913697 C230.842529,190.662398 230.820789,188.409649 230.820789,186.102407 Z M233.412958,196.162676 C232.328323,195.977459 231.128035,196.940645 230.854702,195.196011 C227.719347,197.751948 222.655879,196.519197 222.348923,190.965875 C222.05559,185.648495 224.729498,183.256036 230.533834,183.699224 C231.250644,183.754006 231.982816,183.86589 232.657887,184.096614 C232.97122,184.203861 233.376436,184.657193 233.380784,184.958642 C233.430349,188.616895 233.412958,192.276597 233.412958,196.162676 Z M196.233558,186.129567 C192.58429,185.401162 190.568062,186.635073 190.378498,189.564342 C190.338498,190.18666 190.345164,190.824629 190.435599,191.43999 C190.808062,193.976217 193.387187,195.178823 195.561385,193.816217 C195.87008,193.622884 196.195297,193.170711 196.203993,192.829842 C196.261384,190.619412 196.233558,188.406373 196.233558,186.129567 Z M198.753263,184.11189 L198.753263,196.10114 C197.761091,196.02143 196.594716,196.827805 196.16892,195.220272 C192.08603,197.825484 188.438212,196.146647 187.747489,191.344628 C187.065171,186.604638 189.574731,183.628992 194.321968,183.667253 C195.794428,183.679137 197.26457,183.955078 198.753263,184.11189 Z M270.632184,188.789068 C270.52088,186.680087 269.50523,185.733133 267.55422,185.867335 C265.881469,185.982408 264.970457,187.059217 265.071906,188.896314 C266.693932,188.896314 268.322044,188.900372 269.950157,188.891677 C270.179431,188.890228 270.408706,188.824141 270.632184,188.789068 Z M272.738846,193.542682 C272.742614,195.807604 272.626673,196.046444 270.644938,196.296009 C269.412477,196.451661 268.125813,196.470212 266.89712,196.301226 C264.365531,195.953401 262.671911,194.117173 262.35481,191.55428 C262.260607,190.791383 262.233651,190.009935 262.27597,189.242111 C262.497998,185.209366 265.275963,183.020964 269.248419,183.718644 C272.187253,184.235165 274.203771,187.584143 273.240584,190.485586 C273.139425,190.789934 272.440296,191.052252 272.011022,191.065295 C269.791026,191.131672 267.568422,191.109643 265.346978,191.124136 C265.255964,191.124716 265.165819,191.182107 265.075674,191.213701 C265.295674,194.16355 267.659727,194.902389 272.738846,193.542682 Z M185.379725,179.659203 C185.13074,180.873983 184.989581,181.561228 184.842335,182.279488 C183.682917,182.090503 182.648717,181.860648 181.602342,181.773112 C180.894228,181.713692 180.141476,181.747025 179.458289,181.926735 C177.735104,182.380357 177.28467,184.252527 178.675971,185.375423 C179.481187,186.025567 180.532489,186.364986 181.449879,186.884695 C182.574804,187.521796 183.825236,188.038606 184.756828,188.895126 C186.932476,190.896281 186.300303,194.575694 183.614512,195.812503 C181.023793,197.005254 178.315972,196.826124 175.718007,195.894532 C174.307865,195.389025 175.413949,194.288738 175.441485,193.575986 C177.122062,193.779464 178.725826,194.069898 180.338866,194.138014 C181.560603,194.189608 182.858861,193.949898 183.204658,192.480046 C183.567265,190.937441 182.458572,190.208457 181.295966,189.6244 C180.177707,189.062662 179.002637,188.611938 177.897712,188.027012 C175.801775,186.918029 174.872211,185.12238 175.237718,183.053109 C175.596847,181.02007 176.76641,179.814565 179.244666,179.554856 C181.161473,179.354277 183.125527,179.602682 185.379725,179.659203 Z M257.492212,189.948486 C257.492212,189.031676 257.45598,188.113128 257.502936,187.198927 C257.545255,186.373711 257.292212,185.969944 256.391344,185.91748 C254.733957,185.821248 253.176279,185.884147 252.192803,187.499796 C251.265848,189.022111 251.359761,191.842975 252.358889,193.160943 C253.206713,194.279492 254.60729,194.56239 256.152794,194.151666 C257.663226,193.750507 257.532791,192.660944 257.49627,191.540367 C257.478878,191.010223 257.493081,190.47921 257.492212,189.948486 Z M257.494241,183.691108 C257.494241,182.921255 257.493951,182.303575 257.494241,181.686185 C257.49598,179.591117 257.646414,179.46416 259.928438,179.719522 L259.928438,195.980937 C258.009602,196.396589 258.003515,196.39456 257.480328,195.267316 C256.67888,195.639199 255.912505,196.192241 255.071927,196.348763 C252.168745,196.889631 249.851068,195.425286 249.239186,192.522974 C248.938896,191.097759 248.920056,189.527907 249.167592,188.091389 C249.617446,185.482698 251.594543,183.932557 254.383523,183.703572 C255.336564,183.625311 256.301779,183.691108 257.494241,183.691108 Z M151.603622,184.041716 C152.656374,186.119683 153.545358,187.961998 154.514051,189.761704 C155.469701,191.537352 156.506511,193.269233 157.575784,195.140533 C158.652303,193.241117 158.571724,191.434454 157.580132,189.644023 C156.551438,187.787215 155.445643,185.973016 154.426225,184.111281 C153.455213,182.338531 153.46101,180.542593 154.474921,178.681727 C156.584771,182.364908 158.647086,185.9649 160.757806,189.64924 C161.787949,187.771273 161.761572,185.975915 160.785632,184.206353 C159.760417,182.347517 158.65897,180.531289 157.625059,178.67709 C156.641003,176.912745 156.585931,175.128111 157.769696,173 C159.609693,176.628978 161.316935,180.034768 163.076932,183.412732 C163.263018,183.769832 163.732582,184.01273 164.11635,184.226353 C165.539825,185.019395 167.126199,185.594756 168.387355,186.587508 C170.916625,188.577359 170.878365,191.545178 168.447935,193.675319 C166.220114,195.627779 163.49925,196.429516 160.633169,196.784878 C156.480424,197.300819 152.431447,196.961399 148.664498,194.9672 C146.726531,193.941115 145.019288,192.595031 145.000158,190.158515 C144.981028,187.712433 146.701314,186.375044 148.622179,185.3278 C149.667684,184.757656 150.815798,184.375628 151.603622,184.041716 Z" id="Santander_logo"></path>
            </g>
        </g>
    </g>
</svg>