<?xml version="1.0" encoding="UTF-8"?>
<svg width="138px" height="24px" viewBox="0 0 138 24" version="1.1" xmlns="http://www.w3.org/2000/svg" xmlns:xlink="http://www.w3.org/1999/xlink">
    <!-- Generator: Sketch 50.2 (55047) - http://www.bohemiancoding.com/sketch -->
    <title>Santander_logo</title>
    <desc>Created with Sketch.</desc>
    <defs></defs>
    <g id="New" stroke="none" stroke-width="1" fill="none" fill-rule="evenodd">
        <g id="Home_1" transform="translate(-134.000000, -23.000000)" fill="#EC0000">
            <g id="Top" transform="translate(134.000000, 23.000000)">
                <path d="M72.3470786,6.70917432 L72.3470786,11.0062667 L76.2731573,11.0062667 C76.6099682,13.1984361 76.5618524,13.2581461 74.6221463,13.2613345 C73.9514231,13.2624939 73.2812795,13.2616243 72.4517161,13.2616243 C72.4517161,15.4987211 72.3557742,17.6511803 72.4899769,19.7891469 C72.5630202,20.9543618 73.5867862,21.27668 74.6421463,21.2416076 C75.1691017,21.2242163 75.6931585,21.1059557 76.2177951,21.0332022 C76.5119974,22.9865314 76.2722878,23.3068206 74.4604075,23.4160958 C71.1821535,23.6137765 69.8059245,22.3447937 69.7923014,19.0714672 C69.7778086,15.6433585 69.7882434,12.2152497 69.789113,8.78714097 C69.7899825,6.61033395 69.9241851,6.49526172 72.3470786,6.70917432 Z M137.405261,10.5205866 C137.288739,11.5544975 137.215696,12.2029019 137.131059,12.9559438 L133.238313,12.9559438 L133.238313,18.0744838 L133.238313,23.0756327 L130.779188,23.0756327 L130.779188,11.0550782 C132.884401,10.8852235 135.008454,10.7139195 137.405261,10.5205866 Z M67.1239012,23.1064732 C66.6181051,23.1424152 66.2839029,23.1838644 65.9494109,23.1850238 C65.5665131,23.1861832 65.1836154,23.1516905 64.5711529,23.1215457 C64.5711529,21.7661862 64.5714428,20.4351745 64.5708631,19.1038729 C64.5705732,17.8983682 64.6041963,16.6914142 64.5604283,15.4873588 C64.4978197,13.7627247 63.8126038,13.0714218 62.0813031,12.925625 C61.6033331,12.8853353 61.1172471,12.9401178 60.6384075,12.9044657 C59.5920329,12.826205 59.2065265,13.2372186 59.2415989,14.3288105 C59.3192799,16.7375011 59.265367,19.1508294 59.265367,21.5621286 L59.265367,23.0812559 L56.6705898,23.0812559 C56.6705898,21.1801005 56.6702999,19.3166261 56.6705898,17.4528619 C56.6711695,15.7169235 56.6265319,13.9783764 56.7094303,12.2462062 C56.727981,11.8618592 57.1795742,11.192875 57.464791,11.1749041 C59.7018878,11.0337449 61.9650714,10.8227309 64.1836175,11.0279479 C65.9601355,11.1920055 67.0244811,12.5221476 67.0937563,14.3134482 C67.2056401,17.1943117 67.1239012,20.0821317 67.1239012,23.1064732 Z M91.3817923,11.2975995 C93.8988884,10.7025283 96.3681586,10.3190508 98.8777186,10.9790494 C100.287861,11.3500631 101.509887,12.1767281 101.587568,13.6535365 C101.750756,16.7665735 101.637423,19.8938133 101.637423,23.0932269 L99.1603267,23.0932269 C99.1603267,20.6456958 99.1681527,18.2906283 99.1582977,15.9358506 C99.1475731,13.3851313 96.5258394,11.8109317 94.2913514,13.0639726 C94.005265,13.2245519 93.8785986,13.8735361 93.8736711,14.2987526 C93.8383089,17.187732 93.8551204,20.077581 93.8551204,23.0772849 L91.3817923,23.0772849 L91.3817923,11.2975995 Z M85.8207895,13.1024073 C81.3007989,12.3171915 78.9587749,14.9261716 80.2155838,19.0444238 C80.8648578,21.1725353 83.379925,22.0745623 85.2309356,20.8081882 C85.5036887,20.6215219 85.7886156,20.220943 85.7949924,19.9136973 C85.8425285,17.6623977 85.8207895,15.4096488 85.8207895,13.1024073 Z M88.4129579,23.162676 C87.3283225,22.977459 86.1280352,23.9406454 85.8547024,22.1960114 C82.7193467,24.751948 77.6558791,23.519197 77.3489232,17.9658753 C77.0555905,12.6484952 79.7294979,10.2560364 85.5338335,10.6992239 C86.2506436,10.7540064 86.982816,10.8658902 87.657887,11.0966144 C87.9712197,11.2038605 88.3764363,11.6571929 88.3807841,11.9586416 C88.4303492,15.6168947 88.4129579,19.2765972 88.4129579,23.162676 Z M51.2335577,13.1295666 C47.58429,12.4011624 45.5680624,13.6350728 45.3784976,16.564342 C45.3384976,17.1866596 45.3451643,17.8246292 45.4355989,18.4399903 C45.8080619,20.9762168 48.3871869,22.178823 50.5613852,20.8162172 C50.8700802,20.6228842 51.1952969,20.1707113 51.2039926,19.8298424 C51.2613838,17.6194123 51.2335577,15.4063734 51.2335577,13.1295666 Z M53.7532626,11.1118897 L53.7532626,23.1011399 C52.7610908,23.0214299 51.5947164,23.827805 51.1689202,22.2202722 C47.0860302,24.8254841 43.4382118,23.1466471 42.7474886,18.3446281 C42.0651712,13.6046381 44.5747311,10.6289922 49.3219675,10.667253 C50.7944282,10.679137 52.2645701,10.9550784 53.7532626,11.1118897 Z M125.632184,15.7890683 C125.52088,13.6800872 124.50523,12.7331327 122.55422,12.8673353 C120.881469,12.9824075 119.970457,14.0592169 120.071906,15.8963144 C121.693932,15.8963144 123.322044,15.9003724 124.950157,15.8916768 C125.179431,15.8902275 125.408706,15.8241407 125.632184,15.7890683 Z M127.738846,20.5426815 C127.742614,22.8076043 127.626673,23.0464444 125.644938,23.2960091 C124.412477,23.4516609 123.125813,23.4702116 121.89712,23.3012264 C119.365531,22.9534011 117.671911,21.1171731 117.35481,18.5542799 C117.260607,17.7913829 117.233651,17.0099353 117.27597,16.2421108 C117.497998,12.2093657 120.275963,10.0209645 124.248419,10.7186442 C127.187253,11.2351648 129.203771,14.5841433 128.240584,17.4855865 C128.139425,17.7899337 127.440296,18.052252 127.011022,18.0652954 C124.791026,18.1316721 122.568422,18.1096431 120.346978,18.1241359 C120.255964,18.1247156 120.165819,18.1821068 120.075674,18.2137009 C120.295674,21.1635498 122.659727,21.9023888 127.738846,20.5426815 Z M40.3797254,6.65920341 C40.1307405,7.87398347 39.9895813,8.5612284 39.8423353,9.27948776 C38.6829174,9.09050265 37.6487167,8.86064806 36.6023421,8.77311201 C35.8942276,8.71369185 35.1414756,8.74702511 34.4582886,8.92673488 C32.7351038,9.38035712 32.28467,11.2525271 33.6759714,12.3754233 C34.4811871,13.0255669 35.5324892,13.3649864 36.4498786,13.8846955 C37.5748038,14.5217956 38.825236,15.0386061 39.7568282,15.895126 C41.9324758,17.8962813 41.3003032,21.5756938 38.6145118,22.8125028 C36.0237926,24.0052539 33.3159722,23.8261239 30.7180066,22.8945316 C29.3078646,22.3890255 30.4139493,21.2887379 30.4414854,20.5759858 C32.1220616,20.7794636 33.7258264,21.0698978 35.3388665,21.1380136 C36.560603,21.1896077 37.8588612,20.949898 38.2046575,19.4800461 C38.5672655,17.9374406 37.4585722,17.2084566 36.2959659,16.6243999 C35.1777074,16.0626619 34.0026374,15.6119382 32.8977122,15.0270119 C30.8017745,13.9180287 29.8722113,12.1223803 30.2377178,10.0531093 C30.5968474,8.02007012 31.7664102,6.8145654 34.2446659,6.5548558 C36.1614734,6.35427651 38.1255273,6.60268179 40.3797254,6.65920341 Z M112.492212,16.9484862 C112.492212,16.0316765 112.45598,15.1131277 112.502936,14.1989267 C112.545255,13.373711 112.292212,12.9699438 111.391344,12.9174801 C109.733957,12.8212484 108.176279,12.8841469 107.192803,14.4997956 C106.265848,16.0221113 106.359761,18.8429749 107.358889,20.1609432 C108.206713,21.2794916 109.60729,21.5623895 111.152794,21.1516657 C112.663226,20.7505072 112.532791,19.6609442 112.49627,18.5403669 C112.478878,18.0102231 112.493081,17.4792097 112.492212,16.9484862 Z M112.494241,10.691108 C112.494241,9.92125453 112.493951,9.30357467 112.494241,8.68618466 C112.49598,6.5911166 112.646414,6.46416034 114.928438,6.71952212 L114.928438,22.9809373 C113.009602,23.3965886 113.003515,23.3945596 112.480328,22.2673156 C111.67888,22.6391988 110.912505,23.1922412 110.071927,23.3487626 C107.168745,23.889631 104.851068,22.4252862 104.239186,19.5229735 C103.938896,18.0977591 103.920056,16.5279073 104.167592,15.0913886 C104.617446,12.4826984 106.594543,10.9325568 109.383523,10.7035717 C110.336564,10.625311 111.301779,10.691108 112.494241,10.691108 Z M6.60362245,11.0417159 C7.65637386,13.1196826 8.54535751,14.9619976 9.51405112,16.7617039 C10.4697013,18.5373524 11.5065107,20.2692328 12.5757838,22.1405332 C13.6523033,20.2411169 13.5717238,18.434454 12.5801316,16.644023 C11.5514381,14.7872153 10.4456434,12.9730162 9.42622522,11.111281 C8.45521277,9.33853112 8.46100986,7.54259286 9.47492077,5.6817272 C11.5847714,9.36490787 13.6470859,12.9649003 15.7578061,16.6492404 C16.7879489,14.7712733 16.7615721,12.9759148 15.7856322,11.2063533 C14.7604169,9.3475166 13.65897,7.53128853 12.6250591,5.67708953 C11.6410032,3.91274541 11.5859308,2.12811147 12.7696965,0 C14.6096926,3.62897789 16.3169354,7.03476784 18.0769317,10.4127318 C18.2630183,10.7698325 18.7325825,11.0127305 19.1163498,11.2263532 C20.5398251,12.0193951 22.1261986,12.5947562 23.3873553,13.5875077 C25.9166254,15.5773586 25.8783646,18.5451785 23.4479349,20.6753189 C21.2201135,22.6277786 18.4992496,23.429516 15.6331687,23.7848776 C11.4804238,24.3008185 7.4314468,23.961399 3.66449819,21.9672003 C1.72653124,20.9411155 0.0192884509,19.5950313 0.00015805629,17.1585147 C-0.0189723383,14.7124329 1.7013139,13.3750444 3.62217944,12.3278002 C4.66768449,11.7576565 5.81579802,11.3756283 6.60362245,11.0417159 Z" id="Santander_logo"></path>
            </g>
        </g>
    </g>
</svg>