<?xml version="1.0" encoding="UTF-8"?>
<svg width="49px" height="40px" viewBox="0 0 49 40" version="1.1" xmlns="http://www.w3.org/2000/svg" xmlns:xlink="http://www.w3.org/1999/xlink">
    <!-- Generator: Sketch 48.2 (47327) - http://www.bohemiancoding.com/sketch -->
    <title>stomach</title>
    <desc>Created with Sketch.</desc>
    <defs></defs>
    <g id="Datos_Clínicos" stroke="none" stroke-width="1" fill="none" fill-rule="evenodd" transform="translate(-136.000000, -2524.000000)">
        <g id="datos-personales-copy-2" transform="translate(99.000000, 1519.000000)" fill-rule="nonzero">
            <g id="datos-personales" transform="translate(37.000000, 40.000000)">
                <g id="Group-5-Copy-12" transform="translate(0.000000, 965.000000)">
                    <g id="stomach">
                        <path d="M41.4963265,6.06122449 C30.5387755,-4.44408163 23.5689796,7.01387755 23.5689796,7.01387755 C18.4310204,6.12979592 17.482449,1.7077551 17.482449,1.7077551 L11.6326531,4.02040816 C11.6326531,4.02040816 12.9934694,11.5036735 23.2653061,13.4081633 C23.2653061,13.4081633 23.3722449,16.877551 26.122449,18.2383673 L26.122449,22.7281633 C26.122449,22.7281633 22.4489796,24.0889796 22.1085714,26.877551 C22.1085714,26.877551 17.8228571,25.4489796 15.0334694,28.7142857 C15.0334694,28.7142857 0.815510204,20.9706122 0.815510204,38.3798793 L4.89714286,38.3795918 C4.89714286,33.4636735 7.60326531,32.44 9.04653061,33.8840816 C12.9730612,37.8106122 15.2367347,34.8367347 15.2367347,34.8367347 C22.5159184,39.1902041 28.7061224,38.3061224 28.7061224,38.3061224 C44.5502041,38.7828571 54.1942857,18.235102 41.4963265,6.06122449 Z" id="Shape" fill="#FBCE9D"></path>
                        <g id="Group" transform="translate(11.428571, 22.040816)" fill="#FFFFFF">
                            <circle id="Oval" cx="25.3061224" cy="4.07591837" r="1"></circle>
                            <circle id="Oval" cx="30.2040816" cy="4.07591837" r="1"></circle>
                            <circle id="Oval" cx="32.6530612" cy="1.62693878" r="1"></circle>
                            <circle id="Oval" cx="8.16326531" cy="6.52489796" r="1"></circle>
                            <circle id="Oval" cx="13.0612245" cy="6.52489796" r="1"></circle>
                            <circle id="Oval" cx="17.9591837" cy="6.52489796" r="1"></circle>
                            <circle id="Oval" cx="22.8571429" cy="6.52489796" r="1"></circle>
                            <circle id="Oval" cx="27.755102" cy="6.52489796" r="1"></circle>
                            <circle id="Oval" cx="0.816326531" cy="8.97387755" r="1"></circle>
                            <circle id="Oval" cx="5.71428571" cy="8.97387755" r="1"></circle>
                            <circle id="Oval" cx="8.16326531" cy="11.4228571" r="1"></circle>
                            <circle id="Oval" cx="10.6122449" cy="8.97387755" r="1"></circle>
                            <circle id="Oval" cx="15.5102041" cy="8.97387755" r="1"></circle>
                            <circle id="Oval" cx="10.6122449" cy="13.8718367" r="1"></circle>
                            <circle id="Oval" cx="15.5102041" cy="13.8718367" r="1"></circle>
                            <circle id="Oval" cx="13.0612245" cy="11.4228571" r="1"></circle>
                            <circle id="Oval" cx="17.9591837" cy="11.4228571" r="1"></circle>
                            <circle id="Oval" cx="20.4081633" cy="8.97387755" r="1"></circle>
                            <circle id="Oval" cx="25.3061224" cy="8.97387755" r="1"></circle>
                            <circle id="Oval" cx="20.4081633" cy="13.8718367" r="1"></circle>
                            <circle id="Oval" cx="22.8571429" cy="11.4228571" r="1"></circle>
                            <circle id="Oval" cx="27.755102" cy="11.4228571" r="1"></circle>
                            <circle id="Oval" cx="30.2040816" cy="8.97387755" r="1"></circle>
                        </g>
                        <path d="M27.2457143,39.2 C24.9640816,39.2 20.4644898,38.755102 15.3591837,35.8514286 C14.9061224,36.2187755 14.1681633,36.6546939 13.1706122,36.722449 C11.644898,36.8204082 10.0734694,36.0636735 8.47020408,34.4604082 C8.12244898,34.1126531 7.68816327,34.0073469 7.27918367,34.1787755 C6.52244898,34.4938776 5.71428571,35.7616327 5.71428571,38.3804082 C5.71428571,38.8318367 5.34857143,39.1967347 4.89795918,39.1967347 C4.44734694,39.1967347 4.08163265,38.8318367 4.08163265,38.3804082 C4.08163265,34.1902041 5.88081633,32.9926531 6.65469388,32.6718367 C7.67428571,32.2522449 8.81142857,32.4938776 9.62530612,33.3077551 C10.8522449,34.5346939 12.0383673,35.1640816 13.035102,35.0955102 C14.0212245,35.0408163 14.5706122,34.3640816 14.5942857,34.3346939 L15.0391837,33.7763265 L15.6571429,34.1346939 C22.5755102,38.2734694 28.5338776,37.5061224 28.5934694,37.4963265 L28.6612245,37.4865306 L28.7314286,37.4881633 C35.7991837,37.7257143 42.2040816,33.3983673 45.0865306,26.5273469 C47.3853061,21.0473469 47.5012245,12.9477551 40.9314286,6.64816327 C37.6571429,3.50857143 34.4636735,2.11183673 31.437551,2.50530612 C26.9820408,3.08081633 24.2930612,7.39346939 24.2661224,7.43755102 L23.9771429,7.90857143 L23.4310204,7.81632653 C17.8138776,6.84979592 16.7281633,2.08 16.6840816,1.87755102 C16.5893878,1.43673469 16.8702041,1.00244898 17.3110204,0.907755102 C17.7518367,0.808163265 18.1836735,1.0922449 18.28,1.53142857 C18.3159184,1.69142857 19.1404082,5.1477551 23.1967347,6.10367347 C24.1093878,4.82612245 26.8946939,1.45387755 31.2138776,0.888163265 C34.7542857,0.425306122 38.4073469,1.96653061 42.0612245,5.47020408 C48.0571429,11.2187755 49.7934694,19.5297959 46.5926531,27.1583673 C43.4555102,34.6359184 36.4432653,39.2946939 28.7485714,39.1216327 C28.555102,39.1469388 28.0326531,39.2 27.2457143,39.2 Z" id="Shape" fill="#CF8C6D"></path>
                        <path d="M0.816326531,39.1967347 C0.365714286,39.1967347 0,38.8318367 0,38.3804082 C0,32.7191837 1.48,28.9697959 4.39836735,27.2359184 C8.20734694,24.9738776 13.1755102,26.9297959 14.8522449,27.7134694 C17.1461224,25.4587755 20.0718367,25.6302041 21.5044898,25.8938776 C22.2106122,23.8653061 24.3085714,22.6636735 25.3061224,22.1926531 L25.3061224,18.7183673 C23.2734694,17.4579592 22.6857143,15.2073469 22.5167347,14.0922449 C12.3559184,11.9363265 10.8881633,4.48897959 10.8293878,4.16734694 C10.7485714,3.72408163 11.0432653,3.29959184 11.4865306,3.21877551 C11.9306122,3.13306122 12.3534694,3.43183673 12.435102,3.87265306 C12.4881633,4.15673469 13.8620408,10.8359184 23.4138776,12.6065306 L24.0604082,12.7265306 L24.0808163,13.3844898 C24.0816327,13.4114286 24.2171429,16.3869388 26.4840816,17.5077551 L26.9387755,17.7314286 L26.9387755,23.2938776 L26.4073469,23.4930612 C26.3746939,23.5053061 23.1942857,24.7216327 22.9191837,26.9763265 L22.7983673,27.9681633 L21.8506122,27.6514286 C21.6987755,27.6032653 18.042449,26.4506122 15.6546939,29.2440816 L15.2261224,29.7461224 L14.644898,29.4310204 C14.5885714,29.4 8.97795918,26.4089796 5.22938776,28.6408163 C2.84244898,30.0620408 1.63265306,33.3387755 1.63265306,38.3804082 C1.63265306,38.8310204 1.26693878,39.1967347 0.816326531,39.1967347 Z" id="Shape" fill="#CF8C6D"></path>
                    </g>
                </g>
            </g>
        </g>
    </g>
</svg>