<?xml version="1.0" encoding="UTF-8"?>
<svg width="25px" height="24px" viewBox="0 0 25 24" version="1.1" xmlns="http://www.w3.org/2000/svg" xmlns:xlink="http://www.w3.org/1999/xlink">
    <!-- Generator: Sketch 50.2 (55047) - http://www.bohemiancoding.com/sketch -->
    <title>tag-icon</title>
    <desc>Created with Sketch.</desc>
    <defs></defs>
    <g id="New" stroke="none" stroke-width="1" fill="none" fill-rule="evenodd">
        <g id="Paso_4" transform="translate(-768.000000, -600.000000)" fill="#EC0000">
            <g id="Group-5" transform="translate(768.000000, 600.000000)">
                <g id="tag-icon">
                    <g id="tag-with-cord-black-marketing-tool-symbol-for-commerce">
                        <path d="M24.3625062,14.5499281 L12.4650466,2.65246847 L7.84812194,2.65246847 C7.93693216,2.83004249 7.93693216,3.00761652 8.02569596,3.18519054 C8.38084401,4.87212056 8.64722826,5.84880091 8.91356609,6.20394896 C9.44628816,6.38152298 9.89024643,6.91424506 9.89024643,7.44696713 C9.89024643,8.15726323 9.26871414,8.77879553 8.55841804,8.77879553 C8.55841804,8.77879553 8.55841804,8.77879553 8.46960781,8.77879553 C6.78267779,8.6899853 6.07233527,7.35820333 5.36203917,3.80672284 C5.27322895,3.36281099 5.09570135,3.00766294 4.91812732,2.74127869 C4.20783122,2.91885272 3.58629893,3.62914882 3.58629893,4.42820871 L3.58629893,11.5311697 L15.483805,23.4286293 C16.1941011,24.1389254 17.348309,24.1389254 17.9698413,23.4286293 L24.3625062,17.0359645 C25.0728023,16.4144322 25.0728023,15.2602242 24.3625062,14.5499281 Z" id="Shape" fill-rule="nonzero"></path>
                        <path d="M6.24995572,3.62910239 C6.96025182,7.26939311 7.49297389,8.068453 8.91356609,8.068453 L8.91356609,7.18058288 C8.02569596,7.18058288 7.75935814,6.73667103 7.04901562,3.45152837 C6.24995572,-0.455100173 2.07694293,-0.987822247 0.47877671,1.5869779 C-0.764195037,3.62910239 0.567586934,7.09181908 2.69847523,7.09181908 L2.69847523,6.20394896 C1.27788303,6.20394896 0.39001291,3.54033859 1.27788303,2.03093617 C2.5209012,0.166432125 5.62842342,0.521580174 6.24995572,3.62910239 Z" id="Shape" fill-rule="nonzero"></path>
                    </g>
                </g>
            </g>
        </g>
    </g>
</svg>