<?xml version="1.0" encoding="UTF-8"?>
<svg width="16px" height="20px" viewBox="0 0 16 20" version="1.1" xmlns="http://www.w3.org/2000/svg" xmlns:xlink="http://www.w3.org/1999/xlink">
    <!-- Generator: Sketch 49.2 (51160) - http://www.bohemiancoding.com/sketch -->
    <title>upload_short</title>
    <desc>Created with Sketch.</desc>
    <defs></defs>
    <g id="Page-1" stroke="none" stroke-width="1" fill="none" fill-rule="evenodd">
        <g id="Carga_docs" transform="translate(-478.000000, -601.000000)" fill="#4E6E82" fill-rule="nonzero">
            <g id="datos-personales" transform="translate(99.000000, 332.000000)">
                <g id="Group-4" transform="translate(357.000000, 177.000000)">
                    <g id="Group-3-Copy" transform="translate(22.000000, 92.000000)">
                        <g id="Group-2">
                            <g id="upload_short">
                                <g id="Group" transform="translate(4.705882, 7.058824)">
                                    <path d="M3.32117647,7.52117647 C3.15882353,7.52117647 3.02705882,7.38941176 3.02705882,7.22705882 L3.02764706,0.592352941 C3.02764706,0.43 3.15941176,0.298235294 3.32176471,0.298235294 C3.48411765,0.298235294 3.61588235,0.43 3.61588235,0.592352941 L3.61529412,7.22705882 C3.61529412,7.38941176 3.48352941,7.52117647 3.32117647,7.52117647 Z" id="Shape"></path>
                                    <path d="M5.85823529,3.42294118 C5.78294118,3.42294118 5.70764706,3.39411765 5.65,3.33705882 L3.32117647,1.00823529 L0.992352941,3.33705882 C0.877647059,3.45176471 0.691176471,3.45176471 0.576470588,3.33705882 C0.461764706,3.22235294 0.461764706,3.03588235 0.576470588,2.92117647 L3.11352941,0.384117647 C3.22823529,0.269411765 3.41470588,0.269411765 3.52941176,0.384117647 L6.06647059,2.92117647 C6.18117647,3.03588235 6.18117647,3.22235294 6.06647059,3.33705882 C6.00882353,3.39411765 5.93352941,3.42294118 5.85823529,3.42294118 Z" id="Shape"></path>
                                </g>
                                <g id="Group">
                                    <path d="M14.4576471,19.5841176 L1.59705882,19.5841176 C0.786470588,19.5841176 0.126470588,18.9247059 0.126470588,18.1135294 L0.126470588,1.47058824 C0.126470588,0.659411765 0.786470588,0 1.59705882,0 L10.9364706,0 C11.0988235,0 11.2305882,0.131764706 11.2305882,0.294117647 C11.2305882,0.456470588 11.0988235,0.588235294 10.9364706,0.588235294 L1.59705882,0.588235294 C1.11058824,0.588235294 0.714705882,0.984117647 0.714705882,1.47058824 L0.714705882,18.1135294 C0.714705882,18.6 1.11058824,18.9958824 1.59705882,18.9958824 L14.4576471,18.9958824 C14.9441176,18.9958824 15.34,18.6 15.34,18.1135294 L15.34,5.12 C15.34,4.95764706 15.4717647,4.82588235 15.6341176,4.82588235 C15.7964706,4.82588235 15.9282353,4.95764706 15.9282353,5.12 L15.9282353,18.1141176 C15.9282353,18.9247059 15.2688235,19.5841176 14.4576471,19.5841176 Z" id="Shape"></path>
                                    <path d="M15.6341176,5.41411765 L10.9364706,5.41411765 C10.7741176,5.41411765 10.6423529,5.28235294 10.6423529,5.12 L10.6423529,0.421764706 C10.6423529,0.259411765 10.7741176,0.127647059 10.9364706,0.127647059 C11.0988235,0.127647059 11.2305882,0.259411765 11.2305882,0.421764706 L11.2305882,4.82529412 L15.6341176,4.82529412 C15.7964706,4.82529412 15.9282353,4.95705882 15.9282353,5.11941176 C15.9282353,5.28176471 15.7970588,5.41411765 15.6341176,5.41411765 Z" id="Shape"></path>
                                    <path d="M15.6341176,5.41411765 C15.5576471,5.41411765 15.4811765,5.38411765 15.4235294,5.32529412 L10.7258824,0.5 C10.6129412,0.384117647 10.6152941,0.197058824 10.7317647,0.0841176471 C10.8476471,-0.0294117647 11.0341176,-0.0264705882 11.1476471,0.09 L15.8452941,4.91529412 C15.9582353,5.03117647 15.9558824,5.21823529 15.8394118,5.33117647 C15.7823529,5.38647059 15.7082353,5.41411765 15.6341176,5.41411765 Z" id="Shape"></path>
                                </g>
                            </g>
                        </g>
                    </g>
                </g>
            </g>
        </g>
    </g>
</svg>