<?xml version="1.0" encoding="UTF-8"?>
<svg width="64px" height="79px" viewBox="0 0 64 79" version="1.1" xmlns="http://www.w3.org/2000/svg" xmlns:xlink="http://www.w3.org/1999/xlink">
    <!-- Generator: Sketch 48.2 (47327) - http://www.bohemiancoding.com/sketch -->
    <title>upload</title>
    <desc>Created with Sketch.</desc>
    <defs></defs>
    <g id="Carga_docs" stroke="none" stroke-width="1" fill="none" fill-rule="evenodd" transform="translate(-231.000000, -536.000000)">
        <g id="datos-personales" transform="translate(99.000000, 332.000000)" fill="#EBEBEB" fill-rule="nonzero">
            <g id="results" transform="translate(37.000000, 175.000000)">
                <g id="upload" transform="translate(95.000000, 29.000000)">
                    <g id="Group" transform="translate(19.823529, 29.235294)">
                        <path d="M12.2847059,29.0847059 C11.6352941,29.0847059 11.1082353,28.5576471 11.1082353,27.9082353 L11.1105882,1.36941176 C11.1105882,0.72 11.6376471,0.192941176 12.2870588,0.192941176 C12.9364706,0.192941176 13.4635294,0.72 13.4635294,1.36941176 L13.4611765,27.9082353 C13.4611765,28.5576471 12.9341176,29.0847059 12.2847059,29.0847059 Z" id="Shape"></path>
                        <path d="M22.4329412,12.6917647 C22.1317647,12.6917647 21.8305882,12.5764706 21.6,12.3482353 L12.2847059,3.03294118 L2.96941176,12.3482353 C2.51058824,12.8070588 1.76470588,12.8070588 1.30588235,12.3482353 C0.847058824,11.8894118 0.847058824,11.1435294 1.30588235,10.6847059 L11.4541176,0.536470588 C11.9129412,0.0776470588 12.6588235,0.0776470588 13.1176471,0.536470588 L23.2658824,10.6847059 C23.7247059,11.1435294 23.7247059,11.8894118 23.2658824,12.3482353 C23.0352941,12.5764706 22.7341176,12.6917647 22.4329412,12.6917647 Z" id="Shape"></path>
                    </g>
                    <g id="Group">
                        <path d="M57.8305882,78.3364706 L6.38823529,78.3364706 C3.14588235,78.3364706 0.505882353,75.6988235 0.505882353,72.4541176 L0.505882353,5.88235294 C0.505882353,2.63764706 3.14588235,0 6.38823529,0 L43.7458824,0 C44.3952941,0 44.9223529,0.527058824 44.9223529,1.17647059 C44.9223529,1.82588235 44.3952941,2.35294118 43.7458824,2.35294118 L6.38823529,2.35294118 C4.44235294,2.35294118 2.85882353,3.93647059 2.85882353,5.88235294 L2.85882353,72.4541176 C2.85882353,74.4 4.44235294,75.9835294 6.38823529,75.9835294 L57.8305882,75.9835294 C59.7764706,75.9835294 61.36,74.4 61.36,72.4541176 L61.36,20.48 C61.36,19.8305882 61.8870588,19.3035294 62.5364706,19.3035294 C63.1858824,19.3035294 63.7129412,19.8305882 63.7129412,20.48 L63.7129412,72.4564706 C63.7129412,75.6988235 61.0752941,78.3364706 57.8305882,78.3364706 Z" id="Shape"></path>
                        <path d="M62.5364706,21.6564706 L43.7458824,21.6564706 C43.0964706,21.6564706 42.5694118,21.1294118 42.5694118,20.48 L42.5694118,1.68705882 C42.5694118,1.03764706 43.0964706,0.510588235 43.7458824,0.510588235 C44.3952941,0.510588235 44.9223529,1.03764706 44.9223529,1.68705882 L44.9223529,19.3011765 L62.5364706,19.3011765 C63.1858824,19.3011765 63.7129412,19.8282353 63.7129412,20.4776471 C63.7129412,21.1270588 63.1882353,21.6564706 62.5364706,21.6564706 Z" id="Shape"></path>
                        <path d="M62.5364706,21.6564706 C62.2305882,21.6564706 61.9247059,21.5364706 61.6941176,21.3011765 L42.9035294,2 C42.4517647,1.53647059 42.4611765,0.788235294 42.9270588,0.336470588 C43.3905882,-0.117647059 44.1364706,-0.105882353 44.5905882,0.36 L63.3811765,19.6611765 C63.8329412,20.1247059 63.8235294,20.8729412 63.3576471,21.3247059 C63.1294118,21.5458824 62.8329412,21.6564706 62.5364706,21.6564706 Z" id="Shape"></path>
                    </g>
                </g>
            </g>
        </g>
    </g>
</svg>