<?xml version="1.0" encoding="UTF-8"?>
<svg width="34px" height="40px" viewBox="0 0 34 40" version="1.1" xmlns="http://www.w3.org/2000/svg" xmlns:xlink="http://www.w3.org/1999/xlink">
    <!-- Generator: Sketch 49.2 (51160) - http://www.bohemiancoding.com/sketch -->
    <title>zurich_doc</title>
    <desc>Created with Sketch.</desc>
    <defs></defs>
    <g id="Page-1" stroke="none" stroke-width="1" fill="none" fill-rule="evenodd">
        <g id="Datos_Clínicos" transform="translate(-379.000000, -496.000000)">
            <g id="datos-personales" transform="translate(99.000000, 389.000000)">
                <g transform="translate(37.000000, 40.000000)" id="Group-5-Copy-3">
                    <g transform="translate(241.000000, 67.000000)">
                        <g id="zurich_doc" transform="translate(2.000000, 0.000000)">
                            <path d="M4.14867187,1.37929688 C4.14867187,0.6175 4.76617187,0 5.52804687,0 L26.2177344,0 L33.1142969,6.8965625 L33.1142969,38.6207031 C33.1142969,39.3825 32.4967969,40 31.735,40 L5.52804687,40 C4.76625,40 4.14875,39.3825 4.14875,38.6207031 L4.14875,1.37929688 L4.14867187,1.37929688 Z" id="Shape" fill="#E4EAF8" fill-rule="nonzero"></path>
                            <path d="M17.5,6 C13.3578975,6 10,9.35789754 10,13.5 C10,15.210024 10.5728935,16.7859806 11.5364468,18.0478558 L17.7712421,9.85421291 L17.1009056,9.85532274 L16.4341206,9.85532274 C15.7218325,9.85532274 15.0548255,9.90459913 14.5742697,9.99893456 C14.2819409,10.0562017 14.0215751,10.1623013 13.8095978,10.3105744 C13.5605523,10.4848175 13.2491343,10.8555003 13.0462577,11.2188582 C13.0227293,11.2610317 12.9887685,11.3254018 12.9448193,11.4117464 L12.5799077,11.3313948 L13.1909793,8.97678238 L21.0006215,8.97678238 L14.7957915,17.2740833 C15.1993252,17.2385688 15.3600284,17.230578 15.68654,17.2308 C15.9386931,17.2308 16.3206961,17.2461156 16.8323271,17.2765249 L17.9348309,17.3420048 C18.3330374,17.3657551 18.6684276,17.3779632 18.9225784,17.3779632 C19.4923644,17.3779632 19.8628252,17.3337921 20.2286247,17.2221433 C20.5138507,17.1351327 20.7846489,17.003951 21.0316967,16.8334813 C21.4665276,16.5336056 21.890926,16.0497203 22.143967,15.5653911 C22.169493,15.5165586 22.2094469,15.4424221 22.2565036,15.3425375 L22.5867886,15.4279943 C22.480467,15.8388529 22.422312,15.9955607 22.2578354,16.3633579 C21.9244429,17.1084968 21.548211,17.6072538 21.0303649,17.9903667 C20.4992009,18.383468 19.9101039,18.5772441 19.2140194,18.5881204 L19.1083637,18.5887863 C18.5927373,18.5887863 18.1936429,18.5457249 16.9597354,18.3568321 C15.7038533,18.1641659 15.065036,18.0991299 14.4337654,18.0991299 C14.0111427,18.0991299 13.6180414,18.1302051 13.2120661,18.195685 C12.6731333,18.2829175 12.4622658,18.3459558 11.9728314,18.5690313 C13.3439137,20.0630827 15.3125277,21 17.5,21 C21.6421025,21 25,17.6421025 25,13.5 C25,9.35789754 21.6421025,6 17.5,6" id="Fill-2" fill="#005194"></path>
                            <g id="Group" transform="translate(4.140625, 0.000000)" fill="#D5DCED" fill-rule="nonzero">
                                <path d="M15.8701562,36.5517187 L0.008046875,36.5517187 L0.008046875,24.1379687 L15.8700781,24.1379687 C17.3935937,24.1379687 18.6286719,25.3730469 18.6286719,26.8965625 L18.6286719,33.793125 C18.62875,35.3166406 17.3936719,36.5517187 15.8701562,36.5517187 Z" id="Shape"></path>
                                <path d="M22.0770313,0 L22.0770313,5.51726562 C22.0770313,6.27898437 22.6946094,6.8965625 23.4563281,6.8965625 L28.9735937,6.8965625 L22.0770313,0 Z" id="Shape"></path>
                            </g>
                            <path d="M20.0107812,35.1724219 L1.39007812,35.1724219 C0.62828125,35.1724219 0.01078125,34.5549219 0.01078125,33.793125 L0.01078125,26.8965625 C0.01078125,26.1347656 0.62828125,25.5172656 1.39007812,25.5172656 L20.0107812,25.5172656 C20.7725781,25.5172656 21.3900781,26.1347656 21.3900781,26.8965625 L21.3900781,33.793125 C21.3900781,34.5549219 20.7725781,35.1724219 20.0107812,35.1724219 Z" id="Shape" fill="#005194" fill-rule="nonzero"></path>
                            <text id="Seguro" font-family="Ubuntu-Regular, Ubuntu" font-size="6" font-weight="normal" fill="#FFFFFF">
                                <tspan x="1" y="32">Seguro</tspan>
                            </text>
                        </g>
                    </g>
                </g>
            </g>
        </g>
    </g>
</svg>